<svg width="768" height="1024" viewBox="0 0 768 1024" fill="none" xmlns="http://www.w3.org/2000/svg">
<path d="M72.84 95.92H76.2L89.16 78.4H98.52L83.22 98.98L99.9 121H90.66L76.98 103.36H72.84V121H64.62V78.4H72.84V95.92ZM111.593 121.6C110.073 121.6 108.653 121.36 107.333 120.88C106.013 120.36 104.873 119.66 103.913 118.78C102.953 117.86 102.193 116.8 101.633 115.6C101.113 114.4 100.853 113.08 100.853 111.64C100.853 110.16 101.173 108.8 101.813 107.56C102.493 106.28 103.413 105.2 104.573 104.32C105.773 103.44 107.193 102.76 108.833 102.28C110.473 101.76 112.273 101.5 114.233 101.5C115.633 101.5 116.993 101.62 118.313 101.86C119.673 102.1 120.873 102.44 121.913 102.88V101.08C121.913 99 121.313 97.4 120.113 96.28C118.953 95.16 117.213 94.6 114.893 94.6C113.213 94.6 111.573 94.9 109.973 95.5C108.373 96.1 106.733 96.98 105.053 98.14L102.593 93.04C106.633 90.36 110.993 89.02 115.673 89.02C120.193 89.02 123.693 90.14 126.173 92.38C128.693 94.58 129.953 97.78 129.953 101.98V111.76C129.953 112.6 130.093 113.2 130.373 113.56C130.693 113.92 131.193 114.12 131.873 114.16V121C130.513 121.28 129.333 121.42 128.333 121.42C126.813 121.42 125.633 121.08 124.793 120.4C123.993 119.72 123.493 118.82 123.293 117.7L123.113 115.96C121.713 117.8 120.013 119.2 118.013 120.16C116.013 121.12 113.873 121.6 111.593 121.6ZM113.873 115.72C115.233 115.72 116.513 115.48 117.713 115C118.953 114.52 119.913 113.88 120.593 113.08C121.473 112.4 121.913 111.64 121.913 110.8V107.2C120.953 106.84 119.913 106.56 118.793 106.36C117.673 106.12 116.593 106 115.553 106C113.473 106 111.773 106.48 110.453 107.44C109.133 108.36 108.473 109.54 108.473 110.98C108.473 112.34 108.993 113.48 110.033 114.4C111.073 115.28 112.353 115.72 113.873 115.72ZM157.117 89.56H165.757L153.517 104.8L166.717 121H157.597L147.877 108.88H145.777V121H137.857V89.56H145.777V102.04H147.577L157.117 89.56ZM212.462 121H204.482V96.52H192.902V121H184.922V89.56H212.462V121ZM238.955 121.6C236.475 121.6 234.315 121.06 232.475 119.98C230.635 118.86 229.195 117.36 228.155 115.48V133.78H220.115V89.56H227.135V94.96C228.295 93.12 229.795 91.68 231.635 90.64C233.475 89.56 235.595 89.02 237.995 89.02C240.115 89.02 242.075 89.46 243.875 90.34C245.675 91.18 247.215 92.34 248.495 93.82C249.815 95.26 250.835 96.98 251.555 98.98C252.315 100.94 252.695 103.02 252.695 105.22C252.695 107.5 252.355 109.64 251.675 111.64C250.995 113.64 250.035 115.38 248.795 116.86C247.595 118.34 246.155 119.5 244.475 120.34C242.795 121.18 240.955 121.6 238.955 121.6ZM236.255 114.76C237.455 114.76 238.555 114.5 239.555 113.98C240.595 113.46 241.475 112.76 242.195 111.88C242.915 111 243.475 109.98 243.875 108.82C244.275 107.66 244.475 106.46 244.475 105.22C244.475 103.9 244.255 102.68 243.815 101.56C243.375 100.4 242.755 99.4 241.955 98.56C241.195 97.72 240.275 97.06 239.195 96.58C238.155 96.1 237.015 95.86 235.775 95.86C235.015 95.86 234.235 96 233.435 96.28C232.635 96.52 231.895 96.88 231.215 97.36C230.535 97.84 229.915 98.4 229.355 99.04C228.835 99.68 228.435 100.38 228.155 101.14V108.52C228.875 110.32 229.975 111.82 231.455 113.02C232.935 114.18 234.535 114.76 236.255 114.76ZM272.755 121.6C270.195 121.6 267.895 121.16 265.855 120.28C263.815 119.4 262.075 118.22 260.635 116.74C259.235 115.22 258.155 113.48 257.395 111.52C256.635 109.56 256.255 107.5 256.255 105.34C256.255 103.14 256.635 101.06 257.395 99.1C258.155 97.14 259.235 95.42 260.635 93.94C262.075 92.42 263.815 91.22 265.855 90.34C267.895 89.46 270.195 89.02 272.755 89.02C275.315 89.02 277.595 89.46 279.595 90.34C281.635 91.22 283.355 92.42 284.755 93.94C286.195 95.42 287.295 97.14 288.055 99.1C288.815 101.06 289.195 103.14 289.195 105.34C289.195 107.5 288.815 109.56 288.055 111.52C287.295 113.48 286.215 115.22 284.815 116.74C283.415 118.22 281.695 119.4 279.655 120.28C277.615 121.16 275.315 121.6 272.755 121.6ZM264.535 105.34C264.535 106.74 264.735 108.02 265.135 109.18C265.575 110.3 266.155 111.28 266.875 112.12C267.635 112.96 268.515 113.62 269.515 114.1C270.515 114.54 271.595 114.76 272.755 114.76C273.915 114.76 274.995 114.54 275.995 114.1C276.995 113.62 277.855 112.96 278.575 112.12C279.335 111.28 279.915 110.28 280.315 109.12C280.755 107.96 280.975 106.68 280.975 105.28C280.975 103.92 280.755 102.66 280.315 101.5C279.915 100.34 279.335 99.34 278.575 98.5C277.855 97.66 276.995 97.02 275.995 96.58C274.995 96.1 273.915 95.86 272.755 95.86C271.595 95.86 270.515 96.1 269.515 96.58C268.515 97.06 267.635 97.72 266.875 98.56C266.155 99.4 265.575 100.4 265.135 101.56C264.735 102.72 264.535 103.98 264.535 105.34ZM319.795 77.2C319.715 79.72 318.775 81.7 316.975 83.14C315.175 84.54 312.815 85.24 309.895 85.24C306.975 85.24 304.615 84.54 302.815 83.14C301.015 81.7 300.075 79.72 299.995 77.2H304.435C304.475 78.72 304.955 79.84 305.875 80.56C306.835 81.28 308.175 81.64 309.895 81.64C313.335 81.64 315.175 80.16 315.415 77.2H319.795ZM302.875 109.54L317.755 89.56H323.695V121H315.715V101.56L301.015 121H294.895V89.56H302.875V109.54ZM346.495 121H338.515V96.52H328.675V89.56H356.275V96.52H346.495V121ZM369.218 109.54L384.098 89.56H390.038V121H382.058V101.56L367.358 121H361.238V89.56H369.218V109.54ZM82.62 185.6C80.14 185.6 77.98 185.06 76.14 183.98C74.3 182.86 72.86 181.36 71.82 179.48V197.78H63.78V153.56H70.8V158.96C71.96 157.12 73.46 155.68 75.3 154.64C77.14 153.56 79.26 153.02 81.66 153.02C83.78 153.02 85.74 153.46 87.54 154.34C89.34 155.18 90.88 156.34 92.16 157.82C93.48 159.26 94.5 160.98 95.22 162.98C95.98 164.94 96.36 167.02 96.36 169.22C96.36 171.5 96.02 173.64 95.34 175.64C94.66 177.64 93.7 179.38 92.46 180.86C91.26 182.34 89.82 183.5 88.14 184.34C86.46 185.18 84.62 185.6 82.62 185.6ZM79.92 178.76C81.12 178.76 82.22 178.5 83.22 177.98C84.26 177.46 85.14 176.76 85.86 175.88C86.58 175 87.14 173.98 87.54 172.82C87.94 171.66 88.14 170.46 88.14 169.22C88.14 167.9 87.92 166.68 87.48 165.56C87.04 164.4 86.42 163.4 85.62 162.56C84.86 161.72 83.94 161.06 82.86 160.58C81.82 160.1 80.68 159.86 79.44 159.86C78.68 159.86 77.9 160 77.1 160.28C76.3 160.52 75.56 160.88 74.88 161.36C74.2 161.84 73.58 162.4 73.02 163.04C72.5 163.68 72.1 164.38 71.82 165.14V172.52C72.54 174.32 73.64 175.82 75.12 177.02C76.6 178.18 78.2 178.76 79.92 178.76ZM116.48 185.6C113.96 185.6 111.68 185.18 109.64 184.34C107.6 183.46 105.86 182.28 104.42 180.8C102.98 179.32 101.86 177.6 101.06 175.64C100.3 173.68 99.9196 171.62 99.9196 169.46C99.9196 167.22 100.3 165.12 101.06 163.16C101.82 161.16 102.92 159.42 104.36 157.94C105.8 156.42 107.54 155.22 109.58 154.34C111.66 153.46 113.98 153.02 116.54 153.02C119.1 153.02 121.38 153.46 123.38 154.34C125.42 155.22 127.14 156.4 128.54 157.88C129.98 159.36 131.06 161.08 131.78 163.04C132.54 165 132.92 167.04 132.92 169.16C132.92 169.68 132.9 170.18 132.86 170.66C132.86 171.14 132.82 171.54 132.74 171.86H108.44C108.56 173.1 108.86 174.2 109.34 175.16C109.82 176.12 110.44 176.94 111.2 177.62C111.96 178.3 112.82 178.82 113.78 179.18C114.74 179.54 115.74 179.72 116.78 179.72C118.38 179.72 119.88 179.34 121.28 178.58C122.72 177.78 123.7 176.74 124.22 175.46L131.12 177.38C129.96 179.78 128.1 181.76 125.54 183.32C123.02 184.84 120 185.6 116.48 185.6ZM124.64 166.64C124.44 164.28 123.56 162.4 122 161C120.48 159.56 118.62 158.84 116.42 158.84C115.34 158.84 114.32 159.04 113.36 159.44C112.44 159.8 111.62 160.32 110.9 161C110.18 161.68 109.58 162.5 109.1 163.46C108.66 164.42 108.4 165.48 108.32 166.64H124.64ZM159.211 160.22H146.071V185H138.091V153.56H159.211V160.22ZM172.065 173.54L186.945 153.56H192.885V185H184.905V165.56L170.205 185H164.085V153.56H172.065V173.54ZM198.525 169.28C198.525 167.08 198.905 165 199.665 163.04C200.425 161.08 201.525 159.36 202.965 157.88C204.405 156.4 206.145 155.22 208.185 154.34C210.225 153.46 212.525 153.02 215.085 153.02C218.525 153.02 221.445 153.76 223.845 155.24C226.285 156.72 228.105 158.66 229.305 161.06L221.445 163.46C220.765 162.3 219.865 161.42 218.745 160.82C217.625 160.18 216.385 159.86 215.025 159.86C213.865 159.86 212.785 160.1 211.785 160.58C210.785 161.02 209.905 161.66 209.145 162.5C208.425 163.3 207.845 164.28 207.405 165.44C207.005 166.6 206.805 167.88 206.805 169.28C206.805 170.68 207.025 171.96 207.465 173.12C207.905 174.28 208.485 175.28 209.205 176.12C209.965 176.96 210.845 177.62 211.845 178.1C212.845 178.54 213.905 178.76 215.025 178.76C216.465 178.76 217.785 178.4 218.985 177.68C220.225 176.96 221.085 176.08 221.565 175.04L229.425 177.44C228.345 179.84 226.565 181.8 224.085 183.32C221.605 184.84 218.625 185.6 215.145 185.6C212.585 185.6 210.285 185.16 208.245 184.28C206.205 183.4 204.465 182.22 203.025 180.74C201.585 179.22 200.465 177.48 199.665 175.52C198.905 173.52 198.525 171.44 198.525 169.28ZM249.706 185H241.726V160.52H231.886V153.56H259.486V160.52H249.706V185ZM283.288 185.6C280.808 185.6 278.648 185.06 276.808 183.98C274.968 182.86 273.528 181.36 272.488 179.48V197.78H264.448V153.56H271.468V158.96C272.628 157.12 274.128 155.68 275.968 154.64C277.808 153.56 279.928 153.02 282.328 153.02C284.448 153.02 286.408 153.46 288.208 154.34C290.008 155.18 291.548 156.34 292.828 157.82C294.148 159.26 295.168 160.98 295.888 162.98C296.648 164.94 297.028 167.02 297.028 169.22C297.028 171.5 296.688 173.64 296.008 175.64C295.328 177.64 294.368 179.38 293.128 180.86C291.928 182.34 290.488 183.5 288.808 184.34C287.128 185.18 285.288 185.6 283.288 185.6ZM280.588 178.76C281.788 178.76 282.888 178.5 283.888 177.98C284.928 177.46 285.808 176.76 286.528 175.88C287.248 175 287.808 173.98 288.208 172.82C288.608 171.66 288.808 170.46 288.808 169.22C288.808 167.9 288.588 166.68 288.148 165.56C287.708 164.4 287.088 163.4 286.288 162.56C285.528 161.72 284.608 161.06 283.528 160.58C282.488 160.1 281.348 159.86 280.108 159.86C279.348 159.86 278.568 160 277.768 160.28C276.968 160.52 276.228 160.88 275.548 161.36C274.868 161.84 274.248 162.4 273.688 163.04C273.168 163.68 272.768 164.38 272.488 165.14V172.52C273.208 174.32 274.308 175.82 275.788 177.02C277.268 178.18 278.868 178.76 280.588 178.76ZM311.148 185.6C309.628 185.6 308.208 185.36 306.888 184.88C305.568 184.36 304.428 183.66 303.468 182.78C302.508 181.86 301.748 180.8 301.188 179.6C300.668 178.4 300.408 177.08 300.408 175.64C300.408 174.16 300.728 172.8 301.368 171.56C302.048 170.28 302.968 169.2 304.128 168.32C305.328 167.44 306.748 166.76 308.388 166.28C310.028 165.76 311.828 165.5 313.788 165.5C315.188 165.5 316.548 165.62 317.868 165.86C319.228 166.1 320.428 166.44 321.468 166.88V165.08C321.468 163 320.868 161.4 319.668 160.28C318.508 159.16 316.768 158.6 314.448 158.6C312.768 158.6 311.128 158.9 309.528 159.5C307.928 160.1 306.288 160.98 304.608 162.14L302.148 157.04C306.188 154.36 310.548 153.02 315.228 153.02C319.748 153.02 323.248 154.14 325.728 156.38C328.248 158.58 329.508 161.78 329.508 165.98V175.76C329.508 176.6 329.648 177.2 329.928 177.56C330.248 177.92 330.748 178.12 331.428 178.16V185C330.068 185.28 328.888 185.42 327.888 185.42C326.368 185.42 325.188 185.08 324.348 184.4C323.548 183.72 323.048 182.82 322.848 181.7L322.668 179.96C321.268 181.8 319.568 183.2 317.568 184.16C315.568 185.12 313.428 185.6 311.148 185.6ZM313.428 179.72C314.788 179.72 316.068 179.48 317.268 179C318.508 178.52 319.468 177.88 320.148 177.08C321.028 176.4 321.468 175.64 321.468 174.8V171.2C320.508 170.84 319.468 170.56 318.348 170.36C317.228 170.12 316.148 170 315.108 170C313.028 170 311.328 170.48 310.008 171.44C308.688 172.36 308.028 173.54 308.028 174.98C308.028 176.34 308.548 177.48 309.588 178.4C310.628 179.28 311.908 179.72 313.428 179.72ZM337.412 153.56H345.392V178.04H355.832V153.56H363.812V178.04H368.972V194H361.892V185H337.412V153.56ZM382.05 173.54L396.93 153.56H402.87V185H394.89V165.56L380.19 185H374.07V153.56H382.05V173.54ZM422.73 165.56C423.05 163.64 423.63 161.9 424.47 160.34C425.35 158.78 426.41 157.46 427.65 156.38C428.93 155.26 430.37 154.42 431.97 153.86C433.61 153.26 435.37 152.96 437.25 152.96C439.49 152.96 441.53 153.38 443.37 154.22C445.21 155.02 446.77 156.14 448.05 157.58C449.37 159.02 450.37 160.76 451.05 162.8C451.77 164.8 452.13 167 452.13 169.4C452.13 171.92 451.75 174.2 450.99 176.24C450.23 178.24 449.19 179.94 447.87 181.34C446.55 182.7 444.97 183.76 443.13 184.52C441.33 185.24 439.35 185.6 437.19 185.6C435.19 185.6 433.37 185.3 431.73 184.7C430.09 184.06 428.63 183.18 427.35 182.06C426.11 180.9 425.07 179.52 424.23 177.92C423.43 176.32 422.89 174.52 422.61 172.52H418.53V185H410.55V153.56H418.53V165.56H422.73ZM430.11 169.28C430.11 172.4 430.73 174.74 431.97 176.3C433.25 177.82 434.97 178.58 437.13 178.58C439.41 178.58 441.19 177.78 442.47 176.18C443.75 174.54 444.39 172.22 444.39 169.22C444.39 166.18 443.73 163.88 442.41 162.32C441.09 160.76 439.35 159.98 437.19 159.98C434.95 159.98 433.21 160.8 431.97 162.44C430.73 164.04 430.11 166.32 430.11 169.28ZM460.124 171.02C460.124 169.06 460.444 167.3 461.084 165.74C461.724 164.18 463.044 162.82 465.044 161.66C465.644 161.3 466.384 160.9 467.264 160.46C468.144 159.98 469.004 159.42 469.844 158.78C470.684 158.14 471.384 157.4 471.944 156.56C472.544 155.68 472.844 154.68 472.844 153.56C472.844 152.72 472.684 151.98 472.364 151.34C472.044 150.7 471.624 150.16 471.104 149.72C470.584 149.28 469.964 148.96 469.244 148.76C468.564 148.52 467.864 148.4 467.144 148.4C466.264 148.4 465.464 148.56 464.744 148.88C464.024 149.16 463.364 149.54 462.764 150.02C462.204 150.46 461.684 150.98 461.204 151.58C460.764 152.14 460.384 152.68 460.064 153.2L454.844 149.6C455.364 148.36 456.044 147.26 456.884 146.3C457.764 145.34 458.744 144.54 459.824 143.9C460.944 143.22 462.144 142.72 463.424 142.4C464.704 142.04 466.024 141.86 467.384 141.86C468.904 141.86 470.404 142.08 471.884 142.52C473.364 142.96 474.684 143.66 475.844 144.62C477.044 145.58 478.004 146.82 478.724 148.34C479.484 149.82 479.864 151.6 479.864 153.68C479.864 154.96 479.704 156.1 479.384 157.1C479.104 158.06 478.684 158.94 478.124 159.74C477.564 160.54 476.904 161.26 476.144 161.9C475.384 162.54 474.524 163.16 473.564 163.76C472.764 164.24 471.964 164.7 471.164 165.14C470.364 165.58 469.624 166.08 468.944 166.64C468.304 167.16 467.764 167.78 467.324 168.5C466.924 169.18 466.724 170.02 466.724 171.02H460.124ZM460.244 185V176.72H466.904V185H460.244Z" fill="black"/>
</svg>
