<svg width="768" height="1024" viewBox="0 0 768 1024" fill="none" xmlns="http://www.w3.org/2000/svg">
<path d="M72.84 95.92H76.2L89.16 78.4H98.52L83.22 98.98L99.9 121H90.66L76.98 103.36H72.84V121H64.62V78.4H72.84V95.92ZM111.593 121.6C110.073 121.6 108.653 121.36 107.333 120.88C106.013 120.36 104.873 119.66 103.913 118.78C102.953 117.86 102.193 116.8 101.633 115.6C101.113 114.4 100.853 113.08 100.853 111.64C100.853 110.16 101.173 108.8 101.813 107.56C102.493 106.28 103.413 105.2 104.573 104.32C105.773 103.44 107.193 102.76 108.833 102.28C110.473 101.76 112.273 101.5 114.233 101.5C115.633 101.5 116.993 101.62 118.313 101.86C119.673 102.1 120.873 102.44 121.913 102.88V101.08C121.913 99 121.313 97.4 120.113 96.28C118.953 95.16 117.213 94.6 114.893 94.6C113.213 94.6 111.573 94.9 109.973 95.5C108.373 96.1 106.733 96.98 105.053 98.14L102.593 93.04C106.633 90.36 110.993 89.02 115.673 89.02C120.193 89.02 123.693 90.14 126.173 92.38C128.693 94.58 129.953 97.78 129.953 101.98V111.76C129.953 112.6 130.093 113.2 130.373 113.56C130.693 113.92 131.193 114.12 131.873 114.16V121C130.513 121.28 129.333 121.42 128.333 121.42C126.813 121.42 125.633 121.08 124.793 120.4C123.993 119.72 123.493 118.82 123.293 117.7L123.113 115.96C121.713 117.8 120.013 119.2 118.013 120.16C116.013 121.12 113.873 121.6 111.593 121.6ZM113.873 115.72C115.233 115.72 116.513 115.48 117.713 115C118.953 114.52 119.913 113.88 120.593 113.08C121.473 112.4 121.913 111.64 121.913 110.8V107.2C120.953 106.84 119.913 106.56 118.793 106.36C117.673 106.12 116.593 106 115.553 106C113.473 106 111.773 106.48 110.453 107.44C109.133 108.36 108.473 109.54 108.473 110.98C108.473 112.34 108.993 113.48 110.033 114.4C111.073 115.28 112.353 115.72 113.873 115.72ZM157.117 89.56H165.757L153.517 104.8L166.717 121H157.597L147.877 108.88H145.777V121H137.857V89.56H145.777V102.04H147.577L157.117 89.56ZM212.462 121H204.482V96.52H192.902V121H184.922V89.56H212.462V121ZM238.955 121.6C236.475 121.6 234.315 121.06 232.475 119.98C230.635 118.86 229.195 117.36 228.155 115.48V133.78H220.115V89.56H227.135V94.96C228.295 93.12 229.795 91.68 231.635 90.64C233.475 89.56 235.595 89.02 237.995 89.02C240.115 89.02 242.075 89.46 243.875 90.34C245.675 91.18 247.215 92.34 248.495 93.82C249.815 95.26 250.835 96.98 251.555 98.98C252.315 100.94 252.695 103.02 252.695 105.22C252.695 107.5 252.355 109.64 251.675 111.64C250.995 113.64 250.035 115.38 248.795 116.86C247.595 118.34 246.155 119.5 244.475 120.34C242.795 121.18 240.955 121.6 238.955 121.6ZM236.255 114.76C237.455 114.76 238.555 114.5 239.555 113.98C240.595 113.46 241.475 112.76 242.195 111.88C242.915 111 243.475 109.98 243.875 108.82C244.275 107.66 244.475 106.46 244.475 105.22C244.475 103.9 244.255 102.68 243.815 101.56C243.375 100.4 242.755 99.4 241.955 98.56C241.195 97.72 240.275 97.06 239.195 96.58C238.155 96.1 237.015 95.86 235.775 95.86C235.015 95.86 234.235 96 233.435 96.28C232.635 96.52 231.895 96.88 231.215 97.36C230.535 97.84 229.915 98.4 229.355 99.04C228.835 99.68 228.435 100.38 228.155 101.14V108.52C228.875 110.32 229.975 111.82 231.455 113.02C232.935 114.18 234.535 114.76 236.255 114.76ZM272.755 121.6C270.195 121.6 267.895 121.16 265.855 120.28C263.815 119.4 262.075 118.22 260.635 116.74C259.235 115.22 258.155 113.48 257.395 111.52C256.635 109.56 256.255 107.5 256.255 105.34C256.255 103.14 256.635 101.06 257.395 99.1C258.155 97.14 259.235 95.42 260.635 93.94C262.075 92.42 263.815 91.22 265.855 90.34C267.895 89.46 270.195 89.02 272.755 89.02C275.315 89.02 277.595 89.46 279.595 90.34C281.635 91.22 283.355 92.42 284.755 93.94C286.195 95.42 287.295 97.14 288.055 99.1C288.815 101.06 289.195 103.14 289.195 105.34C289.195 107.5 288.815 109.56 288.055 111.52C287.295 113.48 286.215 115.22 284.815 116.74C283.415 118.22 281.695 119.4 279.655 120.28C277.615 121.16 275.315 121.6 272.755 121.6ZM264.535 105.34C264.535 106.74 264.735 108.02 265.135 109.18C265.575 110.3 266.155 111.28 266.875 112.12C267.635 112.96 268.515 113.62 269.515 114.1C270.515 114.54 271.595 114.76 272.755 114.76C273.915 114.76 274.995 114.54 275.995 114.1C276.995 113.62 277.855 112.96 278.575 112.12C279.335 111.28 279.915 110.28 280.315 109.12C280.755 107.96 280.975 106.68 280.975 105.28C280.975 103.92 280.755 102.66 280.315 101.5C279.915 100.34 279.335 99.34 278.575 98.5C277.855 97.66 276.995 97.02 275.995 96.58C274.995 96.1 273.915 95.86 272.755 95.86C271.595 95.86 270.515 96.1 269.515 96.58C268.515 97.06 267.635 97.72 266.875 98.56C266.155 99.4 265.575 100.4 265.135 101.56C264.735 102.72 264.535 103.98 264.535 105.34ZM319.795 77.2C319.715 79.72 318.775 81.7 316.975 83.14C315.175 84.54 312.815 85.24 309.895 85.24C306.975 85.24 304.615 84.54 302.815 83.14C301.015 81.7 300.075 79.72 299.995 77.2H304.435C304.475 78.72 304.955 79.84 305.875 80.56C306.835 81.28 308.175 81.64 309.895 81.64C313.335 81.64 315.175 80.16 315.415 77.2H319.795ZM302.875 109.54L317.755 89.56H323.695V121H315.715V101.56L301.015 121H294.895V89.56H302.875V109.54ZM346.495 121H338.515V96.52H328.675V89.56H356.275V96.52H346.495V121ZM369.218 109.54L384.098 89.56H390.038V121H382.058V101.56L367.358 121H361.238V89.56H369.218V109.54ZM82.62 185.6C80.14 185.6 77.98 185.06 76.14 183.98C74.3 182.86 72.86 181.36 71.82 179.48V197.78H63.78V153.56H70.8V158.96C71.96 157.12 73.46 155.68 75.3 154.64C77.14 153.56 79.26 153.02 81.66 153.02C83.78 153.02 85.74 153.46 87.54 154.34C89.34 155.18 90.88 156.34 92.16 157.82C93.48 159.26 94.5 160.98 95.22 162.98C95.98 164.94 96.36 167.02 96.36 169.22C96.36 171.5 96.02 173.64 95.34 175.64C94.66 177.64 93.7 179.38 92.46 180.86C91.26 182.34 89.82 183.5 88.14 184.34C86.46 185.18 84.62 185.6 82.62 185.6ZM79.92 178.76C81.12 178.76 82.22 178.5 83.22 177.98C84.26 177.46 85.14 176.76 85.86 175.88C86.58 175 87.14 173.98 87.54 172.82C87.94 171.66 88.14 170.46 88.14 169.22C88.14 167.9 87.92 166.68 87.48 165.56C87.04 164.4 86.42 163.4 85.62 162.56C84.86 161.72 83.94 161.06 82.86 160.58C81.82 160.1 80.68 159.86 79.44 159.86C78.68 159.86 77.9 160 77.1 160.28C76.3 160.52 75.56 160.88 74.88 161.36C74.2 161.84 73.58 162.4 73.02 163.04C72.5 163.68 72.1 164.38 71.82 165.14V172.52C72.54 174.32 73.64 175.82 75.12 177.02C76.6 178.18 78.2 178.76 79.92 178.76ZM116.48 185.6C113.96 185.6 111.68 185.18 109.64 184.34C107.6 183.46 105.86 182.28 104.42 180.8C102.98 179.32 101.86 177.6 101.06 175.64C100.3 173.68 99.9196 171.62 99.9196 169.46C99.9196 167.22 100.3 165.12 101.06 163.16C101.82 161.16 102.92 159.42 104.36 157.94C105.8 156.42 107.54 155.22 109.58 154.34C111.66 153.46 113.98 153.02 116.54 153.02C119.1 153.02 121.38 153.46 123.38 154.34C125.42 155.22 127.14 156.4 128.54 157.88C129.98 159.36 131.06 161.08 131.78 163.04C132.54 165 132.92 167.04 132.92 169.16C132.92 169.68 132.9 170.18 132.86 170.66C132.86 171.14 132.82 171.54 132.74 171.86H108.44C108.56 173.1 108.86 174.2 109.34 175.16C109.82 176.12 110.44 176.94 111.2 177.62C111.96 178.3 112.82 178.82 113.78 179.18C114.74 179.54 115.74 179.72 116.78 179.72C118.38 179.72 119.88 179.34 121.28 178.58C122.72 177.78 123.7 176.74 124.22 175.46L131.12 177.38C129.96 179.78 128.1 181.76 125.54 183.32C123.02 184.84 120 185.6 116.48 185.6ZM124.64 166.64C124.44 164.28 123.56 162.4 122 161C120.48 159.56 118.62 158.84 116.42 158.84C115.34 158.84 114.32 159.04 113.36 159.44C112.44 159.8 111.62 160.32 110.9 161C110.18 161.68 109.58 162.5 109.1 163.46C108.66 164.42 108.4 165.48 108.32 166.64H124.64ZM159.211 160.22H146.071V185H138.091V153.56H159.211V160.22ZM172.065 173.54L186.945 153.56H192.885V185H184.905V165.56L170.205 185H164.085V153.56H172.065V173.54ZM198.525 169.28C198.525 167.08 198.905 165 199.665 163.04C200.425 161.08 201.525 159.36 202.965 157.88C204.405 156.4 206.145 155.22 208.185 154.34C210.225 153.46 212.525 153.02 215.085 153.02C218.525 153.02 221.445 153.76 223.845 155.24C226.285 156.72 228.105 158.66 229.305 161.06L221.445 163.46C220.765 162.3 219.865 161.42 218.745 160.82C217.625 160.18 216.385 159.86 215.025 159.86C213.865 159.86 212.785 160.1 211.785 160.58C210.785 161.02 209.905 161.66 209.145 162.5C208.425 163.3 207.845 164.28 207.405 165.44C207.005 166.6 206.805 167.88 206.805 169.28C206.805 170.68 207.025 171.96 207.465 173.12C207.905 174.28 208.485 175.28 209.205 176.12C209.965 176.96 210.845 177.62 211.845 178.1C212.845 178.54 213.905 178.76 215.025 178.76C216.465 178.76 217.785 178.4 218.985 177.68C220.225 176.96 221.085 176.08 221.565 175.04L229.425 177.44C228.345 179.84 226.565 181.8 224.085 183.32C221.605 184.84 218.625 185.6 215.145 185.6C212.585 185.6 210.285 185.16 208.245 184.28C206.205 183.4 204.465 182.22 203.025 180.74C201.585 179.22 200.465 177.48 199.665 175.52C198.905 173.52 198.525 171.44 198.525 169.28ZM249.706 185H241.726V160.52H231.886V153.56H259.486V160.52H249.706V185ZM283.288 185.6C280.808 185.6 278.648 185.06 276.808 183.98C274.968 182.86 273.528 181.36 272.488 179.48V197.78H264.448V153.56H271.468V158.96C272.628 157.12 274.128 155.68 275.968 154.64C277.808 153.56 279.928 153.02 282.328 153.02C284.448 153.02 286.408 153.46 288.208 154.34C290.008 155.18 291.548 156.34 292.828 157.82C294.148 159.26 295.168 160.98 295.888 162.98C296.648 164.94 297.028 167.02 297.028 169.22C297.028 171.5 296.688 173.64 296.008 175.64C295.328 177.64 294.368 179.38 293.128 180.86C291.928 182.34 290.488 183.5 288.808 184.34C287.128 185.18 285.288 185.6 283.288 185.6ZM280.588 178.76C281.788 178.76 282.888 178.5 283.888 177.98C284.928 177.46 285.808 176.76 286.528 175.88C287.248 175 287.808 173.98 288.208 172.82C288.608 171.66 288.808 170.46 288.808 169.22C288.808 167.9 288.588 166.68 288.148 165.56C287.708 164.4 287.088 163.4 286.288 162.56C285.528 161.72 284.608 161.06 283.528 160.58C282.488 160.1 281.348 159.86 280.108 159.86C279.348 159.86 278.568 160 277.768 160.28C276.968 160.52 276.228 160.88 275.548 161.36C274.868 161.84 274.248 162.4 273.688 163.04C273.168 163.68 272.768 164.38 272.488 165.14V172.52C273.208 174.32 274.308 175.82 275.788 177.02C277.268 178.18 278.868 178.76 280.588 178.76ZM311.148 185.6C309.628 185.6 308.208 185.36 306.888 184.88C305.568 184.36 304.428 183.66 303.468 182.78C302.508 181.86 301.748 180.8 301.188 179.6C300.668 178.4 300.408 177.08 300.408 175.64C300.408 174.16 300.728 172.8 301.368 171.56C302.048 170.28 302.968 169.2 304.128 168.32C305.328 167.44 306.748 166.76 308.388 166.28C310.028 165.76 311.828 165.5 313.788 165.5C315.188 165.5 316.548 165.62 317.868 165.86C319.228 166.1 320.428 166.44 321.468 166.88V165.08C321.468 163 320.868 161.4 319.668 160.28C318.508 159.16 316.768 158.6 314.448 158.6C312.768 158.6 311.128 158.9 309.528 159.5C307.928 160.1 306.288 160.98 304.608 162.14L302.148 157.04C306.188 154.36 310.548 153.02 315.228 153.02C319.748 153.02 323.248 154.14 325.728 156.38C328.248 158.58 329.508 161.78 329.508 165.98V175.76C329.508 176.6 329.648 177.2 329.928 177.56C330.248 177.92 330.748 178.12 331.428 178.16V185C330.068 185.28 328.888 185.42 327.888 185.42C326.368 185.42 325.188 185.08 324.348 184.4C323.548 183.72 323.048 182.82 322.848 181.7L322.668 179.96C321.268 181.8 319.568 183.2 317.568 184.16C315.568 185.12 313.428 185.6 311.148 185.6ZM313.428 179.72C314.788 179.72 316.068 179.48 317.268 179C318.508 178.52 319.468 177.88 320.148 177.08C321.028 176.4 321.468 175.64 321.468 174.8V171.2C320.508 170.84 319.468 170.56 318.348 170.36C317.228 170.12 316.148 170 315.108 170C313.028 170 311.328 170.48 310.008 171.44C308.688 172.36 308.028 173.54 308.028 174.98C308.028 176.34 308.548 177.48 309.588 178.4C310.628 179.28 311.908 179.72 313.428 179.72ZM337.412 153.56H345.392V178.04H355.832V153.56H363.812V178.04H368.972V194H361.892V185H337.412V153.56ZM382.05 173.54L396.93 153.56H402.87V185H394.89V165.56L380.19 185H374.07V153.56H382.05V173.54ZM422.73 165.56C423.05 163.64 423.63 161.9 424.47 160.34C425.35 158.78 426.41 157.46 427.65 156.38C428.93 155.26 430.37 154.42 431.97 153.86C433.61 153.26 435.37 152.96 437.25 152.96C439.49 152.96 441.53 153.38 443.37 154.22C445.21 155.02 446.77 156.14 448.05 157.58C449.37 159.02 450.37 160.76 451.05 162.8C451.77 164.8 452.13 167 452.13 169.4C452.13 171.92 451.75 174.2 450.99 176.24C450.23 178.24 449.19 179.94 447.87 181.34C446.55 182.7 444.97 183.76 443.13 184.52C441.33 185.24 439.35 185.6 437.19 185.6C435.19 185.6 433.37 185.3 431.73 184.7C430.09 184.06 428.63 183.18 427.35 182.06C426.11 180.9 425.07 179.52 424.23 177.92C423.43 176.32 422.89 174.52 422.61 172.52H418.53V185H410.55V153.56H418.53V165.56H422.73ZM430.11 169.28C430.11 172.4 430.73 174.74 431.97 176.3C433.25 177.82 434.97 178.58 437.13 178.58C439.41 178.58 441.19 177.78 442.47 176.18C443.75 174.54 444.39 172.22 444.39 169.22C444.39 166.18 443.73 163.88 442.41 162.32C441.09 160.76 439.35 159.98 437.19 159.98C434.95 159.98 433.21 160.8 431.97 162.44C430.73 164.04 430.11 166.32 430.11 169.28ZM458.473 191.9L460.093 184.76H457.573V176.36H464.533V184.76L462.073 191.9H458.473ZM501 185.6C498.48 185.6 496.2 185.18 494.16 184.34C492.12 183.46 490.38 182.28 488.94 180.8C487.5 179.32 486.38 177.6 485.58 175.64C484.82 173.68 484.44 171.62 484.44 169.46C484.44 167.22 484.82 165.12 485.58 163.16C486.34 161.16 487.44 159.42 488.88 157.94C490.32 156.42 492.06 155.22 494.1 154.34C496.18 153.46 498.5 153.02 501.06 153.02C503.62 153.02 505.9 153.46 507.9 154.34C509.94 155.22 511.66 156.4 513.06 157.88C514.5 159.36 515.58 161.08 516.3 163.04C517.06 165 517.44 167.04 517.44 169.16C517.44 169.68 517.42 170.18 517.38 170.66C517.38 171.14 517.34 171.54 517.26 171.86H492.96C493.08 173.1 493.38 174.2 493.86 175.16C494.34 176.12 494.96 176.94 495.72 177.62C496.48 178.3 497.34 178.82 498.3 179.18C499.26 179.54 500.26 179.72 501.3 179.72C502.9 179.72 504.4 179.34 505.8 178.58C507.24 177.78 508.22 176.74 508.74 175.46L515.64 177.38C514.48 179.78 512.62 181.76 510.06 183.32C507.54 184.84 504.52 185.6 501 185.6ZM509.16 166.64C508.96 164.28 508.08 162.4 506.52 161C505 159.56 503.14 158.84 500.94 158.84C499.86 158.84 498.84 159.04 497.88 159.44C496.96 159.8 496.14 160.32 495.42 161C494.7 161.68 494.1 162.5 493.62 163.46C493.18 164.42 492.92 165.48 492.84 166.64H509.16ZM520.512 169.28C520.512 167.08 520.892 165 521.652 163.04C522.412 161.08 523.512 159.36 524.952 157.88C526.392 156.4 528.132 155.22 530.172 154.34C532.212 153.46 534.512 153.02 537.072 153.02C540.512 153.02 543.432 153.76 545.832 155.24C548.272 156.72 550.092 158.66 551.292 161.06L543.432 163.46C542.752 162.3 541.852 161.42 540.732 160.82C539.612 160.18 538.372 159.86 537.012 159.86C535.852 159.86 534.772 160.1 533.772 160.58C532.772 161.02 531.892 161.66 531.132 162.5C530.412 163.3 529.832 164.28 529.392 165.44C528.992 166.6 528.792 167.88 528.792 169.28C528.792 170.68 529.012 171.96 529.452 173.12C529.892 174.28 530.472 175.28 531.192 176.12C531.952 176.96 532.832 177.62 533.832 178.1C534.832 178.54 535.892 178.76 537.012 178.76C538.452 178.76 539.772 178.4 540.972 177.68C542.212 176.96 543.072 176.08 543.552 175.04L551.412 177.44C550.332 179.84 548.552 181.8 546.072 183.32C543.592 184.84 540.612 185.6 537.132 185.6C534.572 185.6 532.272 185.16 530.232 184.28C528.192 183.4 526.452 182.22 525.012 180.74C523.572 179.22 522.452 177.48 521.652 175.52C520.892 173.52 520.512 171.44 520.512 169.28ZM552.922 178.16C554.082 178.08 555.022 177.84 555.742 177.44C556.502 177.04 557.122 176.3 557.602 175.22C558.122 174.14 558.542 172.66 558.862 170.78C559.222 168.86 559.582 166.36 559.942 163.28L561.022 153.56H583.042V185H575.062V160.28H568.042L567.442 165.02C566.962 168.98 566.382 172.26 565.702 174.86C565.022 177.42 564.142 179.46 563.062 180.98C562.022 182.5 560.722 183.58 559.162 184.22C557.602 184.82 555.682 185.16 553.402 185.24L552.922 178.16ZM598.751 173.54L613.631 153.56H619.571V185H611.591V165.56L596.891 185H590.771V153.56H598.751V173.54ZM82.44 217.56C83.6 217.56 84.66 217.78 85.62 218.22C86.58 218.62 87.4 219.18 88.08 219.9C88.8 220.62 89.34 221.46 89.7 222.42C90.1 223.38 90.3 224.4 90.3 225.48C90.3 226.84 89.94 228.22 89.22 229.62C88.5 230.98 87.32 232 85.68 232.68C87.52 233.2 88.96 234.1 90 235.38C91.08 236.62 91.62 238.32 91.62 240.48C91.62 243.36 90.62 245.5 88.62 246.9C86.62 248.3 83.86 249 80.34 249H63.84V217.56H82.44ZM78.66 230.7C79.78 230.7 80.68 230.38 81.36 229.74C82.04 229.1 82.38 228.18 82.38 226.98C82.38 225.98 82.08 225.14 81.48 224.46C80.92 223.74 80.06 223.38 78.9 223.38H71.82V230.7H78.66ZM79.74 243.18C80.9 243.18 81.82 242.8 82.5 242.04C83.22 241.28 83.58 240.36 83.58 239.28C83.58 238.16 83.24 237.24 82.56 236.52C81.88 235.76 80.96 235.38 79.8 235.38H71.82V243.18H79.74ZM105.792 249.6C104.272 249.6 102.852 249.36 101.532 248.88C100.212 248.36 99.0721 247.66 98.1121 246.78C97.1521 245.86 96.3921 244.8 95.8321 243.6C95.3121 242.4 95.0521 241.08 95.0521 239.64C95.0521 238.16 95.3721 236.8 96.0121 235.56C96.6921 234.28 97.6121 233.2 98.7721 232.32C99.9721 231.44 101.392 230.76 103.032 230.28C104.672 229.76 106.472 229.5 108.432 229.5C109.832 229.5 111.192 229.62 112.512 229.86C113.872 230.1 115.072 230.44 116.112 230.88V229.08C116.112 227 115.512 225.4 114.312 224.28C113.152 223.16 111.412 222.6 109.092 222.6C107.412 222.6 105.772 222.9 104.172 223.5C102.572 224.1 100.932 224.98 99.2521 226.14L96.7921 221.04C100.832 218.36 105.192 217.02 109.872 217.02C114.392 217.02 117.892 218.14 120.372 220.38C122.892 222.58 124.152 225.78 124.152 229.98V239.76C124.152 240.6 124.292 241.2 124.572 241.56C124.892 241.92 125.392 242.12 126.072 242.16V249C124.712 249.28 123.532 249.42 122.532 249.42C121.012 249.42 119.832 249.08 118.992 248.4C118.192 247.72 117.692 246.82 117.492 245.7L117.312 243.96C115.912 245.8 114.212 247.2 112.212 248.16C110.212 249.12 108.072 249.6 105.792 249.6ZM108.072 243.72C109.432 243.72 110.712 243.48 111.912 243C113.152 242.52 114.112 241.88 114.792 241.08C115.672 240.4 116.112 239.64 116.112 238.8V235.2C115.152 234.84 114.112 234.56 112.992 234.36C111.872 234.12 110.792 234 109.752 234C107.672 234 105.972 234.48 104.652 235.44C103.332 236.36 102.672 237.54 102.672 238.98C102.672 240.34 103.192 241.48 104.232 242.4C105.272 243.28 106.552 243.72 108.072 243.72ZM149.636 234.3L158.936 217.56H167.156V249H159.476V230.1L151.496 244.26H147.716L139.736 230.1V249H132.056V217.56H140.336L149.636 234.3ZM190.214 254.64C190.894 255.04 191.534 255.32 192.134 255.48C192.774 255.64 193.374 255.72 193.934 255.72C194.934 255.72 195.794 255.22 196.514 254.22C197.234 253.26 197.874 251.52 198.434 249L186.014 217.56H194.294L202.814 242.04L210.374 217.56H217.934L205.574 253.08C204.374 256.52 202.894 258.98 201.134 260.46C199.414 261.94 197.294 262.68 194.774 262.68C193.854 262.68 193.034 262.6 192.314 262.44C191.594 262.28 190.894 261.98 190.214 261.54V254.64ZM228.816 217.56L236.616 229.98H239.676V217.56H247.896V229.98H251.016L258.756 217.56H267.816L257.676 232.74L268.776 249H259.356L251.496 236.64H247.896V249H239.736V236.64H236.076L228.216 249H218.796L229.836 232.74L219.756 217.56H228.816ZM286.233 249.6C283.713 249.6 281.433 249.18 279.393 248.34C277.353 247.46 275.613 246.28 274.173 244.8C272.733 243.32 271.613 241.6 270.813 239.64C270.053 237.68 269.673 235.62 269.673 233.46C269.673 231.22 270.053 229.12 270.813 227.16C271.573 225.16 272.673 223.42 274.113 221.94C275.553 220.42 277.293 219.22 279.333 218.34C281.413 217.46 283.733 217.02 286.293 217.02C288.853 217.02 291.133 217.46 293.133 218.34C295.173 219.22 296.893 220.4 298.293 221.88C299.733 223.36 300.813 225.08 301.533 227.04C302.293 229 302.673 231.04 302.673 233.16C302.673 233.68 302.653 234.18 302.613 234.66C302.613 235.14 302.573 235.54 302.493 235.86H278.193C278.313 237.1 278.613 238.2 279.093 239.16C279.573 240.12 280.193 240.94 280.953 241.62C281.713 242.3 282.573 242.82 283.533 243.18C284.493 243.54 285.493 243.72 286.533 243.72C288.133 243.72 289.633 243.34 291.033 242.58C292.473 241.78 293.453 240.74 293.973 239.46L300.873 241.38C299.713 243.78 297.853 245.76 295.293 247.32C292.773 248.84 289.753 249.6 286.233 249.6ZM294.393 230.64C294.193 228.28 293.313 226.4 291.753 225C290.233 223.56 288.373 222.84 286.173 222.84C285.093 222.84 284.073 223.04 283.113 223.44C282.193 223.8 281.373 224.32 280.653 225C279.933 225.68 279.333 226.5 278.853 227.46C278.413 228.42 278.153 229.48 278.073 230.64H294.393ZM336.812 249.6C334.252 249.6 331.952 249.16 329.912 248.28C327.872 247.4 326.132 246.22 324.692 244.74C323.292 243.22 322.212 241.48 321.452 239.52C320.692 237.56 320.312 235.5 320.312 233.34C320.312 231.14 320.692 229.06 321.452 227.1C322.212 225.14 323.292 223.42 324.692 221.94C326.132 220.42 327.872 219.22 329.912 218.34C331.952 217.46 334.252 217.02 336.812 217.02C339.372 217.02 341.652 217.46 343.652 218.34C345.692 219.22 347.412 220.42 348.812 221.94C350.252 223.42 351.352 225.14 352.112 227.1C352.872 229.06 353.252 231.14 353.252 233.34C353.252 235.5 352.872 237.56 352.112 239.52C351.352 241.48 350.272 243.22 348.872 244.74C347.472 246.22 345.752 247.4 343.712 248.28C341.672 249.16 339.372 249.6 336.812 249.6ZM328.592 233.34C328.592 234.74 328.792 236.02 329.192 237.18C329.632 238.3 330.212 239.28 330.932 240.12C331.692 240.96 332.572 241.62 333.572 242.1C334.572 242.54 335.652 242.76 336.812 242.76C337.972 242.76 339.052 242.54 340.052 242.1C341.052 241.62 341.912 240.96 342.632 240.12C343.392 239.28 343.972 238.28 344.372 237.12C344.812 235.96 345.032 234.68 345.032 233.28C345.032 231.92 344.812 230.66 344.372 229.5C343.972 228.34 343.392 227.34 342.632 226.5C341.912 225.66 341.052 225.02 340.052 224.58C339.052 224.1 337.972 223.86 336.812 223.86C335.652 223.86 334.572 224.1 333.572 224.58C332.572 225.06 331.692 225.72 330.932 226.56C330.212 227.4 329.632 228.4 329.192 229.56C328.792 230.72 328.592 231.98 328.592 233.34ZM356.852 233.28C356.852 231.08 357.232 229 357.992 227.04C358.752 225.08 359.852 223.36 361.292 221.88C362.732 220.4 364.472 219.22 366.512 218.34C368.552 217.46 370.852 217.02 373.412 217.02C376.852 217.02 379.772 217.76 382.172 219.24C384.612 220.72 386.432 222.66 387.632 225.06L379.772 227.46C379.092 226.3 378.192 225.42 377.072 224.82C375.952 224.18 374.712 223.86 373.352 223.86C372.192 223.86 371.112 224.1 370.112 224.58C369.112 225.02 368.232 225.66 367.472 226.5C366.752 227.3 366.172 228.28 365.732 229.44C365.332 230.6 365.132 231.88 365.132 233.28C365.132 234.68 365.352 235.96 365.792 237.12C366.232 238.28 366.812 239.28 367.532 240.12C368.292 240.96 369.172 241.62 370.172 242.1C371.172 242.54 372.232 242.76 373.352 242.76C374.792 242.76 376.112 242.4 377.312 241.68C378.552 240.96 379.412 240.08 379.892 239.04L387.752 241.44C386.672 243.84 384.892 245.8 382.412 247.32C379.932 248.84 376.952 249.6 373.472 249.6C370.912 249.6 368.612 249.16 366.572 248.28C364.532 247.4 362.792 246.22 361.352 244.74C359.912 243.22 358.792 241.48 357.992 239.52C357.232 237.52 356.852 235.44 356.852 233.28ZM408.033 249H400.053V224.52H390.213V217.56H417.813V224.52H408.033V249ZM430.65 249.6C429.13 249.6 427.71 249.36 426.39 248.88C425.07 248.36 423.93 247.66 422.97 246.78C422.01 245.86 421.25 244.8 420.69 243.6C420.17 242.4 419.91 241.08 419.91 239.64C419.91 238.16 420.23 236.8 420.87 235.56C421.55 234.28 422.47 233.2 423.63 232.32C424.83 231.44 426.25 230.76 427.89 230.28C429.53 229.76 431.33 229.5 433.29 229.5C434.69 229.5 436.05 229.62 437.37 229.86C438.73 230.1 439.93 230.44 440.97 230.88V229.08C440.97 227 440.37 225.4 439.17 224.28C438.01 223.16 436.27 222.6 433.95 222.6C432.27 222.6 430.63 222.9 429.03 223.5C427.43 224.1 425.79 224.98 424.11 226.14L421.65 221.04C425.69 218.36 430.05 217.02 434.73 217.02C439.25 217.02 442.75 218.14 445.23 220.38C447.75 222.58 449.01 225.78 449.01 229.98V239.76C449.01 240.6 449.15 241.2 449.43 241.56C449.75 241.92 450.25 242.12 450.93 242.16V249C449.57 249.28 448.39 249.42 447.39 249.42C445.87 249.42 444.69 249.08 443.85 248.4C443.05 247.72 442.55 246.82 442.35 245.7L442.17 243.96C440.77 245.8 439.07 247.2 437.07 248.16C435.07 249.12 432.93 249.6 430.65 249.6ZM432.93 243.72C434.29 243.72 435.57 243.48 436.77 243C438.01 242.52 438.97 241.88 439.65 241.08C440.53 240.4 440.97 239.64 440.97 238.8V235.2C440.01 234.84 438.97 234.56 437.85 234.36C436.73 234.12 435.65 234 434.61 234C432.53 234 430.83 234.48 429.51 235.44C428.19 236.36 427.53 237.54 427.53 238.98C427.53 240.34 428.05 241.48 429.09 242.4C430.13 243.28 431.41 243.72 432.93 243.72ZM475.574 217.56C476.734 217.56 477.794 217.78 478.754 218.22C479.714 218.62 480.534 219.18 481.214 219.9C481.934 220.62 482.474 221.46 482.834 222.42C483.234 223.38 483.434 224.4 483.434 225.48C483.434 226.84 483.074 228.22 482.354 229.62C481.634 230.98 480.454 232 478.814 232.68C480.654 233.2 482.094 234.1 483.134 235.38C484.214 236.62 484.754 238.32 484.754 240.48C484.754 243.36 483.754 245.5 481.754 246.9C479.754 248.3 476.994 249 473.474 249H456.974V217.56H475.574ZM471.794 230.7C472.914 230.7 473.814 230.38 474.494 229.74C475.174 229.1 475.514 228.18 475.514 226.98C475.514 225.98 475.214 225.14 474.614 224.46C474.054 223.74 473.194 223.38 472.034 223.38H464.954V230.7H471.794ZM472.874 243.18C474.034 243.18 474.954 242.8 475.634 242.04C476.354 241.28 476.714 240.36 476.714 239.28C476.714 238.16 476.374 237.24 475.694 236.52C475.014 235.76 474.094 235.38 472.934 235.38H464.954V243.18H472.874ZM498.446 237.54L513.326 217.56H519.266V249H511.286V229.56L496.586 249H490.466V217.56H498.446V237.54ZM523.706 242.16C524.866 242.08 525.806 241.84 526.526 241.44C527.286 241.04 527.906 240.3 528.386 239.22C528.906 238.14 529.326 236.66 529.646 234.78C530.006 232.86 530.366 230.36 530.726 227.28L531.806 217.56H553.826V249H545.846V224.28H538.826L538.226 229.02C537.746 232.98 537.166 236.26 536.486 238.86C535.806 241.42 534.926 243.46 533.846 244.98C532.806 246.5 531.506 247.58 529.946 248.22C528.386 248.82 526.466 249.16 524.186 249.24L523.706 242.16ZM569.534 237.54L584.414 217.56H590.354V249H582.374V229.56L567.674 249H561.554V217.56H569.534V237.54ZM87 313H79.14V301.78C78.22 302.1 77.26 302.34 76.26 302.5C75.3 302.66 74.08 302.74 72.6 302.74C70.8 302.74 69.24 302.46 67.92 301.9C66.6 301.3 65.5 300.52 64.62 299.56C63.74 298.56 63.08 297.4 62.64 296.08C62.2 294.76 61.98 293.34 61.98 291.82V281.56H69.72V290.62C69.72 292.7 70.14 294.18 70.98 295.06C71.82 295.94 73 296.38 74.52 296.38C75.64 296.38 76.56 296.28 77.28 296.08C78.04 295.84 78.66 295.54 79.14 295.18V281.56H87V313ZM103.155 313.6C101.635 313.6 100.215 313.36 98.8954 312.88C97.5754 312.36 96.4354 311.66 95.4754 310.78C94.5154 309.86 93.7554 308.8 93.1954 307.6C92.6754 306.4 92.4154 305.08 92.4154 303.64C92.4154 302.16 92.7354 300.8 93.3754 299.56C94.0554 298.28 94.9754 297.2 96.1354 296.32C97.3354 295.44 98.7554 294.76 100.395 294.28C102.035 293.76 103.835 293.5 105.795 293.5C107.195 293.5 108.555 293.62 109.875 293.86C111.235 294.1 112.435 294.44 113.475 294.88V293.08C113.475 291 112.875 289.4 111.675 288.28C110.515 287.16 108.775 286.6 106.455 286.6C104.775 286.6 103.135 286.9 101.535 287.5C99.9354 288.1 98.2954 288.98 96.6154 290.14L94.1554 285.04C98.1954 282.36 102.555 281.02 107.235 281.02C111.755 281.02 115.255 282.14 117.735 284.38C120.255 286.58 121.515 289.78 121.515 293.98V303.76C121.515 304.6 121.655 305.2 121.935 305.56C122.255 305.92 122.755 306.12 123.435 306.16V313C122.075 313.28 120.895 313.42 119.895 313.42C118.375 313.42 117.195 313.08 116.355 312.4C115.555 311.72 115.055 310.82 114.855 309.7L114.675 307.96C113.275 309.8 111.575 311.2 109.575 312.16C107.575 313.12 105.435 313.6 103.155 313.6ZM105.435 307.72C106.795 307.72 108.075 307.48 109.275 307C110.515 306.52 111.475 305.88 112.155 305.08C113.035 304.4 113.475 303.64 113.475 302.8V299.2C112.515 298.84 111.475 298.56 110.355 298.36C109.235 298.12 108.155 298 107.115 298C105.035 298 103.335 298.48 102.015 299.44C100.695 300.36 100.035 301.54 100.035 302.98C100.035 304.34 100.555 305.48 101.595 306.4C102.635 307.28 103.915 307.72 105.435 307.72ZM143.879 313.6C141.359 313.6 139.079 313.18 137.039 312.34C134.999 311.46 133.259 310.28 131.819 308.8C130.379 307.32 129.259 305.6 128.459 303.64C127.699 301.68 127.319 299.62 127.319 297.46C127.319 295.22 127.699 293.12 128.459 291.16C129.219 289.16 130.319 287.42 131.759 285.94C133.199 284.42 134.939 283.22 136.979 282.34C139.059 281.46 141.379 281.02 143.939 281.02C146.499 281.02 148.779 281.46 150.779 282.34C152.819 283.22 154.539 284.4 155.939 285.88C157.379 287.36 158.459 289.08 159.179 291.04C159.939 293 160.319 295.04 160.319 297.16C160.319 297.68 160.299 298.18 160.259 298.66C160.259 299.14 160.219 299.54 160.139 299.86H135.839C135.959 301.1 136.259 302.2 136.739 303.16C137.219 304.12 137.839 304.94 138.599 305.62C139.359 306.3 140.219 306.82 141.179 307.18C142.139 307.54 143.139 307.72 144.179 307.72C145.779 307.72 147.279 307.34 148.679 306.58C150.119 305.78 151.099 304.74 151.619 303.46L158.519 305.38C157.359 307.78 155.499 309.76 152.939 311.32C150.419 312.84 147.399 313.6 143.879 313.6ZM152.039 294.64C151.839 292.28 150.959 290.4 149.399 289C147.879 287.56 146.019 286.84 143.819 286.84C142.739 286.84 141.719 287.04 140.759 287.44C139.839 287.8 139.019 288.32 138.299 289C137.579 289.68 136.979 290.5 136.499 291.46C136.059 292.42 135.799 293.48 135.719 294.64H152.039ZM184.151 281.56C185.311 281.56 186.371 281.78 187.331 282.22C188.291 282.62 189.111 283.18 189.791 283.9C190.511 284.62 191.051 285.46 191.411 286.42C191.811 287.38 192.011 288.4 192.011 289.48C192.011 290.84 191.651 292.22 190.931 293.62C190.211 294.98 189.031 296 187.391 296.68C189.231 297.2 190.671 298.1 191.711 299.38C192.791 300.62 193.331 302.32 193.331 304.48C193.331 307.36 192.331 309.5 190.331 310.9C188.331 312.3 185.571 313 182.051 313H165.551V281.56H184.151ZM180.371 294.7C181.491 294.7 182.391 294.38 183.071 293.74C183.751 293.1 184.091 292.18 184.091 290.98C184.091 289.98 183.791 289.14 183.191 288.46C182.631 287.74 181.771 287.38 180.611 287.38H173.531V294.7H180.371ZM181.451 307.18C182.611 307.18 183.531 306.8 184.211 306.04C184.931 305.28 185.291 304.36 185.291 303.28C185.291 302.16 184.951 301.24 184.271 300.52C183.591 299.76 182.671 299.38 181.511 299.38H173.531V307.18H181.451ZM199.043 281.56H207.023V291.52H212.303C214.023 291.52 215.603 291.76 217.043 292.24C218.523 292.68 219.803 293.36 220.883 294.28C221.963 295.16 222.803 296.28 223.403 297.64C224.043 298.96 224.363 300.48 224.363 302.2C224.363 303.96 224.063 305.52 223.463 306.88C222.863 308.2 222.023 309.32 220.943 310.24C219.903 311.16 218.663 311.86 217.223 312.34C215.823 312.78 214.283 313 212.603 313H199.043V281.56ZM227.783 281.56H235.703V313H227.783V281.56ZM211.763 306.7C213.123 306.7 214.203 306.34 215.003 305.62C215.803 304.86 216.203 303.76 216.203 302.32C216.203 300.88 215.783 299.78 214.943 299.02C214.103 298.22 213.043 297.82 211.763 297.82H207.023V306.7H211.763ZM257.895 313.6C255.375 313.6 253.095 313.18 251.055 312.34C249.015 311.46 247.275 310.28 245.835 308.8C244.395 307.32 243.275 305.6 242.475 303.64C241.715 301.68 241.335 299.62 241.335 297.46C241.335 295.22 241.715 293.12 242.475 291.16C243.235 289.16 244.335 287.42 245.775 285.94C247.215 284.42 248.955 283.22 250.995 282.34C253.075 281.46 255.395 281.02 257.955 281.02C260.515 281.02 262.795 281.46 264.795 282.34C266.835 283.22 268.555 284.4 269.955 285.88C271.395 287.36 272.475 289.08 273.195 291.04C273.955 293 274.335 295.04 274.335 297.16C274.335 297.68 274.315 298.18 274.275 298.66C274.275 299.14 274.235 299.54 274.155 299.86H249.855C249.975 301.1 250.275 302.2 250.755 303.16C251.235 304.12 251.855 304.94 252.615 305.62C253.375 306.3 254.235 306.82 255.195 307.18C256.155 307.54 257.155 307.72 258.195 307.72C259.795 307.72 261.295 307.34 262.695 306.58C264.135 305.78 265.115 304.74 265.635 303.46L272.535 305.38C271.375 307.78 269.515 309.76 266.955 311.32C264.435 312.84 261.415 313.6 257.895 313.6ZM266.055 294.64C265.855 292.28 264.975 290.4 263.415 289C261.895 287.56 260.035 286.84 257.835 286.84C256.755 286.84 255.735 287.04 254.775 287.44C253.855 287.8 253.035 288.32 252.315 289C251.595 289.68 250.995 290.5 250.515 291.46C250.075 292.42 249.815 293.48 249.735 294.64H266.055ZM282.109 299.02C282.109 297.06 282.429 295.3 283.069 293.74C283.709 292.18 285.029 290.82 287.029 289.66C287.629 289.3 288.369 288.9 289.249 288.46C290.129 287.98 290.989 287.42 291.829 286.78C292.669 286.14 293.369 285.4 293.929 284.56C294.529 283.68 294.829 282.68 294.829 281.56C294.829 280.72 294.669 279.98 294.349 279.34C294.029 278.7 293.609 278.16 293.089 277.72C292.569 277.28 291.949 276.96 291.229 276.76C290.549 276.52 289.849 276.4 289.129 276.4C288.249 276.4 287.449 276.56 286.729 276.88C286.009 277.16 285.349 277.54 284.749 278.02C284.189 278.46 283.669 278.98 283.189 279.58C282.749 280.14 282.369 280.68 282.049 281.2L276.829 277.6C277.349 276.36 278.029 275.26 278.869 274.3C279.749 273.34 280.729 272.54 281.809 271.9C282.929 271.22 284.129 270.72 285.409 270.4C286.689 270.04 288.009 269.86 289.369 269.86C290.889 269.86 292.389 270.08 293.869 270.52C295.349 270.96 296.669 271.66 297.829 272.62C299.029 273.58 299.989 274.82 300.709 276.34C301.469 277.82 301.849 279.6 301.849 281.68C301.849 282.96 301.689 284.1 301.369 285.1C301.089 286.06 300.669 286.94 300.109 287.74C299.549 288.54 298.889 289.26 298.129 289.9C297.369 290.54 296.509 291.16 295.549 291.76C294.749 292.24 293.949 292.7 293.149 293.14C292.349 293.58 291.609 294.08 290.929 294.64C290.289 295.16 289.749 295.78 289.309 296.5C288.909 297.18 288.709 298.02 288.709 299.02H282.109ZM282.229 313V304.72H288.889V313H282.229Z" fill="black"/>
</svg>
