<svg width="800" height="800" viewBox="0 0 800 800" fill="none" xmlns="http://www.w3.org/2000/svg">
<g filter="url(#filter0_d)">
<path d="M512.5 443.4V425.4H506.5V422.4H524.5V425.4H518.5V443.4H512.5Z" fill="#D1FB84"/>
<path d="M536.5 431.4H539.5V434.4H536.5V443.4H530.5V428.4H536.5V431.4ZM548.5 428.4V431.4H539.5V428.4H548.5Z" fill="#D1FB84"/>
<path d="M554.5 443.4V440.4H551.5V437.4H554.5V434.4H566.5V431.4H554.5V428.4H569.5V431.4H572.5V443.4H554.5ZM557.5 440.4H566.5V437.4H557.5V440.4Z" fill="#D1FB84"/>
<path d="M578.5 443.4V440.4H575.5V431.4H578.5V428.4H596.5V431.4H581.5V440.4H596.5V443.4H578.5Z" fill="#D1FB84"/>
<path d="M599.5 443.4V422.4H605.5V434.4H611.5V431.4H614.5V428.4H620.5V431.4H617.5V434.4H614.5V437.4H617.5V440.4H620.5V443.4H614.5V440.4H611.5V437.4H605.5V443.4H599.5Z" fill="#D1FB84"/>
<path d="M626.5 443.4V440.4H623.5V431.4H626.5V428.4H641.5V431.4H644.5V437.4H629.5V440.4H641.5V443.4H626.5ZM629.5 434.4H638.5V431.4H629.5V434.4Z" fill="#D1FB84"/>
<path d="M656.5 431.4H659.5V434.4H656.5V443.4H650.5V428.4H656.5V431.4ZM668.5 428.4V431.4H659.5V428.4H668.5Z" fill="#D1FB84"/>
<path d="M483 253.4V232.4H498V235.4H501V238.4H504V247.4H501V250.4H498V253.4H483ZM489 250.4H495V247.4H498V238.4H495V235.4H489V250.4Z" fill="#D1FB84"/>
<path d="M510 253.4V250.4H507V241.4H510V238.4H525V241.4H528V247.4H513V250.4H525V253.4H510ZM513 244.4H522V241.4H513V244.4Z" fill="#D1FB84"/>
<path d="M534 253.4V250.4H540V235.4H537V232.4H546V250.4H552V253.4H534Z" fill="#D1FB84"/>
<path d="M558 253.4V250.4H564V241.4H561V238.4H570V250.4H576V253.4H558ZM564 235.4V232.4H570V235.4H564Z" fill="#D1FB84"/>
<path d="M588 253.4V250.4H585V247.4H582V238.4H588V247.4H594V238.4H600V247.4H597V250.4H594V253.4H588Z" fill="#D1FB84"/>
<path d="M606 253.4V250.4H603V241.4H606V238.4H621V241.4H624V247.4H609V250.4H621V253.4H606ZM609 244.4H618V241.4H609V244.4Z" fill="#D1FB84"/>
<path d="M636 241.4H639V244.4H636V253.4H630V238.4H636V241.4ZM648 238.4V241.4H639V238.4H648Z" fill="#D1FB84"/>
<path d="M654 256.4V253.4H666V250.4H654V247.4H651V238.4H657V247.4H666V238.4H672V253.4H669V256.4H654Z" fill="#D1FB84"/>
<path d="M501 282.2V279.2H498V276.2H495V267.2H498V264.2H501V261.2H513V264.2H516V267.2H510V264.2H504V267.2H501V276.2H504V279.2H510V276.2H516V279.2H513V282.2H501Z" fill="#D1FB84"/>
<path d="M522 282.2V279.2H519V276.2H522V273.2H534V270.2H522V267.2H537V270.2H540V282.2H522ZM525 279.2H534V276.2H525V279.2Z" fill="#D1FB84"/>
<path d="M543 282.2V279.2H558V276.2H546V273.2H543V270.2H546V267.2H561V270.2H549V273.2H561V276.2H564V279.2H561V282.2H543Z" fill="#D1FB84"/>
<path d="M567 282.2V261.2H573V267.2H585V270.2H588V282.2H582V270.2H573V282.2H567Z" fill="#D1FB84"/>
<path d="M594 282.2V279.2H600V270.2H597V267.2H606V279.2H612V282.2H594ZM600 264.2V261.2H606V264.2H600Z" fill="#D1FB84"/>
<path d="M618 282.2V279.2H615V270.2H618V267.2H633V270.2H636V276.2H621V279.2H633V282.2H618ZM621 273.2H630V270.2H621V273.2Z" fill="#D1FB84"/>
<path d="M648 270.2H651V273.2H648V282.2H642V267.2H648V270.2ZM660 267.2V270.2H651V267.2H660Z" fill="#D1FB84"/>
<path d="M507.2 94.0996V191.5H650.5V94.0996H507.2ZM639 180.1H518.7V105.5H639V180.1Z" fill="#D1FB84"/>
<path d="M530.4 315.4V406.8H650.4V315.4H530.4ZM644.7 355.4H639V361.1H644.7V366.8H639V395.4H541.9V326.8H639V349.7H644.7V355.4Z" fill="#D1FB84"/>
<path d="M570.3 196.9V202.6H553V214.1H604.5V202.6H587.4V196.9H570.3Z" fill="#D1FB84"/>
<path d="M476.4 394.6H470.7V400.3H476.4V394.6Z" fill="#D1FB84"/>
<path d="M476.4 200.3H470.7V206H476.4V200.3Z" fill="#D1FB84"/>
<path d="M470.7 400.3H465V406H470.7V400.3Z" fill="#D1FB84"/>
<path d="M470.7 206.1H465V211.8H470.7V206.1Z" fill="#D1FB84"/>
<path d="M465 406.1H459.3V411.8H465V406.1Z" fill="#D1FB84"/>
<path d="M465 211.8H459.3V217.5H465V211.8Z" fill="#D1FB84"/>
<path d="M459.3 411.8H453.6V417.5H459.3V411.8Z" fill="#D1FB84"/>
<path d="M459.3 217.5H453.6V223.2H459.3V217.5Z" fill="#D1FB84"/>
<path d="M453.6 417.5H447.9V423.2H453.6V417.5Z" fill="#D1FB84"/>
<path d="M453.6 223.2H447.9V228.9H453.6V223.2Z" fill="#D1FB84"/>
<path d="M447.8 423.2H442.1V428.9H447.8V423.2Z" fill="#D1FB84"/>
<path d="M447.8 228.9H442.1V234.6H447.8V228.9Z" fill="#D1FB84"/>
<path d="M442.1 428.9H436.4V434.6H442.1V428.9Z" fill="#D1FB84"/>
<path d="M442.1 234.6H436.4V240.3H442.1V234.6Z" fill="#D1FB84"/>
<path d="M436.4 240.3H430.7V246H436.4V240.3Z" fill="#D1FB84"/>
<path d="M305 434.6V377.5H333.6V383.2H339.3V377.5H345V371.8H339.3V366.1H333.6V371.8H257.3V377.5H299.3V440.3H436.4V434.6H305Z" fill="#D1FB84"/>
<path d="M339.3 566.1H333.6V571.8H257.3V577.5H333.6V583.2H339.3V577.5H345V571.8H339.3V566.1Z" fill="#D1FB84"/>
<path d="M333.6 583.2H327.9V588.9H333.6V583.2Z" fill="#D1FB84"/>
<path d="M333.6 560.4H327.9V566.1H333.6V560.4Z" fill="#D1FB84"/>
<path d="M333.6 383.2H327.9V388.9H333.6V383.2Z" fill="#D1FB84"/>
<path d="M316.5 428.9H310.8V434.6H316.5V428.9Z" fill="#D1FB84"/>
<path d="M316.5 440.3H310.8V446H316.5V440.3Z" fill="#D1FB84"/>
<path d="M322.2 423.2H316.5V428.9H322.2V423.2Z" fill="#D1FB84"/>
<path d="M322.2 446H316.5V451.7H322.2V446Z" fill="#D1FB84"/>
<path d="M333.6 360.3H327.9V366H333.6V360.3Z" fill="#D1FB84"/>
<path d="M333.6 188.9H327.9V194.6H333.6V188.9Z" fill="#D1FB84"/>
<path d="M333.6 166.1H327.9V171.8H333.6V166.1Z" fill="#D1FB84"/>
<path d="M305 246.1V183.2H333.6V188.9H339.3V183.2H345V177.5H339.3V171.8H333.6V177.5H257.3V183.2H299.3V251.8H430.7V246.1H305Z" fill="#D1FB84"/>
<path d="M424.5 122.2H418.8V127.9H424.5V196.5H430.2V110.8H424.5V122.2Z" fill="#D1FB84"/>
<path d="M424.5 196.5H418.8V202.2H424.5V196.5Z" fill="#D1FB84"/>
<path d="M424.5 105.1H418.8V110.8H424.5V105.1Z" fill="#D1FB84"/>
<path d="M418.8 202.2H413.1V207.9H418.8V202.2Z" fill="#D1FB84"/>
<path d="M418.8 127.9H413.1V133.6H418.8V127.9Z" fill="#D1FB84"/>
<path d="M418.8 99.3996H413.1V105.1H418.8V99.3996Z" fill="#D1FB84"/>
<path d="M378.8 207.9V213.6H413.1V207.9H378.8Z" fill="#D1FB84"/>
<path d="M413.1 139.4V133.6H378.8V139.4H413.1Z" fill="#D1FB84"/>
<path d="M413.1 99.3996V93.5996H378.8V99.3996H413.1Z" fill="#D1FB84"/>
<path d="M378.8 202.2H373.1V207.9H378.8V202.2Z" fill="#D1FB84"/>
<path d="M378.8 127.9H373.1V133.6H378.8V127.9Z" fill="#D1FB84"/>
<path d="M378.8 99.3996H373.1V105.1H378.8V99.3996Z" fill="#D1FB84"/>
<path d="M373.1 196.5H367.4V202.2H373.1V196.5Z" fill="#D1FB84"/>
<path d="M373.1 105.1H367.4V110.8H373.1V105.1Z" fill="#D1FB84"/>
<path d="M367.4 127.9H373.1V122.2H367.4V110.8H361.6V196.5H367.4V127.9Z" fill="#D1FB84"/>
<path d="M423.5 315.2H417.8V320.9H423.5V389.5H429.2V303.8H423.5V315.2Z" fill="#D1FB84"/>
<path d="M423.5 389.5H417.8V395.2H423.5V389.5Z" fill="#D1FB84"/>
<path d="M423.5 298.1H417.8V303.8H423.5V298.1Z" fill="#D1FB84"/>
<path d="M417.8 395.2H412.1V400.9H417.8V395.2Z" fill="#D1FB84"/>
<path d="M417.8 320.9H412.1V326.6H417.8V320.9Z" fill="#D1FB84"/>
<path d="M417.8 292.4H412.1V298.1H417.8V292.4Z" fill="#D1FB84"/>
<path d="M377.8 400.9V406.6H412.1V400.9H377.8Z" fill="#D1FB84"/>
<path d="M412.1 332.4V326.6H377.8V332.4H412.1Z" fill="#D1FB84"/>
<path d="M377.8 286.6V292.4H412.1V286.6H377.8Z" fill="#D1FB84"/>
<path d="M377.8 395.2H372.1V400.9H377.8V395.2Z" fill="#D1FB84"/>
<path d="M377.8 320.9H372.1V326.6H377.8V320.9Z" fill="#D1FB84"/>
<path d="M377.8 292.4H372.1V298.1H377.8V292.4Z" fill="#D1FB84"/>
<path d="M372.1 389.5H366.4V395.2H372.1V389.5Z" fill="#D1FB84"/>
<path d="M372.1 298.1H366.4V303.8H372.1V298.1Z" fill="#D1FB84"/>
<path d="M366.4 320.9H372.1V315.2H366.4V303.8H360.6V389.5H366.4V320.9Z" fill="#D1FB84"/>
<path d="M423.5 510.2H417.8V515.9H423.5V584.5H429.2V498.8H423.5V510.2Z" fill="#D1FB84"/>
<path d="M423.5 584.5H417.8V590.2H423.5V584.5Z" fill="#D1FB84"/>
<path d="M423.5 493.1H417.8V498.8H423.5V493.1Z" fill="#D1FB84"/>
<path d="M417.8 590.2H412.1V595.9H417.8V590.2Z" fill="#D1FB84"/>
<path d="M417.8 515.9H412.1V521.6H417.8V515.9Z" fill="#D1FB84"/>
<path d="M417.8 487.4H412.1V493.1H417.8V487.4Z" fill="#D1FB84"/>
<path d="M377.8 595.9V601.6H412.1V595.9H377.8Z" fill="#D1FB84"/>
<path d="M377.8 521.6V527.4H412.1V521.6H377.8Z" fill="#D1FB84"/>
<path d="M412.1 487.4V481.6H377.8V487.4H412.1Z" fill="#D1FB84"/>
<path d="M377.8 590.2H372.1V595.9H377.8V590.2Z" fill="#D1FB84"/>
<path d="M377.8 515.9H372.1V521.6H377.8V515.9Z" fill="#D1FB84"/>
<path d="M377.8 487.4H372.1V493.1H377.8V487.4Z" fill="#D1FB84"/>
<path d="M372.1 584.5H366.4V590.2H372.1V584.5Z" fill="#D1FB84"/>
<path d="M372.1 493.1H366.4V498.8H372.1V493.1Z" fill="#D1FB84"/>
<path d="M366.4 515.9H372.1V510.2H366.4V498.8H360.6V584.5H366.4V515.9Z" fill="#D1FB84"/>
<path d="M198.4 120.9V121.1H204.2V126.7H239.8V132.4V269.5H169.9H142.7V262.6V155.3H137V275.3H245.6V120.9H198.4Z" fill="#D1FB84"/>
<path d="M154.1 252.4V258.1H228.4V252.4H154.1Z" fill="#D1FB84"/>
<path d="M205.6 206.7V200.9H199.8V218.1H205.6V212.4H228.4V206.7H205.6Z" fill="#D1FB84"/>
<path d="M228.4 166.7H154.1V183.8H228.4V166.7ZM222.7 178.1H159.8V172.4H222.7V178.1Z" fill="#D1FB84"/>
<path d="M228.4 138.1H204.2L204.2 143.8H222.7V149.6H204.2H198.4V155.2H228.4V138.1Z" fill="#D1FB84"/>
<path d="M182.7 218.1V223.8H199.8V218.1H182.7Z" fill="#D1FB84"/>
<path d="M199.8 200.9V195.2H182.7V200.9H199.8Z" fill="#D1FB84"/>
<path d="M182.7 200.9H177V206.7H154.1V212.4H177V218.1H182.7V200.9Z" fill="#D1FB84"/>
<path d="M198.4 120.9V115.3H187V109.6H181.3V92.5996H175.6V81.0996H169.9V75.2996H158.4V69.5996H124.2V75.2996H112.7V92.5996H89.8996V98.1996H84.1996V103.9H78.3996V121.1H61.2996V126.8H55.5996V149.6H61.2996V155.3H137V120.9H198.4Z" fill="#D1FB84"/>
<path d="M142.7 155.3V126.7H204.2V121.1H198.4V120.9H137V155.3H142.7Z" fill="#D1FB84"/>
<path d="M204.2 149.6H159.8V143.8H204.2L204.2 138.1H154.1V155.2H198.4V149.6H204.2Z" fill="#D1FB84"/>
<path d="M198.4 313.9V314H204.2V319.7H239.8V462.5H142.7V456.8V348.3H137V468.3H245.6V313.9H198.4Z" fill="#D1FB84"/>
<path d="M154.1 445.4V451.1H228.4V445.4H154.1Z" fill="#D1FB84"/>
<path d="M205.6 399.7V393.9H199.8V411.1H205.6V405.4H228.4V399.7H205.6Z" fill="#D1FB84"/>
<path d="M228.4 359.7H154.1V376.8H228.4V359.7ZM222.7 371.1H159.8V365.4H222.7V371.1Z" fill="#D1FB84"/>
<path d="M228.4 331.1H204.2V336.8H222.7V342.5H204.2L204.2 342.6H198.4V348.2H228.4V331.1Z" fill="#D1FB84"/>
<path d="M182.7 411.1V416.8H199.8V411.1H182.7Z" fill="#D1FB84"/>
<path d="M199.8 393.9V388.2H182.7V393.9H199.8Z" fill="#D1FB84"/>
<path d="M182.7 393.9H177V399.7H154.1V405.4H177V411.1H182.7V393.9Z" fill="#D1FB84"/>
<path d="M198.4 313.9V308.3H187V302.6H181.3V285.5H175.6V274H169.9V269.5V268.3H158.4V262.6H142.7H124.2V268.3H112.7V285.5H89.8996V291.2H84.1996V296.9H78.3996V314H61.2996V319.8H55.5996V342.6H61.2996V348.3H137V313.9H198.4Z" fill="#D1FB84"/>
<path d="M142.7 348.3V319.7H204.2V314H198.4V313.9H137V348.3H142.7Z" fill="#D1FB84"/>
<path d="M204.2 342.6L204.2 342.5H159.8V336.8H204.2V331.1H154.1V348.2H198.4V342.6H204.2Z" fill="#D1FB84"/>
<path d="M225 559.5H162.1V565.2H225V559.5Z" fill="#D1FB84"/>
<path d="M200.7 508V508.2H206.5V513.8H242.1V656.7H145V542.5H139.3V662.4H247.9V508H200.7Z" fill="#D1FB84"/>
<path d="M156.4 639.5V645.3H230.7V639.5H156.4Z" fill="#D1FB84"/>
<path d="M207.9 593.8V588H202.1V605.3H207.9L207.9 599.5H230.7V593.8H207.9Z" fill="#D1FB84"/>
<path d="M230.7 553.8H156.4V571H230.7V553.8ZM225 565.3H162.1V559.6H225V565.3Z" fill="#D1FB84"/>
<path d="M230.7 525.3H206.5L206.5 531H225V536.7H206.5L206.5 536.8H200.7V542.3H230.7L230.7 525.3Z" fill="#D1FB84"/>
<path d="M185 605.3V611H202.1V605.3H185Z" fill="#D1FB84"/>
<path d="M202.1 588V582.3H185V588H202.1Z" fill="#D1FB84"/>
<path d="M185 588H179.3V593.8H156.4V599.5H179.3V605.3H185V588Z" fill="#D1FB84"/>
<path d="M200.7 508L200.7 502.5H189.3V496.8H183.6V479.7H177.9V468.2H172.2V462.5H160.7V456.8H142.7H126.5V462.5H115V479.7H92.1996V485.3H86.4996V491H80.6996V508.2H63.5996V514H57.8996V536.8H63.5996V542.5H139.3V508H200.7Z" fill="#D1FB84"/>
<path d="M145 542.5V513.8H206.5V508.2H200.7V508H139.3V542.5H145Z" fill="#D1FB84"/>
<path d="M206.5 536.8L206.5 536.7H162.1V531H206.5L206.5 525.3H156.4V542.3H200.7V536.8H206.5Z" fill="#D1FB84"/>
<path fill-rule="evenodd" clip-rule="evenodd" d="M142.7 462.5V456.8H160.7V462.5H142.7Z" fill="#D1FB84"/>
<path fill-rule="evenodd" clip-rule="evenodd" d="M230.7 639.6H156.4V639.5H230.7V639.6ZM202.1 605.2H207.9L207.9 605.3H202.1V605.2ZM202.1 610.9V611H185V610.9H202.1ZM185 605.3V605.2H179.3V605.3H185Z" fill="#D1FB84"/>
<path fill-rule="evenodd" clip-rule="evenodd" d="M228.4 138.2H204.2L204.2 138.1H228.4V138.2ZM142.7 262.6V269.6H239.8V269.5H169.9V268.3H158.4V262.6H142.7Z" fill="#D1FB84"/>
</g>
<defs>
<filter id="filter0_d" x="35.5996" y="49.5996" width="656.4" height="632.8" filterUnits="userSpaceOnUse" color-interpolation-filters="sRGB" filterRes="800">
<feFlood flood-opacity="0" result="BackgroundImageFix"/>
<feColorMatrix in="SourceAlpha" type="matrix" values="0 0 0 0 0 0 0 0 0 0 0 0 0 0 0 0 0 0 127 0"/>
<feOffset/>
<feGaussianBlur stdDeviation="10"/>
<feColorMatrix type="matrix" values="0 0 0 0 0.707769 0 0 0 0 0.85 0 0 0 0 0.447012 0 0 0 1 0"/>
<feBlend mode="normal" in2="BackgroundImageFix" result="effect1_dropShadow"/>
<feBlend mode="normal" in="SourceGraphic" in2="effect1_dropShadow" result="shape"/>
</filter>
</defs>
</svg>
