<svg width="800" height="800" viewBox="0 0 800 800" fill="none" xmlns="http://www.w3.org/2000/svg">
<g filter="url(#filter0_d)">
<path d="M583.5 639.899V618.899H589.5V621.899H592.5V624.899H595.5V621.899H598.5V618.899H604.5V639.899H598.5V627.899H595.5V633.899H592.5V627.899H589.5V639.899H583.5Z" fill="#D1FB84"/>
<path d="M610.5 642.899V639.899H622.5V636.899H610.5V633.899H607.5V624.899H613.5V633.899H622.5V624.899H628.5V639.899H625.5V642.899H610.5Z" fill="#D1FB84"/>
<path d="M634.5 639.899V636.899H631.5V633.899H637.5V636.899H646.5V630.899H634.5V627.899H631.5V621.899H634.5V618.899H649.5V621.899H652.5V624.899H646.5V621.899H637.5V627.899H649.5V630.899H652.5V636.899H649.5V639.899H634.5Z" fill="#D1FB84"/>
<path d="M676.5 621.899V633.899H673.5V636.899H670.5V639.899H658.5V636.899H655.5V621.899H658.5V618.899H673.5V621.899H676.5ZM670.5 621.899H661.5V636.899H667.5V633.899H664.5V630.899H670.5V621.899ZM673.5 639.899V636.899H676.5V639.899H673.5Z" fill="#D1FB84"/>
<path d="M682.5 639.899V618.899H688.5V636.899H700.5V639.899H682.5Z" fill="#D1FB84"/>
<path d="M668.8 506.599H663.1V512.299H668.8V580.899H674.5V495.099H668.8V506.599Z" fill="#D1FB84"/>
<path d="M668.8 580.899H663.1V586.599H668.8V580.899Z" fill="#D1FB84"/>
<path d="M668.8 489.399H663.1V495.099H668.8V489.399Z" fill="#D1FB84"/>
<path d="M663.1 586.599H657.4V592.299H663.1V586.599Z" fill="#D1FB84"/>
<path d="M663.1 512.299H657.4V517.999H663.1V512.299Z" fill="#D1FB84"/>
<path d="M663.1 483.699H657.4V489.399H663.1V483.699Z" fill="#D1FB84"/>
<path d="M623.1 592.299V597.999H657.4V592.299H623.1Z" fill="#D1FB84"/>
<path d="M623.1 517.999V523.699H657.4V517.999H623.1Z" fill="#D1FB84"/>
<path d="M657.4 483.699V477.999H623.1V483.699H657.4Z" fill="#D1FB84"/>
<path d="M623.1 586.599H617.4V592.299H623.1V586.599Z" fill="#D1FB84"/>
<path d="M623.1 512.299H617.4V517.999H623.1V512.299Z" fill="#D1FB84"/>
<path d="M623.1 483.699H617.4V489.399H623.1V483.699Z" fill="#D1FB84"/>
<path d="M617.4 580.899H611.7V586.599H617.4V580.899Z" fill="#D1FB84"/>
<path d="M617.4 489.399H611.7V495.099H617.4V489.399Z" fill="#D1FB84"/>
<path d="M611.7 512.299H617.4V506.599H611.7V495.099H605.9V580.899H611.7V512.299Z" fill="#D1FB84"/>
<path d="M697.4 180.699H703.1V134.999H697.4V180.699Z" fill="#D1FB84"/>
<path d="M697.4 186.399V180.699H611.7V186.399H697.4Z" fill="#D1FB84"/>
<path d="M685.9 163.599V152.099H674.5V163.599H685.9Z" fill="#D1FB84"/>
<path d="M697.4 134.999V129.299H663.1V134.999H697.4Z" fill="#D1FB84"/>
<path d="M657.4 129.299H663.1V106.399H657.4V129.299Z" fill="#D1FB84"/>
<path d="M657.4 106.399V100.699H645.9V106.399H657.4Z" fill="#D1FB84"/>
<path d="M645.9 106.399H640.2V129.299H645.9V106.399Z" fill="#D1FB84"/>
<path d="M640.2 134.999V129.299H628.8V134.999H640.2Z" fill="#D1FB84"/>
<path d="M623.1 129.299H628.8V106.399H623.1V129.299Z" fill="#D1FB84"/>
<path d="M623.1 106.399V100.699H611.7V106.399H623.1Z" fill="#D1FB84"/>
<path d="M611.7 106.399H605.9V180.699H611.7V106.399Z" fill="#D1FB84"/>
<path d="M577 209.999H559V230.999H565V224.999H568V227.999H571V230.999H580V227.999H577V224.999H574V221.999H580V212.999H577V209.999ZM574 218.999H571V221.999H565V212.999H574V218.999Z" fill="#D1FB84"/>
<path d="M601 215.999H586V218.999H598V221.999H586V224.999H583V227.999H586V230.999H604V218.999H601V215.999ZM598 227.999H589V224.999H598V227.999Z" fill="#D1FB84"/>
<path d="M607 209.999V227.999H610V230.999H625V227.999H628V218.999H625V215.999H613V209.999H607ZM622 218.999V227.999H613V218.999H622Z" fill="#D1FB84"/>
<path d="M631 209.999V227.999H634V230.999H649V227.999H652V218.999H649V215.999H637V209.999H631ZM646 218.999V227.999H637V218.999H646Z" fill="#D1FB84"/>
<path d="M670 209.999H664V212.999H670V209.999Z" fill="#D1FB84"/>
<path d="M670 215.999H661V218.999H664V227.999H658V230.999H676V227.999H670V215.999Z" fill="#D1FB84"/>
<path d="M694 209.999H688V215.999H682V218.999H688V230.999H694V218.999H700V215.999H694V209.999Z" fill="#D1FB84"/>
<path d="M718 212.999H715V215.999H712V212.999H709V209.999H703V230.999H709V218.999H712V224.999H715V218.999H718V230.999H724V209.999H718V212.999Z" fill="#D1FB84"/>
<path d="M745 209.999H730V212.999H727V227.999H730V230.999H742V227.999H745V224.999H748V212.999H745V209.999ZM742 221.999H736V224.999H739V227.999H733V212.999H742V221.999Z" fill="#D1FB84"/>
<path d="M748 227.999H745V230.999H748V227.999Z" fill="#D1FB84"/>
<path d="M81.6 563.299V548.299H84.6V545.299H87.6V542.299H96.6V545.299H99.6V548.299H102.6V563.299H96.6V557.299H87.6V563.299H81.6ZM87.6 554.299H96.6V548.299H93.6V545.299H90.6V548.299H87.6V554.299Z" fill="#D1FB84"/>
<path d="M105.6 566.299V548.299H123.6V551.299H126.6V557.299H123.6V560.299H111.6V566.299H105.6ZM111.6 557.299H120.6V551.299H111.6V557.299Z" fill="#D1FB84"/>
<path d="M129.6 566.299V548.299H147.6V551.299H150.6V557.299H147.6V560.299H135.6V566.299H129.6ZM135.6 557.299H144.6V551.299H135.6V557.299Z" fill="#D1FB84"/>
<path d="M74.5 370.899V367.899H71.5V364.899H77.5V367.899H86.5V361.899H74.5V358.899H71.5V352.899H74.5V349.899H89.5V352.899H92.5V355.899H86.5V352.899H77.5V358.899H89.5V361.899H92.5V367.899H89.5V370.899H74.5Z" fill="#D1FB84"/>
<path d="M98.5 370.899V367.899H104.5V358.899H101.5V355.899H110.5V367.899H116.5V370.899H98.5ZM104.5 352.899V349.899H110.5V352.899H104.5Z" fill="#D1FB84"/>
<path d="M128.5 370.899V358.899H122.5V355.899H128.5V349.899H134.5V355.899H140.5V358.899H134.5V370.899H128.5Z" fill="#D1FB84"/>
<path d="M146.5 370.899V367.899H143.5V358.899H146.5V355.899H161.5V358.899H164.5V364.899H149.5V367.899H161.5V370.899H146.5ZM149.5 361.899H158.5V358.899H149.5V361.899Z" fill="#D1FB84"/>
<path d="M574.2 284.999H579.9V262.299H557V267.999H568.5V273.699H574.2V284.999Z" fill="#D1FB84"/>
<path d="M568.5 273.699H562.8V279.399H568.5V273.699Z" fill="#D1FB84"/>
<path d="M562.8 279.399H557.1V285.099H562.8V279.399Z" fill="#D1FB84"/>
<path d="M557.1 285.099H551.4V290.799H557.1V285.099Z" fill="#D1FB84"/>
<path d="M551.4 290.899H545.7V296.599H551.4V290.899Z" fill="#D1FB84"/>
<path d="M545.6 296.599H539.9V302.299H545.6V296.599Z" fill="#D1FB84"/>
<path d="M539.9 302.299H534.2V307.999H539.9V302.299Z" fill="#D1FB84"/>
<path d="M534.2 307.999H528.5V313.699H534.2V307.999Z" fill="#D1FB84"/>
<path d="M528.5 313.699H522.8V319.399H528.5V313.699Z" fill="#D1FB84"/>
<path d="M522.8 319.399H517.1V325.099H522.8V319.399Z" fill="#D1FB84"/>
<path d="M517.1 325.099H511.4V330.799H517.1V325.099Z" fill="#D1FB84"/>
<path d="M511.3 330.899H505.6V336.599H511.3V330.899Z" fill="#D1FB84"/>
<path d="M505.6 336.599H499.9V342.299H505.6V336.599Z" fill="#D1FB84"/>
<path d="M499.9 342.299H494.2V347.999H499.9V342.299Z" fill="#D1FB84"/>
<path d="M139.2 507.299H144.9V410.099H139.2V507.299Z" fill="#D1FB84"/>
<path d="M93.5 507.299V512.999H139.2V507.299H93.5Z" fill="#D1FB84"/>
<path d="M110.7 490.099V501.599H122.1V490.099H110.7Z" fill="#D1FB84"/>
<path d="M139.2 410.099V404.399H93.5V410.099H139.2Z" fill="#D1FB84"/>
<path d="M93.5 410.099H87.8V507.299H93.5V410.099Z" fill="#D1FB84"/>
<path d="M51.5 223.399V326.299H182.9V223.399H51.5ZM177.2 257.799H57.2V229.199H177.2V257.799Z" fill="#D1FB84"/>
<path d="M171.5 246.299H165.8V251.999H171.5V246.299Z" fill="#D1FB84"/>
<path d="M171.5 234.899H165.8V240.599H171.5V234.899Z" fill="#D1FB84"/>
<path d="M165.8 240.599H160.1V246.299H165.8V240.599Z" fill="#D1FB84"/>
<path d="M160.1 246.299H154.4V251.999H160.1V246.299Z" fill="#D1FB84"/>
<path d="M160.1 234.899H154.4V240.599H160.1V234.899Z" fill="#D1FB84"/>
<path d="M131.5 246.299V251.999H148.6V246.299H131.5Z" fill="#D1FB84"/>
<path d="M318.3 373.399H312.6V379.099H202V384.899H312.6V390.599H318.3V384.899H324V379.099H318.3V373.399Z" fill="#D1FB84"/>
<path d="M312.6 390.599H306.9V396.299H312.6V390.599Z" fill="#D1FB84"/>
<path d="M312.6 367.699H306.9V373.399H312.6V367.699Z" fill="#D1FB84"/>
<path d="M575.9 495.599V506.799H570.2V512.599H558.7V518.299H581.6V495.599H575.9Z" fill="#D1FB84"/>
<path d="M570.2 501.099H564.5V506.799H570.2V501.099Z" fill="#D1FB84"/>
<path d="M564.4 495.399H558.7V501.099H564.4V495.399Z" fill="#D1FB84"/>
<path d="M558.7 489.699H553V495.399H558.7V489.699Z" fill="#D1FB84"/>
<path d="M553 483.999H547.3V489.699H553V483.999Z" fill="#D1FB84"/>
<path d="M547.3 478.299H541.6V483.999H547.3V478.299Z" fill="#D1FB84"/>
<path d="M541.6 472.599H535.9V478.299H541.6V472.599Z" fill="#D1FB84"/>
<path d="M535.9 466.799H530.2V472.499H535.9V466.799Z" fill="#D1FB84"/>
<path d="M530.2 461.099H524.5V466.799H530.2V461.099Z" fill="#D1FB84"/>
<path d="M524.4 455.399H518.7V461.099H524.4V455.399Z" fill="#D1FB84"/>
<path d="M518.7 449.699H513V455.399H518.7V449.699Z" fill="#D1FB84"/>
<path d="M513 443.999H507.3V449.699H513V443.999Z" fill="#D1FB84"/>
<path d="M507.3 438.299H501.6V443.999H507.3V438.299Z" fill="#D1FB84"/>
<path d="M501.6 432.599H495.9V438.299H501.6V432.599Z" fill="#D1FB84"/>
<path d="M427.2 397.699V391.899H421.4V409.099H427.2V403.399H450V397.699H427.2Z" fill="#D1FB84"/>
<path d="M420 311.899V311.999H425.8V317.699H461.4V460.499H364.3V346.299H358.6V466.199H467.2V311.899H420Z" fill="#D1FB84"/>
<path d="M375.7 443.399V449.099H450V443.399H375.7Z" fill="#D1FB84"/>
<path d="M450 357.699H375.7V374.799H450V357.699ZM444.3 369.099H381.4V363.399H444.3V369.099Z" fill="#D1FB84"/>
<path d="M450 329.099H425.8V334.799H444.3V340.499H425.8V340.599H420V346.199H450V329.099Z" fill="#D1FB84"/>
<path d="M421.4 414.799V409.099H404.3V414.799H421.4Z" fill="#D1FB84"/>
<path d="M421.4 391.899V386.199H404.3V391.899H421.4Z" fill="#D1FB84"/>
<path d="M404.3 391.899H398.6V397.699H375.7V403.399H398.6V409.099H404.3V391.899Z" fill="#D1FB84"/>
<path d="M420 311.899V306.299H408.6V300.599H402.9V283.499H397.2V271.999H391.5V266.299H380V260.599H345.8V266.299H334.3V283.499H311.5V289.199H305.8V294.899H300V311.999H282.9V317.799H277.2V340.599H282.9V346.299H358.6V311.899H420Z" fill="#D1FB84"/>
<path d="M364.3 346.299V317.699H425.8V311.999H420V311.899H358.6V346.299H364.3Z" fill="#D1FB84"/>
<path d="M425.8 340.599V340.499H381.4V334.799H425.8V329.099H375.7V346.199H420V340.599H425.8Z" fill="#D1FB84"/>
<path fill-rule="evenodd" clip-rule="evenodd" d="M427.2 391.899H421.4V409.099H427.2V403.399H450V397.699H427.2V391.899Z" fill="#D1FB84"/>
</g>
<defs>
<filter id="filter0_d" x="31.5" y="80.6992" width="736.5" height="582.2" filterUnits="userSpaceOnUse" color-interpolation-filters="sRGB" filterRes="800">
<feFlood flood-opacity="0" result="BackgroundImageFix"/>
<feColorMatrix in="SourceAlpha" type="matrix" values="0 0 0 0 0 0 0 0 0 0 0 0 0 0 0 0 0 0 127 0"/>
<feOffset/>
<feGaussianBlur stdDeviation="10"/>
<feColorMatrix type="matrix" values="0 0 0 0 0.707769 0 0 0 0 0.85 0 0 0 0 0.447012 0 0 0 1 0"/>
<feBlend mode="normal" in2="BackgroundImageFix" result="effect1_dropShadow"/>
<feBlend mode="normal" in="SourceGraphic" in2="effect1_dropShadow" result="shape"/>
</filter>
</defs>
</svg>
