<svg width="800" height="800" viewBox="0 0 800 800" fill="none" xmlns="http://www.w3.org/2000/svg">
<g filter="url(#filter0_d)">
<path d="M625.7 158.301H619.9V164.001H505.4H584.7H560.2V169.701H584.7H505.4H619.9V175.401H625.7V169.701H631.4V164.001H625.7V158.301Z" fill="#D1FB84"/>
<path d="M625.7 545.301H619.9V551.001H505.4H584.7H560.2V556.701H584.7H505.4H619.9V562.401H625.7V556.701H631.4V551.001H625.7V545.301Z" fill="#D1FB84"/>
<path d="M625.7 351.301H619.9V357.001H505.4H584.7H560.2V362.701H584.7H505.4H619.9V368.401H625.7V362.701H631.4V357.001H625.7V351.301Z" fill="#D1FB84"/>
<path d="M619.9 562.401H614.2V568.101H619.9V562.401Z" fill="#D1FB84"/>
<path d="M619.9 539.601H614.2V545.301H619.9V539.601Z" fill="#D1FB84"/>
<path d="M619.9 368.401H614.2V374.101H619.9V368.401Z" fill="#D1FB84"/>
<path d="M619.9 345.601H614.2V351.301H619.9V345.601Z" fill="#D1FB84"/>
<path d="M619.9 175.401H614.2V181.101H619.9V175.401Z" fill="#D1FB84"/>
<path d="M619.9 152.601H614.2V158.301H619.9V152.601Z" fill="#D1FB84"/>
<path d="M58.5 643.901V622.901H64.5V625.901H67.5V628.901H70.5V625.901H73.5V622.901H79.5V643.901H73.5V631.901H70.5V637.901H67.5V631.901H64.5V643.901H58.5Z" fill="#D1FB84"/>
<path d="M85.5 646.901V643.901H97.5V640.901H85.5V637.901H82.5V628.901H88.5V637.901H97.5V628.901H103.5V643.901H100.5V646.901H85.5Z" fill="#D1FB84"/>
<path d="M109.5 643.901V640.901H106.5V637.901H112.5V640.901H121.5V634.901H109.5V631.901H106.5V625.901H109.5V622.901H124.5V625.901H127.5V628.901H121.5V625.901H112.5V631.901H124.5V634.901H127.5V640.901H124.5V643.901H109.5Z" fill="#D1FB84"/>
<path d="M151.5 625.901V637.901H148.5V640.901H145.5V643.901H133.5V640.901H130.5V625.901H133.5V622.901H148.5V625.901H151.5ZM145.5 625.901H136.5V640.901H142.5V637.901H139.5V634.901H145.5V625.901ZM148.5 643.901V640.901H151.5V643.901H148.5Z" fill="#D1FB84"/>
<path d="M157.5 643.901V622.901H163.5V640.901H175.5V643.901H157.5Z" fill="#D1FB84"/>
<path d="M143.8 510.601H138.1V516.301H143.8V584.901H149.5V499.101H143.8V510.601Z" fill="#D1FB84"/>
<path d="M143.8 584.901H138.1V590.601H143.8V584.901Z" fill="#D1FB84"/>
<path d="M143.8 493.401H138.1V499.101H143.8V493.401Z" fill="#D1FB84"/>
<path d="M138.1 590.601H132.4V596.301H138.1V590.601Z" fill="#D1FB84"/>
<path d="M138.1 516.301H132.4V522.001H138.1V516.301Z" fill="#D1FB84"/>
<path d="M138.1 487.701H132.4V493.401H138.1V487.701Z" fill="#D1FB84"/>
<path d="M98.1 596.301V602.001H132.4V596.301H98.1Z" fill="#D1FB84"/>
<path d="M98.1 522.001V527.701H132.4V522.001H98.1Z" fill="#D1FB84"/>
<path d="M132.4 487.701V482.001H98.1V487.701H132.4Z" fill="#D1FB84"/>
<path d="M98.1 590.601H92.4V596.301H98.1V590.601Z" fill="#D1FB84"/>
<path d="M98.1 516.301H92.4V522.001H98.1V516.301Z" fill="#D1FB84"/>
<path d="M98.1 487.701H92.4V493.401H98.1V487.701Z" fill="#D1FB84"/>
<path d="M92.4 584.901H86.7V590.601H92.4V584.901Z" fill="#D1FB84"/>
<path d="M92.4 493.401H86.7V499.101H92.4V493.401Z" fill="#D1FB84"/>
<path d="M86.7 516.301H92.4V510.601H86.7V499.101H80.9V584.901H86.7V516.301Z" fill="#D1FB84"/>
<path d="M538.1 568.201H543.8V539.601H538.1V568.201Z" fill="#D1FB84"/>
<path d="M538.1 374.101H543.8V345.601H538.1V374.101Z" fill="#D1FB84"/>
<path d="M538.1 181.101H543.8V152.601H538.1V181.101Z" fill="#D1FB84"/>
<path d="M538.1 568.201H532.4V573.901H538.1V568.201Z" fill="#D1FB84"/>
<path d="M538.1 533.901H532.4V539.601H538.1V533.901Z" fill="#D1FB84"/>
<path d="M538.1 374.101H532.4V379.801H538.1V374.101Z" fill="#D1FB84"/>
<path d="M538.1 339.901H532.4V345.601H538.1V339.901Z" fill="#D1FB84"/>
<path d="M538.1 181.101H532.4V186.801H538.1V181.101Z" fill="#D1FB84"/>
<path d="M538.1 146.901H532.4V152.601H538.1V146.901Z" fill="#D1FB84"/>
<path d="M360.9 573.901V568.201H355.2V573.901H349.5V579.601H532.4V573.901H360.9Z" fill="#D1FB84"/>
<path d="M360.9 379.901V374.101H355.2V379.901H349.5V385.601H532.4V379.901H360.9Z" fill="#D1FB84"/>
<path d="M360.9 186.901V181.101H355.2V186.901H349.5V192.601H532.4V186.901H360.9Z" fill="#D1FB84"/>
<path d="M360.9 568.201H366.6V539.601H360.9V568.201Z" fill="#D1FB84"/>
<path d="M360.9 374.101H366.6V345.601H360.9V374.101Z" fill="#D1FB84"/>
<path d="M360.9 181.101H366.6V152.601H360.9V181.101Z" fill="#D1FB84"/>
<path d="M355.2 539.601H360.9V533.901H532.4V528.201H349.5V533.901H355.2V539.601Z" fill="#D1FB84"/>
<path d="M355.2 345.601H360.9V339.901H532.4V334.101H349.5V339.901H355.2V345.601Z" fill="#D1FB84"/>
<path d="M355.2 152.601H360.9V146.901H532.4V141.101H349.5V146.901H355.2V152.601Z" fill="#D1FB84"/>
<path d="M349.5 568.201H343.8V573.901H349.5V568.201Z" fill="#D1FB84"/>
<path d="M349.5 533.901H343.8V539.601H349.5V533.901Z" fill="#D1FB84"/>
<path d="M349.5 374.101H343.8V379.801H349.5V374.101Z" fill="#D1FB84"/>
<path d="M349.5 339.901H343.8V345.601H349.5V339.901Z" fill="#D1FB84"/>
<path d="M349.5 181.101H343.8V186.801H349.5V181.101Z" fill="#D1FB84"/>
<path d="M349.5 146.901H343.8V152.601H349.5V146.901Z" fill="#D1FB84"/>
<path d="M343.8 539.601H338.1V568.201H343.8V539.601Z" fill="#D1FB84"/>
<path d="M343.8 345.601H338.1V374.101H343.8V345.601Z" fill="#D1FB84"/>
<path d="M343.8 152.601H338.1V181.101H343.8V152.601Z" fill="#D1FB84"/>
<path d="M172.4 184.701H178.1V139.001H172.4V184.701Z" fill="#D1FB84"/>
<path d="M172.4 190.401V184.701H86.7V190.401H172.4Z" fill="#D1FB84"/>
<path d="M160.9 167.601V156.101H149.5V167.601H160.9Z" fill="#D1FB84"/>
<path d="M172.4 139.001V133.301H138.1V139.001H172.4Z" fill="#D1FB84"/>
<path d="M132.4 133.301H138.1V110.401H132.4V133.301Z" fill="#D1FB84"/>
<path d="M132.4 110.401V104.701H120.9V110.401H132.4Z" fill="#D1FB84"/>
<path d="M120.9 110.401H115.2V133.301H120.9V110.401Z" fill="#D1FB84"/>
<path d="M115.2 139.001V133.301H103.8V139.001H115.2Z" fill="#D1FB84"/>
<path d="M98.1 133.301H103.8V110.401H98.1V133.301Z" fill="#D1FB84"/>
<path d="M98.1 110.401V104.701H86.7V110.401H98.1Z" fill="#D1FB84"/>
<path d="M86.7 110.401H80.9V184.701H86.7V110.401Z" fill="#D1FB84"/>
<path d="M52 214.001H34V235.001H40V229.001H43V232.001H46V235.001H55V232.001H52V229.001H49V226.001H55V217.001H52V214.001ZM49 223.001H46V226.001H40V217.001H49V223.001Z" fill="#D1FB84"/>
<path d="M76 220.001H61V223.001H73V226.001H61V229.001H58V232.001H61V235.001H79V223.001H76V220.001ZM73 232.001H64V229.001H73V232.001Z" fill="#D1FB84"/>
<path d="M82 214.001V232.001H85V235.001H100V232.001H103V223.001H100V220.001H88V214.001H82ZM97 223.001V232.001H88V223.001H97Z" fill="#D1FB84"/>
<path d="M106 214.001V232.001H109V235.001H124V232.001H127V223.001H124V220.001H112V214.001H106ZM121 223.001V232.001H112V223.001H121Z" fill="#D1FB84"/>
<path d="M145 214.001H139V217.001H145V214.001Z" fill="#D1FB84"/>
<path d="M145 220.001H136V223.001H139V232.001H133V235.001H151V232.001H145V220.001Z" fill="#D1FB84"/>
<path d="M169 214.001H163V220.001H157V223.001H163V235.001H169V223.001H175V220.001H169V214.001Z" fill="#D1FB84"/>
<path d="M193 217.001H190V220.001H187V217.001H184V214.001H178V235.001H184V223.001H187V229.001H190V223.001H193V235.001H199V214.001H193V217.001Z" fill="#D1FB84"/>
<path d="M220 214.001H205V217.001H202V232.001H205V235.001H217V232.001H220V229.001H223V217.001H220V214.001ZM217 226.001H211V229.001H214V232.001H208V217.001H217V226.001Z" fill="#D1FB84"/>
<path d="M223 232.001H220V235.001H223V232.001Z" fill="#D1FB84"/>
<path d="M303.3 164.001V158.301H297.5V164.001H196V169.701H251.8V169.801H262.9V556.701H297.4V562.401H303.1V556.701H308.8V551.001H303.1V545.301H297.4V551.001H268.6V362.701H297.4V368.401H303.1V362.701H308.8V357.001H303.1V351.301H297.4V357.001H268.6V169.801H297.5V175.501H303.3V169.801H309V164.001H303.3Z" fill="#D1FB84"/>
<path d="M297.5 175.501H291.8V181.201H297.5V175.501Z" fill="#D1FB84"/>
<path d="M297.5 152.601H291.8V158.301H297.5V152.601Z" fill="#D1FB84"/>
<path d="M297.4 368.401H291.7V374.101H297.4V368.401Z" fill="#D1FB84"/>
<path d="M297.4 345.601H291.7V351.301H297.4V345.601Z" fill="#D1FB84"/>
<path d="M297.4 562.401H291.7V568.101H297.4V562.401Z" fill="#D1FB84"/>
<path d="M297.4 539.601H291.7V545.301H297.4V539.601Z" fill="#D1FB84"/>
<path d="M710.9 89.6008V89.7008H716.7V95.4008H752.3V238.201H682.4H655.2V231.301V124.001H649.5V243.901H758.1V89.6008H710.9Z" fill="#D1FB84"/>
<path d="M666.6 221.101V226.801H740.9V221.101H666.6Z" fill="#D1FB84"/>
<path d="M718.1 175.401V169.601H712.3V186.801H718.1V181.101H740.9V175.401H718.1Z" fill="#D1FB84"/>
<path d="M740.9 135.401H666.6V152.501H740.9V135.401ZM735.2 146.801H672.3V141.101H735.2V146.801Z" fill="#D1FB84"/>
<path d="M740.9 106.801H716.7V112.501H735.2V118.201H716.7V118.301H710.9V123.901H740.9V106.801Z" fill="#D1FB84"/>
<path d="M695.2 186.801V192.501H712.3V186.801H695.2Z" fill="#D1FB84"/>
<path d="M712.3 169.601V163.901H695.2V169.601H712.3Z" fill="#D1FB84"/>
<path d="M695.2 169.601H689.5V175.401H666.6V181.101H689.5V186.801H695.2V169.601Z" fill="#D1FB84"/>
<path d="M710.9 89.6008V84.0008H699.5V78.3008H693.8V61.2008H688.1V49.7008H682.4V44.0008H670.9V38.3008H636.7V44.0008H625.2V61.2008H602.4V66.9008H596.7V72.6008H590.9V89.7008H573.8V95.5008H568.1V118.301H573.8V124.001H649.5V89.6008H710.9Z" fill="#D1FB84"/>
<path d="M655.2 124.001V95.4008H716.7V89.7008H710.9V89.6008H649.5V124.001H655.2Z" fill="#D1FB84"/>
<path d="M716.7 118.301V118.201H672.3V112.501H716.7V106.801H666.6V123.901L710.9 123.901V118.301H716.7Z" fill="#D1FB84"/>
<path d="M710.9 282.601V282.701H716.7V288.401H752.3V431.201H684.7H655.2V425.401V317.001H649.5V436.901H758.1V282.601H710.9Z" fill="#D1FB84"/>
<path d="M666.6 414.101V419.801H740.9V414.101H666.6Z" fill="#D1FB84"/>
<path d="M718.1 368.401V362.601H712.3V379.801H718.1V374.101H740.9V368.401H718.1Z" fill="#D1FB84"/>
<path d="M740.9 328.401H666.6V345.501H740.9V328.401ZM735.2 339.801H672.3V334.101H735.2V339.801Z" fill="#D1FB84"/>
<path d="M740.9 299.801H716.7V305.501H735.2V311.201H716.7V311.301H710.9V316.901H740.9V299.801Z" fill="#D1FB84"/>
<path d="M695.2 379.801V385.501H712.3V379.801H695.2Z" fill="#D1FB84"/>
<path d="M712.3 362.601V356.901H695.2V362.601H712.3Z" fill="#D1FB84"/>
<path d="M695.2 362.601H689.5V368.401H666.6V374.101H689.5V379.801H695.2V362.601Z" fill="#D1FB84"/>
<path d="M710.9 282.601V277.001H699.5V271.301H693.8V254.201H688.1V242.701H682.4V238.201V237.001H670.9V231.301H655.2H636.7V237.001H625.2V254.201H602.4V259.901H596.7V265.601H590.9V282.701H573.8V288.501H568.1V311.301H573.8V317.001H649.5V282.601H710.9Z" fill="#D1FB84"/>
<path d="M655.2 317.001V288.401H716.7V282.701H710.9V282.601H649.5V317.001H655.2Z" fill="#D1FB84"/>
<path d="M716.7 311.301V311.201H672.3V305.501H716.7V299.801H666.6V316.901H710.9V311.301H716.7Z" fill="#D1FB84"/>
<path d="M713.2 476.701V476.801H719V482.501H754.6V625.301H657.5V511.101H651.8V631.001H760.4V476.701H713.2Z" fill="#D1FB84"/>
<path d="M668.9 608.201V613.901H743.2V608.201H668.9Z" fill="#D1FB84"/>
<path d="M720.4 562.501V556.701H714.6V573.901H720.4V568.201H743.2V562.501H720.4Z" fill="#D1FB84"/>
<path d="M743.2 522.501H668.9V539.601H743.2V522.501ZM737.5 533.901H674.6V528.201H737.5V533.901Z" fill="#D1FB84"/>
<path d="M743.2 493.901H719V499.601H737.5V505.301H719V505.401H713.2V511.001H743.2V493.901Z" fill="#D1FB84"/>
<path d="M697.5 573.901V579.601H714.6V573.901H697.5Z" fill="#D1FB84"/>
<path d="M714.6 556.701V551.001H697.5V556.701H714.6Z" fill="#D1FB84"/>
<path d="M697.5 556.701H691.8V562.501H668.9V568.201H691.8V573.901H697.5V556.701Z" fill="#D1FB84"/>
<path d="M713.2 476.701V471.101H701.8V465.401H696.1V448.301H690.4V436.801H684.7V431.201V431.101H673.2V425.401H655.2H639V431.101H627.5V448.301H604.7V454.001H599V459.701H593.2V476.801H576.1V482.601H570.4V505.401H576.1V511.101H651.8V476.701H713.2Z" fill="#D1FB84"/>
<path d="M657.5 511.101V482.501H719V476.801H713.2V476.701H651.8V511.101H657.5Z" fill="#D1FB84"/>
<path d="M719 505.401V505.301H674.6V499.601H719V493.901H668.9V511.001H713.2V505.401H719Z" fill="#D1FB84"/>
<path fill-rule="evenodd" clip-rule="evenodd" d="M655.2 238.201V231.301H670.9V237.001H682.4V238.201H655.2Z" fill="#D1FB84"/>
<path fill-rule="evenodd" clip-rule="evenodd" d="M655.2 431.201V425.401H673.2V431.101H684.7V431.201H655.2Z" fill="#D1FB84"/>
</g>
<defs>
<filter id="filter0_d" x="14" y="18.3008" width="766.4" height="648.6" filterUnits="userSpaceOnUse" color-interpolation-filters="sRGB" filterRes="800">
<feFlood flood-opacity="0" result="BackgroundImageFix"/>
<feColorMatrix in="SourceAlpha" type="matrix" values="0 0 0 0 0 0 0 0 0 0 0 0 0 0 0 0 0 0 127 0"/>
<feOffset/>
<feGaussianBlur stdDeviation="10"/>
<feColorMatrix type="matrix" values="0 0 0 0 0.707769 0 0 0 0 0.85 0 0 0 0 0.447012 0 0 0 1 0"/>
<feBlend mode="normal" in2="BackgroundImageFix" result="effect1_dropShadow"/>
<feBlend mode="normal" in="SourceGraphic" in2="effect1_dropShadow" result="shape"/>
</filter>
</defs>
</svg>
