<svg width="800" height="800" viewBox="0 0 800 800" fill="none" xmlns="http://www.w3.org/2000/svg">
<g filter="url(#filter0_d)">
<path d="M346.6 563.3V548.3H349.6V545.3H352.6V542.3H361.6V545.3H364.6V548.3H367.6V563.3H361.6V557.3H352.6V563.3H346.6ZM352.6 554.3H361.6V548.3H358.6V545.3H355.6V548.3H352.6V554.3Z" fill="#D1FB84"/>
<path d="M370.6 566.3V548.3H388.6V551.3H391.6V557.3H388.6V560.3H376.6V566.3H370.6ZM376.6 557.3H385.6V551.3H376.6V557.3Z" fill="#D1FB84"/>
<path d="M394.6 566.3V548.3H412.6V551.3H415.6V557.3H412.6V560.3H400.6V566.3H394.6ZM400.6 557.3H409.6V551.3H400.6V557.3Z" fill="#D1FB84"/>
<path d="M131 369.9V366.9H128V348.9H134V360.9H137V348.9H140V360.9H143V348.9H149V366.9H146V369.9H143V366.9H140V363.9H137V366.9H134V369.9H131Z" fill="#D1FB84"/>
<path d="M155 369.9V366.9H152V357.9H155V354.9H170V357.9H173V363.9H158V366.9H170V369.9H155ZM158 360.9H167V357.9H158V360.9Z" fill="#D1FB84"/>
<path d="M182 369.9V366.9H179V363.9H176V354.9H179V351.9H182V348.9H194V351.9H197V354.9H191V351.9H185V354.9H182V363.9H185V366.9H191V363.9H197V366.9H194V369.9H182Z" fill="#D1FB84"/>
<path d="M200 369.9V348.9H206V354.9H218V357.9H221V369.9H215V357.9H206V369.9H200Z" fill="#D1FB84"/>
<path d="M227 369.9V366.9H224V363.9H227V360.9H239V357.9H227V354.9H242V357.9H245V369.9H227ZM230 366.9H239V363.9H230V366.9Z" fill="#D1FB84"/>
<path d="M257 369.9V357.9H251V354.9H257V348.9H263V354.9H269V357.9H263V369.9H257Z" fill="#D1FB84"/>
<path d="M339.5 370.9V367.9H336.5V364.9H342.5V367.9H351.5V361.9H339.5V358.9H336.5V352.9H339.5V349.9H354.5V352.9H357.5V355.9H351.5V352.9H342.5V358.9H354.5V361.9H357.5V367.9H354.5V370.9H339.5Z" fill="#D1FB84"/>
<path d="M363.5 370.9V367.9H369.5V358.9H366.5V355.9H375.5V367.9H381.5V370.9H363.5ZM369.5 352.9V349.9H375.5V352.9H369.5Z" fill="#D1FB84"/>
<path d="M393.5 370.9V358.9H387.5V355.9H393.5V349.9H399.5V355.9H405.5V358.9H399.5V370.9H393.5Z" fill="#D1FB84"/>
<path d="M411.5 370.9V367.9H408.5V358.9H411.5V355.9H426.5V358.9H429.5V364.9H414.5V367.9H426.5V370.9H411.5ZM414.5 361.9H423.5V358.9H414.5V361.9Z" fill="#D1FB84"/>
<path d="M121.3 562.6V559.6H118.3V556.6H115.3V547.6H118.3V544.6H121.3V541.6H133.3V544.6H136.3V547.6H130.3V544.6H124.3V547.6H121.3V556.6H124.3V559.6H130.3V556.6H136.3V559.6H133.3V562.6H121.3Z" fill="#D1FB84"/>
<path d="M142.3 562.6V559.6H139.3V556.6H142.3V553.6H154.3V550.6H142.3V547.6H157.3V550.6H160.3V562.6H142.3ZM145.3 559.6H154.3V556.6H145.3V559.6Z" fill="#D1FB84"/>
<path d="M163.3 562.6V559.6H178.3V556.6H166.3V553.6H163.3V550.6H166.3V547.6H181.3V550.6H169.3V553.6H181.3V556.6H184.3V559.6H181.3V562.6H163.3Z" fill="#D1FB84"/>
<path d="M187.3 562.6V541.6H193.3V547.6H205.3V550.6H208.3V562.6H202.3V550.6H193.3V562.6H187.3Z" fill="#D1FB84"/>
<path d="M214.3 562.6V559.6H211.3V541.6H217.3V547.6H229.3V550.6H232.3V559.6H229.3V562.6H214.3ZM217.3 559.6H226.3V550.6H217.3V559.6Z" fill="#D1FB84"/>
<path d="M238.3 562.6V559.6H235.3V550.6H238.3V547.6H253.3V550.6H256.3V559.6H253.3V562.6H238.3ZM241.3 559.6H250.3V550.6H241.3V559.6Z" fill="#D1FB84"/>
<path d="M259.3 562.6V559.6H262.3V556.6H265.3V553.6H262.3V550.6H259.3V547.6H265.3V550.6H268.3V553.6H271.3V550.6H274.3V547.6H280.3V550.6H277.3V553.6H274.3V556.6H277.3V559.6H280.3V562.6H274.3V559.6H271.3V556.6H268.3V559.6H265.3V562.6H259.3Z" fill="#D1FB84"/>
<path d="M404.2 507.3H409.9V410.1H404.2V507.3Z" fill="#D1FB84"/>
<path d="M358.5 507.3V513H404.2V507.3H358.5Z" fill="#D1FB84"/>
<path d="M375.6 490.1V501.6H387.1V490.1H375.6Z" fill="#D1FB84"/>
<path d="M404.2 410.1V404.4H358.5V410.1H404.2Z" fill="#D1FB84"/>
<path d="M358.5 410.1H352.8V507.3H358.5V410.1Z" fill="#D1FB84"/>
<path d="M266.4 308.9H272.1V280.3H266.4V308.9Z" fill="#D1FB84"/>
<path d="M260.6 320.3H254.9V326H260.6V331.7H266.4V308.9H260.6V320.3Z" fill="#D1FB84"/>
<path d="M260.6 280.3H266.4V268.9H260.6V280.3Z" fill="#D1FB84"/>
<path d="M260.6 263.1H254.9V268.8H260.6V263.1Z" fill="#D1FB84"/>
<path d="M254.9 314.6H249.2V320.3H254.9V314.6Z" fill="#D1FB84"/>
<path d="M209.2 308.9V314.6H249.2V308.9H209.2Z" fill="#D1FB84"/>
<path d="M237.8 274.6V286H249.2V274.6H237.8Z" fill="#D1FB84"/>
<path d="M214.9 274.6V286H226.4V274.6H214.9Z" fill="#D1FB84"/>
<path d="M214.9 257.4H209.2V263.1H254.9V257.4H220.6V240.3H214.9V257.4Z" fill="#D1FB84"/>
<path d="M214.9 234.6H209.2V240.3H214.9V234.6Z" fill="#D1FB84"/>
<path d="M209.2 303.1H203.5V308.8H209.2V303.1Z" fill="#D1FB84"/>
<path d="M209.2 263.1H203.5V268.8H209.2V263.1Z" fill="#D1FB84"/>
<path d="M203.5 297.4H197.8V303.1H203.5V297.4Z" fill="#D1FB84"/>
<path d="M197.8 280.3H203.5V268.9H197.8V280.3Z" fill="#D1FB84"/>
<path d="M209.2 234.6V228.9H197.8V234.6H209.2Z" fill="#D1FB84"/>
<path d="M197.8 280.3H192.1V286H163.5V291.7H192.1V297.4H197.8V280.3Z" fill="#D1FB84"/>
<path d="M192.1 251.7V240.3H180.6V251.7H192.1Z" fill="#D1FB84"/>
<path d="M163.5 291.7H157.8V297.4H163.5V291.7Z" fill="#D1FB84"/>
<path d="M163.5 240.3H152.1V251.7H163.5V240.3Z" fill="#D1FB84"/>
<path d="M157.8 297.4H152.1V303.1H157.8V297.4Z" fill="#D1FB84"/>
<path d="M197.8 228.9V223.1H146.4V228.9H197.8Z" fill="#D1FB84"/>
<path d="M152.1 303.1H146.4V308.8H152.1V303.1Z" fill="#D1FB84"/>
<path d="M146.4 234.6V228.9H134.9V234.6H146.4Z" fill="#D1FB84"/>
<path d="M140.6 280.3H134.9V314.6H146.4V308.9H140.6V280.3Z" fill="#D1FB84"/>
<path d="M134.9 274.6H129.2V280.3H134.9V274.6Z" fill="#D1FB84"/>
<path d="M134.9 234.6H129.2V240.3H134.9V234.6Z" fill="#D1FB84"/>
<path d="M129.2 240.3H123.5V274.6H129.2V240.3Z" fill="#D1FB84"/>
<path d="M316.5 223.4V326.3H447.9V223.4H316.5ZM442.2 257.8H322.2V229.2H442.2V257.8Z" fill="#D1FB84"/>
<path d="M436.5 246.3H430.8V252H436.5V246.3Z" fill="#D1FB84"/>
<path d="M436.5 234.9H430.8V240.6H436.5V234.9Z" fill="#D1FB84"/>
<path d="M430.8 240.6H425.1V246.3H430.8V240.6Z" fill="#D1FB84"/>
<path d="M425.1 246.3H419.4V252H425.1V246.3Z" fill="#D1FB84"/>
<path d="M425.1 234.9H419.4V240.6H425.1V234.9Z" fill="#D1FB84"/>
<path d="M396.5 246.3V252H413.6V246.3H396.5Z" fill="#D1FB84"/>
<path d="M127.6 403.3V500.7H270.9V403.3H127.6ZM259.4 489.3H139V414.8H259.4V489.3Z" fill="#D1FB84"/>
<path d="M207.8 511.8V506.1H190.6V511.8H173.5V523.3H224.9V511.8H207.8Z" fill="#D1FB84"/>
<path d="M583.3 373.4H577.6V379.1H467V384.9H577.6V390.6H583.3V384.9H589V379.1H583.3V373.4Z" fill="#D1FB84"/>
<path d="M577.6 390.6H571.9V396.3H577.6V390.6Z" fill="#D1FB84"/>
<path d="M577.6 367.7H571.9V373.4H577.6V367.7Z" fill="#D1FB84"/>
<path d="M677.9 307.4V307.5H683.7V313.2H719.3V456H622.2V341.8H616.5V461.7H725.1V307.4H677.9Z" fill="#D1FB84"/>
<path d="M633.6 438.9V444.6H707.9V438.9H633.6Z" fill="#D1FB84"/>
<path d="M685.1 393.2V387.4H679.3V404.6H685.1V398.9H707.9V393.2H685.1Z" fill="#D1FB84"/>
<path d="M707.9 353.2H633.6V370.3H707.9V353.2ZM702.2 364.6H639.3V358.9H702.2V364.6Z" fill="#D1FB84"/>
<path d="M707.9 324.6H683.7V330.3H702.2V336H683.7V336.1H677.9V341.7H707.9V324.6Z" fill="#D1FB84"/>
<path d="M662.2 404.6V410.3H679.3V404.6H662.2Z" fill="#D1FB84"/>
<path d="M679.3 387.4V381.7H662.2V387.4H679.3Z" fill="#D1FB84"/>
<path d="M662.2 387.4H656.5V393.2H633.6V398.9H656.5V404.6H662.2V387.4Z" fill="#D1FB84"/>
<path d="M677.9 307.4V301.8H666.5V296.1H660.8V279H655.1V267.5H649.4V261.8H637.9V256.1H603.7V261.8H592.2V279H569.4V284.7H563.7V290.4H557.9V307.5H540.8V313.3H535.1V336.1H540.8V341.8H616.5V307.4H677.9Z" fill="#D1FB84"/>
<path d="M622.2 341.8V313.2H683.7V307.5H677.9V307.4H616.5V341.8H622.2Z" fill="#D1FB84"/>
<path d="M683.7 336.1V336H639.3V330.3H683.7V324.6H633.6V341.7H677.9V336.1H683.7Z" fill="#D1FB84"/>
</g>
<defs>
<filter id="filter0_d" x="95.2998" y="203.1" width="649.8" height="383.2" filterUnits="userSpaceOnUse" color-interpolation-filters="sRGB" filterRes="800">
<feFlood flood-opacity="0" result="BackgroundImageFix"/>
<feColorMatrix in="SourceAlpha" type="matrix" values="0 0 0 0 0 0 0 0 0 0 0 0 0 0 0 0 0 0 127 0"/>
<feOffset/>
<feGaussianBlur stdDeviation="10"/>
<feColorMatrix type="matrix" values="0 0 0 0 0.707769 0 0 0 0 0.85 0 0 0 0 0.447012 0 0 0 1 0"/>
<feBlend mode="normal" in2="BackgroundImageFix" result="effect1_dropShadow"/>
<feBlend mode="normal" in="SourceGraphic" in2="effect1_dropShadow" result="shape"/>
</filter>
</defs>
</svg>
