<svg width="800" height="800" viewBox="0 0 800 800" fill="none" xmlns="http://www.w3.org/2000/svg">
<g filter="url(#filter0_d)">
<path d="M284.5 639.899V618.899H290.5V621.899H293.5V624.899H296.5V621.899H299.5V618.899H305.5V639.899H299.5V627.899H296.5V633.899H293.5V627.899H290.5V639.899H284.5Z" fill="#D1FB84"/>
<path d="M311.5 642.899V639.899H323.5V636.899H311.5V633.899H308.5V624.899H314.5V633.899H323.5V624.899H329.5V639.899H326.5V642.899H311.5Z" fill="#D1FB84"/>
<path d="M335.5 639.899V636.899H332.5V633.899H338.5V636.899H347.5V630.899H335.5V627.899H332.5V621.899H335.5V618.899H350.5V621.899H353.5V624.899H347.5V621.899H338.5V627.899H350.5V630.899H353.5V636.899H350.5V639.899H335.5Z" fill="#D1FB84"/>
<path d="M377.5 621.899V633.899H374.5V636.899H371.5V639.899H359.5V636.899H356.5V621.899H359.5V618.899H374.5V621.899H377.5ZM371.5 621.899H362.5V636.899H368.5V633.899H365.5V630.899H371.5V621.899ZM374.5 639.899V636.899H377.5V639.899H374.5Z" fill="#D1FB84"/>
<path d="M383.5 639.899V618.899H389.5V636.899H401.5V639.899H383.5Z" fill="#D1FB84"/>
<path d="M369.8 506.599H364.1V512.299H369.8V580.899H375.5V495.099H369.8V506.599Z" fill="#D1FB84"/>
<path d="M369.8 580.899H364.1V586.599H369.8V580.899Z" fill="#D1FB84"/>
<path d="M369.8 489.399H364.1V495.099H369.8V489.399Z" fill="#D1FB84"/>
<path d="M364.1 586.599H358.4V592.299H364.1V586.599Z" fill="#D1FB84"/>
<path d="M364.1 512.299H358.4V517.999H364.1V512.299Z" fill="#D1FB84"/>
<path d="M364.1 483.699H358.4V489.399H364.1V483.699Z" fill="#D1FB84"/>
<path d="M324.1 592.299V597.999H358.4V592.299H324.1Z" fill="#D1FB84"/>
<path d="M324.1 517.999V523.699H358.4V517.999H324.1Z" fill="#D1FB84"/>
<path d="M358.4 483.699V477.999H324.1V483.699H358.4Z" fill="#D1FB84"/>
<path d="M324.1 586.599H318.4V592.299H324.1V586.599Z" fill="#D1FB84"/>
<path d="M324.1 512.299H318.4V517.999H324.1V512.299Z" fill="#D1FB84"/>
<path d="M324.1 483.699H318.4V489.399H324.1V483.699Z" fill="#D1FB84"/>
<path d="M318.3 580.899H312.6V586.599H318.3V580.899Z" fill="#D1FB84"/>
<path d="M318.3 489.399H312.6V495.099H318.3V489.399Z" fill="#D1FB84"/>
<path d="M312.6 512.299H318.4V506.599H312.6V495.099H306.9V580.899H312.6V512.299Z" fill="#D1FB84"/>
<path d="M764.1 564.199H769.8V535.599H764.1V564.199Z" fill="#D1FB84"/>
<path d="M764.1 370.099H769.8V341.599H764.1V370.099Z" fill="#D1FB84"/>
<path d="M764.1 177.099H769.8V148.599H764.1V177.099Z" fill="#D1FB84"/>
<path d="M764.1 564.199H758.4V569.899H764.1V564.199Z" fill="#D1FB84"/>
<path d="M764.1 529.899H758.4V535.599H764.1V529.899Z" fill="#D1FB84"/>
<path d="M764.1 370.099H758.4V375.799H764.1V370.099Z" fill="#D1FB84"/>
<path d="M764.1 335.899H758.4V341.599H764.1V335.899Z" fill="#D1FB84"/>
<path d="M764.1 177.099H758.4V182.799H764.1V177.099Z" fill="#D1FB84"/>
<path d="M764.1 142.899H758.4V148.599H764.1V142.899Z" fill="#D1FB84"/>
<path d="M586.9 569.899V564.199H581.2V569.899H575.5V575.599H758.4V569.899H586.9Z" fill="#D1FB84"/>
<path d="M586.9 375.899V370.099H581.2V375.899H575.5V381.599H758.4V375.899H586.9Z" fill="#D1FB84"/>
<path d="M586.9 182.899V177.099H581.2V182.899H575.5V188.599H758.4V182.899H586.9Z" fill="#D1FB84"/>
<path d="M586.9 564.199H592.7V535.599H586.9V564.199Z" fill="#D1FB84"/>
<path d="M586.9 370.099H592.7V341.599H586.9V370.099Z" fill="#D1FB84"/>
<path d="M586.9 177.099H592.7V148.599H586.9V177.099Z" fill="#D1FB84"/>
<path d="M581.2 535.599H586.9V529.899H758.4V524.199H575.5V529.899H581.2V535.599Z" fill="#D1FB84"/>
<path d="M581.2 341.599H586.9V335.899H758.4V330.099H575.5V335.899H581.2V341.599Z" fill="#D1FB84"/>
<path d="M581.2 148.599H586.9V142.899H758.4V137.099H575.5V142.899H581.2V148.599Z" fill="#D1FB84"/>
<path d="M575.5 564.199H569.8V569.899H575.5V564.199Z" fill="#D1FB84"/>
<path d="M575.5 529.899H569.8V535.599H575.5V529.899Z" fill="#D1FB84"/>
<path d="M575.5 370.099H569.8V375.799H575.5V370.099Z" fill="#D1FB84"/>
<path d="M575.5 335.899H569.8V341.599H575.5V335.899Z" fill="#D1FB84"/>
<path d="M575.5 177.099H569.8V182.799H575.5V177.099Z" fill="#D1FB84"/>
<path d="M575.5 142.899H569.8V148.599H575.5V142.899Z" fill="#D1FB84"/>
<path d="M569.8 535.599H564.1V564.199H569.8V535.599Z" fill="#D1FB84"/>
<path d="M569.8 341.599H564.1V370.099H569.8V341.599Z" fill="#D1FB84"/>
<path d="M569.8 148.599H564.1V177.099H569.8V148.599Z" fill="#D1FB84"/>
<path d="M398.4 180.699H404.1V134.999H398.4V180.699Z" fill="#D1FB84"/>
<path d="M398.4 186.399V180.699H312.6V186.399H398.4Z" fill="#D1FB84"/>
<path d="M386.9 163.599V152.099H375.5V163.599H386.9Z" fill="#D1FB84"/>
<path d="M398.4 134.999V129.299H364.1V134.999H398.4Z" fill="#D1FB84"/>
<path d="M358.4 129.299H364.1V106.399H358.4V129.299Z" fill="#D1FB84"/>
<path d="M358.4 106.399V100.699H346.9V106.399H358.4Z" fill="#D1FB84"/>
<path d="M346.9 106.399H341.2V129.299H346.9V106.399Z" fill="#D1FB84"/>
<path d="M341.2 134.999V129.299H329.8V134.999H341.2Z" fill="#D1FB84"/>
<path d="M324.1 129.299H329.8V106.399H324.1V129.299Z" fill="#D1FB84"/>
<path d="M324.1 106.399V100.699H312.6V106.399H324.1Z" fill="#D1FB84"/>
<path d="M312.6 106.399H306.9V180.699H312.6V106.399Z" fill="#D1FB84"/>
<path d="M278 209.999H260V230.999H266V224.999H269V227.999H272V230.999H281V227.999H278V224.999H275V221.999H281V212.999H278V209.999ZM275 218.999H272V221.999H266V212.999H275V218.999Z" fill="#D1FB84"/>
<path d="M302 215.999H287V218.999H299V221.999H287V224.999H284V227.999H287V230.999H305V218.999H302V215.999ZM299 227.999H290V224.999H299V227.999Z" fill="#D1FB84"/>
<path d="M308 209.999V227.999H311V230.999H326V227.999H329V218.999H326V215.999H314V209.999H308ZM323 218.999V227.999H314V218.999H323Z" fill="#D1FB84"/>
<path d="M332 209.999V227.999H335V230.999H350V227.999H353V218.999H350V215.999H338V209.999H332ZM347 218.999V227.999H338V218.999H347Z" fill="#D1FB84"/>
<path d="M371 209.999H365V212.999H371V209.999Z" fill="#D1FB84"/>
<path d="M371 215.999H362V218.999H365V227.999H359V230.999H377V227.999H371V215.999Z" fill="#D1FB84"/>
<path d="M395 209.999H389V215.999H383V218.999H389V230.999H395V218.999H401V215.999H395V209.999Z" fill="#D1FB84"/>
<path d="M419 212.999H416V215.999H413V212.999H410V209.999H404V230.999H410V218.999H413V224.999H416V218.999H419V230.999H425V209.999H419V212.999Z" fill="#D1FB84"/>
<path d="M446 209.999H431V212.999H428V227.999H431V230.999H443V227.999H446V224.999H449V212.999H446V209.999ZM443 221.999H437V224.999H440V227.999H434V212.999H443V221.999Z" fill="#D1FB84"/>
<path d="M449 227.999H446V230.999H449V227.999Z" fill="#D1FB84"/>
<path d="M529.3 159.999V154.299H523.5V159.999H422V165.699H477.8V165.799H488.9V552.699H523.4V558.399H529.1V552.699H534.8V546.999H529.1V541.299H523.4V546.999H494.6V358.699H523.4V364.399H529.1V358.699H534.8V352.999H529.1V347.299H523.4V352.999H494.6V165.799H523.5V171.499H529.3V165.799H535V159.999H529.3Z" fill="#D1FB84"/>
<path d="M523.5 171.499H517.8V177.199H523.5V171.499Z" fill="#D1FB84"/>
<path d="M523.5 148.599H517.8V154.299H523.5V148.599Z" fill="#D1FB84"/>
<path d="M523.4 364.399H517.7V370.099H523.4V364.399Z" fill="#D1FB84"/>
<path d="M523.4 341.599H517.7V347.299H523.4V341.599Z" fill="#D1FB84"/>
<path d="M523.4 558.399L517.7 558.399V564.099H523.4V558.399Z" fill="#D1FB84"/>
<path d="M523.4 535.599H517.7V541.299L523.4 541.299V535.599Z" fill="#D1FB84"/>
<path d="M275.2 284.999H280.9V262.299H258V267.999H269.5V273.699H275.2V284.999Z" fill="#D1FB84"/>
<path d="M269.5 273.699H263.8V279.399H269.5V273.699Z" fill="#D1FB84"/>
<path d="M263.8 279.399H258.1V285.099H263.8V279.399Z" fill="#D1FB84"/>
<path d="M258.1 285.099H252.4V290.799H258.1V285.099Z" fill="#D1FB84"/>
<path d="M252.3 290.899H246.6V296.599H252.3V290.899Z" fill="#D1FB84"/>
<path d="M246.6 296.599H240.9V302.299H246.6V296.599Z" fill="#D1FB84"/>
<path d="M240.9 302.299H235.2V307.999H240.9V302.299Z" fill="#D1FB84"/>
<path d="M235.2 307.999H229.5V313.699H235.2V307.999Z" fill="#D1FB84"/>
<path d="M229.5 313.699H223.8V319.399H229.5V313.699Z" fill="#D1FB84"/>
<path d="M223.8 319.399H218.1V325.099H223.8V319.399Z" fill="#D1FB84"/>
<path d="M218.1 325.099H212.4V330.799H218.1V325.099Z" fill="#D1FB84"/>
<path d="M212.3 330.899H206.6V336.599H212.3V330.899Z" fill="#D1FB84"/>
<path d="M206.6 336.599H200.9V342.299H206.6V336.599Z" fill="#D1FB84"/>
<path d="M200.9 342.299H195.2V347.999H200.9V342.299Z" fill="#D1FB84"/>
<path d="M276.9 495.599V506.799H271.2V512.599H259.7V518.299H282.6V495.599H276.9Z" fill="#D1FB84"/>
<path d="M271.2 501.099H265.5V506.799H271.2V501.099Z" fill="#D1FB84"/>
<path d="M265.4 495.399H259.7V501.099H265.4V495.399Z" fill="#D1FB84"/>
<path d="M259.7 489.699H254V495.399H259.7V489.699Z" fill="#D1FB84"/>
<path d="M254 483.999H248.3V489.699H254V483.999Z" fill="#D1FB84"/>
<path d="M248.3 478.299H242.6V483.999H248.3V478.299Z" fill="#D1FB84"/>
<path d="M242.6 472.599H236.9V478.299H242.6V472.599Z" fill="#D1FB84"/>
<path d="M236.9 466.799H231.2V472.499H236.9V466.799Z" fill="#D1FB84"/>
<path d="M231.2 461.099H225.5V466.799H231.2V461.099Z" fill="#D1FB84"/>
<path d="M225.4 455.399H219.7V461.099H225.4V455.399Z" fill="#D1FB84"/>
<path d="M219.7 449.699H214V455.399H219.7V449.699Z" fill="#D1FB84"/>
<path d="M214 443.999H208.3V449.699H214V443.999Z" fill="#D1FB84"/>
<path d="M208.3 438.299H202.6V443.999H208.3V438.299Z" fill="#D1FB84"/>
<path d="M202.6 432.599H196.9V438.299H202.6V432.599Z" fill="#D1FB84"/>
<path d="M33.7998 335.899V490.199H142.4V335.899H33.7998ZM39.5998 341.699H136.7V484.499H39.5998V341.699Z" fill="#D1FB84"/>
<path d="M50.9998 467.399V473.099H125.3V467.399H50.9998Z" fill="#D1FB84"/>
<path d="M50.9998 421.699V427.399H73.7998V433.099H79.5998V415.899H73.7998V421.699H50.9998Z" fill="#D1FB84"/>
<path d="M50.9998 381.699V398.799H125.3V381.699H50.9998ZM56.6998 387.399H119.6V393.099H56.6998V387.399Z" fill="#D1FB84"/>
<path d="M50.9998 353.099V370.199H125.3V353.099H50.9998ZM56.6998 358.799H119.6V364.499H56.6998V358.799Z" fill="#D1FB84"/>
<path d="M79.5998 433.099V438.799H96.6998V433.099H79.5998Z" fill="#D1FB84"/>
<path d="M96.6998 415.899V410.199H79.5998V415.899H96.6998Z" fill="#D1FB84"/>
<path d="M96.6998 433.099H102.4V427.399H125.3V421.699H102.4V415.899H96.6998V433.099Z" fill="#D1FB84"/>
<path d="M75.1998 335.999V364.599H80.9998V370.299H218.1V364.599H223.8V341.799H218.1V335.999H201V318.899H195.2V313.199H189.5V307.499H166.7V290.299H155.2V284.599H121V290.299H109.5V295.999H103.8V307.499H98.0998V324.599H92.3998V330.299H80.9998V335.999H75.1998Z" fill="#D1FB84"/>
</g>
<defs>
<filter id="filter0_d" x="13.7998" y="80.6992" width="776" height="582.2" filterUnits="userSpaceOnUse" color-interpolation-filters="sRGB" filterRes="800">
<feFlood flood-opacity="0" result="BackgroundImageFix"/>
<feColorMatrix in="SourceAlpha" type="matrix" values="0 0 0 0 0 0 0 0 0 0 0 0 0 0 0 0 0 0 127 0"/>
<feOffset/>
<feGaussianBlur stdDeviation="10"/>
<feColorMatrix type="matrix" values="0 0 0 0 0.707769 0 0 0 0 0.85 0 0 0 0 0.447012 0 0 0 1 0"/>
<feBlend mode="normal" in2="BackgroundImageFix" result="effect1_dropShadow"/>
<feBlend mode="normal" in="SourceGraphic" in2="effect1_dropShadow" result="shape"/>
</filter>
</defs>
</svg>
