<svg width="800" height="800" viewBox="0 0 800 800" fill="none" xmlns="http://www.w3.org/2000/svg">
<g filter="url(#filter0_d)">
<path d="M718.95 584.63V590.34H730.37V584.63H718.95Z" fill="#D1FB84"/>
<path d="M718.95 618.92H713.23V624.63H718.95V618.92Z" fill="#D1FB84"/>
<path d="M718.95 607.49H713.23V613.2H718.95V607.49Z" fill="#D1FB84"/>
<path d="M713.23 596.06H707.52V601.77H718.95V590.34H713.23V596.06Z" fill="#D1FB84"/>
<path d="M707.52 670.34H701.8V681.77H707.52V676.06H713.23V664.63H707.52V670.34Z" fill="#D1FB84"/>
<path d="M713.23 624.63H707.52V630.34H713.23V624.63Z" fill="#D1FB84"/>
<path d="M713.23 613.2H707.52V618.92H713.23V613.2Z" fill="#D1FB84"/>
<path d="M701.8 613.2H707.52V601.77H701.8V613.2Z" fill="#D1FB84"/>
<path d="M701.8 630.34H696.09V641.77H701.8V630.34Z" fill="#D1FB84"/>
<path d="M701.8 613.2H696.09V618.92H701.8V613.2Z" fill="#D1FB84"/>
<path d="M701.8 567.49H696.09V573.2H701.8V567.49Z" fill="#D1FB84"/>
<path d="M690.37 676.06H684.66V687.49H690.37V681.77H696.09V664.63H690.37V676.06Z" fill="#D1FB84"/>
<path d="M696.09 607.49H690.37V613.2H696.09V607.49Z" fill="#D1FB84"/>
<path d="M690.37 624.63H684.66V636.06H690.37V624.63Z" fill="#D1FB84"/>
<path d="M690.37 613.2H684.66V618.92H690.37V613.2Z" fill="#D1FB84"/>
<path d="M690.37 601.77H684.66V607.49H690.37V601.77Z" fill="#D1FB84"/>
<path d="M684.66 607.49H678.95V613.2H684.66V607.49Z" fill="#D1FB84"/>
<path d="M678.95 624.63H673.23V630.34H678.95V624.63Z" fill="#D1FB84"/>
<path d="M678.95 613.2H673.23V618.92H678.95V613.2Z" fill="#D1FB84"/>
<path d="M678.95 601.77H673.23V607.49H678.95V601.77Z" fill="#D1FB84"/>
<path d="M667.52 658.92H673.23V641.77H667.52V658.92Z" fill="#D1FB84"/>
<path d="M673.23 607.49H667.52V613.2H673.23V607.49Z" fill="#D1FB84"/>
<path d="M667.52 601.77H661.8V607.49H667.52V601.77Z" fill="#D1FB84"/>
<path d="M661.8 710.34H656.09V716.06H661.8V710.34Z" fill="#D1FB84"/>
<path d="M661.8 687.49H656.09V693.2H661.8V687.49Z" fill="#D1FB84"/>
<path d="M656.09 658.92V670.34H661.8V664.63H667.52V658.92H656.09Z" fill="#D1FB84"/>
<path d="M661.8 618.92H656.09V636.06H661.8V618.92Z" fill="#D1FB84"/>
<path d="M661.8 607.49H656.09V613.2H661.8V607.49Z" fill="#D1FB84"/>
<path d="M656.09 647.49H650.37V658.92H656.09V647.49Z" fill="#D1FB84"/>
<path d="M656.09 601.77H650.37V607.49H656.09V601.77Z" fill="#D1FB84"/>
<path d="M650.37 710.34H644.66V716.06H650.37V710.34Z" fill="#D1FB84"/>
<path d="M650.37 698.92H644.66V704.63H650.37V698.92Z" fill="#D1FB84"/>
<path d="M650.37 687.49H644.66V693.2H650.37V687.49Z" fill="#D1FB84"/>
<path d="M644.66 676.06H650.37V664.63H644.66V676.06Z" fill="#D1FB84"/>
<path d="M650.37 618.92H644.66V636.06H650.37V618.92Z" fill="#D1FB84"/>
<path d="M650.37 607.49H644.66V613.2H650.37V607.49Z" fill="#D1FB84"/>
<path d="M650.37 550.34H644.66V561.77H650.37V550.34Z" fill="#D1FB84"/>
<path d="M644.66 601.77H638.95V607.49H644.66V601.77Z" fill="#D1FB84"/>
<path d="M638.95 698.92H633.23V704.63H638.95V698.92Z" fill="#D1FB84"/>
<path d="M638.95 687.49H633.23V693.2H638.95V687.49Z" fill="#D1FB84"/>
<path d="M638.95 607.49H633.23V613.2H638.95V607.49Z" fill="#D1FB84"/>
<path d="M633.23 618.92H627.52V624.63H633.23V618.92Z" fill="#D1FB84"/>
<path d="M633.23 601.77H627.52V607.49H633.23V601.77Z" fill="#D1FB84"/>
<path d="M621.8 710.34H616.09V716.06H627.52V704.63H621.8V710.34Z" fill="#D1FB84"/>
<path d="M627.52 687.49H621.8V693.2H627.52V687.49Z" fill="#D1FB84"/>
<path d="M627.52 676.06H621.8V681.77H627.52V676.06Z" fill="#D1FB84"/>
<path d="M627.52 664.63H621.8V670.34H627.52V664.63Z" fill="#D1FB84"/>
<path d="M621.8 658.92H627.52V641.77H621.8V658.92Z" fill="#D1FB84"/>
<path d="M627.52 607.49H621.8V613.2H627.52V607.49Z" fill="#D1FB84"/>
<path d="M627.52 596.06H621.8V601.77H627.52V596.06Z" fill="#D1FB84"/>
<path d="M627.52 590.34V596.06H633.23V601.77H638.95V596.06H644.66V601.77H650.37V596.06H656.09V601.77H661.8V596.06H667.52V601.77H673.23V596.06H678.95V601.77H684.66V596.06H690.37V601.77H696.09V596.06H701.8V590.34H707.52V584.63H696.09V590.34H690.37V584.63H696.09V573.2H690.37V578.92H684.66V561.77H678.95V578.92H673.23V556.06H667.52V538.92H661.8V561.77H667.52V573.2H656.09V561.77H650.37V584.63H644.66V567.49H638.95V584.63H627.52V578.92H621.8V573.2H627.52V556.06H621.8V567.49H616.09V573.2H610.37V561.77H604.66V573.2H598.95V544.63H593.23V538.92H587.52V550.34H593.23V573.2H576.09V567.49H564.66V573.2H558.95V567.49H564.66V556.06H558.95V561.77H553.23V567.49H547.52V561.77H553.23V550.34H547.52V556.06H541.8V561.77H536.09V573.2H530.37V567.49H524.66V561.77H530.37V550.34H524.66V556.06H518.95V567.49H501.8V573.2H496.09V567.49H501.8V561.77H507.52V556.06H513.23V544.63H507.52V550.34H501.8V556.06H496.09V561.77H490.37V556.06H496.09V544.63H484.66V550.34H478.95V556.06H473.23V550.34H467.52V567.49H473.23V573.2H484.66V567.49H490.37V573.2H484.66V578.92H490.37V584.63H496.09V578.92H501.8V584.63H507.52V590.34H513.23V584.63H518.95V590.34H524.66V584.63H530.37V590.34H536.09V584.63H541.8V590.34H547.52V584.63H553.23V590.34H558.95V584.63H564.66V590.34H570.37V584.63H576.09V590.34H581.8V584.63H587.52V590.34H593.23V584.63H598.95V590.34H610.37V584.63H616.09V590.34H610.37V596.06H621.8V590.34H627.52Z" fill="#D1FB84"/>
<path d="M621.8 601.77H616.09V607.49H621.8V601.77Z" fill="#D1FB84"/>
<path d="M616.09 687.49H610.37V693.2H616.09V687.49Z" fill="#D1FB84"/>
<path d="M616.09 676.06H610.37V681.77H616.09V676.06Z" fill="#D1FB84"/>
<path d="M616.09 664.63H610.37V670.34H616.09V664.63Z" fill="#D1FB84"/>
<path d="M610.37 653.2H616.09V641.77H610.37V653.2Z" fill="#D1FB84"/>
<path d="M610.37 618.92H616.09V607.49H610.37V618.92Z" fill="#D1FB84"/>
<path d="M616.09 550.34H610.37V561.77H616.09V550.34Z" fill="#D1FB84"/>
<path d="M610.37 630.34H604.66V641.77H610.37V630.34Z" fill="#D1FB84"/>
<path d="M610.37 538.92H604.66V550.34H610.37V538.92Z" fill="#D1FB84"/>
<path d="M604.66 687.49H598.95V693.2H604.66V687.49Z" fill="#D1FB84"/>
<path d="M604.66 676.06H598.95V681.77H604.66V676.06Z" fill="#D1FB84"/>
<path d="M604.66 664.63H598.95V670.34H604.66V664.63Z" fill="#D1FB84"/>
<path d="M604.66 607.49H598.95V618.92H604.66V607.49Z" fill="#D1FB84"/>
<path d="M604.66 596.06H598.95V601.77H604.66V596.06Z" fill="#D1FB84"/>
<path d="M598.95 590.34H593.23V596.06H598.95V590.34Z" fill="#D1FB84"/>
<path d="M593.23 676.06H587.52V681.77H593.23V676.06Z" fill="#D1FB84"/>
<path d="M593.23 664.63H587.52V670.34H593.23V664.63Z" fill="#D1FB84"/>
<path d="M593.23 596.06H587.52V601.77H593.23V596.06Z" fill="#D1FB84"/>
<path d="M581.8 647.49H587.52V630.34H581.8V647.49Z" fill="#D1FB84"/>
<path d="M587.52 607.49H581.8V613.2H587.52V607.49Z" fill="#D1FB84"/>
<path d="M587.52 590.34H581.8V596.06H587.52V590.34Z" fill="#D1FB84"/>
<path d="M576.09 710.34H581.8V693.2H576.09V710.34Z" fill="#D1FB84"/>
<path d="M581.8 676.06H576.09V681.77H581.8V676.06Z" fill="#D1FB84"/>
<path d="M581.8 664.63H576.09V670.34H581.8V664.63Z" fill="#D1FB84"/>
<path d="M581.8 561.77H576.09V567.49H581.8V561.77Z" fill="#D1FB84"/>
<path d="M570.37 647.49H576.09V624.63H570.37V647.49Z" fill="#D1FB84"/>
<path d="M576.09 601.77H570.37V613.2H576.09V601.77Z" fill="#D1FB84"/>
<path d="M576.09 590.34H570.37V596.06H576.09V590.34Z" fill="#D1FB84"/>
<path d="M564.66 710.34H570.37V693.2H564.66V710.34Z" fill="#D1FB84"/>
<path d="M570.37 664.63H564.66V670.34H570.37V664.63Z" fill="#D1FB84"/>
<path d="M564.66 590.34H558.95V596.06H564.66V590.34Z" fill="#D1FB84"/>
<path d="M553.23 607.49H558.95V613.2H564.66V601.77H558.95V596.06H553.23V607.49Z" fill="#D1FB84"/>
<path d="M553.23 590.34H547.52V596.06H553.23V590.34Z" fill="#D1FB84"/>
<path d="M547.52 601.77H541.8V607.49H547.52V601.77Z" fill="#D1FB84"/>
<path d="M536.09 670.34H530.37V664.63H524.66V670.34H518.95V681.77H524.66V676.06H530.37V681.77H536.09V676.06H541.8V664.63H536.09V670.34Z" fill="#D1FB84"/>
<path d="M541.8 613.2H536.09V618.92H541.8V613.2Z" fill="#D1FB84"/>
<path d="M541.8 590.34H536.09V596.06H541.8V590.34Z" fill="#D1FB84"/>
<path d="M536.09 601.77H530.37V607.49H536.09V601.77Z" fill="#D1FB84"/>
<path d="M536.09 538.92H530.37V550.34H536.09V538.92Z" fill="#D1FB84"/>
<path d="M524.66 641.77H530.37V624.63H524.66V641.77Z" fill="#D1FB84"/>
<path d="M530.37 613.2H524.66V618.92H530.37V613.2Z" fill="#D1FB84"/>
<path d="M530.37 590.34H524.66V596.06H530.37V590.34Z" fill="#D1FB84"/>
<path d="M524.66 601.77H518.95V607.49H524.66V601.77Z" fill="#D1FB84"/>
<path d="M518.95 698.92H513.23V704.63H518.95V698.92Z" fill="#D1FB84"/>
<path d="M518.95 653.2H513.23V658.92H518.95V653.2Z" fill="#D1FB84"/>
<path d="M518.95 630.34H513.23V647.49H518.95V630.34Z" fill="#D1FB84"/>
<path d="M513.23 618.92H518.95V607.49H513.23V618.92Z" fill="#D1FB84"/>
<path d="M518.95 590.34H513.23V596.06H518.95V590.34Z" fill="#D1FB84"/>
<path d="M507.52 601.77H501.8V613.2H507.52V607.49H513.23V596.06H507.52V601.77Z" fill="#D1FB84"/>
<path d="M507.52 687.49H501.8V693.2H507.52V687.49Z" fill="#D1FB84"/>
<path d="M507.52 676.06H501.8V681.77H507.52V676.06Z" fill="#D1FB84"/>
<path d="M507.52 664.63H501.8V670.34H507.52V664.63Z" fill="#D1FB84"/>
<path d="M507.52 653.2H501.8V658.92H507.52V653.2Z" fill="#D1FB84"/>
<path d="M496.09 687.49H490.37V693.2H496.09V687.49Z" fill="#D1FB84"/>
<path d="M496.09 676.06H490.37V681.77H496.09V676.06Z" fill="#D1FB84"/>
<path d="M496.09 664.63H490.37V670.34H496.09V664.63Z" fill="#D1FB84"/>
<path d="M496.09 653.2H490.37V658.92H496.09V653.2Z" fill="#D1FB84"/>
<path d="M484.66 698.92H478.95V704.63H484.66V698.92Z" fill="#D1FB84"/>
<path d="M484.66 687.49H478.95V693.2H484.66V687.49Z" fill="#D1FB84"/>
<path d="M478.95 658.92H473.23V681.77H478.95V658.92Z" fill="#D1FB84"/>
<path d="M473.23 710.34H467.52V716.06H473.23V710.34Z" fill="#D1FB84"/>
<path d="M473.23 698.92H467.52V704.63H473.23V698.92Z" fill="#D1FB84"/>
<path d="M473.23 687.49H467.52V693.2H473.23V687.49Z" fill="#D1FB84"/>
<path d="M467.52 658.92H461.8V676.06H467.52V658.92Z" fill="#D1FB84"/>
<path d="M461.8 698.92H456.09V704.63H461.8V698.92Z" fill="#D1FB84"/>
<path d="M461.8 687.49H456.09V693.2H461.8V687.49Z" fill="#D1FB84"/>
<path d="M450.37 710.34H444.66V716.06H450.37V710.34Z" fill="#D1FB84"/>
<path d="M450.37 698.92H444.66V704.63H450.37V698.92Z" fill="#D1FB84"/>
<path d="M450.37 687.49H444.66V693.2H450.37V687.49Z" fill="#D1FB84"/>
<path d="M450.37 676.06H444.66V681.77H450.37V676.06Z" fill="#D1FB84"/>
<path d="M450.37 664.63H444.66V670.34H450.37V664.63Z" fill="#D1FB84"/>
<path d="M450.37 647.49H444.66V653.2H450.37V647.49Z" fill="#D1FB84"/>
<path d="M438.95 698.92H433.23V704.63H438.95V698.92Z" fill="#D1FB84"/>
<path d="M438.95 687.49H433.23V693.2H438.95V687.49Z" fill="#D1FB84"/>
<path d="M438.95 676.06H433.23V681.77H438.95V676.06Z" fill="#D1FB84"/>
<path d="M438.95 664.63H433.23V670.34H438.95V664.63Z" fill="#D1FB84"/>
<path d="M438.95 653.2H433.23V658.92H438.95V653.2Z" fill="#D1FB84"/>
<path d="M427.52 676.06H421.8V681.77H427.52V676.06Z" fill="#D1FB84"/>
<path d="M427.52 664.63H421.8V670.34H427.52V664.63Z" fill="#D1FB84"/>
<path d="M421.8 658.92H427.52V647.49H421.8V658.92Z" fill="#D1FB84"/>
<path d="M416.09 693.2H410.37V698.92H421.8V687.49H416.09V693.2Z" fill="#D1FB84"/>
<path d="M416.09 664.63H410.37V670.34H416.09V664.63Z" fill="#D1FB84"/>
<path d="M416.09 653.2H410.37V658.92H416.09V653.2Z" fill="#D1FB84"/>
<path d="M416.09 641.77H410.37V647.49H416.09V641.77Z" fill="#D1FB84"/>
<path d="M398.95 698.92H404.66V681.77H398.95V698.92Z" fill="#D1FB84"/>
<path d="M404.66 653.2H398.95V658.92H404.66V653.2Z" fill="#D1FB84"/>
<path d="M381.8 664.63H387.52V653.2H381.8V664.63Z" fill="#D1FB84"/>
<path d="M370.37 647.49H364.66V658.92H370.37V670.34H376.09V653.2H370.37V647.49Z" fill="#D1FB84"/>
<path d="M358.95 630.34H353.23V636.06H358.95V630.34Z" fill="#D1FB84"/>
<path d="M347.52 653.2H341.8V658.92H347.52V653.2Z" fill="#D1FB84"/>
<path d="M347.52 641.77H341.8V647.49H347.52V641.77Z" fill="#D1FB84"/>
<path d="M347.52 630.34H341.8V636.06H347.52V630.34Z" fill="#D1FB84"/>
<path d="M347.52 618.92H341.8V624.63H347.52V618.92Z" fill="#D1FB84"/>
<path d="M347.52 544.63H341.8V550.34H347.52V544.63Z" fill="#D1FB84"/>
<path d="M336.09 561.77H341.8V550.34H336.09V561.77Z" fill="#D1FB84"/>
<path d="M336.09 653.2H330.37V658.92H336.09V653.2Z" fill="#D1FB84"/>
<path d="M336.09 641.77H330.37V647.49H336.09V641.77Z" fill="#D1FB84"/>
<path d="M336.09 630.34H330.37V636.06H336.09V630.34Z" fill="#D1FB84"/>
<path d="M324.66 561.77V550.34H318.95V544.63H313.23V556.06H318.95V561.77H313.23V567.49H307.52V573.2H301.8V567.49H290.37V561.77H278.95V567.49H284.66V573.2H273.23V567.49H267.52V561.77H261.8V544.63H256.09V567.49H250.37V556.06H244.66V567.49H238.95V556.06H233.23V567.49H227.52V550.34H221.8V538.92H216.09V561.77H210.37V567.49H204.66V556.06H198.95V573.2H204.66V578.92H210.37V584.63H216.09V578.92H221.8V584.63H227.52V590.34H233.23V596.06H238.95V590.34H244.66V584.63H238.95V578.92H244.66V584.63H250.37V590.34H256.09V596.06H261.8V590.34H267.52V584.63H273.23V578.92H278.95V584.63H284.66V578.92H290.37V573.2H296.09V578.92H301.8V584.63H307.52V578.92H313.23V584.63H318.95V573.2H336.09V561.77H324.66Z" fill="#D1FB84"/>
<path d="M324.66 641.77H318.95V647.49H324.66V641.77Z" fill="#D1FB84"/>
<path d="M324.66 630.34H318.95V636.06H324.66V630.34Z" fill="#D1FB84"/>
<path d="M324.66 618.92H318.95V624.63H324.66V618.92Z" fill="#D1FB84"/>
<path d="M313.23 641.77H307.52V647.49H313.23V641.77Z" fill="#D1FB84"/>
<path d="M313.23 630.34H307.52V636.06H313.23V630.34Z" fill="#D1FB84"/>
<path d="M313.23 584.63H307.52V590.34H313.23V584.63Z" fill="#D1FB84"/>
<path d="M301.8 687.49H296.09V676.06H290.37V687.49H284.66V698.92H290.37V693.2H296.09V698.92H301.8V693.2H307.52V681.77H301.8V687.49Z" fill="#D1FB84"/>
<path d="M307.52 590.34H301.8V596.06H307.52V590.34Z" fill="#D1FB84"/>
<path d="M307.52 561.77H301.8V567.49H307.52V561.77Z" fill="#D1FB84"/>
<path d="M301.8 607.49H296.09V613.2H301.8V607.49Z" fill="#D1FB84"/>
<path d="M301.8 596.06H296.09V601.77H301.8V596.06Z" fill="#D1FB84"/>
<path d="M301.8 584.63H296.09V590.34H301.8V584.63Z" fill="#D1FB84"/>
<path d="M301.8 561.77V556.06H290.37V561.77H301.8Z" fill="#D1FB84"/>
<path d="M296.09 601.77H290.37V607.49H296.09V601.77Z" fill="#D1FB84"/>
<path d="M296.09 590.34H290.37V596.06H296.09V590.34Z" fill="#D1FB84"/>
<path d="M296.09 578.92H290.37V584.63H296.09V578.92Z" fill="#D1FB84"/>
<path d="M290.37 630.34H284.66V636.06H290.37V630.34Z" fill="#D1FB84"/>
<path d="M290.37 607.49H284.66V613.2H290.37V607.49Z" fill="#D1FB84"/>
<path d="M290.37 596.06H284.66V601.77H290.37V596.06Z" fill="#D1FB84"/>
<path d="M290.37 584.63H284.66V590.34H290.37V584.63Z" fill="#D1FB84"/>
<path d="M284.66 636.06H278.95V647.49H284.66V636.06Z" fill="#D1FB84"/>
<path d="M284.66 618.92H278.95V624.63H284.66V618.92Z" fill="#D1FB84"/>
<path d="M284.66 590.34H278.95V596.06H284.66V590.34Z" fill="#D1FB84"/>
<path d="M278.95 704.63H273.23V710.34H278.95V704.63Z" fill="#D1FB84"/>
<path d="M278.95 693.2H273.23V698.92H278.95V693.2Z" fill="#D1FB84"/>
<path d="M278.95 681.77H273.23V687.49H278.95V681.77Z" fill="#D1FB84"/>
<path d="M278.95 670.34H273.23V676.06H278.95V670.34Z" fill="#D1FB84"/>
<path d="M278.95 658.92H273.23V664.63H278.95V658.92Z" fill="#D1FB84"/>
<path d="M278.95 607.49H273.23V613.2H278.95V607.49Z" fill="#D1FB84"/>
<path d="M278.95 596.06H273.23V601.77H278.95V596.06Z" fill="#D1FB84"/>
<path d="M278.95 584.63H273.23V590.34H278.95V584.63Z" fill="#D1FB84"/>
<path d="M278.95 556.06H273.23V561.77H278.95V556.06Z" fill="#D1FB84"/>
<path d="M273.23 664.63H267.52V670.34H273.23V664.63Z" fill="#D1FB84"/>
<path d="M273.23 618.92H267.52V624.63H273.23V618.92Z" fill="#D1FB84"/>
<path d="M273.23 590.34H267.52V596.06H273.23V590.34Z" fill="#D1FB84"/>
<path d="M267.52 716.06H261.8V721.77H267.52V716.06Z" fill="#D1FB84"/>
<path d="M267.52 704.63H261.8V710.34H267.52V704.63Z" fill="#D1FB84"/>
<path d="M267.52 693.2H261.8V698.92H267.52V693.2Z" fill="#D1FB84"/>
<path d="M267.52 681.77H261.8V687.49H267.52V681.77Z" fill="#D1FB84"/>
<path d="M267.52 670.34H261.8V676.06H267.52V670.34Z" fill="#D1FB84"/>
<path d="M267.52 658.92H261.8V664.63H267.52V658.92Z" fill="#D1FB84"/>
<path d="M261.8 653.2H267.52V647.49H273.23V636.06H267.52V641.77H261.8V653.2Z" fill="#D1FB84"/>
<path d="M267.52 607.49H261.8V613.2H267.52V607.49Z" fill="#D1FB84"/>
<path d="M267.52 596.06H261.8V601.77H267.52V596.06Z" fill="#D1FB84"/>
<path d="M267.52 538.92H261.8V544.63H267.52V538.92Z" fill="#D1FB84"/>
<path d="M261.8 664.63H256.09V670.34H261.8V664.63Z" fill="#D1FB84"/>
<path d="M261.8 618.92H256.09V624.63H261.8V618.92Z" fill="#D1FB84"/>
<path d="M256.09 704.63H250.37V710.34H256.09V704.63Z" fill="#D1FB84"/>
<path d="M256.09 693.2H250.37V698.92H256.09V693.2Z" fill="#D1FB84"/>
<path d="M256.09 681.77H250.37V687.49H256.09V681.77Z" fill="#D1FB84"/>
<path d="M256.09 670.34H250.37V676.06H256.09V670.34Z" fill="#D1FB84"/>
<path d="M256.09 658.92H250.37V664.63H256.09V658.92Z" fill="#D1FB84"/>
<path d="M256.09 607.49H250.37V613.2H256.09V607.49Z" fill="#D1FB84"/>
<path d="M256.09 596.06H250.37V601.77H256.09V596.06Z" fill="#D1FB84"/>
<path d="M250.37 664.63H244.66V670.34H250.37V664.63Z" fill="#D1FB84"/>
<path d="M250.37 618.92H244.66V624.63H250.37V618.92Z" fill="#D1FB84"/>
<path d="M250.37 590.34H244.66V596.06H250.37V590.34Z" fill="#D1FB84"/>
<path d="M244.66 716.06H238.95V721.77H244.66V716.06Z" fill="#D1FB84"/>
<path d="M244.66 704.63H238.95V710.34H244.66V704.63Z" fill="#D1FB84"/>
<path d="M244.66 693.2H238.95V698.92H244.66V693.2Z" fill="#D1FB84"/>
<path d="M244.66 681.77H238.95V687.49H244.66V681.77Z" fill="#D1FB84"/>
<path d="M244.66 670.34H238.95V676.06H244.66V670.34Z" fill="#D1FB84"/>
<path d="M244.66 658.92H238.95V664.63H244.66V658.92Z" fill="#D1FB84"/>
<path d="M244.66 607.49H238.95V613.2H244.66V607.49Z" fill="#D1FB84"/>
<path d="M244.66 596.06H238.95V601.77H244.66V596.06Z" fill="#D1FB84"/>
<path d="M238.95 618.92H233.23V624.63H238.95V618.92Z" fill="#D1FB84"/>
<path d="M233.23 704.63H227.52V710.34H233.23V704.63Z" fill="#D1FB84"/>
<path d="M233.23 693.2H227.52V698.92H233.23V693.2Z" fill="#D1FB84"/>
<path d="M233.23 681.77H227.52V687.49H233.23V681.77Z" fill="#D1FB84"/>
<path d="M233.23 670.34H227.52V676.06H233.23V670.34Z" fill="#D1FB84"/>
<path d="M233.23 607.49H227.52V613.2H233.23V607.49Z" fill="#D1FB84"/>
<path d="M233.23 596.06H227.52V601.77H233.23V596.06Z" fill="#D1FB84"/>
<path d="M227.52 590.34H221.8V596.06H227.52V590.34Z" fill="#D1FB84"/>
<path d="M221.8 693.2H216.09V698.92H221.8V693.2Z" fill="#D1FB84"/>
<path d="M221.8 681.77H216.09V687.49H221.8V681.77Z" fill="#D1FB84"/>
<path d="M216.09 658.92H210.37V670.34H216.09V664.63H221.8V653.2H216.09V658.92Z" fill="#D1FB84"/>
<path d="M221.8 584.63H216.09V590.34H221.8V584.63Z" fill="#D1FB84"/>
<path d="M216.09 601.77H210.37V618.92H216.09V601.77Z" fill="#D1FB84"/>
<path d="M216.09 590.34H210.37V596.06H216.09V590.34Z" fill="#D1FB84"/>
<path d="M216.09 533.2H210.37V538.92H216.09V533.2Z" fill="#D1FB84"/>
<path d="M210.37 704.63H204.66V710.34H210.37V704.63Z" fill="#D1FB84"/>
<path d="M210.37 693.2H204.66V698.92H210.37V693.2Z" fill="#D1FB84"/>
<path d="M210.37 681.77H204.66V687.49H210.37V681.77Z" fill="#D1FB84"/>
<path d="M210.37 641.77H204.66V653.2H210.37V641.77Z" fill="#D1FB84"/>
<path d="M210.37 584.63H204.66V590.34H210.37V584.63Z" fill="#D1FB84"/>
<path d="M210.37 550.34H204.66V556.06H210.37V550.34Z" fill="#D1FB84"/>
<path d="M204.66 653.2H198.95V658.92H204.66V653.2Z" fill="#D1FB84"/>
<path d="M198.95 624.63H204.66V601.77H193.23V607.49H198.95V624.63Z" fill="#D1FB84"/>
<path d="M204.66 590.34H198.95V596.06H204.66V590.34Z" fill="#D1FB84"/>
<path d="M204.66 578.92H198.95V584.63H204.66V578.92Z" fill="#D1FB84"/>
<path d="M198.95 693.2H193.23V698.92H198.95V693.2Z" fill="#D1FB84"/>
<path d="M198.95 681.77H193.23V687.49H198.95V681.77Z" fill="#D1FB84"/>
<path d="M198.95 670.34H193.23V676.06H198.95V670.34Z" fill="#D1FB84"/>
<path d="M198.95 584.63H193.23V590.34H198.95V584.63Z" fill="#D1FB84"/>
<path d="M198.95 550.34H193.23V556.06H198.95V550.34Z" fill="#D1FB84"/>
<path d="M193.23 590.34H187.52V596.06H193.23V590.34Z" fill="#D1FB84"/>
<path d="M187.52 584.63H193.23V573.2H187.52V567.49H181.8V578.92H187.52V584.63Z" fill="#D1FB84"/>
<path d="M187.52 704.63H181.8V710.34H187.52V704.63Z" fill="#D1FB84"/>
<path d="M187.52 693.2H181.8V698.92H187.52V693.2Z" fill="#D1FB84"/>
<path d="M187.52 681.77H181.8V687.49H187.52V681.77Z" fill="#D1FB84"/>
<path d="M187.52 670.34H181.8V676.06H187.52V670.34Z" fill="#D1FB84"/>
<path d="M187.52 658.92H181.8V664.63H187.52V658.92Z" fill="#D1FB84"/>
<path d="M187.52 647.49H181.8V653.2H187.52V647.49Z" fill="#D1FB84"/>
<path d="M187.52 596.06H181.8V601.77H187.52V596.06Z" fill="#D1FB84"/>
<path d="M187.52 584.63H181.8V590.34H187.52V584.63Z" fill="#D1FB84"/>
<path d="M181.8 590.34H176.09V596.06H181.8V590.34Z" fill="#D1FB84"/>
<path d="M176.09 681.77H170.37V687.49H176.09V681.77Z" fill="#D1FB84"/>
<path d="M176.09 670.34H170.37V676.06H176.09V670.34Z" fill="#D1FB84"/>
<path d="M176.09 658.92H170.37V664.63H176.09V658.92Z" fill="#D1FB84"/>
<path d="M176.09 647.49H170.37V653.2H176.09V647.49Z" fill="#D1FB84"/>
<path d="M176.09 636.06H170.37V641.77H176.09V636.06Z" fill="#D1FB84"/>
<path d="M176.09 596.06H170.37V601.77H176.09V596.06Z" fill="#D1FB84"/>
<path d="M170.37 601.77H164.66V607.49H170.37V601.77Z" fill="#D1FB84"/>
<path d="M164.66 693.2H158.95V698.92H164.66V693.2Z" fill="#D1FB84"/>
<path d="M164.66 670.34H158.95V676.06H164.66V670.34Z" fill="#D1FB84"/>
<path d="M164.66 658.92H158.95V664.63H164.66V658.92Z" fill="#D1FB84"/>
<path d="M164.66 647.49H158.95V653.2H164.66V647.49Z" fill="#D1FB84"/>
<path d="M158.95 624.63H153.23V630.34H158.95V636.06H164.66V618.92H158.95V624.63Z" fill="#D1FB84"/>
<path d="M164.66 596.06H158.95V601.77H164.66V596.06Z" fill="#D1FB84"/>
<path d="M158.95 601.77H153.23V607.49H158.95V601.77Z" fill="#D1FB84"/>
<path d="M158.95 590.34H153.23V596.06H158.95V590.34Z" fill="#D1FB84"/>
<path d="M158.95 561.77H153.23V567.49H158.95V561.77Z" fill="#D1FB84"/>
<path d="M147.52 698.92H153.23V681.77H147.52V698.92Z" fill="#D1FB84"/>
<path d="M153.23 658.92H147.52V664.63H153.23V658.92Z" fill="#D1FB84"/>
<path d="M153.23 613.2H147.52V618.92H153.23V613.2Z" fill="#D1FB84"/>
<path d="M153.23 596.06H147.52V601.77H153.23V596.06Z" fill="#D1FB84"/>
<path d="M147.52 630.34H141.8V641.77H147.52V647.49H153.23V636.06H147.52V630.34Z" fill="#D1FB84"/>
<path d="M147.52 601.77H141.8V607.49H147.52V601.77Z" fill="#D1FB84"/>
<path d="M136.09 693.2H141.8V676.06H136.09V693.2Z" fill="#D1FB84"/>
<path d="M141.8 658.92H136.09V664.63H141.8V658.92Z" fill="#D1FB84"/>
<path d="M141.8 613.2H136.09V618.92H141.8V613.2Z" fill="#D1FB84"/>
<path d="M141.8 596.06H136.09V601.77H141.8V596.06Z" fill="#D1FB84"/>
<path d="M141.8 561.77H136.09V567.49H141.8V561.77Z" fill="#D1FB84"/>
<path d="M136.09 601.77H130.37V607.49H136.09V601.77Z" fill="#D1FB84"/>
<path d="M130.37 613.2H124.66V618.92H130.37V613.2Z" fill="#D1FB84"/>
<path d="M130.37 596.06H124.66V601.77H130.37V596.06Z" fill="#D1FB84"/>
<path d="M124.66 601.77H118.95V607.49H124.66V601.77Z" fill="#D1FB84"/>
<path d="M124.66 556.06H118.95V567.49H124.66V556.06Z" fill="#D1FB84"/>
<path d="M118.95 618.92H113.23V624.63H118.95V618.92Z" fill="#D1FB84"/>
<path d="M118.95 596.06H113.23V601.77H118.95L118.95 596.06Z" fill="#D1FB84"/>
<path d="M118.95 590.34L118.95 596.06H124.66V590.34H130.37V596.06H136.09V590.34H141.8V596.06H147.52V590.34H153.23V584.63H158.95V590.34H164.66V596.06H170.37V590.34H176.09V584.63H181.8V578.92H176.09V573.2H170.37V567.49H158.95V573.2H164.66V578.92H153.23V573.2H147.52V567.49H141.8V573.2H130.37V567.49H124.66V578.92H113.23V573.2H107.52V567.49H96.0902V573.2H101.8V578.92H107.52V584.63H96.0902V578.92H90.3702V584.63H84.6602V578.92H78.9502V584.63H73.2302V590.34H84.6602V596.06H90.3702V590.34H96.0902V596.06H101.8V590.34H107.52V596.06H113.23V590.34H118.95Z" fill="#D1FB84"/>
<path d="M113.23 613.2H107.52V618.92H113.23V613.2Z" fill="#D1FB84"/>
<path d="M107.52 618.92H101.8V624.63H107.52V618.92Z" fill="#D1FB84"/>
<path d="M107.52 596.06H101.8V601.77H107.52V596.06Z" fill="#D1FB84"/>
<path d="M101.8 607.49H90.3702V613.2H96.0902V618.92H101.8V607.49Z" fill="#D1FB84"/>
<path d="M96.0902 653.2H90.3702V658.92H96.0902V653.2Z" fill="#D1FB84"/>
<path d="M96.0902 596.06H90.3702V601.77H96.0902V596.06Z" fill="#D1FB84"/>
<path d="M84.6602 561.77V567.49H96.0902V561.77H84.6602Z" fill="#D1FB84"/>
<path d="M90.3702 641.77H84.6602V653.2H90.3702V641.77Z" fill="#D1FB84"/>
<path d="M78.9502 653.2H73.2302V664.63H78.9502V670.34H84.6602V658.92H78.9502V653.2Z" fill="#D1FB84"/>
<path d="M78.9502 596.06H73.2302V601.77H78.9502V596.06Z" fill="#D1FB84"/>
<path d="M78.9502 573.2H73.2302V578.92H78.9502V573.2Z" fill="#D1FB84"/>
<path d="M67.5202 607.49H61.8002V613.2H67.5202V607.49Z" fill="#D1FB84"/>
<path d="M67.5202 596.06H61.8002V601.77H67.5202V596.06Z" fill="#D1FB84"/>
<path d="M67.5202 584.63H61.8002V590.34H67.5202V584.63Z" fill="#D1FB84"/>
<path d="M61.8002 578.92H56.0902V584.63H61.8002V578.92Z" fill="#D1FB84"/>
<path d="M56.0902 607.49H50.3702V613.2H56.0902V607.49Z" fill="#D1FB84"/>
<path d="M56.0902 596.06H50.3702V601.77H56.0902V596.06Z" fill="#D1FB84"/>
<path d="M56.0902 584.63H50.3702V590.34H56.0902V584.63Z" fill="#D1FB84"/>
<path d="M56.0902 567.49H50.3702V578.92H56.0902V567.49Z" fill="#D1FB84"/>
<path d="M44.6602 596.06H38.9502V601.77H44.6602V596.06Z" fill="#D1FB84"/>
<path d="M580.42 407.23H574.47V413.17H580.42V407.23Z" fill="#D1FB84"/>
<path d="M467.54 532H473.48V526H479.42V520.1H485.37V514.16H491.31V508.21H497.25V502.27H503.19V496.33H509.13V490.4H515.07V484.46H521V478.51H527V472.57H532.94V466.64H538.88V472.57H532.94V478.51H538.88V472.57H544.82V466.64H538.88V460.7H544.82V466.64H550.76V460.7H556.7V454.75H550.76V460.69H544.82V454.75H550.76V442.88H556.7V431H562.64V425.05H568.58V431H574.52V413.17H568.58V419.11H562.64V413.17H568.58V407.23H574.52V401.23H580.47V383.46H574.52V377.52H568.58V371.58H550.71V377.52H556.65V383.46H550.71V389.46H544.77V395.39H538.83V389.46H544.77V383.46H538.83V377.52H544.77V371.58H550.71V365.65H544.77V359.71H550.71V353.77H556.65V341.89H550.71V347.82H544.77V353.76H538.83V347.82H544.77V341.89H550.71V336H544.77V330H532.89V336H527V341.94H532.94V347.87H527V353.81H521V347.87H515.06V341.94H521V336H515.06V330H521V336H527V330H532.94V324.06H527V318.13H521V324.06H509.13V330H503.19V336H497.25V341.94H491.31V347.87H485.37V341.94H473.48V336H461.6V330H473.48V336H485.37V330H491.31V324.06H497.25V318.13H479.42V324.06H437.84V300.29H443.78V282.48H437.84V294.35H431.9V312.18H426V324.06H431.94V330H449.76V336H426V324.06H420V312.18H426V294.35H431.94V282.48H426V276.48H420V270.54H426V276.48H431.94V270.54H437.88V258.71H431.9V252.77H437.84V246.83H443.78V252.77H449.72V258.71H443.78V282.48H449.72V264.66H455.66V246.83H461.6V211.19H455.66V217.14H449.72V211.19H443.78V205.25H449.72V211.19H455.66V199.3H461.6V193.36H467.54V181.48H461.6V187.48H455.66V193.41H449.72V187.48H455.66V181.48H449.72V175.54H443.78V169.6H437.84V163.67H431.9V157.73H437.84V163.67H443.78V169.6H449.72V163.67H455.66V157.73H443.78V145.84H437.84V139.91H431.9V145.84H426V151.78H420V145.84H426V139.91H420V134H414.06V139.95H408.12V134H402.2V139.95H396.26V134H402.2V128H408.14V134H414.08V128H420V122.06H390.3V128H396.24V134H390.3V139.95H396.24V145.88H390.3V139.95H384.36V145.88H378.41V139.95H372.47V134H366.53V128H372.47V134H378.41V139.95H384.36V134H390.3V128H378.43V122.06H348.73V128H342.79V134H348.73V139.95H342.79V134H336.85V139.95H330.91V145.88H336.85V151.82H330.91V157.77H325V151.82H319V163.71H313.06V169.64H307.12V181.52H301.18V193.4H277.44V199.34H319V193.4H313.06V175.54H319V187.43H325V193.36H336.88V187.43H348.76V193.36H342.82V199.3H319V205.25H336.82V211.19H348.7V217.14H354.64V199.3H360.58V211.19H366.52V217.14H372.46V223.07H384.35V217.14H396.23V223.07H390.29V229.07H366.55V235H372.49V264.7H378.43V235H384.38V264.7H390.32V282.52H384.38V288.46H378.43V294.39H372.49V300.33H366.55V306.27H354.67V312.22H348.73V318.17H354.67V324.1H348.73V318.17H342.79V312.22H336.85V336H330.91V347.87H325V336H330.94V306.23H295.27V312.18H325V324.06H319V336H313.06V341.94H319V347.87H313.06V353.81H307.12V347.87H301.18V353.81H295.24V365.7H301.18V371.63H307.12V377.57H301.18V371.63H295.24V365.7H289.3V377.57H283.36V395.39H277.41V407.28H283.36V413.22H289.3V419.16H283.36V425.1H289.3V431H295.24V436.94H289.3V442.88H283.36V448.81H289.3V454.75H295.24V460.69H289.3V454.75H283.36V460.7H289.3V472.57H295.24V466.64H301.18V472.57H307.12V478.51H313.06V484.46H319V490.4H325V496.33H330.94V490.4H336.88V496.33H330.94V502.27H336.88V508.21H342.82V514.16H348.76V520.1H354.7V526H348.76V532H360.64V526H366.58V532H360.64V537.95H372.52V543.88H384.41V573.46H372.49V567.5H348.73V573.44H330.91V579.39H348.73V573.45H372.49V579.39H384.38V573.45H390.32V555.75H396.26V549.75H402.2V543.81H408.14V549.75H414.08V567.58H420V573.4H426V585.27H431.94V561.69H437.88V555.75H431.9V549.75H437.84V555.75H443.78V549.75H449.72V555.75H455.66V573.45H461.6V585.32H467.54V573.44H461.6V543.86H473.48V537.93H467.54V532ZM550.71 395.36H556.65V389.43H562.59V383.43H568.53V389.43H574.47V395.36H568.53V401.3H562.59V395.36H556.65V401.3H550.71V395.36ZM550.71 407.25H556.65V413.19H550.71V407.25ZM538.83 436.96H544.77V442.9H538.83V436.96ZM449.72 223.07H455.66V229.07H449.72V223.07ZM449.72 234.96H455.66V240.9H449.72V234.96ZM443.78 217.14V223.07H437.84V217.14H443.78ZM431.9 181.48H437.84V187.48H431.9V181.48ZM420 163.67H426V169.6H420V163.67ZM354.67 134V128H360.61V134H354.67ZM366.55 151.82H360.61V145.88H366.55V151.82ZM307.15 401.32V407.32H301.21V401.32H307.15ZM289.33 383.5H295.27V389.5H301.21V395.43H295.27V389.5H289.33V383.5ZM289.33 407.27V401.27H295.27V407.27H289.33ZM295.27 419.15V413.21H301.21V419.15H295.27ZM301.21 448.85V442.92H307.15V448.85H301.21ZM313.09 466.68H307.15V460.7H313.09V466.68ZM313.09 431.04H307.15V425.09H313.09V431.04ZM313.09 389.45H307.15V383.45H313.09V389.45ZM319.03 359.75H313.09V365.69H307.15V359.75H301.21V353.81H307.15V359.75H313.09V353.81H319L319.03 359.75ZM330.91 377.56H325V371.62H330.94L330.91 377.56ZM384.38 341.93H390.32V347.86H384.38V341.93ZM384.38 436.98V442.92H378.43V436.98H384.38ZM372.49 306.23H378.43V312.18H372.49V306.23ZM360.61 312.18H366.55V318.13H360.61V312.18ZM354.67 336H360.61V341.94H354.67V336ZM354.67 353.82V359.76H348.73V353.82H354.67ZM348.73 431V425.05H354.67V431H348.73ZM354.67 436.94V448.81H348.73V436.94H354.67ZM342.79 341.89V336H348.73V341.94L342.79 341.89ZM360.61 490.4H354.67V484.46H348.73V478.51H354.67V484.46H360.61V490.4ZM378.43 532H372.49V526H378.43V532ZM396.26 549.82H390.32V543.88H396.26V549.82ZM396.26 520.12H390.32V514.18H396.26V520.12ZM396.26 508.23H390.32V502.29H384.38V508.23H378.43V502.29H384.38V496.35H390.32V502.29H396.26V508.23ZM396.26 490.42H378.43V496.35H372.49V502.29H366.55V496.35H372.49V490.4H366.55V478.51H360.61V472.57H354.67V466.64H348.73V454.76H354.67V466.64H360.61V472.57H366.55V478.51H378.43V484.46H396.26V490.42ZM497.26 496.35H491.32V490.4H497.26V496.35ZM538.84 401.3V407.3H532.9V401.3H538.84ZM527 371.58H532.94V377.52H527V371.58ZM515.12 371.58V377.52H509.18V371.58H515.12ZM503.24 353.77H509.18V359.71H503.24V353.77ZM473.53 353.77H479.47V359.71H473.53V353.77ZM461.6 341.89H467.54V347.82H461.6V341.89ZM461.6 383.46V377.52H485.37V383.46H497.25V395.34H503.19V401.28H509.13V413.17H515.07V419.11H521V425.05H527V448.81H521V454.75H515.06V460.69H509.12V454.75H503.18V448.81H509.12V442.88H515.06V436.94H521V425.05H515.06V419.11H503.19V425.05H497.25V431H491.31V425.05H497.25V419.11H503.19V401.28H497.25V395.34H491.31V401.28H485.37V407.28H479.42V413.22H473.48V407.28H479.42V401.28H485.37V395.34H491.31V389.41H485.37V383.41H461.6V389.41H455.66V383.41L461.6 383.46ZM473.48 436.94V431H479.42V436.94H473.48ZM479.42 466.64V472.57H467.54V466.64H479.42ZM449.72 341.89H455.66V347.82H449.72V341.89ZM449.72 472.57H461.6V478.51H449.72V472.57ZM431.9 347.82H437.84V353.76H431.9V347.82ZM431.9 454.75H437.84V460.69H431.9V454.75ZM431.9 478.51H443.78V484.46H431.9V478.51ZM420.02 478.51H426V484.46H420L420.02 478.51ZM408.14 532H402.2V526H408.14V532ZM408.14 514.18H402.2V508.23H408.14V514.18ZM414.08 520.12V514.18H420V520.12H414.08ZM426 567.5H420V549.8H426V567.5ZM431.94 537.93H426V532H431.94V537.93ZM431.94 514.16H426V508.21H431.94V514.16ZM443.78 526H437.84V520.1H443.78V526ZM443.78 502.23V508.17H437.84V502.23H431.9V496.29H426V502.23H420V508.17H414.06V502.23H408.12V496.29H396.26V490.4H455.66V484.46H473.48V478.51H491.31V472.57H497.25V466.64H485.37V460.7H497.25V466.64H503.19V460.7H509.13V466.64H503.19V472.57H509.13V478.51H503.19V472.57H497.25V484.46H485.37V490.4H479.42V496.33H485.37V502.27H479.42V508.21H473.48V502.27H479.42V496.33H473.48V490.4H455.66V496.33H461.6V502.27H455.66V496.33H449.72V502.27L443.78 502.23ZM449.72 514.12V508.17H455.66V514.12H449.72ZM461.6 532H455.66V526H461.6V532ZM461.6 514.18V508.23H467.54V514.18H461.6Z" fill="#D1FB84"/>
<path d="M562.59 442.88H568.53V431H562.59V442.88Z" fill="#D1FB84"/>
<path d="M568.53 389.41H562.59V395.35H568.53V389.41Z" fill="#D1FB84"/>
<path d="M556.65 454.75H562.59V442.88H556.65V454.75Z" fill="#D1FB84"/>
<path d="M556.65 359.71H550.71V365.65H556.65V359.71Z" fill="#D1FB84"/>
<path d="M550.71 377.52H544.77V383.46H550.71V377.52Z" fill="#D1FB84"/>
<path d="M532.89 478.51H526.95V484.45H532.89V478.51Z" fill="#D1FB84"/>
<path d="M526.95 484.46H521.01V490.4H526.95V484.46Z" fill="#D1FB84"/>
<path d="M526.95 341.89H521.01V347.83H526.95V341.89Z" fill="#D1FB84"/>
<path d="M521.01 490.4H515.07V496.34H521.01V490.4Z" fill="#D1FB84"/>
<path d="M521.01 442.88H515.07V448.82H521.01V442.88Z" fill="#D1FB84"/>
<path d="M515.07 496.33H509.13V502.27H515.07V496.33Z" fill="#D1FB84"/>
<path d="M515.07 448.81H509.13V454.75H515.07V448.81Z" fill="#D1FB84"/>
<path d="M509.13 502.27H503.19V508.21H509.13V502.27Z" fill="#D1FB84"/>
<path d="M503.19 324.06H509.13V318.13H521.01V312.18H497.25V318.13H503.19V324.06Z" fill="#D1FB84"/>
<path d="M503.19 508.21H497.25V514.15H503.19V508.21Z" fill="#D1FB84"/>
<path d="M503.19 324.06H497.25V330H503.19V324.06Z" fill="#D1FB84"/>
<path d="M497.25 514.16H491.31V520.11H497.25V514.16Z" fill="#D1FB84"/>
<path d="M497.25 330H491.31V335.94H497.25V330Z" fill="#D1FB84"/>
<path d="M491.31 520.1H485.37V526.04H491.31V520.1Z" fill="#D1FB84"/>
<path d="M491.31 335.95H485.37V341.89H491.31V335.95Z" fill="#D1FB84"/>
<path d="M485.37 526.04H479.42V531.98H485.37V526.04Z" fill="#D1FB84"/>
<path d="M479.42 531.98H473.48V537.92H479.42V531.98Z" fill="#D1FB84"/>
<path d="M479.42 484.46H473.48V490.4H479.42V484.46Z" fill="#D1FB84"/>
<path d="M467.54 169.6H461.6V175.54H467.54V169.6Z" fill="#D1FB84"/>
<path d="M461.6 175.54H455.66V181.48H461.6V175.54Z" fill="#D1FB84"/>
<path d="M461.6 163.67H455.66V169.61H461.6V163.67Z" fill="#D1FB84"/>
<path d="M455.66 169.6H449.72V175.54H455.66V169.6Z" fill="#D1FB84"/>
<path d="M449.72 555.75H443.78V561.69H449.72V555.75Z" fill="#D1FB84"/>
<path d="M443.78 496.33H437.84V502.27H443.78V496.33Z" fill="#D1FB84"/>
<path d="M443.78 252.77H437.84V258.71H443.78V252.77Z" fill="#D1FB84"/>
<path d="M437.84 276.53H431.9V282.47H437.84V276.53Z" fill="#D1FB84"/>
<path d="M431.9 133.96H425.96V139.9H431.9V133.96Z" fill="#D1FB84"/>
<path d="M425.96 128.02H420.02V133.96H425.96V128.02Z" fill="#D1FB84"/>
<path d="M420.02 496.33H414.08V502.27H420.02V496.33Z" fill="#D1FB84"/>
<path d="M408.14 549.8H402.2V555.74H408.14V549.8Z" fill="#D1FB84"/>
<path d="M378.43 282.48H384.38V264.65H378.43V282.48Z" fill="#D1FB84"/>
<path d="M378.43 484.46H372.49V490.4H378.43V484.46Z" fill="#D1FB84"/>
<path d="M378.43 282.48H372.49V288.42H378.43V282.48Z" fill="#D1FB84"/>
<path d="M372.49 288.42H366.55V294.36H372.49V288.42Z" fill="#D1FB84"/>
<path d="M354.67 294.36V300.3H366.55V294.36H354.67Z" fill="#D1FB84"/>
<path d="M366.55 223.07H360.61V229.01H366.55V223.07Z" fill="#D1FB84"/>
<path d="M360.61 217.14H354.67V223.08H360.61V217.14Z" fill="#D1FB84"/>
<path d="M330.91 300.3V306.24H354.67V300.3H330.91Z" fill="#D1FB84"/>
<path d="M348.73 520.1H342.79V526.04H348.73V520.1Z" fill="#D1FB84"/>
<path d="M348.73 270.6V264.65H342.79V258.71H336.85V270.6H348.73Z" fill="#D1FB84"/>
<path d="M342.79 514.16H336.85V520.11H342.79V514.16Z" fill="#D1FB84"/>
<path d="M336.85 508.21H330.91V514.15H336.85V508.21Z" fill="#D1FB84"/>
<path d="M336.85 276.54V270.6H324.97V276.54H336.85Z" fill="#D1FB84"/>
<path d="M330.91 502.27H324.97V508.21H330.91V502.27Z" fill="#D1FB84"/>
<path d="M330.91 145.84H324.97V151.78H330.91V145.84Z" fill="#D1FB84"/>
<path d="M324.97 496.33H319.03V502.27H324.97V496.33Z" fill="#D1FB84"/>
<path d="M324.97 282.48V276.54H313.09V282.48H324.97Z" fill="#D1FB84"/>
<path d="M485.37 609.1H491.31V597.21H485.37V609.1Z" fill="#D1FB84"/>
<path d="M485.37 609.09H479.42V615.03H485.37V609.09Z" fill="#D1FB84"/>
<path d="M485.37 591.26H479.42V597.2H485.37V591.26Z" fill="#D1FB84"/>
<path d="M461.6 615.03V620.98H479.42V615.03H461.6Z" fill="#D1FB84"/>
<path d="M479.42 591.26V585.33H467.54V591.26H479.42Z" fill="#D1FB84"/>
<path d="M425.96 609.1V615.03H461.6V609.1H425.96Z" fill="#D1FB84"/>
<path d="M414.08 615.03V620.98H425.96V615.03H414.08Z" fill="#D1FB84"/>
<path d="M414.08 585.33V591.26H425.96V585.33H414.08Z" fill="#D1FB84"/>
<path d="M390.32 579.38V585.33H414.08V579.38H390.32Z" fill="#D1FB84"/>
<path d="M396.26 620.98V615.03H390.32V620.98H396.26V626.91H414.08V620.98H396.26Z" fill="#D1FB84"/>
<path d="M408.14 597.21H402.2V603.15H408.14V597.21Z" fill="#D1FB84"/>
<path d="M402.2 609.1V603.14H390.32V609.1H402.2Z" fill="#D1FB84"/>
<path d="M390.32 609.09H384.38V615.03H390.32V609.09Z" fill="#D1FB84"/>
<path d="M372.49 585.33V591.26H390.32V585.33H372.49Z" fill="#D1FB84"/>
<path d="M360.61 615.03V620.98H384.38V615.03H360.61Z" fill="#D1FB84"/>
<path d="M372.49 591.26H366.55V597.2H372.49V591.26Z" fill="#D1FB84"/>
<path d="M366.55 597.21H360.61V603.15H366.55V597.21Z" fill="#D1FB84"/>
<path d="M366.55 585.32H360.61V591.26H366.55V585.32Z" fill="#D1FB84"/>
<path d="M360.61 603.14H348.73V609.1H354.67V615.03H360.61V603.14Z" fill="#D1FB84"/>
<path d="M348.73 591.26V597.21H360.61V591.26H348.73Z" fill="#D1FB84"/>
<path d="M348.73 597.21H342.79V603.15H348.73V597.21Z" fill="#D1FB84"/>
<path d="M319.03 603.14V609.1H342.79V603.14H319.03Z" fill="#D1FB84"/>
<path d="M330.91 579.39H324.97V585.33H330.91V579.39Z" fill="#D1FB84"/>
<path d="M324.97 585.32H319.03V591.26H324.97V585.32Z" fill="#D1FB84"/>
<path d="M319.03 591.26H313.09V603.14H319.03V591.26Z" fill="#D1FB84"/>
<path d="M319.03 490.4H313.09V496.34H319.03V490.4Z" fill="#D1FB84"/>
<path d="M313.09 484.46H307.15V490.4H313.09V484.46Z" fill="#D1FB84"/>
<path d="M313.09 341.89H307.15V347.83H313.09V341.89Z" fill="#D1FB84"/>
<path d="M307.15 478.51H301.21V484.45H307.15V478.51Z" fill="#D1FB84"/>
<path d="M301.21 472.57H295.27V478.51H301.21V472.57Z" fill="#D1FB84"/>
<path d="M271.5 300.3V306.24H295.27V300.3H271.5Z" fill="#D1FB84"/>
<path d="M313.09 288.42V282.48H289.33V288.42H313.09Z" fill="#D1FB84"/>
<path d="M289.33 431H283.39V436.94H289.33V431Z" fill="#D1FB84"/>
<path d="M283.39 448.81H277.44V454.75H283.39V448.81Z" fill="#D1FB84"/>
<path d="M283.39 436.94H277.44V442.88H283.39V436.94Z" fill="#D1FB84"/>
<path d="M283.39 425.05H277.44V430.99H283.39V425.05Z" fill="#D1FB84"/>
<path d="M283.39 413.17H277.44V419.12H283.39V413.17Z" fill="#D1FB84"/>
<path d="M271.5 294.35H265.56V300.29H271.5V294.35Z" fill="#D1FB84"/>
<path d="M265.56 288.42H259.62V294.36H265.56V288.42Z" fill="#D1FB84"/>
<path d="M289.33 282.48V276.54H271.5V258.71H265.56V240.9H259.62V223.07H253.68V217.13H247.74V211.19H241.8V205.25H235.86V211.19H223.98V217.13H218.04V223.07H212.1V229.01H206.16V240.9H200.22V276.54H206.16V294.36H212.1V300.3H223.98V294.36H229.92V288.42H241.8V282.48H253.68V288.42H259.62V282.48H289.33Z" fill="#D1FB84"/>
<path d="M277.44 205.25V199.31H241.8V205.25H277.44Z" fill="#D1FB84"/>
</g>
<defs>
<filter id="filter0_d" x="18.9502" y="102.06" width="731.42" height="639.71" filterUnits="userSpaceOnUse" color-interpolation-filters="sRGB" filterRes="800">
<feFlood flood-opacity="0" result="BackgroundImageFix"/>
<feColorMatrix in="SourceAlpha" type="matrix" values="0 0 0 0 0 0 0 0 0 0 0 0 0 0 0 0 0 0 127 0"/>
<feOffset/>
<feGaussianBlur stdDeviation="10"/>
<feColorMatrix type="matrix" values="0 0 0 0 0.707769 0 0 0 0 0.85 0 0 0 0 0.447012 0 0 0 1 0"/>
<feBlend mode="normal" in2="BackgroundImageFix" result="effect1_dropShadow"/>
<feBlend mode="normal" in="SourceGraphic" in2="effect1_dropShadow" result="shape"/>
</filter>
</defs>
</svg>
