<svg width="800" height="800" viewBox="0 0 800 800" fill="none" xmlns="http://www.w3.org/2000/svg">
<g filter="url(#filter0_d)">
<path d="M718.95 584.63V590.34H730.37V584.63H718.95Z" fill="#D1FB84"/>
<path d="M718.95 618.92H713.23V624.63H718.95V618.92Z" fill="#D1FB84"/>
<path d="M718.95 607.49H713.23V613.2H718.95V607.49Z" fill="#D1FB84"/>
<path d="M713.23 596.06H707.52V601.77H718.95V590.34H713.23V596.06Z" fill="#D1FB84"/>
<path d="M707.52 670.34H701.8V681.77H707.52V676.06H713.23V664.63H707.52V670.34Z" fill="#D1FB84"/>
<path d="M713.23 624.63H707.52V630.34H713.23V624.63Z" fill="#D1FB84"/>
<path d="M713.23 613.2H707.52V618.92H713.23V613.2Z" fill="#D1FB84"/>
<path d="M701.8 613.2H707.52V601.77H701.8V613.2Z" fill="#D1FB84"/>
<path d="M701.8 630.34H696.09V641.77H701.8V630.34Z" fill="#D1FB84"/>
<path d="M701.8 613.2H696.09V618.92H701.8V613.2Z" fill="#D1FB84"/>
<path d="M701.8 567.49H696.09V573.2H701.8V567.49Z" fill="#D1FB84"/>
<path d="M690.37 676.06H684.66V687.49H690.37V681.77H696.09V664.63H690.37V676.06Z" fill="#D1FB84"/>
<path d="M696.09 607.49H690.37V613.2H696.09V607.49Z" fill="#D1FB84"/>
<path d="M690.37 624.63H684.66V636.06H690.37V624.63Z" fill="#D1FB84"/>
<path d="M690.37 613.2H684.66V618.92H690.37V613.2Z" fill="#D1FB84"/>
<path d="M690.37 601.77H684.66V607.49H690.37V601.77Z" fill="#D1FB84"/>
<path d="M684.66 607.49H678.95V613.2H684.66V607.49Z" fill="#D1FB84"/>
<path d="M678.95 624.63H673.23V630.34H678.95V624.63Z" fill="#D1FB84"/>
<path d="M678.95 613.2H673.23V618.92H678.95V613.2Z" fill="#D1FB84"/>
<path d="M678.95 601.77H673.23V607.49H678.95V601.77Z" fill="#D1FB84"/>
<path d="M667.52 658.92H673.23V641.77H667.52V658.92Z" fill="#D1FB84"/>
<path d="M673.23 607.49H667.52V613.2H673.23V607.49Z" fill="#D1FB84"/>
<path d="M667.52 601.77H661.8V607.49H667.52V601.77Z" fill="#D1FB84"/>
<path d="M661.8 710.34H656.09V716.06H661.8V710.34Z" fill="#D1FB84"/>
<path d="M661.8 687.49H656.09V693.2H661.8V687.49Z" fill="#D1FB84"/>
<path d="M656.09 658.92V670.34H661.8V664.63H667.52V658.92H656.09Z" fill="#D1FB84"/>
<path d="M661.8 618.92H656.09V636.06H661.8V618.92Z" fill="#D1FB84"/>
<path d="M661.8 607.49H656.09V613.2H661.8V607.49Z" fill="#D1FB84"/>
<path d="M656.09 647.49H650.37V658.92H656.09V647.49Z" fill="#D1FB84"/>
<path d="M656.09 601.77H650.37V607.49H656.09V601.77Z" fill="#D1FB84"/>
<path d="M650.37 710.34H644.66V716.06H650.37V710.34Z" fill="#D1FB84"/>
<path d="M650.37 698.92H644.66V704.63H650.37V698.92Z" fill="#D1FB84"/>
<path d="M650.37 687.49H644.66V693.2H650.37V687.49Z" fill="#D1FB84"/>
<path d="M644.66 676.06H650.37V664.63H644.66V676.06Z" fill="#D1FB84"/>
<path d="M650.37 618.92H644.66V636.06H650.37V618.92Z" fill="#D1FB84"/>
<path d="M650.37 607.49H644.66V613.2H650.37V607.49Z" fill="#D1FB84"/>
<path d="M650.37 550.34H644.66V561.77H650.37V550.34Z" fill="#D1FB84"/>
<path d="M644.66 601.77H638.95V607.49H644.66V601.77Z" fill="#D1FB84"/>
<path d="M638.95 698.92H633.23V704.63H638.95V698.92Z" fill="#D1FB84"/>
<path d="M638.95 687.49H633.23V693.2H638.95V687.49Z" fill="#D1FB84"/>
<path d="M638.95 607.49H633.23V613.2H638.95V607.49Z" fill="#D1FB84"/>
<path d="M633.23 618.92H627.52V624.63H633.23V618.92Z" fill="#D1FB84"/>
<path d="M633.23 601.77H627.52V607.49H633.23V601.77Z" fill="#D1FB84"/>
<path d="M621.8 710.34H616.09V716.06H627.52V704.63H621.8V710.34Z" fill="#D1FB84"/>
<path d="M627.52 687.49H621.8V693.2H627.52V687.49Z" fill="#D1FB84"/>
<path d="M627.52 676.06H621.8V681.77H627.52V676.06Z" fill="#D1FB84"/>
<path d="M627.52 664.63H621.8V670.34H627.52V664.63Z" fill="#D1FB84"/>
<path d="M621.8 658.92H627.52V641.77H621.8V658.92Z" fill="#D1FB84"/>
<path d="M627.52 607.49H621.8V613.2H627.52V607.49Z" fill="#D1FB84"/>
<path d="M627.52 596.06H621.8V601.77H627.52V596.06Z" fill="#D1FB84"/>
<path d="M627.52 590.34V596.06H633.23V601.77H638.95V596.06H644.66V601.77H650.37V596.06H656.09V601.77H661.8V596.06H667.52V601.77H673.23V596.06H678.95V601.77H684.66V596.06H690.37V601.77H696.09V596.06H701.8V590.34H707.52V584.63H696.09V590.34H690.37V584.63H696.09V573.2H690.37V578.92H684.66V561.77H678.95V578.92H673.23V556.06H667.52V538.92H661.8V561.77H667.52V573.2H656.09V561.77H650.37V584.63H644.66V567.49H638.95V584.63H627.52V578.92H621.8V573.2H627.52V556.06H621.8V567.49H616.09V573.2H610.37V561.77H604.66V573.2H598.95V544.63H593.23V538.92H587.52V550.34H593.23V573.2H576.09V567.49H564.66V573.2H558.95V567.49H564.66V556.06H558.95V561.77H553.23V567.49H547.52V561.77H553.23V550.34H547.52V556.06H541.8V561.77H536.09V573.2H530.37V567.49H524.66V561.77H530.37V550.34H524.66V556.06H518.95V567.49H501.8V573.2H496.09V567.49H501.8V561.77H507.52V556.06H513.23V544.63H507.52V550.34H501.8V556.06H496.09V561.77H490.37V556.06H496.09V544.63H484.66V550.34H478.95V556.06H473.23V550.34H467.52V567.49H473.23V573.2H484.66V567.49H490.37V573.2H484.66V578.92H490.37V584.63H496.09V578.92H501.8V584.63H507.52V590.34H513.23V584.63H518.95V590.34H524.66V584.63H530.37V590.34H536.09V584.63H541.8V590.34H547.52V584.63H553.23V590.34H558.95V584.63H564.66V590.34H570.37V584.63H576.09V590.34H581.8V584.63H587.52V590.34H593.23V584.63H598.95V590.34H610.37V584.63H616.09V590.34H610.37V596.06H621.8V590.34H627.52Z" fill="#D1FB84"/>
<path d="M621.8 601.77H616.09V607.49H621.8V601.77Z" fill="#D1FB84"/>
<path d="M616.09 687.49H610.37V693.2H616.09V687.49Z" fill="#D1FB84"/>
<path d="M616.09 676.06H610.37V681.77H616.09V676.06Z" fill="#D1FB84"/>
<path d="M616.09 664.63H610.37V670.34H616.09V664.63Z" fill="#D1FB84"/>
<path d="M610.37 653.2H616.09V641.77H610.37V653.2Z" fill="#D1FB84"/>
<path d="M610.37 618.92H616.09V607.49H610.37V618.92Z" fill="#D1FB84"/>
<path d="M616.09 550.34H610.37V561.77H616.09V550.34Z" fill="#D1FB84"/>
<path d="M610.37 630.34H604.66V641.77H610.37V630.34Z" fill="#D1FB84"/>
<path d="M610.37 538.92H604.66V550.34H610.37V538.92Z" fill="#D1FB84"/>
<path d="M604.66 687.49H598.95V693.2H604.66V687.49Z" fill="#D1FB84"/>
<path d="M604.66 676.06H598.95V681.77H604.66V676.06Z" fill="#D1FB84"/>
<path d="M604.66 664.63H598.95V670.34H604.66V664.63Z" fill="#D1FB84"/>
<path d="M604.66 607.49H598.95V618.92H604.66V607.49Z" fill="#D1FB84"/>
<path d="M604.66 596.06H598.95V601.77H604.66V596.06Z" fill="#D1FB84"/>
<path d="M598.95 590.34H593.23V596.06H598.95V590.34Z" fill="#D1FB84"/>
<path d="M593.23 676.06H587.52V681.77H593.23V676.06Z" fill="#D1FB84"/>
<path d="M593.23 664.63H587.52V670.34H593.23V664.63Z" fill="#D1FB84"/>
<path d="M593.23 596.06H587.52V601.77H593.23V596.06Z" fill="#D1FB84"/>
<path d="M581.8 647.49H587.52V630.34H581.8V647.49Z" fill="#D1FB84"/>
<path d="M587.52 607.49H581.8V613.2H587.52V607.49Z" fill="#D1FB84"/>
<path d="M587.52 590.34H581.8V596.06H587.52V590.34Z" fill="#D1FB84"/>
<path d="M576.09 710.34H581.8V693.2H576.09V710.34Z" fill="#D1FB84"/>
<path d="M581.8 676.06H576.09V681.77H581.8V676.06Z" fill="#D1FB84"/>
<path d="M581.8 664.63H576.09V670.34H581.8V664.63Z" fill="#D1FB84"/>
<path d="M581.8 561.77H576.09V567.49H581.8V561.77Z" fill="#D1FB84"/>
<path d="M570.37 647.49H576.09V624.63H570.37V647.49Z" fill="#D1FB84"/>
<path d="M576.09 601.77H570.37V613.2H576.09V601.77Z" fill="#D1FB84"/>
<path d="M576.09 590.34H570.37V596.06H576.09V590.34Z" fill="#D1FB84"/>
<path d="M564.66 710.34H570.37V693.2H564.66V710.34Z" fill="#D1FB84"/>
<path d="M570.37 664.63H564.66V670.34H570.37V664.63Z" fill="#D1FB84"/>
<path d="M564.66 590.34H558.95V596.06H564.66V590.34Z" fill="#D1FB84"/>
<path d="M553.23 607.49H558.95V613.2H564.66V601.77H558.95V596.06H553.23V607.49Z" fill="#D1FB84"/>
<path d="M553.23 590.34H547.52V596.06H553.23V590.34Z" fill="#D1FB84"/>
<path d="M547.52 601.77H541.8V607.49H547.52V601.77Z" fill="#D1FB84"/>
<path d="M536.09 670.34H530.37V664.63H524.66V670.34H518.95V681.77H524.66V676.06H530.37V681.77H536.09V676.06H541.8V664.63H536.09V670.34Z" fill="#D1FB84"/>
<path d="M541.8 613.2H536.09V618.92H541.8V613.2Z" fill="#D1FB84"/>
<path d="M541.8 590.34H536.09V596.06H541.8V590.34Z" fill="#D1FB84"/>
<path d="M536.09 601.77H530.37V607.49H536.09V601.77Z" fill="#D1FB84"/>
<path d="M536.09 538.92H530.37V550.34H536.09V538.92Z" fill="#D1FB84"/>
<path d="M524.66 641.77H530.37V624.63H524.66V641.77Z" fill="#D1FB84"/>
<path d="M530.37 613.2H524.66V618.92H530.37V613.2Z" fill="#D1FB84"/>
<path d="M530.37 590.34H524.66V596.06H530.37V590.34Z" fill="#D1FB84"/>
<path d="M524.66 601.77H518.95V607.49H524.66V601.77Z" fill="#D1FB84"/>
<path d="M518.95 698.92H513.23V704.63H518.95V698.92Z" fill="#D1FB84"/>
<path d="M518.95 653.2H513.23V658.92H518.95V653.2Z" fill="#D1FB84"/>
<path d="M518.95 630.34H513.23V647.49H518.95V630.34Z" fill="#D1FB84"/>
<path d="M513.23 618.92H518.95V607.49H513.23V618.92Z" fill="#D1FB84"/>
<path d="M518.95 590.34H513.23V596.06H518.95V590.34Z" fill="#D1FB84"/>
<path d="M507.52 601.77H501.8V613.2H507.52V607.49H513.23V596.06H507.52V601.77Z" fill="#D1FB84"/>
<path d="M507.52 687.49H501.8V693.2H507.52V687.49Z" fill="#D1FB84"/>
<path d="M507.52 676.06H501.8V681.77H507.52V676.06Z" fill="#D1FB84"/>
<path d="M507.52 664.63H501.8V670.34H507.52V664.63Z" fill="#D1FB84"/>
<path d="M507.52 653.2H501.8V658.92H507.52V653.2Z" fill="#D1FB84"/>
<path d="M496.09 687.49H490.37V693.2H496.09V687.49Z" fill="#D1FB84"/>
<path d="M496.09 676.06H490.37V681.77H496.09V676.06Z" fill="#D1FB84"/>
<path d="M496.09 664.63H490.37V670.34H496.09V664.63Z" fill="#D1FB84"/>
<path d="M496.09 653.2H490.37V658.92H496.09V653.2Z" fill="#D1FB84"/>
<path d="M484.66 698.92H478.95V704.63H484.66V698.92Z" fill="#D1FB84"/>
<path d="M484.66 687.49H478.95V693.2H484.66V687.49Z" fill="#D1FB84"/>
<path d="M478.95 658.92H473.23V681.77H478.95V658.92Z" fill="#D1FB84"/>
<path d="M473.23 710.34H467.52V716.06H473.23V710.34Z" fill="#D1FB84"/>
<path d="M473.23 698.92H467.52V704.63H473.23V698.92Z" fill="#D1FB84"/>
<path d="M473.23 687.49H467.52V693.2H473.23V687.49Z" fill="#D1FB84"/>
<path d="M467.52 658.92H461.8V676.06H467.52V658.92Z" fill="#D1FB84"/>
<path d="M461.8 698.92H456.09V704.63H461.8V698.92Z" fill="#D1FB84"/>
<path d="M461.8 687.49H456.09V693.2H461.8V687.49Z" fill="#D1FB84"/>
<path d="M450.37 710.34H444.66V716.06H450.37V710.34Z" fill="#D1FB84"/>
<path d="M450.37 698.92H444.66V704.63H450.37V698.92Z" fill="#D1FB84"/>
<path d="M450.37 687.49H444.66V693.2H450.37V687.49Z" fill="#D1FB84"/>
<path d="M450.37 676.06H444.66V681.77H450.37V676.06Z" fill="#D1FB84"/>
<path d="M450.37 664.63H444.66V670.34H450.37V664.63Z" fill="#D1FB84"/>
<path d="M450.37 647.49H444.66V653.2H450.37V647.49Z" fill="#D1FB84"/>
<path d="M438.95 698.92H433.23V704.63H438.95V698.92Z" fill="#D1FB84"/>
<path d="M438.95 687.49H433.23V693.2H438.95V687.49Z" fill="#D1FB84"/>
<path d="M438.95 676.06H433.23V681.77H438.95V676.06Z" fill="#D1FB84"/>
<path d="M438.95 664.63H433.23V670.34H438.95V664.63Z" fill="#D1FB84"/>
<path d="M438.95 653.2H433.23V658.92H438.95V653.2Z" fill="#D1FB84"/>
<path d="M427.52 676.06H421.8V681.77H427.52V676.06Z" fill="#D1FB84"/>
<path d="M427.52 664.63H421.8V670.34H427.52V664.63Z" fill="#D1FB84"/>
<path d="M421.8 658.92H427.52V647.49H421.8V658.92Z" fill="#D1FB84"/>
<path d="M416.09 693.2H410.37V698.92H421.8V687.49H416.09V693.2Z" fill="#D1FB84"/>
<path d="M416.09 664.63H410.37V670.34H416.09V664.63Z" fill="#D1FB84"/>
<path d="M416.09 653.2H410.37V658.92H416.09V653.2Z" fill="#D1FB84"/>
<path d="M416.09 641.77H410.37V647.49H416.09V641.77Z" fill="#D1FB84"/>
<path d="M398.95 698.92H404.66V681.77H398.95V698.92Z" fill="#D1FB84"/>
<path d="M404.66 653.2H398.95V658.92H404.66V653.2Z" fill="#D1FB84"/>
<path d="M381.8 664.63H387.52V653.2H381.8V664.63Z" fill="#D1FB84"/>
<path d="M370.37 647.49H364.66V658.92H370.37V670.34H376.09V653.2H370.37V647.49Z" fill="#D1FB84"/>
<path d="M358.95 630.34H353.23V636.06H358.95V630.34Z" fill="#D1FB84"/>
<path d="M347.52 653.2H341.8V658.92H347.52V653.2Z" fill="#D1FB84"/>
<path d="M347.52 641.77H341.8V647.49H347.52V641.77Z" fill="#D1FB84"/>
<path d="M347.52 630.34H341.8V636.06H347.52V630.34Z" fill="#D1FB84"/>
<path d="M347.52 618.92H341.8V624.63H347.52V618.92Z" fill="#D1FB84"/>
<path d="M347.52 544.63H341.8V550.34H347.52V544.63Z" fill="#D1FB84"/>
<path d="M336.09 561.77H341.8V550.34H336.09V561.77Z" fill="#D1FB84"/>
<path d="M336.09 653.2H330.37V658.92H336.09V653.2Z" fill="#D1FB84"/>
<path d="M336.09 641.77H330.37V647.49H336.09V641.77Z" fill="#D1FB84"/>
<path d="M336.09 630.34H330.37V636.06H336.09V630.34Z" fill="#D1FB84"/>
<path d="M324.66 561.77V550.34H318.95V544.63H313.23V556.06H318.95V561.77H313.23V567.49H307.52V573.2H301.8V567.49H290.37V561.77H278.95V567.49H284.66V573.2H273.23V567.49H267.52V561.77H261.8V544.63H256.09V567.49H250.37V556.06H244.66V567.49H238.95V556.06H233.23V567.49H227.52V550.34H221.8V538.92H216.09V561.77H210.37V567.49H204.66V556.06H198.95V573.2H204.66V578.92H210.37V584.63H216.09V578.92H221.8V584.63H227.52V590.34H233.23V596.06H238.95V590.34H244.66V584.63H238.95V578.92H244.66V584.63H250.37V590.34H256.09V596.06H261.8V590.34H267.52V584.63H273.23V578.92H278.95V584.63H284.66V578.92H290.37V573.2H296.09V578.92H301.8V584.63H307.52V578.92H313.23V584.63H318.95V573.2H336.09V561.77H324.66Z" fill="#D1FB84"/>
<path d="M324.66 641.77H318.95V647.49H324.66V641.77Z" fill="#D1FB84"/>
<path d="M324.66 630.34H318.95V636.06H324.66V630.34Z" fill="#D1FB84"/>
<path d="M324.66 618.92H318.95V624.63H324.66V618.92Z" fill="#D1FB84"/>
<path d="M313.23 641.77H307.52V647.49H313.23V641.77Z" fill="#D1FB84"/>
<path d="M313.23 630.34H307.52V636.06H313.23V630.34Z" fill="#D1FB84"/>
<path d="M313.23 584.63H307.52V590.34H313.23V584.63Z" fill="#D1FB84"/>
<path d="M301.8 687.49H296.09V676.06H290.37V687.49H284.66V698.92H290.37V693.2H296.09V698.92H301.8V693.2H307.52V681.77H301.8V687.49Z" fill="#D1FB84"/>
<path d="M307.52 590.34H301.8V596.06H307.52V590.34Z" fill="#D1FB84"/>
<path d="M307.52 561.77H301.8V567.49H307.52V561.77Z" fill="#D1FB84"/>
<path d="M301.8 607.49H296.09V613.2H301.8V607.49Z" fill="#D1FB84"/>
<path d="M301.8 596.06H296.09V601.77H301.8V596.06Z" fill="#D1FB84"/>
<path d="M301.8 584.63H296.09V590.34H301.8V584.63Z" fill="#D1FB84"/>
<path d="M301.8 561.77V556.06H290.37V561.77H301.8Z" fill="#D1FB84"/>
<path d="M296.09 601.77H290.37V607.49H296.09V601.77Z" fill="#D1FB84"/>
<path d="M296.09 590.34H290.37V596.06H296.09V590.34Z" fill="#D1FB84"/>
<path d="M296.09 578.92H290.37V584.63H296.09V578.92Z" fill="#D1FB84"/>
<path d="M290.37 630.34H284.66V636.06H290.37V630.34Z" fill="#D1FB84"/>
<path d="M290.37 607.49H284.66V613.2H290.37V607.49Z" fill="#D1FB84"/>
<path d="M290.37 596.06H284.66V601.77H290.37V596.06Z" fill="#D1FB84"/>
<path d="M290.37 584.63H284.66V590.34H290.37V584.63Z" fill="#D1FB84"/>
<path d="M284.66 636.06H278.95V647.49H284.66V636.06Z" fill="#D1FB84"/>
<path d="M284.66 618.92H278.95V624.63H284.66V618.92Z" fill="#D1FB84"/>
<path d="M284.66 590.34H278.95V596.06H284.66V590.34Z" fill="#D1FB84"/>
<path d="M278.95 704.63H273.23V710.34H278.95V704.63Z" fill="#D1FB84"/>
<path d="M278.95 693.2H273.23V698.92H278.95V693.2Z" fill="#D1FB84"/>
<path d="M278.95 681.77H273.23V687.49H278.95V681.77Z" fill="#D1FB84"/>
<path d="M278.95 670.34H273.23V676.06H278.95V670.34Z" fill="#D1FB84"/>
<path d="M278.95 658.92H273.23V664.63H278.95V658.92Z" fill="#D1FB84"/>
<path d="M278.95 607.49H273.23V613.2H278.95V607.49Z" fill="#D1FB84"/>
<path d="M278.95 596.06H273.23V601.77H278.95V596.06Z" fill="#D1FB84"/>
<path d="M278.95 584.63H273.23V590.34H278.95V584.63Z" fill="#D1FB84"/>
<path d="M278.95 556.06H273.23V561.77H278.95V556.06Z" fill="#D1FB84"/>
<path d="M273.23 664.63H267.52V670.34H273.23V664.63Z" fill="#D1FB84"/>
<path d="M273.23 618.92H267.52V624.63H273.23V618.92Z" fill="#D1FB84"/>
<path d="M273.23 590.34H267.52V596.06H273.23V590.34Z" fill="#D1FB84"/>
<path d="M267.52 716.06H261.8V721.77H267.52V716.06Z" fill="#D1FB84"/>
<path d="M267.52 704.63H261.8V710.34H267.52V704.63Z" fill="#D1FB84"/>
<path d="M267.52 693.2H261.8V698.92H267.52V693.2Z" fill="#D1FB84"/>
<path d="M267.52 681.77H261.8V687.49H267.52V681.77Z" fill="#D1FB84"/>
<path d="M267.52 670.34H261.8V676.06H267.52V670.34Z" fill="#D1FB84"/>
<path d="M267.52 658.92H261.8V664.63H267.52V658.92Z" fill="#D1FB84"/>
<path d="M261.8 653.2H267.52V647.49H273.23V636.06H267.52V641.77H261.8V653.2Z" fill="#D1FB84"/>
<path d="M267.52 607.49H261.8V613.2H267.52V607.49Z" fill="#D1FB84"/>
<path d="M267.52 596.06H261.8V601.77H267.52V596.06Z" fill="#D1FB84"/>
<path d="M267.52 538.92H261.8V544.63H267.52V538.92Z" fill="#D1FB84"/>
<path d="M261.8 664.63H256.09V670.34H261.8V664.63Z" fill="#D1FB84"/>
<path d="M261.8 618.92H256.09V624.63H261.8V618.92Z" fill="#D1FB84"/>
<path d="M256.09 704.63H250.37V710.34H256.09V704.63Z" fill="#D1FB84"/>
<path d="M256.09 693.2H250.37V698.92H256.09V693.2Z" fill="#D1FB84"/>
<path d="M256.09 681.77H250.37V687.49H256.09V681.77Z" fill="#D1FB84"/>
<path d="M256.09 670.34H250.37V676.06H256.09V670.34Z" fill="#D1FB84"/>
<path d="M256.09 658.92H250.37V664.63H256.09V658.92Z" fill="#D1FB84"/>
<path d="M256.09 607.49H250.37V613.2H256.09V607.49Z" fill="#D1FB84"/>
<path d="M256.09 596.06H250.37V601.77H256.09V596.06Z" fill="#D1FB84"/>
<path d="M250.37 664.63H244.66V670.34H250.37V664.63Z" fill="#D1FB84"/>
<path d="M250.37 618.92H244.66V624.63H250.37V618.92Z" fill="#D1FB84"/>
<path d="M250.37 590.34H244.66V596.06H250.37V590.34Z" fill="#D1FB84"/>
<path d="M244.66 716.06H238.95V721.77H244.66V716.06Z" fill="#D1FB84"/>
<path d="M244.66 704.63H238.95V710.34H244.66V704.63Z" fill="#D1FB84"/>
<path d="M244.66 693.2H238.95V698.92H244.66V693.2Z" fill="#D1FB84"/>
<path d="M244.66 681.77H238.95V687.49H244.66V681.77Z" fill="#D1FB84"/>
<path d="M244.66 670.34H238.95V676.06H244.66V670.34Z" fill="#D1FB84"/>
<path d="M244.66 658.92H238.95V664.63H244.66V658.92Z" fill="#D1FB84"/>
<path d="M244.66 607.49H238.95V613.2H244.66V607.49Z" fill="#D1FB84"/>
<path d="M244.66 596.06H238.95V601.77H244.66V596.06Z" fill="#D1FB84"/>
<path d="M238.95 618.92H233.23V624.63H238.95V618.92Z" fill="#D1FB84"/>
<path d="M233.23 704.63H227.52V710.34H233.23V704.63Z" fill="#D1FB84"/>
<path d="M233.23 693.2H227.52V698.92H233.23V693.2Z" fill="#D1FB84"/>
<path d="M233.23 681.77H227.52V687.49H233.23V681.77Z" fill="#D1FB84"/>
<path d="M233.23 670.34H227.52V676.06H233.23V670.34Z" fill="#D1FB84"/>
<path d="M233.23 607.49H227.52V613.2H233.23V607.49Z" fill="#D1FB84"/>
<path d="M233.23 596.06H227.52V601.77H233.23V596.06Z" fill="#D1FB84"/>
<path d="M227.52 590.34H221.8V596.06H227.52V590.34Z" fill="#D1FB84"/>
<path d="M221.8 693.2H216.09V698.92H221.8V693.2Z" fill="#D1FB84"/>
<path d="M221.8 681.77H216.09V687.49H221.8V681.77Z" fill="#D1FB84"/>
<path d="M216.09 658.92H210.37V670.34H216.09V664.63H221.8V653.2H216.09V658.92Z" fill="#D1FB84"/>
<path d="M221.8 584.63H216.09V590.34H221.8V584.63Z" fill="#D1FB84"/>
<path d="M216.09 601.77H210.37V618.92H216.09V601.77Z" fill="#D1FB84"/>
<path d="M216.09 590.34H210.37V596.06H216.09V590.34Z" fill="#D1FB84"/>
<path d="M216.09 533.2H210.37V538.92H216.09V533.2Z" fill="#D1FB84"/>
<path d="M210.37 704.63H204.66V710.34H210.37V704.63Z" fill="#D1FB84"/>
<path d="M210.37 693.2H204.66V698.92H210.37V693.2Z" fill="#D1FB84"/>
<path d="M210.37 681.77H204.66V687.49H210.37V681.77Z" fill="#D1FB84"/>
<path d="M210.37 641.77H204.66V653.2H210.37V641.77Z" fill="#D1FB84"/>
<path d="M210.37 584.63H204.66V590.34H210.37V584.63Z" fill="#D1FB84"/>
<path d="M210.37 550.34H204.66V556.06H210.37V550.34Z" fill="#D1FB84"/>
<path d="M204.66 653.2H198.95V658.92H204.66V653.2Z" fill="#D1FB84"/>
<path d="M198.95 624.63H204.66V601.77H193.23V607.49H198.95V624.63Z" fill="#D1FB84"/>
<path d="M204.66 590.34H198.95V596.06H204.66V590.34Z" fill="#D1FB84"/>
<path d="M204.66 578.92H198.95V584.63H204.66V578.92Z" fill="#D1FB84"/>
<path d="M198.95 693.2H193.23V698.92H198.95V693.2Z" fill="#D1FB84"/>
<path d="M198.95 681.77H193.23V687.49H198.95V681.77Z" fill="#D1FB84"/>
<path d="M198.95 670.34H193.23V676.06H198.95V670.34Z" fill="#D1FB84"/>
<path d="M198.95 584.63H193.23V590.34H198.95V584.63Z" fill="#D1FB84"/>
<path d="M198.95 550.34H193.23V556.06H198.95V550.34Z" fill="#D1FB84"/>
<path d="M193.23 590.34H187.52V596.06H193.23V590.34Z" fill="#D1FB84"/>
<path d="M187.52 584.63H193.23V573.2H187.52V567.49H181.8V578.92H187.52V584.63Z" fill="#D1FB84"/>
<path d="M187.52 704.63H181.8V710.34H187.52V704.63Z" fill="#D1FB84"/>
<path d="M187.52 693.2H181.8V698.92H187.52V693.2Z" fill="#D1FB84"/>
<path d="M187.52 681.77H181.8V687.49H187.52V681.77Z" fill="#D1FB84"/>
<path d="M187.52 670.34H181.8V676.06H187.52V670.34Z" fill="#D1FB84"/>
<path d="M187.52 658.92H181.8V664.63H187.52V658.92Z" fill="#D1FB84"/>
<path d="M187.52 647.49H181.8V653.2H187.52V647.49Z" fill="#D1FB84"/>
<path d="M187.52 596.06H181.8V601.77H187.52V596.06Z" fill="#D1FB84"/>
<path d="M187.52 584.63H181.8V590.34H187.52V584.63Z" fill="#D1FB84"/>
<path d="M181.8 590.34H176.09V596.06H181.8V590.34Z" fill="#D1FB84"/>
<path d="M176.09 681.77H170.37V687.49H176.09V681.77Z" fill="#D1FB84"/>
<path d="M176.09 670.34H170.37V676.06H176.09V670.34Z" fill="#D1FB84"/>
<path d="M176.09 658.92H170.37V664.63H176.09V658.92Z" fill="#D1FB84"/>
<path d="M176.09 647.49H170.37V653.2H176.09V647.49Z" fill="#D1FB84"/>
<path d="M176.09 636.06H170.37V641.77H176.09V636.06Z" fill="#D1FB84"/>
<path d="M176.09 596.06H170.37V601.77H176.09V596.06Z" fill="#D1FB84"/>
<path d="M170.37 601.77H164.66V607.49H170.37V601.77Z" fill="#D1FB84"/>
<path d="M164.66 693.2H158.95V698.92H164.66V693.2Z" fill="#D1FB84"/>
<path d="M164.66 670.34H158.95V676.06H164.66V670.34Z" fill="#D1FB84"/>
<path d="M164.66 658.92H158.95V664.63H164.66V658.92Z" fill="#D1FB84"/>
<path d="M164.66 647.49H158.95V653.2H164.66V647.49Z" fill="#D1FB84"/>
<path d="M158.95 624.63H153.23V630.34H158.95V636.06H164.66V618.92H158.95V624.63Z" fill="#D1FB84"/>
<path d="M164.66 596.06H158.95V601.77H164.66V596.06Z" fill="#D1FB84"/>
<path d="M158.95 601.77H153.23V607.49H158.95V601.77Z" fill="#D1FB84"/>
<path d="M158.95 590.34H153.23V596.06H158.95V590.34Z" fill="#D1FB84"/>
<path d="M158.95 561.77H153.23V567.49H158.95V561.77Z" fill="#D1FB84"/>
<path d="M147.52 698.92H153.23V681.77H147.52V698.92Z" fill="#D1FB84"/>
<path d="M153.23 658.92H147.52V664.63H153.23V658.92Z" fill="#D1FB84"/>
<path d="M153.23 613.2H147.52V618.92H153.23V613.2Z" fill="#D1FB84"/>
<path d="M153.23 596.06H147.52V601.77H153.23V596.06Z" fill="#D1FB84"/>
<path d="M147.52 630.34H141.8V641.77H147.52V647.49H153.23V636.06H147.52V630.34Z" fill="#D1FB84"/>
<path d="M147.52 601.77H141.8V607.49H147.52V601.77Z" fill="#D1FB84"/>
<path d="M136.09 693.2H141.8V676.06H136.09V693.2Z" fill="#D1FB84"/>
<path d="M141.8 658.92H136.09V664.63H141.8V658.92Z" fill="#D1FB84"/>
<path d="M141.8 613.2H136.09V618.92H141.8V613.2Z" fill="#D1FB84"/>
<path d="M141.8 596.06H136.09V601.77H141.8V596.06Z" fill="#D1FB84"/>
<path d="M141.8 561.77H136.09V567.49H141.8V561.77Z" fill="#D1FB84"/>
<path d="M136.09 601.77H130.37V607.49H136.09V601.77Z" fill="#D1FB84"/>
<path d="M130.37 613.2H124.66V618.92H130.37V613.2Z" fill="#D1FB84"/>
<path d="M130.37 596.06H124.66V601.77H130.37V596.06Z" fill="#D1FB84"/>
<path d="M124.66 601.77H118.95V607.49H124.66V601.77Z" fill="#D1FB84"/>
<path d="M124.66 556.06H118.95V567.49H124.66V556.06Z" fill="#D1FB84"/>
<path d="M118.95 618.92H113.23V624.63H118.95V618.92Z" fill="#D1FB84"/>
<path d="M118.95 596.06H113.23V601.77H118.95L118.95 596.06Z" fill="#D1FB84"/>
<path d="M118.95 590.34L118.95 596.06H124.66V590.34H130.37V596.06H136.09V590.34H141.8V596.06H147.52V590.34H153.23V584.63H158.95V590.34H164.66V596.06H170.37V590.34H176.09V584.63H181.8V578.92H176.09V573.2H170.37V567.49H158.95V573.2H164.66V578.92H153.23V573.2H147.52V567.49H141.8V573.2H130.37V567.49H124.66V578.92H113.23V573.2H107.52V567.49H96.0902V573.2H101.8V578.92H107.52V584.63H96.0902V578.92H90.3702V584.63H84.6602V578.92H78.9502V584.63H73.2302V590.34H84.6602V596.06H90.3702V590.34H96.0902V596.06H101.8V590.34H107.52V596.06H113.23V590.34H118.95Z" fill="#D1FB84"/>
<path d="M113.23 613.2H107.52V618.92H113.23V613.2Z" fill="#D1FB84"/>
<path d="M107.52 618.92H101.8V624.63H107.52V618.92Z" fill="#D1FB84"/>
<path d="M107.52 596.06H101.8V601.77H107.52V596.06Z" fill="#D1FB84"/>
<path d="M101.8 607.49H90.3702V613.2H96.0902V618.92H101.8V607.49Z" fill="#D1FB84"/>
<path d="M96.0902 653.2H90.3702V658.92H96.0902V653.2Z" fill="#D1FB84"/>
<path d="M96.0902 596.06H90.3702V601.77H96.0902V596.06Z" fill="#D1FB84"/>
<path d="M84.6602 561.77V567.49H96.0902V561.77H84.6602Z" fill="#D1FB84"/>
<path d="M90.3702 641.77H84.6602V653.2H90.3702V641.77Z" fill="#D1FB84"/>
<path d="M78.9502 653.2H73.2302V664.63H78.9502V670.34H84.6602V658.92H78.9502V653.2Z" fill="#D1FB84"/>
<path d="M78.9502 596.06H73.2302V601.77H78.9502V596.06Z" fill="#D1FB84"/>
<path d="M78.9502 573.2H73.2302V578.92H78.9502V573.2Z" fill="#D1FB84"/>
<path d="M67.5202 607.49H61.8002V613.2H67.5202V607.49Z" fill="#D1FB84"/>
<path d="M67.5202 596.06H61.8002V601.77H67.5202V596.06Z" fill="#D1FB84"/>
<path d="M67.5202 584.63H61.8002V590.34H67.5202V584.63Z" fill="#D1FB84"/>
<path d="M61.8002 578.92H56.0902V584.63H61.8002V578.92Z" fill="#D1FB84"/>
<path d="M56.0902 607.49H50.3702V613.2H56.0902V607.49Z" fill="#D1FB84"/>
<path d="M56.0902 596.06H50.3702V601.77H56.0902V596.06Z" fill="#D1FB84"/>
<path d="M56.0902 584.63H50.3702V590.34H56.0902V584.63Z" fill="#D1FB84"/>
<path d="M56.0902 567.49H50.3702V578.92H56.0902V567.49Z" fill="#D1FB84"/>
<path d="M44.6602 596.06H38.9502V601.77H44.6602V596.06Z" fill="#D1FB84"/>
<path d="M580.4 407.23H574.46V413.17H580.4V407.23Z" fill="#D1FB84"/>
<path d="M467.53 532H473.47V526H479.41V520.1H485.35V514.16H491.29V508.21H497.23V502.27H503.17V496.33H509.11V490.4H515.05V484.46H521V478.51H526.94V472.57H532.88V466.64H538.88V472.57H532.88V478.51H538.88V472.57H544.82V466.64H538.88V460.7H544.82V466.64H550.76V460.7H556.7V454.75H550.7V460.69H544.76V454.75H550.7V442.88H556.64V431H562.58V425.05H568.52V431H574.46V413.17H568.52V419.1H562.58V413.17H568.52V407.23H574.46V401.23H580.4V383.46H574.46V377.52H568.52V371.58H550.7V377.52H556.64V383.46H550.7V389.46H544.76V395.39H538.82V389.46H544.76V383.46H538.82V377.52H544.76V371.58H550.7V365.65H544.76V359.71H550.7V353.77H556.64V341.89H550.7V347.82H544.76V353.76H538.82V347.82H544.76V341.89H550.7V336H544.76V330H532.87V336H526.93V341.94H532.87V347.87H526.93V353.81H521V347.87H515.06V341.94H521V336H515.06V330H521V336H526.94V330H532.88V324.06H526.94V318.11H521V324.06H509.11V330H503.17V336H497.23V341.94H491.29V347.87H485.35V341.94H473.47V336H461.59V330H473.47V336H485.35V330H491.29V324.06H497.23V318.11H479.41V324.06H437.83V300.29H443.77V282.48H437.83V294.35H431.88V312.18H425.94V324.06H431.88V330H449.71V336H425.94V324.06H420V312.18H425.94V294.35H431.88V282.48H425.94V276.48H420V270.54H425.94V276.48H431.88V270.54H437.83V258.71H431.88V252.77H437.83V246.83H443.77V252.77H449.71V258.71H443.77V282.48H449.71V264.66H455.65V246.83H461.59V211.19H455.65V217.13H449.71V211.19H443.77V205.25H449.71V211.19H455.65V199.3H461.59V193.36H467.53V181.48H461.59V187.48H455.65V193.41H449.71V187.48H455.65V181.48H449.71V175.54H443.77V169.6H437.83V163.67H431.88V157.73H437.83V163.67H443.77V169.6H449.71V163.67H455.65V157.73H443.77V145.84H437.83V139.91H431.88V145.84H425.94V151.78H420V145.84H425.94V139.91H420V134H414.06V139.95H408.12V134H402.18V139.95H396.24V134H402.18V128H408.12V134H414.06V128H420V122.06H390.3V128H396.24V134H390.3V139.95H396.24V145.88H390.3V139.95H384.36V145.88H378.42V139.95H372.48V134H366.54V128H372.48V134H378.42V139.95H384.36V134H390.3V128H378.42V122.06H348.72V128H342.78V134H348.72V139.95H342.78V134H336.84V139.95H330.89V145.88H336.84V151.82H330.89V157.77H336.84V163.71H342.78V169.64H348.72V181.52H378.42V187.52H384.36V193.45H390.3V199.39H396.24V205.34H390.3V235H396.24V240.94H390.3V235H384.36V240.94H360.6V235H354.66V229H348.72V199.3H354.66V193.36H360.6V199.3H354.66V211.19H360.6V217.13H378.42V211.19H384.36V205.25H390.3V199.3H384.36V193.36H378.42V187.43H348.72V193.36H342.78V199.3H330.89V205.25H307.13V199.3H301.19V193.36H295.25V163.67H301.19V157.73H307.13V163.67H301.19V175.54H307.13V181.48H325V175.54H330.94V169.6H336.89V163.67H330.94V157.73H325V151.78H295.3V157.73H289.36V163.67H283.42V169.6H277.48V199.3H283.42V205.25H289.36V211.19H295.3V217.13H325V211.19H330.94V235H336.89V240.94H342.83V246.87H348.77V252.81H372.53V264.7H378.47V246.83H384.41V240.9H390.35V246.83H384.41V264.66H390.35V282.48H384.41V288.42H378.47V294.35H372.53V300.29H366.59V306.23H354.66V312.18H348.72V318.11H354.66V324.06H348.72V318.11H342.78V312.18H336.84V336H330.89V347.87H325V336H330.94V306.23H295.25V312.18H325V324.06H319V336H313.06V341.94H319V347.87H313.06V353.81H307.12V347.87H301.18V353.81H295.24V365.7H301.18V371.63H307.12V377.57H301.18V371.63H295.24V365.7H289.3V377.57H283.36V395.39H277.42V407.28H283.36V413.22H289.3V419.15H283.36V425.1H289.3V431H295.24V436.94H289.3V442.88H283.36V448.81H289.3V454.75H295.24V460.69H289.3V454.75H283.36V460.7H289.3V472.57H295.24V466.64H301.18V472.57H307.12V478.51H313.06V484.46H319V490.4H325V496.33H330.94V490.4H336.89V496.33H330.94V502.27H336.89V508.21H342.83V514.16H348.77V520.1H354.71V526H348.77V532H360.6V526H366.54V532H360.6V537.95H372.48V543.88H384.36V573.46H372.48V567.5H348.72V573.44H330.89V579.39H348.72V573.45H372.48V579.39H384.36V573.45H390.3V555.75H396.24V549.75H402.18V543.81H408.12V549.75H414.06V567.58H420V573.4H425.94V585.27H431.88V561.69H437.83V555.75H431.88V549.75H437.83V555.75H443.77V549.75H449.71V555.75H455.65V573.45H461.59V585.32H467.53V573.44H461.59V543.86H473.47V537.93H467.53V532ZM550.7 395.34H556.64V389.41H562.58V383.41H568.52V389.41H574.46V395.34H568.52V401.28H562.58V395.34H556.64V401.28H550.7V395.34ZM550.7 407.23H556.64V413.17H550.7V407.23ZM538.82 436.94H544.76V442.88H538.82V436.94ZM449.71 223.07H455.65V229.07H449.71V223.07ZM449.71 234.96H455.65V240.9H449.71V234.96ZM443.77 217.13V223.07H437.83V217.13H443.77ZM431.88 181.48H437.83V187.48H431.88V181.48ZM420 163.67H425.94V169.6H420V163.67ZM354.66 134V128H360.6V134H354.66ZM366.54 151.82H360.6V145.88H366.54V151.82ZM372.48 199.34H378.42V205.29H372.48V199.34ZM319 163.67H325V169.6H319V163.67ZM307.13 401.28V407.28H301.19V401.28H307.13ZM289.31 383.46H295.25V389.46H301.19V395.39H295.25V389.46H289.31V383.46ZM289.31 407.23V401.23H295.25V407.23H289.31ZM295.25 419.1V413.17H301.19V419.1H295.25ZM301.19 448.81V442.88H307.13V448.81H301.19ZM313.07 466.64H307.13V460.7H313.07V466.64ZM313.07 431H307.13V425.05H313.07V431ZM313.07 389.41H307.13V383.41H313.07V389.41ZM319.01 359.71H313.07V365.65H307.13V359.71H301.19V353.77H307.13V359.71H313.07V353.77H319L319.01 359.71ZM330.89 377.52H325V371.58H330.94L330.89 377.52ZM384.36 341.89H390.3V347.82H384.36V341.89ZM384.36 436.94V442.88H378.42V436.94H384.36ZM372.48 306.23H378.42V312.18H372.48V306.23ZM360.6 312.18H366.54V318.11H360.6V312.18ZM354.66 336H360.6V341.94H354.66V336ZM354.66 353.82V359.76H348.72V353.82H354.66ZM348.72 431V425.05H354.66V431H348.72ZM354.66 436.94V448.81H348.72V436.94H354.66ZM342.78 341.89V336H348.72V341.94L342.78 341.89ZM360.6 490.4H354.66V484.46H348.72V478.51H354.66V484.46H360.6V490.4ZM378.42 532H372.48V526H378.42V532ZM396.24 549.82H390.3V543.88H396.24V549.82ZM396.24 520.12H390.3V514.18H396.24V520.12ZM396.24 508.23H390.3V502.29H384.36V508.23H378.42V502.29H384.36V496.35H390.3V502.29H396.24V508.23ZM396.24 490.42H378.42V496.35H372.48V502.29H366.54V496.35H372.48V490.4H366.54V478.51H360.6V472.57H354.66V466.64H348.72V454.76H354.66V466.64H360.6V472.57H366.54V478.51H378.42V484.46H396.24V490.42ZM497.24 496.35H491.3V490.4H497.24V496.35ZM538.83 401.3V407.3H532.83V401.3H538.83ZM526.94 371.6H532.88V377.54H526.94V371.6ZM515.06 371.6V377.54H509.12V371.6H515.06ZM503.18 353.79H509.12V359.73H503.18V353.79ZM473.48 353.79H479.42V359.73H473.48V353.79ZM461.6 341.91H467.54V347.84H461.6V341.91ZM461.6 383.48V377.54H485.36V383.48H497.24V395.36H503.18V401.3H509.12V413.19H515.06V419.12H521V425.07H526.94V448.83H521V454.77H515.06V460.71H509.12V454.77H503.18V448.83H509.12V442.9H515.06V436.96H521V425.05H515.06V419.1H503.17V425.05H497.23V431H491.29V425.05H497.23V419.1H503.17V401.28H497.23V395.34H491.29V401.28H485.35V407.28H479.41V413.22H473.47V407.28H479.41V401.28H485.35V395.34H491.29V389.41H485.35V383.41H461.59V389.41H455.65V383.41L461.6 383.48ZM473.48 436.96V431H479.42V436.94L473.48 436.96ZM479.42 466.66V472.59H467.53V466.66H479.42ZM449.72 341.91H455.66V347.84H449.72V341.91ZM449.72 472.59H461.6V478.53H449.71L449.72 472.59ZM431.88 347.82H437.83V353.76H431.88V347.82ZM431.88 454.75H437.83V460.69H431.88V454.75ZM431.88 478.51H443.77V484.46H431.88V478.51ZM420 478.51H425.94V484.46H420V478.51ZM396.24 205.25H402.18V235H396.24V205.25ZM408.12 532H402.18V526H408.12V532ZM408.12 514.18H402.18V508.23H408.12V514.18ZM414.06 520.12V514.18H420V520.12H414.06ZM425.94 567.5H420V549.8H425.94V567.5ZM431.88 537.95H425.94V532H431.88V537.95ZM431.88 514.18H425.94V508.23H431.88V514.18ZM443.77 526H437.83V520.1H443.77V526ZM443.77 502.23V508.17H437.83V502.23H431.88V496.29H425.94V502.23H420V508.17H414.06V502.23H408.12V496.29H396.24V490.4H455.65V484.46H473.47V478.51H491.29V472.57H497.23V466.64H485.35V460.7H497.23V466.64H503.17V460.7H509.11V466.64H503.17V472.57H509.11V478.51H503.17V472.57H497.23V484.46H485.35V490.4H479.41V496.33H485.35V502.27H479.41V508.21H473.47V502.27H479.41V496.33H473.47V490.4H455.65V496.33H461.59V502.27H455.65V496.33H449.71V502.27L443.77 502.23ZM449.71 514.12V508.17H455.65V514.12H449.71ZM461.59 532H455.65V526H461.59V532ZM461.59 514.18V508.23H467.53V514.18H461.59Z" fill="#D1FB84"/>
<path d="M562.58 442.88H568.52V431H562.58V442.88Z" fill="#D1FB84"/>
<path d="M568.52 389.41H562.58V395.35H568.52V389.41Z" fill="#D1FB84"/>
<path d="M556.64 454.75H562.58V442.88H556.64V454.75Z" fill="#D1FB84"/>
<path d="M556.64 359.71H550.7V365.65H556.64V359.71Z" fill="#D1FB84"/>
<path d="M550.7 377.52H544.76V383.46H550.7V377.52Z" fill="#D1FB84"/>
<path d="M532.87 478.51H526.93V484.45H532.87V478.51Z" fill="#D1FB84"/>
<path d="M526.93 484.46H520.99V490.4H526.93V484.46Z" fill="#D1FB84"/>
<path d="M526.93 341.89H520.99V347.83H526.93V341.89Z" fill="#D1FB84"/>
<path d="M520.99 490.4H515.05V496.34H520.99V490.4Z" fill="#D1FB84"/>
<path d="M520.99 442.88H515.05V448.82H520.99V442.88Z" fill="#D1FB84"/>
<path d="M515.05 496.33H509.11V502.27H515.05V496.33Z" fill="#D1FB84"/>
<path d="M515.05 448.81H509.11V454.75H515.05V448.81Z" fill="#D1FB84"/>
<path d="M509.11 502.27H503.17L503.17 508.21H509.11L509.11 502.27Z" fill="#D1FB84"/>
<path d="M503.17 324.06H509.11L509.11 318.12H520.99V312.18H497.23V318.12H503.17V324.06Z" fill="#D1FB84"/>
<path d="M503.17 508.21H497.23L497.23 514.15H503.17V508.21Z" fill="#D1FB84"/>
<path d="M503.17 324.06H497.23L497.23 330H503.17L503.17 324.06Z" fill="#D1FB84"/>
<path d="M497.23 514.16H491.29L491.29 520.11H497.23V514.16Z" fill="#D1FB84"/>
<path d="M497.23 330H491.29L491.29 335.94H497.23V330Z" fill="#D1FB84"/>
<path d="M491.29 520.1H485.35L485.35 526.04H491.29V520.1Z" fill="#D1FB84"/>
<path d="M491.29 335.95H485.35V341.89H491.29V335.95Z" fill="#D1FB84"/>
<path d="M485.35 526.04H479.41V531.98H485.35V526.04Z" fill="#D1FB84"/>
<path d="M479.41 531.98H473.47V537.92H479.41V531.98Z" fill="#D1FB84"/>
<path d="M479.41 484.46H473.47V490.4H479.41L479.41 484.46Z" fill="#D1FB84"/>
<path d="M467.53 169.6H461.59V175.54H467.53V169.6Z" fill="#D1FB84"/>
<path d="M461.59 175.54H455.65V181.48H461.59L461.59 175.54Z" fill="#D1FB84"/>
<path d="M461.59 163.67H455.65V169.61H461.59V163.67Z" fill="#D1FB84"/>
<path d="M455.65 169.6H449.71V175.54H455.65V169.6Z" fill="#D1FB84"/>
<path d="M449.71 555.75H443.77V561.69H449.71V555.75Z" fill="#D1FB84"/>
<path d="M443.77 496.33H437.83V502.27H443.77V496.33Z" fill="#D1FB84"/>
<path d="M443.77 252.77H437.83V258.71H443.77V252.77Z" fill="#D1FB84"/>
<path d="M437.83 276.53H431.88V282.47H437.83V276.53Z" fill="#D1FB84"/>
<path d="M431.88 133.96H425.94V139.9H431.88V133.96Z" fill="#D1FB84"/>
<path d="M425.94 128.02H420V133.96H425.94V128.02Z" fill="#D1FB84"/>
<path d="M420 496.33H414.06V502.27H420V496.33Z" fill="#D1FB84"/>
<path d="M408.12 549.8H402.18V555.74H408.12V549.8Z" fill="#D1FB84"/>
<path d="M384.36 264.65H378.42V282.48H384.36V264.65Z" fill="#D1FB84"/>
<path d="M378.42 484.46H372.48V490.4H378.42V484.46Z" fill="#D1FB84"/>
<path d="M378.42 282.48H372.48V288.42H378.42V282.48Z" fill="#D1FB84"/>
<path d="M372.48 288.42H366.54V294.36H372.48V288.42Z" fill="#D1FB84"/>
<path d="M366.54 223.07V234.96H378.42V223.07H366.54Z" fill="#D1FB84"/>
<path d="M366.54 300.3V294.36H354.66V300.3H366.54Z" fill="#D1FB84"/>
<path d="M348.72 520.1H342.78V526.04H348.72V520.1Z" fill="#D1FB84"/>
<path d="M348.72 270.6V264.65H342.78V258.71H336.84V270.6H348.72Z" fill="#D1FB84"/>
<path d="M342.78 514.16H336.84V520.11H342.78V514.16Z" fill="#D1FB84"/>
<path d="M354.66 306.24V300.3H330.89V306.24H354.66Z" fill="#D1FB84"/>
<path d="M336.84 193.37H342.78V169.6H336.84V193.37Z" fill="#D1FB84"/>
<path d="M336.84 508.21H330.89V514.15H336.84V508.21Z" fill="#D1FB84"/>
<path d="M336.84 276.54V270.6H324.95V276.54H336.84Z" fill="#D1FB84"/>
<path d="M330.89 502.27H324.95V508.21H330.89V502.27Z" fill="#D1FB84"/>
<path d="M330.89 145.84H324.95V151.78H330.89V145.84Z" fill="#D1FB84"/>
<path d="M324.95 496.33H319.01V502.27H324.95V496.33Z" fill="#D1FB84"/>
<path d="M324.95 282.48V276.54H313.07V282.48H324.95Z" fill="#D1FB84"/>
<path d="M485.35 609.1H491.29V597.21H485.35V609.1Z" fill="#D1FB84"/>
<path d="M485.35 609.09H479.41V615.03H485.35V609.09Z" fill="#D1FB84"/>
<path d="M485.35 591.26H479.41V597.2H485.35V591.26Z" fill="#D1FB84"/>
<path d="M461.59 615.03V620.98H479.41V615.03H461.59Z" fill="#D1FB84"/>
<path d="M479.41 591.26V585.33H467.53V591.26H479.41Z" fill="#D1FB84"/>
<path d="M425.94 609.1V615.03H461.59L461.59 609.1H425.94Z" fill="#D1FB84"/>
<path d="M414.06 615.03V620.98H425.94V615.03H414.06Z" fill="#D1FB84"/>
<path d="M414.06 585.33V591.26H425.94V585.33H414.06Z" fill="#D1FB84"/>
<path d="M390.3 579.38V585.33H414.06V579.38H390.3Z" fill="#D1FB84"/>
<path d="M396.24 620.98V615.03H390.3V620.98H396.24V626.91H414.06V620.98H396.24Z" fill="#D1FB84"/>
<path d="M408.12 597.21H402.18V603.15H408.12V597.21Z" fill="#D1FB84"/>
<path d="M402.18 609.1V603.14H390.3V609.1H402.18Z" fill="#D1FB84"/>
<path d="M390.3 609.09H384.36V615.03H390.3V609.09Z" fill="#D1FB84"/>
<path d="M372.48 585.33V591.26H390.3V585.33H372.48Z" fill="#D1FB84"/>
<path d="M360.6 615.03V620.98H384.36V615.03H360.6Z" fill="#D1FB84"/>
<path d="M372.48 591.26H366.54V597.2H372.48V591.26Z" fill="#D1FB84"/>
<path d="M366.54 597.21H360.6V603.15H366.54V597.21Z" fill="#D1FB84"/>
<path d="M366.54 585.32H360.6V591.26H366.54V585.32Z" fill="#D1FB84"/>
<path d="M360.6 603.14H348.72V609.1H354.66V615.03H360.6V603.14Z" fill="#D1FB84"/>
<path d="M348.72 591.26V597.21H360.6V591.26H348.72Z" fill="#D1FB84"/>
<path d="M348.72 597.21H342.78V603.15H348.72V597.21Z" fill="#D1FB84"/>
<path d="M319.01 603.14V609.1H342.78V603.14H319.01Z" fill="#D1FB84"/>
<path d="M330.89 579.39H324.95V585.33H330.89V579.39Z" fill="#D1FB84"/>
<path d="M324.95 585.32H319.01V591.26H324.95V585.32Z" fill="#D1FB84"/>
<path d="M319.01 591.26H313.07V603.14H319.01V591.26Z" fill="#D1FB84"/>
<path d="M319.01 490.4H313.07V496.34H319.01V490.4Z" fill="#D1FB84"/>
<path d="M313.07 187.43V199.31H324.95V187.43H313.07Z" fill="#D1FB84"/>
<path d="M313.07 484.46H307.13V490.4H313.07V484.46Z" fill="#D1FB84"/>
<path d="M313.07 341.89H307.13V347.83H313.07V341.89Z" fill="#D1FB84"/>
<path d="M307.13 478.51H301.19V484.45H307.13V478.51Z" fill="#D1FB84"/>
<path d="M301.19 472.57H295.25V478.51H301.19V472.57Z" fill="#D1FB84"/>
<path d="M271.49 300.3V306.24H295.25V300.3H271.49Z" fill="#D1FB84"/>
<path d="M313.07 288.42V282.48H289.31V288.42H313.07Z" fill="#D1FB84"/>
<path d="M289.31 431H283.37V436.94H289.31V431Z" fill="#D1FB84"/>
<path d="M283.37 448.81H277.43V454.75H283.37V448.81Z" fill="#D1FB84"/>
<path d="M283.37 436.94H277.43V442.88H283.37V436.94Z" fill="#D1FB84"/>
<path d="M283.37 425.05H277.43V430.99H283.37V425.05Z" fill="#D1FB84"/>
<path d="M283.37 413.17H277.43V419.11H283.37V413.17Z" fill="#D1FB84"/>
<path d="M271.49 294.35H265.55V300.29H271.49V294.35Z" fill="#D1FB84"/>
<path d="M253.67 199.31V205.25H277.43V199.31H253.67Z" fill="#D1FB84"/>
<path d="M265.55 288.42H259.61V294.36H265.55V288.42Z" fill="#D1FB84"/>
<path d="M289.31 282.48V276.54H271.49V258.71H265.55V240.9H259.61V223.07H253.67V282.48V288.42H259.61V282.48H289.31Z" fill="#D1FB84"/>
<path d="M253.67 205.25V199.31H241.79V205.25H253.67Z" fill="#D1FB84"/>
<path d="M206.14 294.36H212.08V300.3H223.96V294.36H229.9V288.42H241.79V282.48H253.67V223.07V217.13H247.73V211.19H241.79V205.25H235.84V211.19H223.96V217.13H218.02V223.07H212.08V229.01H206.14V240.9H200.2V276.54H206.14V294.36Z" fill="#D1FB84"/>
</g>
<defs>
<filter id="filter0_d" x="18.9502" y="102.06" width="731.42" height="639.71" filterUnits="userSpaceOnUse" color-interpolation-filters="sRGB" filterRes="800">
<feFlood flood-opacity="0" result="BackgroundImageFix"/>
<feColorMatrix in="SourceAlpha" type="matrix" values="0 0 0 0 0 0 0 0 0 0 0 0 0 0 0 0 0 0 127 0"/>
<feOffset/>
<feGaussianBlur stdDeviation="10"/>
<feColorMatrix type="matrix" values="0 0 0 0 0.707769 0 0 0 0 0.85 0 0 0 0 0.447012 0 0 0 1 0"/>
<feBlend mode="normal" in2="BackgroundImageFix" result="effect1_dropShadow"/>
<feBlend mode="normal" in="SourceGraphic" in2="effect1_dropShadow" result="shape"/>
</filter>
</defs>
</svg>
