<svg width="800" height="800" viewBox="0 0 800 800" fill="none" xmlns="http://www.w3.org/2000/svg">
<g filter="url(#filter0_d)">
<path d="M497.23 502.16H491.29V508.1H485.35V502.16H491.29V496.16H497.23V490.22H503.17V484.28H509.11V478.4H515.05V472.46H521V466.51H526.94V460.57H532.88V454.64H538.88V460.57H532.88V466.51H538.88V460.57H544.82V454.64H538.88V448.69H544.82V442.75H550.76V430.88H556.7V419H562.64V413.06H568.58V419H574.52V401.17H580.46V395.23H574.52V401.17H568.58V395.23H574.52V389.23H580.46V377.41H574.52V383.34H568.58V389.28H562.64V383.34H556.7V389.28H550.7V383.34H556.64V377.41H562.58V371.41H568.52V365.47H556.64V371.41H550.7V377.41H544.76V383.34H538.82V377.41H544.76V371.41H538.82V365.47H544.76V359.53H550.7V353.6H544.76V347.66H550.7V341.71H556.64V329.89H550.7V335.82H544.76V341.76H538.82V335.82H544.76V329.89H550.7V323.94H538.82V329.89H532.82V335.82H526.88V341.76H521V335.82H515.06V329.89H521V323.94H515.06V318H521V323.94H526.94V318H532.88V312.06H526.94V306.11H515.05V312.06H509.11V318H503.17V323.94H497.23V329.89H491.29V335.82H485.35V329.89H473.47V323.94H461.59V318H431.88V300.17H437.83V282.35H431.88V294.23H425.94V282.35H431.88V270.48H425.94V264.48H420V258.54H425.94V264.48H431.88V258.54H437.83V246.71H431.88V240.77H437.83V234.83H443.77V240.77H449.71V246.71H455.65V234.83H461.59V223H455.65V228.94H449.71V223H455.65V217H449.71V211.06H455.65V217H461.59V205.13H455.65V187.3H461.59V181.36H467.53V169.49H461.59V175.43H455.65V169.49H449.71V163.55H443.77V157.6H437.83V151.67H431.88V145.73H437.83V151.67H443.77V157.6H449.71V151.67H455.65V145.73H443.77V133.84H437.83V127.91H431.88V133.84H425.94V139.78H420V133.84H425.94V127.91H420V121.91H414.06V127.91H408.12V121.91H402.18V127.91H396.24V121.91H402.18V116H408.12V122H414.06V116H420V110.06H390.3V116H396.24V122H390.3V128H396.24V133.93H390.3V128H384.36V133.93H378.42V128H372.48V122H366.54V116H372.48V122H378.42V128H384.36V122H390.3V116H378.42V110.06H348.72V116H342.78V122H348.72V128H342.78V122H336.84V128H330.89V133.93H336.84V139.87H330.89V145.82H336.84V151.76H342.78V157.69H348.72V169.57H378.42V175.51H348.72V181.45H342.78V187.39H330.89V193.33H307.13V187.3H301.19V181.36H295.25V163.54H301.19V169.48H319V163.54H325V157.6H330.94V163.54H336.89V181.35H342.83V157.6H336.89V151.67H330.94V145.73H325V139.78H295.3V145.73H289.36V151.67H283.42V157.6H277.48V187.3H283.42V193.24H289.36V199.19H295.3V205.13H325V199.19H330.94V223H336.89V228.94H342.83V234.87H348.77V240.81H372.53V252.7H378.47V234.83H384.41V228.9H360.6V223H354.66V217H348.72V199.19H354.66V205.13H372.48V199.19H378.42V193.24H384.36V199.19H390.3V223H396.24V228.94H390.3V234.87H384.36V252.7H390.3V270.52H384.36V276.46H378.42V282.39H372.48V288.33H366.54V294.27H354.66V288.33H330.89V294.27H295.25V288.33H271.49V294.27H295.25V300.21H325V318H319V329.89H313.06V335.82H319V341.76H325V347.71H319V353.65H313.06V359.58H307.12V365.52H301.18V359.58H307.12V353.65H301.18V347.71H295.24V359.58H289.3V371.46H295.24V377.46H301.18V383.39H295.24V377.46H289.3V371.46H283.36V389.28H277.42V395.28H283.36V401.22H277.42V407.15H283.36V401.22H289.3V407.15H283.36V413.1H289.3V419H295.24V424.95H289.3V430.89H283.36V436.82H289.3V442.76H295.24V448.7H289.3V460.58H295.24V454.65H301.18V460.58H307.12V466.52H313.06V472.47H319V478.41H325V484.34H330.94V478.4H336.89V484.33H330.94V490.27H336.89V496.21H342.83V502.21H348.77V508.15H342.83V502.21H336.89V508.15H342.83V514H348.77V508.1H354.71V514H348.77V520H360.6V514H366.54V520H360.6V525.94H372.48V531.88H384.36V573.46H390.3V543.76H396.24V537.8H402.18V531.86H408.12V537.8H414.06V561.56H420V537.8H425.94V561.56H420V573.44H425.94V585.32H431.88V549.69H437.83V543.69H431.88V537.8H437.83V543.74H443.77V537.8H449.71V543.74H455.65V573.44H461.59V531.86H473.47V525.92H467.53V520H473.47V514H479.41V508.1H485.35V514H491.29V508.1H497.23V502.16ZM562.58 401.16H568.52V407.09H562.58V401.16ZM550.7 395.22H556.64V401.16H550.7V395.22ZM538.82 424.93H544.76V430.87H538.82V424.93ZM449.71 175.43H455.65V181.36H449.71V175.43ZM443.77 193.24H449.71V199.19H443.77V193.24ZM443.77 205.13V211.07H437.83V205.13H443.77ZM431.88 169.48H437.83V175.42H431.88V169.48ZM420 151.67H425.94V157.6H420V151.67ZM354.66 122V116H360.6V122H354.66ZM366.54 139.82H360.6V133.88H366.54V139.82ZM313.07 151.71H319V157.64H313.06L313.07 151.71ZM372.48 193.28H366.54V187.3H372.48V193.28ZM301.19 389.28H307.13V395.28H301.19V389.28ZM289.31 395.28V389.28H295.25V395.28H289.31ZM295.25 407.15V401.22H301.19V407.15H295.25ZM301.19 436.86V430.93H307.13V436.86H301.19ZM313.07 454.69H307.13V448.74H313.07V454.69ZM313.07 419.04H307.13V413.1H313.07V419.04ZM313.07 377.46H307.13V371.46H313.07V377.46ZM384.36 329.94H390.3V335.87H384.36V329.94ZM384.36 424.99V430.93H378.42V424.99H384.36ZM372.48 294.23H378.42V300.17H372.48V294.23ZM360.6 300.17H366.54V306.11H360.6V300.17ZM360.6 323.94V329.89H354.66V323.94H360.6ZM330.89 365.52H325V359.58H330.94L330.89 365.52ZM336.84 300.17V323.94H330.89V335.82H325V323.94H330.94V294.23H354.71V300.17H348.77V306.11H354.71V312.06H348.77V306.11H342.83V300.17H336.84ZM348.72 419V413.06H354.66V419H348.72ZM354.66 424.95V436.82H348.72V424.94L354.66 424.95ZM348.72 347.72V341.77H354.66V347.72H348.72ZM342.78 329.9V323.95H348.72V329.9H342.78ZM360.6 478.4H354.66V472.46H348.72V466.51H354.66V472.46H360.6V478.4ZM378.42 520H372.48V514H378.42V520ZM396.24 537.82H390.3V531.88H396.24V537.82ZM396.24 508.12H390.3V502.18H396.24V508.12ZM396.24 496.23H390.3V490.29H384.36V496.23H378.42V490.29H384.36V484.35H390.3V490.29H396.24V496.23ZM396.24 478.42H378.42V484.35H372.48V490.29H366.54V484.35H372.48V478.4H366.54V466.51H360.6V460.57H354.66V454.64H348.72V442.75H354.66V454.64H360.6V460.57H366.54V466.51H378.42V472.46H396.24V478.42ZM396.24 193.26H390.3V187.3H384.36V181.36H378.42V175.43H384.36V181.36H390.3V187.3H396.24V193.26ZM497.24 484.35H491.3V478.4H497.24V484.35ZM538.83 389.3V395.3H532.83V389.3H538.83ZM526.94 359.6H532.88V365.54H526.94V359.6ZM515.06 359.6V365.54H509.12V359.6H515.06ZM503.18 341.78H509.12V347.73H503.18V341.78ZM473.48 341.78H479.42V347.73H473.48V341.78ZM461.6 329.91H467.54V335.84H461.6V329.91ZM449.72 329.91H455.66V335.84H449.72V329.91ZM449.72 460.59H461.6V466.53H449.71L449.72 460.59ZM443.77 323.94V329.89H425.94V323.94H443.77ZM437.83 442.75V448.69H431.88V442.75H437.83ZM431.88 341.75V335.81H437.83V341.75H431.88ZM443.77 466.5V472.45H431.88V466.5H443.77ZM414.06 318H420V300.17H425.94V318H420V329.89H414.06V318ZM425.94 466.51V472.46H420V466.51H425.94ZM396.24 193.24H402.18V223H396.24V193.24ZM408.12 520H402.18V514H408.12V520ZM408.12 502.18H402.18V496.18H408.12V502.18ZM420 508.1H414.06V502.16H420V508.1ZM431.88 525.92H425.94V520H431.88V525.92ZM431.88 502.16H425.94V496.16H431.88V502.16ZM443.77 514H437.83V508.1H443.77V514ZM449.71 502.12V496.12H455.65V502.12H449.71ZM461.59 520H455.65V514H461.59V520ZM467.53 502.18H461.59V496.18H467.53V502.18ZM479.41 490.29V496.23H473.47V490.29H479.41V484.35H473.47V478.4H455.65V484.33H461.59V490.27H455.65V484.33H449.71V490.27H443.77V496.21H437.83V490.27H431.88V484.33H425.94V490.27H420V496.21H414.06V490.27H408.12V484.33H396.24V478.4H455.65V472.46H473.47V466.51H491.29V460.57H497.23V454.64H485.35V448.69H497.23V454.64H503.17V448.69H509.11V442.75H503.17V436.81H509.11V430.88H515.05V424.94H521V413.05H515.06V407.1H503.17V413.05H497.23V419H491.29V413.06H497.23V407.1H503.17V389.28H497.23V383.34H491.29V389.28H485.35V395.28H479.41V401.22H473.47V395.28H479.41V389.28H485.35V383.34H491.29V377.41H485.35V371.41H461.59V377.41H455.65V371.41H461.59V365.47H485.35V371.41H497.23V383.29H503.17V389.23H509.11V401.12H515.05V407.05H521V413H526.94V436.76H521V442.7H515.06V448.64H509.12V454.59H503.18V460.52H509.12V466.46H503.18V460.52H497.24V472.41H485.35V478.35H479.41V484.28H485.35V490.22L479.41 490.29ZM479.41 454.66V460.59H467.53V454.66H479.41ZM473.47 424.96V419H479.41V424.95L473.47 424.96Z" fill="#D1FB84"/>
<path d="M574.46 371.46H568.52V377.4H574.46V371.46Z" fill="#D1FB84"/>
<path d="M562.58 430.88H568.52V419H562.58V430.88Z" fill="#D1FB84"/>
<path d="M568.52 377.41H562.58V383.35H568.52V377.41Z" fill="#D1FB84"/>
<path d="M556.64 442.75H562.58V430.88H556.64V442.75Z" fill="#D1FB84"/>
<path d="M562.58 341.76H556.64V347.7H562.58V341.76Z" fill="#D1FB84"/>
<path d="M556.64 442.75H550.7V448.69H556.64V442.75Z" fill="#D1FB84"/>
<path d="M556.64 359.58H550.7V365.52H556.64V359.58Z" fill="#D1FB84"/>
<path d="M556.64 347.71H550.7V353.65H556.64V347.71Z" fill="#D1FB84"/>
<path d="M550.7 448.69H544.76V454.63H550.7V448.69Z" fill="#D1FB84"/>
<path d="M550.7 365.52H544.76V371.46H550.7V365.52Z" fill="#D1FB84"/>
<path d="M532.87 466.51H526.93V472.45H532.87V466.51Z" fill="#D1FB84"/>
<path d="M532.87 323.94H526.93V329.88H532.87V323.94Z" fill="#D1FB84"/>
<path d="M526.93 472.46H520.99V478.4H526.93V472.46Z" fill="#D1FB84"/>
<path d="M526.93 329.89H520.99V335.83H526.93V329.89Z" fill="#D1FB84"/>
<path d="M520.99 478.4H515.05V484.34H520.99V478.4Z" fill="#D1FB84"/>
<path d="M520.99 430.88H515.05V436.82H520.99V430.88Z" fill="#D1FB84"/>
<path d="M515.05 484.33H509.11V490.27H515.05V484.33Z" fill="#D1FB84"/>
<path d="M515.05 436.81H509.11V442.75H515.05V436.81Z" fill="#D1FB84"/>
<path d="M509.11 490.27H503.17V496.21H509.11V490.27Z" fill="#D1FB84"/>
<path d="M503.17 496.21H497.23V502.15H503.17V496.21Z" fill="#D1FB84"/>
<path d="M497.23 318H491.29V323.94H497.23V318Z" fill="#D1FB84"/>
<path d="M485.35 609.1H491.29V597.21H485.35V609.1Z" fill="#D1FB84"/>
<path d="M491.29 323.94H485.35V329.88H491.29V323.94Z" fill="#D1FB84"/>
<path d="M485.35 609.09H479.41V615.03H485.35V609.09Z" fill="#D1FB84"/>
<path d="M485.35 591.26H479.41V597.2H485.35V591.26Z" fill="#D1FB84"/>
<path d="M485.35 514.04H479.41V519.98H485.35V514.04Z" fill="#D1FB84"/>
<path d="M479.41 519.98H473.47V525.92H479.41V519.98Z" fill="#D1FB84"/>
<path d="M479.41 472.46H473.47V478.4H479.41V472.46Z" fill="#D1FB84"/>
<path d="M461.59 615.03V620.98H479.41V615.03H461.59Z" fill="#D1FB84"/>
<path d="M479.41 591.26V585.33H467.53V591.26H479.41Z" fill="#D1FB84"/>
<path d="M473.47 318V323.94H485.35V318H491.29V312.06H497.23V318H503.17V312.06H509.11V306.12H485.35V312.06H461.59V318H473.47Z" fill="#D1FB84"/>
<path d="M461.59 585.33H467.53V573.45H461.59V585.33Z" fill="#D1FB84"/>
<path d="M467.53 157.6H461.59V163.54H467.53V157.6Z" fill="#D1FB84"/>
<path d="M425.94 609.1V615.03H461.59V609.1H425.94Z" fill="#D1FB84"/>
<path d="M461.59 163.54H455.65V169.48H461.59V163.54Z" fill="#D1FB84"/>
<path d="M461.59 151.67H455.65V157.61H461.59V151.67Z" fill="#D1FB84"/>
<path d="M455.65 157.6H449.71V163.54H455.65V157.6Z" fill="#D1FB84"/>
<path d="M449.71 543.74H443.77V549.68H449.71V543.74Z" fill="#D1FB84"/>
<path d="M443.77 264.54H449.71V246.72H443.77V264.54Z" fill="#D1FB84"/>
<path d="M443.77 484.33H437.83V490.27H443.77V484.33Z" fill="#D1FB84"/>
<path d="M443.77 240.77H437.83V246.71H443.77V240.77Z" fill="#D1FB84"/>
<path d="M431.88 264.54V270.48H437.83V282.36H443.77V264.54H431.88Z" fill="#D1FB84"/>
<path d="M431.88 121.96H425.94V127.9H431.88V121.96Z" fill="#D1FB84"/>
<path d="M425.94 116.02H420V121.96H425.94V116.02Z" fill="#D1FB84"/>
<path d="M414.06 615.03V620.98H425.94V615.03H414.06Z" fill="#D1FB84"/>
<path d="M414.06 585.33V591.26H425.94V585.33H414.06Z" fill="#D1FB84"/>
<path d="M420 484.33H414.06V490.27H420V484.33Z" fill="#D1FB84"/>
<path d="M390.3 579.38V585.33H414.06V579.38H390.3Z" fill="#D1FB84"/>
<path d="M396.24 620.98V615.03H390.3V620.98H396.24V626.91H414.06V620.98H396.24Z" fill="#D1FB84"/>
<path d="M408.12 597.21H402.18V603.15H408.12V597.21Z" fill="#D1FB84"/>
<path d="M408.12 537.8H402.18V543.74H408.12V537.8Z" fill="#D1FB84"/>
<path d="M402.18 609.1V603.14H390.3V609.1H402.18Z" fill="#D1FB84"/>
<path d="M390.3 609.09H384.36V615.03H390.3V609.09Z" fill="#D1FB84"/>
<path d="M390.3 222.96H384.36V228.9H390.3V222.96Z" fill="#D1FB84"/>
<path d="M372.48 585.33V591.26H390.3V585.33H372.48Z" fill="#D1FB84"/>
<path d="M384.36 252.66H378.42V270.48H384.36V252.66Z" fill="#D1FB84"/>
<path d="M384.36 211.07H372.48V222.96H384.36V211.07Z" fill="#D1FB84"/>
<path d="M360.6 615.03V620.98H384.36V615.03H360.6Z" fill="#D1FB84"/>
<path d="M384.36 579.38V573.45H372.48V579.38H384.36Z" fill="#D1FB84"/>
<path d="M378.42 472.46H372.48V478.4H378.42V472.46Z" fill="#D1FB84"/>
<path d="M378.42 270.48H372.48V276.42H378.42V270.48Z" fill="#D1FB84"/>
<path d="M372.48 591.26H366.54V597.2H372.48V591.26Z" fill="#D1FB84"/>
<path d="M372.48 276.42H366.54V282.36H372.48V276.42Z" fill="#D1FB84"/>
<path d="M366.54 597.21H360.6V603.15H366.54V597.21Z" fill="#D1FB84"/>
<path d="M366.54 585.32H360.6V591.26H366.54V585.32Z" fill="#D1FB84"/>
<path d="M366.54 288.3V282.36H354.66V288.3H366.54Z" fill="#D1FB84"/>
<path d="M360.6 603.14H348.72V609.1H354.66V615.03H360.6V603.14Z" fill="#D1FB84"/>
<path d="M348.72 591.26V597.21H360.6V591.26H348.72Z" fill="#D1FB84"/>
<path d="M372.48 573.45V567.5H348.72V573.45H372.48Z" fill="#D1FB84"/>
<path d="M348.72 597.21H342.78V603.15H348.72V597.21Z" fill="#D1FB84"/>
<path d="M348.72 258.6V252.66H342.78V246.72H336.84V258.6H348.72Z" fill="#D1FB84"/>
<path d="M348.72 579.38V573.45H330.89V579.38H348.72Z" fill="#D1FB84"/>
<path d="M319.01 603.14V609.1H342.78V603.14H319.01Z" fill="#D1FB84"/>
<path d="M336.84 496.21H330.89V502.15H336.84V496.21Z" fill="#D1FB84"/>
<path d="M336.84 264.54V258.6H324.95V264.54H336.84Z" fill="#D1FB84"/>
<path d="M330.89 579.39H324.95V585.33H330.89V579.39Z" fill="#D1FB84"/>
<path d="M330.89 490.27H324.95V496.21H330.89V490.27Z" fill="#D1FB84"/>
<path d="M330.89 175.43H319.01V187.31H330.89V175.43Z" fill="#D1FB84"/>
<path d="M330.89 133.84H324.95V139.78H330.89V133.84Z" fill="#D1FB84"/>
<path d="M324.95 585.32H319.01V591.26H324.95V585.32Z" fill="#D1FB84"/>
<path d="M324.95 484.33H319.01V490.27H324.95V484.33Z" fill="#D1FB84"/>
<path d="M324.95 270.48V264.54H313.07V270.48H324.95Z" fill="#D1FB84"/>
<path d="M319.01 591.26H313.07V603.14H319.01V591.26Z" fill="#D1FB84"/>
<path d="M319.01 478.4H313.07V484.34H319.01V478.4Z" fill="#D1FB84"/>
<path d="M319.01 341.76H313.07V347.7H319.01V341.76Z" fill="#D1FB84"/>
<path d="M313.07 472.46H307.13V478.4H313.07V472.46Z" fill="#D1FB84"/>
<path d="M313.07 347.71H307.13V353.65H313.07V347.71Z" fill="#D1FB84"/>
<path d="M313.07 335.82H307.13V341.76H313.07V335.82Z" fill="#D1FB84"/>
<path d="M307.13 466.51H301.19V472.45H307.13V466.51Z" fill="#D1FB84"/>
<path d="M307.13 341.76H301.19V347.7H307.13V341.76Z" fill="#D1FB84"/>
<path d="M301.19 460.57H295.25V466.51H301.19V460.57Z" fill="#D1FB84"/>
<path d="M313.07 276.42V270.48H289.31V276.42H313.07Z" fill="#D1FB84"/>
<path d="M289.31 442.75H283.37V448.69H289.31V442.75Z" fill="#D1FB84"/>
<path d="M289.31 418.99H283.37V424.93H289.31V418.99Z" fill="#D1FB84"/>
<path d="M283.37 436.81H277.43V442.75H283.37V436.81Z" fill="#D1FB84"/>
<path d="M283.37 424.94H277.43V430.88H283.37V424.94Z" fill="#D1FB84"/>
<path d="M283.37 413.05H277.43V418.99H283.37V413.05Z" fill="#D1FB84"/>
<path d="M271.49 282.35H265.55V288.29H271.49V282.35Z" fill="#D1FB84"/>
<path d="M253.67 187.31V193.25H277.43V187.31H253.67Z" fill="#D1FB84"/>
<path d="M265.55 276.42H259.61V282.36H265.55V276.42Z" fill="#D1FB84"/>
<path d="M289.31 270.48V264.54H271.49V246.72H265.55V228.9H259.61V211.07H253.67V270.48V276.42H259.61V270.48H289.31Z" fill="#D1FB84"/>
<path d="M253.67 193.25V187.31H241.79V193.25H253.67Z" fill="#D1FB84"/>
<path d="M206.14 282.36H212.08V288.3H223.96V282.36H229.9V276.42H241.79V270.48H253.67V211.07V205.13H247.73V199.19H241.79V193.25H235.84V199.19H223.96V205.13H218.02V211.07H212.08V217.01H206.14V228.9H200.2V264.54H206.14V282.36Z" fill="#D1FB84"/>
<path d="M718.95 584.63V590.34H730.37V584.63H718.95Z" fill="#D1FB84"/>
<path d="M718.95 618.92H713.23V624.63H718.95V618.92Z" fill="#D1FB84"/>
<path d="M718.95 607.49H713.23V613.2H718.95V607.49Z" fill="#D1FB84"/>
<path d="M713.23 596.06H707.52V601.77H718.95V590.34H713.23V596.06Z" fill="#D1FB84"/>
<path d="M707.52 670.34H701.8V681.77H707.52V676.06H713.23V664.63H707.52V670.34Z" fill="#D1FB84"/>
<path d="M713.23 624.63H707.52V630.34H713.23V624.63Z" fill="#D1FB84"/>
<path d="M713.23 613.2H707.52V618.92H713.23V613.2Z" fill="#D1FB84"/>
<path d="M701.8 613.2H707.52V601.77H701.8V613.2Z" fill="#D1FB84"/>
<path d="M701.8 630.34H696.09V641.77H701.8V630.34Z" fill="#D1FB84"/>
<path d="M701.8 613.2H696.09V618.92H701.8V613.2Z" fill="#D1FB84"/>
<path d="M701.8 567.49H696.09V573.2H701.8V567.49Z" fill="#D1FB84"/>
<path d="M690.37 676.06H684.66V687.49H690.37V681.77H696.09V664.63H690.37V676.06Z" fill="#D1FB84"/>
<path d="M696.09 607.49H690.37V613.2H696.09V607.49Z" fill="#D1FB84"/>
<path d="M690.37 624.63H684.66V636.06H690.37V624.63Z" fill="#D1FB84"/>
<path d="M690.37 613.2H684.66V618.92H690.37V613.2Z" fill="#D1FB84"/>
<path d="M690.37 601.77H684.66V607.49H690.37V601.77Z" fill="#D1FB84"/>
<path d="M684.66 607.49H678.95V613.2H684.66V607.49Z" fill="#D1FB84"/>
<path d="M678.95 624.63H673.23V630.34H678.95V624.63Z" fill="#D1FB84"/>
<path d="M678.95 613.2H673.23V618.92H678.95V613.2Z" fill="#D1FB84"/>
<path d="M678.95 601.77H673.23V607.49H678.95V601.77Z" fill="#D1FB84"/>
<path d="M667.52 658.92H673.23V641.77H667.52V658.92Z" fill="#D1FB84"/>
<path d="M673.23 607.49H667.52V613.2H673.23V607.49Z" fill="#D1FB84"/>
<path d="M667.52 601.77H661.8V607.49H667.52V601.77Z" fill="#D1FB84"/>
<path d="M661.8 710.34H656.09V716.06H661.8V710.34Z" fill="#D1FB84"/>
<path d="M661.8 687.49H656.09V693.2H661.8V687.49Z" fill="#D1FB84"/>
<path d="M656.09 658.92V670.34H661.8V664.63H667.52V658.92H656.09Z" fill="#D1FB84"/>
<path d="M661.8 618.92H656.09V636.06H661.8V618.92Z" fill="#D1FB84"/>
<path d="M661.8 607.49H656.09V613.2H661.8V607.49Z" fill="#D1FB84"/>
<path d="M656.09 647.49H650.37V658.92H656.09V647.49Z" fill="#D1FB84"/>
<path d="M656.09 601.77H650.37V607.49H656.09V601.77Z" fill="#D1FB84"/>
<path d="M650.37 710.34H644.66V716.06H650.37V710.34Z" fill="#D1FB84"/>
<path d="M650.37 698.92H644.66V704.63H650.37V698.92Z" fill="#D1FB84"/>
<path d="M650.37 687.49H644.66V693.2H650.37V687.49Z" fill="#D1FB84"/>
<path d="M644.66 676.06H650.37V664.63H644.66V676.06Z" fill="#D1FB84"/>
<path d="M650.37 618.92H644.66V636.06H650.37V618.92Z" fill="#D1FB84"/>
<path d="M650.37 607.49H644.66V613.2H650.37V607.49Z" fill="#D1FB84"/>
<path d="M650.37 550.34H644.66V561.77H650.37V550.34Z" fill="#D1FB84"/>
<path d="M644.66 601.77H638.95V607.49H644.66V601.77Z" fill="#D1FB84"/>
<path d="M638.95 698.92H633.23V704.63H638.95V698.92Z" fill="#D1FB84"/>
<path d="M638.95 687.49H633.23V693.2H638.95V687.49Z" fill="#D1FB84"/>
<path d="M638.95 607.49H633.23V613.2H638.95V607.49Z" fill="#D1FB84"/>
<path d="M633.23 618.92H627.52V624.63H633.23V618.92Z" fill="#D1FB84"/>
<path d="M633.23 601.77H627.52V607.49H633.23V601.77Z" fill="#D1FB84"/>
<path d="M621.8 710.34H616.09V716.06H627.52V704.63H621.8V710.34Z" fill="#D1FB84"/>
<path d="M627.52 687.49H621.8V693.2H627.52V687.49Z" fill="#D1FB84"/>
<path d="M627.52 676.06H621.8V681.77H627.52V676.06Z" fill="#D1FB84"/>
<path d="M627.52 664.63H621.8V670.34H627.52V664.63Z" fill="#D1FB84"/>
<path d="M621.8 658.92H627.52V641.77H621.8V658.92Z" fill="#D1FB84"/>
<path d="M627.52 607.49H621.8V613.2H627.52V607.49Z" fill="#D1FB84"/>
<path d="M627.52 596.06H621.8V601.77H627.52V596.06Z" fill="#D1FB84"/>
<path d="M627.52 590.34V596.06H633.23V601.77H638.95V596.06H644.66V601.77H650.37V596.06H656.09V601.77H661.8V596.06H667.52V601.77H673.23V596.06H678.95V601.77H684.66V596.06H690.37V601.77H696.09V596.06H701.8V590.34H707.52V584.63H696.09V590.34H690.37V584.63H696.09V573.2H690.37V578.92H684.66V561.77H678.95V578.92H673.23V556.06H667.52V538.92H661.8V561.77H667.52V573.2H656.09V561.77H650.37V584.63H644.66V567.49H638.95V584.63H627.52V578.92H621.8V573.2H627.52V556.06H621.8V567.49H616.09V573.2H610.37V561.77H604.66V573.2H598.95V544.63H593.23V538.92H587.52V550.34H593.23V573.2H576.09V567.49H564.66V573.2H558.95V567.49H564.66V556.06H558.95V561.77H553.23V567.49H547.52V561.77H553.23V550.34H547.52V556.06H541.8V561.77H536.09V573.2H530.37V567.49H524.66V561.77H530.37V550.34H524.66V556.06H518.95V567.49H501.8V573.2H496.09V567.49H501.8V561.77H507.52V556.06H513.23V544.63H507.52V550.34H501.8V556.06H496.09V561.77H490.37V556.06H496.09V544.63H484.66V550.34H478.95V556.06H473.23V550.34H467.52V567.49H473.23V573.2H484.66V567.49H490.37V573.2H484.66V578.92H490.37V584.63H496.09V578.92H501.8V584.63H507.52V590.34H513.23V584.63H518.95V590.34H524.66V584.63H530.37V590.34H536.09V584.63H541.8V590.34H547.52V584.63H553.23V590.34H558.95V584.63H564.66V590.34H570.37V584.63H576.09V590.34H581.8V584.63H587.52V590.34H593.23V584.63H598.95V590.34H610.37V584.63H616.09V590.34H610.37V596.06H621.8V590.34H627.52Z" fill="#D1FB84"/>
<path d="M621.8 601.77H616.09V607.49H621.8V601.77Z" fill="#D1FB84"/>
<path d="M616.09 687.49H610.37V693.2H616.09V687.49Z" fill="#D1FB84"/>
<path d="M616.09 676.06H610.37V681.77H616.09V676.06Z" fill="#D1FB84"/>
<path d="M616.09 664.63H610.37V670.34H616.09V664.63Z" fill="#D1FB84"/>
<path d="M610.37 653.2H616.09V641.77H610.37V653.2Z" fill="#D1FB84"/>
<path d="M610.37 618.92H616.09V607.49H610.37V618.92Z" fill="#D1FB84"/>
<path d="M616.09 550.34H610.37V561.77H616.09V550.34Z" fill="#D1FB84"/>
<path d="M610.37 630.34H604.66V641.77H610.37V630.34Z" fill="#D1FB84"/>
<path d="M610.37 538.92H604.66V550.34H610.37V538.92Z" fill="#D1FB84"/>
<path d="M604.66 687.49H598.95V693.2H604.66V687.49Z" fill="#D1FB84"/>
<path d="M604.66 676.06H598.95V681.77H604.66V676.06Z" fill="#D1FB84"/>
<path d="M604.66 664.63H598.95V670.34H604.66V664.63Z" fill="#D1FB84"/>
<path d="M604.66 607.49H598.95V618.92H604.66V607.49Z" fill="#D1FB84"/>
<path d="M604.66 596.06H598.95V601.77H604.66V596.06Z" fill="#D1FB84"/>
<path d="M598.95 590.34H593.23V596.06H598.95V590.34Z" fill="#D1FB84"/>
<path d="M593.23 676.06H587.52V681.77H593.23V676.06Z" fill="#D1FB84"/>
<path d="M593.23 664.63H587.52V670.34H593.23V664.63Z" fill="#D1FB84"/>
<path d="M593.23 596.06H587.52V601.77H593.23V596.06Z" fill="#D1FB84"/>
<path d="M581.8 647.49H587.52V630.34H581.8V647.49Z" fill="#D1FB84"/>
<path d="M587.52 607.49H581.8V613.2H587.52V607.49Z" fill="#D1FB84"/>
<path d="M587.52 590.34H581.8V596.06H587.52V590.34Z" fill="#D1FB84"/>
<path d="M576.09 710.34H581.8V693.2H576.09V710.34Z" fill="#D1FB84"/>
<path d="M581.8 676.06H576.09V681.77H581.8V676.06Z" fill="#D1FB84"/>
<path d="M581.8 664.63H576.09V670.34H581.8V664.63Z" fill="#D1FB84"/>
<path d="M581.8 561.77H576.09V567.49H581.8V561.77Z" fill="#D1FB84"/>
<path d="M570.37 647.49H576.09V624.63H570.37V647.49Z" fill="#D1FB84"/>
<path d="M576.09 601.77H570.37V613.2H576.09V601.77Z" fill="#D1FB84"/>
<path d="M576.09 590.34H570.37V596.06H576.09V590.34Z" fill="#D1FB84"/>
<path d="M564.66 710.34H570.37V693.2H564.66V710.34Z" fill="#D1FB84"/>
<path d="M570.37 664.63H564.66V670.34H570.37V664.63Z" fill="#D1FB84"/>
<path d="M564.66 590.34H558.95V596.06H564.66V590.34Z" fill="#D1FB84"/>
<path d="M553.23 607.49H558.95V613.2H564.66V601.77H558.95V596.06H553.23V607.49Z" fill="#D1FB84"/>
<path d="M553.23 590.34H547.52V596.06H553.23V590.34Z" fill="#D1FB84"/>
<path d="M547.52 601.77H541.8V607.49H547.52V601.77Z" fill="#D1FB84"/>
<path d="M536.09 670.34H530.37V664.63H524.66V670.34H518.95V681.77H524.66V676.06H530.37V681.77H536.09V676.06H541.8V664.63H536.09V670.34Z" fill="#D1FB84"/>
<path d="M541.8 613.2H536.09V618.92H541.8V613.2Z" fill="#D1FB84"/>
<path d="M541.8 590.34H536.09V596.06H541.8V590.34Z" fill="#D1FB84"/>
<path d="M536.09 601.77H530.37V607.49H536.09V601.77Z" fill="#D1FB84"/>
<path d="M536.09 538.92H530.37V550.34H536.09V538.92Z" fill="#D1FB84"/>
<path d="M524.66 641.77H530.37V624.63H524.66V641.77Z" fill="#D1FB84"/>
<path d="M530.37 613.2H524.66V618.92H530.37V613.2Z" fill="#D1FB84"/>
<path d="M530.37 590.34H524.66V596.06H530.37V590.34Z" fill="#D1FB84"/>
<path d="M524.66 601.77H518.95V607.49H524.66V601.77Z" fill="#D1FB84"/>
<path d="M518.95 698.92H513.23V704.63H518.95V698.92Z" fill="#D1FB84"/>
<path d="M518.95 653.2H513.23V658.92H518.95V653.2Z" fill="#D1FB84"/>
<path d="M518.95 630.34H513.23V647.49H518.95V630.34Z" fill="#D1FB84"/>
<path d="M513.23 618.92H518.95V607.49H513.23V618.92Z" fill="#D1FB84"/>
<path d="M518.95 590.34H513.23V596.06H518.95V590.34Z" fill="#D1FB84"/>
<path d="M507.52 601.77H501.8V613.2H507.52V607.49H513.23V596.06H507.52V601.77Z" fill="#D1FB84"/>
<path d="M507.52 687.49H501.8V693.2H507.52V687.49Z" fill="#D1FB84"/>
<path d="M507.52 676.06H501.8V681.77H507.52V676.06Z" fill="#D1FB84"/>
<path d="M507.52 664.63H501.8V670.34H507.52V664.63Z" fill="#D1FB84"/>
<path d="M507.52 653.2H501.8V658.92H507.52V653.2Z" fill="#D1FB84"/>
<path d="M496.09 687.49H490.37V693.2H496.09V687.49Z" fill="#D1FB84"/>
<path d="M496.09 676.06H490.37V681.77H496.09V676.06Z" fill="#D1FB84"/>
<path d="M496.09 664.63H490.37V670.34H496.09V664.63Z" fill="#D1FB84"/>
<path d="M496.09 653.2H490.37V658.92H496.09V653.2Z" fill="#D1FB84"/>
<path d="M484.66 698.92H478.95V704.63H484.66V698.92Z" fill="#D1FB84"/>
<path d="M484.66 687.49H478.95V693.2H484.66V687.49Z" fill="#D1FB84"/>
<path d="M478.95 658.92H473.23V681.77H478.95V658.92Z" fill="#D1FB84"/>
<path d="M473.23 710.34H467.52V716.06H473.23V710.34Z" fill="#D1FB84"/>
<path d="M473.23 698.92H467.52V704.63H473.23V698.92Z" fill="#D1FB84"/>
<path d="M473.23 687.49H467.52V693.2H473.23V687.49Z" fill="#D1FB84"/>
<path d="M467.52 658.92H461.8V676.06H467.52V658.92Z" fill="#D1FB84"/>
<path d="M461.8 698.92H456.09V704.63H461.8V698.92Z" fill="#D1FB84"/>
<path d="M461.8 687.49H456.09V693.2H461.8V687.49Z" fill="#D1FB84"/>
<path d="M450.37 710.34H444.66V716.06H450.37V710.34Z" fill="#D1FB84"/>
<path d="M450.37 698.92H444.66V704.63H450.37V698.92Z" fill="#D1FB84"/>
<path d="M450.37 687.49H444.66V693.2H450.37V687.49Z" fill="#D1FB84"/>
<path d="M450.37 676.06H444.66V681.77H450.37V676.06Z" fill="#D1FB84"/>
<path d="M450.37 664.63H444.66V670.34H450.37V664.63Z" fill="#D1FB84"/>
<path d="M450.37 647.49H444.66V653.2H450.37V647.49Z" fill="#D1FB84"/>
<path d="M438.95 698.92H433.23V704.63H438.95V698.92Z" fill="#D1FB84"/>
<path d="M438.95 687.49H433.23V693.2H438.95V687.49Z" fill="#D1FB84"/>
<path d="M438.95 676.06H433.23V681.77H438.95V676.06Z" fill="#D1FB84"/>
<path d="M438.95 664.63H433.23V670.34H438.95V664.63Z" fill="#D1FB84"/>
<path d="M438.95 653.2H433.23V658.92H438.95V653.2Z" fill="#D1FB84"/>
<path d="M427.52 676.06H421.8V681.77H427.52V676.06Z" fill="#D1FB84"/>
<path d="M427.52 664.63H421.8V670.34H427.52V664.63Z" fill="#D1FB84"/>
<path d="M421.8 658.92H427.52V647.49H421.8V658.92Z" fill="#D1FB84"/>
<path d="M416.09 693.2H410.37V698.92H421.8V687.49H416.09V693.2Z" fill="#D1FB84"/>
<path d="M416.09 664.63H410.37V670.34H416.09V664.63Z" fill="#D1FB84"/>
<path d="M416.09 653.2H410.37V658.92H416.09V653.2Z" fill="#D1FB84"/>
<path d="M416.09 641.77H410.37V647.49H416.09V641.77Z" fill="#D1FB84"/>
<path d="M398.95 698.92H404.66V681.77H398.95V698.92Z" fill="#D1FB84"/>
<path d="M404.66 653.2H398.95V658.92H404.66V653.2Z" fill="#D1FB84"/>
<path d="M381.8 664.63H387.52V653.2H381.8V664.63Z" fill="#D1FB84"/>
<path d="M370.37 647.49H364.66V658.92H370.37V670.34H376.09V653.2H370.37V647.49Z" fill="#D1FB84"/>
<path d="M358.95 630.34H353.23V636.06H358.95V630.34Z" fill="#D1FB84"/>
<path d="M347.52 653.2H341.8V658.92H347.52V653.2Z" fill="#D1FB84"/>
<path d="M347.52 641.77H341.8V647.49H347.52V641.77Z" fill="#D1FB84"/>
<path d="M347.52 630.34H341.8V636.06H347.52V630.34Z" fill="#D1FB84"/>
<path d="M347.52 618.92H341.8V624.63H347.52V618.92Z" fill="#D1FB84"/>
<path d="M347.52 544.63H341.8V550.34H347.52V544.63Z" fill="#D1FB84"/>
<path d="M336.09 561.77H341.8V550.34H336.09V561.77Z" fill="#D1FB84"/>
<path d="M336.09 653.2H330.37V658.92H336.09V653.2Z" fill="#D1FB84"/>
<path d="M336.09 641.77H330.37V647.49H336.09V641.77Z" fill="#D1FB84"/>
<path d="M336.09 630.34H330.37V636.06H336.09V630.34Z" fill="#D1FB84"/>
<path d="M324.66 561.77V550.34H318.95V544.63H313.23V556.06H318.95V561.77H313.23V567.49H307.52V573.2H301.8V567.49H290.37V561.77H278.95V567.49H284.66V573.2H273.23V567.49H267.52V561.77H261.8V544.63H256.09V567.49H250.37V556.06H244.66V567.49H238.95V556.06H233.23V567.49H227.52V550.34H221.8V538.92H216.09V561.77H210.37V567.49H204.66V556.06H198.95V573.2H204.66V578.92H210.37V584.63H216.09V578.92H221.8V584.63H227.52V590.34H233.23V596.06H238.95V590.34H244.66V584.63H238.95V578.92H244.66V584.63H250.37V590.34H256.09V596.06H261.8V590.34H267.52V584.63H273.23V578.92H278.95V584.63H284.66V578.92H290.37V573.2H296.09V578.92H301.8V584.63H307.52V578.92H313.23V584.63H318.95V573.2H336.09V561.77H324.66Z" fill="#D1FB84"/>
<path d="M324.66 641.77H318.95V647.49H324.66V641.77Z" fill="#D1FB84"/>
<path d="M324.66 630.34H318.95V636.06H324.66V630.34Z" fill="#D1FB84"/>
<path d="M324.66 618.92H318.95V624.63H324.66V618.92Z" fill="#D1FB84"/>
<path d="M313.23 641.77H307.52V647.49H313.23V641.77Z" fill="#D1FB84"/>
<path d="M313.23 630.34H307.52V636.06H313.23V630.34Z" fill="#D1FB84"/>
<path d="M313.23 584.63H307.52V590.34H313.23V584.63Z" fill="#D1FB84"/>
<path d="M301.8 687.49H296.09V676.06H290.37V687.49H284.66V698.92H290.37V693.2H296.09V698.92H301.8V693.2H307.52V681.77H301.8V687.49Z" fill="#D1FB84"/>
<path d="M307.52 590.34H301.8V596.06H307.52V590.34Z" fill="#D1FB84"/>
<path d="M307.52 561.77H301.8V567.49H307.52V561.77Z" fill="#D1FB84"/>
<path d="M301.8 607.49H296.09V613.2H301.8V607.49Z" fill="#D1FB84"/>
<path d="M301.8 596.06H296.09V601.77H301.8V596.06Z" fill="#D1FB84"/>
<path d="M301.8 584.63H296.09V590.34H301.8V584.63Z" fill="#D1FB84"/>
<path d="M301.8 561.77V556.06H290.37V561.77H301.8Z" fill="#D1FB84"/>
<path d="M296.09 601.77H290.37V607.49H296.09V601.77Z" fill="#D1FB84"/>
<path d="M296.09 590.34H290.37V596.06H296.09V590.34Z" fill="#D1FB84"/>
<path d="M296.09 578.92H290.37V584.63H296.09V578.92Z" fill="#D1FB84"/>
<path d="M290.37 630.34H284.66V636.06H290.37V630.34Z" fill="#D1FB84"/>
<path d="M290.37 607.49H284.66V613.2H290.37V607.49Z" fill="#D1FB84"/>
<path d="M290.37 596.06H284.66V601.77H290.37V596.06Z" fill="#D1FB84"/>
<path d="M290.37 584.63H284.66V590.34H290.37V584.63Z" fill="#D1FB84"/>
<path d="M284.66 636.06H278.95V647.49H284.66V636.06Z" fill="#D1FB84"/>
<path d="M284.66 618.92H278.95V624.63H284.66V618.92Z" fill="#D1FB84"/>
<path d="M284.66 590.34H278.95V596.06H284.66V590.34Z" fill="#D1FB84"/>
<path d="M278.95 704.63H273.23V710.34H278.95V704.63Z" fill="#D1FB84"/>
<path d="M278.95 693.2H273.23V698.92H278.95V693.2Z" fill="#D1FB84"/>
<path d="M278.95 681.77H273.23V687.49H278.95V681.77Z" fill="#D1FB84"/>
<path d="M278.95 670.34H273.23V676.06H278.95V670.34Z" fill="#D1FB84"/>
<path d="M278.95 658.92H273.23V664.63H278.95V658.92Z" fill="#D1FB84"/>
<path d="M278.95 607.49H273.23V613.2H278.95V607.49Z" fill="#D1FB84"/>
<path d="M278.95 596.06H273.23V601.77H278.95V596.06Z" fill="#D1FB84"/>
<path d="M278.95 584.63H273.23V590.34H278.95V584.63Z" fill="#D1FB84"/>
<path d="M278.95 556.06H273.23V561.77H278.95V556.06Z" fill="#D1FB84"/>
<path d="M273.23 664.63H267.52V670.34H273.23V664.63Z" fill="#D1FB84"/>
<path d="M273.23 618.92H267.52V624.63H273.23V618.92Z" fill="#D1FB84"/>
<path d="M273.23 590.34H267.52V596.06H273.23V590.34Z" fill="#D1FB84"/>
<path d="M267.52 716.06H261.8V721.77H267.52V716.06Z" fill="#D1FB84"/>
<path d="M267.52 704.63H261.8V710.34H267.52V704.63Z" fill="#D1FB84"/>
<path d="M267.52 693.2H261.8V698.92H267.52V693.2Z" fill="#D1FB84"/>
<path d="M267.52 681.77H261.8V687.49H267.52V681.77Z" fill="#D1FB84"/>
<path d="M267.52 670.34H261.8V676.06H267.52V670.34Z" fill="#D1FB84"/>
<path d="M267.52 658.92H261.8V664.63H267.52V658.92Z" fill="#D1FB84"/>
<path d="M261.8 653.2H267.52V647.49H273.23V636.06H267.52V641.77H261.8V653.2Z" fill="#D1FB84"/>
<path d="M267.52 607.49H261.8V613.2H267.52V607.49Z" fill="#D1FB84"/>
<path d="M267.52 596.06H261.8V601.77H267.52V596.06Z" fill="#D1FB84"/>
<path d="M267.52 538.92H261.8V544.63H267.52V538.92Z" fill="#D1FB84"/>
<path d="M261.8 664.63H256.09V670.34H261.8V664.63Z" fill="#D1FB84"/>
<path d="M261.8 618.92H256.09V624.63H261.8V618.92Z" fill="#D1FB84"/>
<path d="M256.09 704.63H250.37V710.34H256.09V704.63Z" fill="#D1FB84"/>
<path d="M256.09 693.2H250.37V698.92H256.09V693.2Z" fill="#D1FB84"/>
<path d="M256.09 681.77H250.37V687.49H256.09V681.77Z" fill="#D1FB84"/>
<path d="M256.09 670.34H250.37V676.06H256.09V670.34Z" fill="#D1FB84"/>
<path d="M256.09 658.92H250.37V664.63H256.09V658.92Z" fill="#D1FB84"/>
<path d="M256.09 607.49H250.37V613.2H256.09V607.49Z" fill="#D1FB84"/>
<path d="M256.09 596.06H250.37V601.77H256.09V596.06Z" fill="#D1FB84"/>
<path d="M250.37 664.63H244.66V670.34H250.37V664.63Z" fill="#D1FB84"/>
<path d="M250.37 618.92H244.66V624.63H250.37V618.92Z" fill="#D1FB84"/>
<path d="M250.37 590.34H244.66V596.06H250.37V590.34Z" fill="#D1FB84"/>
<path d="M244.66 716.06H238.95V721.77H244.66V716.06Z" fill="#D1FB84"/>
<path d="M244.66 704.63H238.95V710.34H244.66V704.63Z" fill="#D1FB84"/>
<path d="M244.66 693.2H238.95V698.92H244.66V693.2Z" fill="#D1FB84"/>
<path d="M244.66 681.77H238.95V687.49H244.66V681.77Z" fill="#D1FB84"/>
<path d="M244.66 670.34H238.95V676.06H244.66V670.34Z" fill="#D1FB84"/>
<path d="M244.66 658.92H238.95V664.63H244.66V658.92Z" fill="#D1FB84"/>
<path d="M244.66 607.49H238.95V613.2H244.66V607.49Z" fill="#D1FB84"/>
<path d="M244.66 596.06H238.95V601.77H244.66V596.06Z" fill="#D1FB84"/>
<path d="M238.95 618.92H233.23V624.63H238.95V618.92Z" fill="#D1FB84"/>
<path d="M233.23 704.63H227.52V710.34H233.23V704.63Z" fill="#D1FB84"/>
<path d="M233.23 693.2H227.52V698.92H233.23V693.2Z" fill="#D1FB84"/>
<path d="M233.23 681.77H227.52V687.49H233.23V681.77Z" fill="#D1FB84"/>
<path d="M233.23 670.34H227.52V676.06H233.23V670.34Z" fill="#D1FB84"/>
<path d="M233.23 607.49H227.52V613.2H233.23V607.49Z" fill="#D1FB84"/>
<path d="M233.23 596.06H227.52V601.77H233.23V596.06Z" fill="#D1FB84"/>
<path d="M227.52 590.34H221.8V596.06H227.52V590.34Z" fill="#D1FB84"/>
<path d="M221.8 693.2H216.09V698.92H221.8V693.2Z" fill="#D1FB84"/>
<path d="M221.8 681.77H216.09V687.49H221.8V681.77Z" fill="#D1FB84"/>
<path d="M216.09 658.92H210.37V670.34H216.09V664.63H221.8V653.2H216.09V658.92Z" fill="#D1FB84"/>
<path d="M221.8 584.63H216.09V590.34H221.8V584.63Z" fill="#D1FB84"/>
<path d="M216.09 601.77H210.37V618.92H216.09V601.77Z" fill="#D1FB84"/>
<path d="M216.09 590.34H210.37V596.06H216.09V590.34Z" fill="#D1FB84"/>
<path d="M216.09 533.2H210.37V538.92H216.09V533.2Z" fill="#D1FB84"/>
<path d="M210.37 704.63H204.66V710.34H210.37V704.63Z" fill="#D1FB84"/>
<path d="M210.37 693.2H204.66V698.92H210.37V693.2Z" fill="#D1FB84"/>
<path d="M210.37 681.77H204.66V687.49H210.37V681.77Z" fill="#D1FB84"/>
<path d="M210.37 641.77H204.66V653.2H210.37V641.77Z" fill="#D1FB84"/>
<path d="M210.37 584.63H204.66V590.34H210.37V584.63Z" fill="#D1FB84"/>
<path d="M210.37 550.34H204.66V556.06H210.37V550.34Z" fill="#D1FB84"/>
<path d="M204.66 653.2H198.95V658.92H204.66V653.2Z" fill="#D1FB84"/>
<path d="M198.95 624.63H204.66V601.77H193.23V607.49H198.95V624.63Z" fill="#D1FB84"/>
<path d="M204.66 590.34H198.95V596.06H204.66V590.34Z" fill="#D1FB84"/>
<path d="M204.66 578.92H198.95V584.63H204.66V578.92Z" fill="#D1FB84"/>
<path d="M198.95 693.2H193.23V698.92H198.95V693.2Z" fill="#D1FB84"/>
<path d="M198.95 681.77H193.23V687.49H198.95V681.77Z" fill="#D1FB84"/>
<path d="M198.95 670.34H193.23V676.06H198.95V670.34Z" fill="#D1FB84"/>
<path d="M198.95 584.63H193.23V590.34H198.95V584.63Z" fill="#D1FB84"/>
<path d="M198.95 550.34H193.23V556.06H198.95V550.34Z" fill="#D1FB84"/>
<path d="M193.23 590.34H187.52V596.06H193.23V590.34Z" fill="#D1FB84"/>
<path d="M187.52 584.63H193.23V573.2H187.52V567.49H181.8V578.92H187.52V584.63Z" fill="#D1FB84"/>
<path d="M187.52 704.63H181.8V710.34H187.52V704.63Z" fill="#D1FB84"/>
<path d="M187.52 693.2H181.8V698.92H187.52V693.2Z" fill="#D1FB84"/>
<path d="M187.52 681.77H181.8V687.49H187.52V681.77Z" fill="#D1FB84"/>
<path d="M187.52 670.34H181.8V676.06H187.52V670.34Z" fill="#D1FB84"/>
<path d="M187.52 658.92H181.8V664.63H187.52V658.92Z" fill="#D1FB84"/>
<path d="M187.52 647.49H181.8V653.2H187.52V647.49Z" fill="#D1FB84"/>
<path d="M187.52 596.06H181.8V601.77H187.52V596.06Z" fill="#D1FB84"/>
<path d="M187.52 584.63H181.8V590.34H187.52V584.63Z" fill="#D1FB84"/>
<path d="M181.8 590.34H176.09V596.06H181.8V590.34Z" fill="#D1FB84"/>
<path d="M176.09 681.77H170.37V687.49H176.09V681.77Z" fill="#D1FB84"/>
<path d="M176.09 670.34H170.37V676.06H176.09V670.34Z" fill="#D1FB84"/>
<path d="M176.09 658.92H170.37V664.63H176.09V658.92Z" fill="#D1FB84"/>
<path d="M176.09 647.49H170.37V653.2H176.09V647.49Z" fill="#D1FB84"/>
<path d="M176.09 636.06H170.37V641.77H176.09V636.06Z" fill="#D1FB84"/>
<path d="M176.09 596.06H170.37V601.77H176.09V596.06Z" fill="#D1FB84"/>
<path d="M170.37 601.77H164.66V607.49H170.37V601.77Z" fill="#D1FB84"/>
<path d="M164.66 693.2H158.95V698.92H164.66V693.2Z" fill="#D1FB84"/>
<path d="M164.66 670.34H158.95V676.06H164.66V670.34Z" fill="#D1FB84"/>
<path d="M164.66 658.92H158.95V664.63H164.66V658.92Z" fill="#D1FB84"/>
<path d="M164.66 647.49H158.95V653.2H164.66V647.49Z" fill="#D1FB84"/>
<path d="M158.95 624.63H153.23V630.34H158.95V636.06H164.66V618.92H158.95V624.63Z" fill="#D1FB84"/>
<path d="M164.66 596.06H158.95V601.77H164.66V596.06Z" fill="#D1FB84"/>
<path d="M158.95 601.77H153.23V607.49H158.95V601.77Z" fill="#D1FB84"/>
<path d="M158.95 590.34H153.23V596.06H158.95V590.34Z" fill="#D1FB84"/>
<path d="M158.95 561.77H153.23V567.49H158.95V561.77Z" fill="#D1FB84"/>
<path d="M147.52 698.92H153.23V681.77H147.52V698.92Z" fill="#D1FB84"/>
<path d="M153.23 658.92H147.52V664.63H153.23V658.92Z" fill="#D1FB84"/>
<path d="M153.23 613.2H147.52V618.92H153.23V613.2Z" fill="#D1FB84"/>
<path d="M153.23 596.06H147.52V601.77H153.23V596.06Z" fill="#D1FB84"/>
<path d="M147.52 630.34H141.8V641.77H147.52V647.49H153.23V636.06H147.52V630.34Z" fill="#D1FB84"/>
<path d="M147.52 601.77H141.8V607.49H147.52V601.77Z" fill="#D1FB84"/>
<path d="M136.09 693.2H141.8V676.06H136.09V693.2Z" fill="#D1FB84"/>
<path d="M141.8 658.92H136.09V664.63H141.8V658.92Z" fill="#D1FB84"/>
<path d="M141.8 613.2H136.09V618.92H141.8V613.2Z" fill="#D1FB84"/>
<path d="M141.8 596.06H136.09V601.77H141.8V596.06Z" fill="#D1FB84"/>
<path d="M141.8 561.77H136.09V567.49H141.8V561.77Z" fill="#D1FB84"/>
<path d="M136.09 601.77H130.37V607.49H136.09V601.77Z" fill="#D1FB84"/>
<path d="M130.37 613.2H124.66V618.92H130.37V613.2Z" fill="#D1FB84"/>
<path d="M130.37 596.06H124.66V601.77H130.37V596.06Z" fill="#D1FB84"/>
<path d="M124.66 601.77H118.95V607.49H124.66V601.77Z" fill="#D1FB84"/>
<path d="M124.66 556.06H118.95V567.49H124.66V556.06Z" fill="#D1FB84"/>
<path d="M118.95 618.92H113.23V624.63H118.95V618.92Z" fill="#D1FB84"/>
<path d="M118.95 596.06H113.23V601.77H118.95V596.06Z" fill="#D1FB84"/>
<path d="M118.95 590.34V596.06H124.66V590.34H130.37V596.06H136.09V590.34H141.8V596.06H147.52V590.34H153.23V584.63H158.95V590.34H164.66V596.06H170.37V590.34H176.09V584.63H181.8V578.92H176.09V573.2H170.37V567.49H158.95V573.2H164.66V578.92H153.23V573.2H147.52V567.49H141.8V573.2H130.37V567.49H124.66V578.92H113.23V573.2H107.52V567.49H96.0902V573.2H101.8V578.92H107.52V584.63H96.0902V578.92H90.3702V584.63H84.6602V578.92H78.9502V584.63H73.2302V590.34H84.6602V596.06H90.3702V590.34H96.0902V596.06H101.8V590.34H107.52V596.06H113.23V590.34H118.95Z" fill="#D1FB84"/>
<path d="M113.23 613.2H107.52V618.92H113.23V613.2Z" fill="#D1FB84"/>
<path d="M107.52 618.92H101.8V624.63H107.52V618.92Z" fill="#D1FB84"/>
<path d="M107.52 596.06H101.8V601.77H107.52V596.06Z" fill="#D1FB84"/>
<path d="M101.8 607.49H90.3702V613.2H96.0902V618.92H101.8V607.49Z" fill="#D1FB84"/>
<path d="M96.0902 653.2H90.3702V658.92H96.0902V653.2Z" fill="#D1FB84"/>
<path d="M96.0902 596.06H90.3702V601.77H96.0902V596.06Z" fill="#D1FB84"/>
<path d="M84.6602 561.77V567.49H96.0902V561.77H84.6602Z" fill="#D1FB84"/>
<path d="M90.3702 641.77H84.6602V653.2H90.3702V641.77Z" fill="#D1FB84"/>
<path d="M78.9502 653.2H73.2302V664.63H78.9502V670.34H84.6602V658.92H78.9502V653.2Z" fill="#D1FB84"/>
<path d="M78.9502 596.06H73.2302V601.77H78.9502V596.06Z" fill="#D1FB84"/>
<path d="M78.9502 573.2H73.2302V578.92H78.9502V573.2Z" fill="#D1FB84"/>
<path d="M67.5202 607.49H61.8002V613.2H67.5202V607.49Z" fill="#D1FB84"/>
<path d="M67.5202 596.06H61.8002V601.77H67.5202V596.06Z" fill="#D1FB84"/>
<path d="M67.5202 584.63H61.8002V590.34H67.5202V584.63Z" fill="#D1FB84"/>
<path d="M61.8002 578.92H56.0902V584.63H61.8002V578.92Z" fill="#D1FB84"/>
<path d="M56.0902 607.49H50.3702V613.2H56.0902V607.49Z" fill="#D1FB84"/>
<path d="M56.0902 596.06H50.3702V601.77H56.0902V596.06Z" fill="#D1FB84"/>
<path d="M56.0902 584.63H50.3702V590.34H56.0902V584.63Z" fill="#D1FB84"/>
<path d="M56.0902 567.49H50.3702V578.92H56.0902V567.49Z" fill="#D1FB84"/>
<path d="M44.6602 596.06H38.9502V601.77H44.6602V596.06Z" fill="#D1FB84"/>
</g>
<defs>
<filter id="filter0_d" x="18.9502" y="90.0596" width="731.42" height="651.71" filterUnits="userSpaceOnUse" color-interpolation-filters="sRGB" filterRes="800">
<feFlood flood-opacity="0" result="BackgroundImageFix"/>
<feColorMatrix in="SourceAlpha" type="matrix" values="0 0 0 0 0 0 0 0 0 0 0 0 0 0 0 0 0 0 127 0"/>
<feOffset/>
<feGaussianBlur stdDeviation="10"/>
<feColorMatrix type="matrix" values="0 0 0 0 0.707769 0 0 0 0 0.85 0 0 0 0 0.447012 0 0 0 1 0"/>
<feBlend mode="normal" in2="BackgroundImageFix" result="effect1_dropShadow"/>
<feBlend mode="normal" in="SourceGraphic" in2="effect1_dropShadow" result="shape"/>
</filter>
</defs>
</svg>
