<svg width="43" height="32" viewBox="0 0 43 32" fill="none" xmlns="http://www.w3.org/2000/svg">
<g clip-path="url(#clip0)">
<path d="M43.0004 20.9023H40.2725V23.6037H43.0004V20.9023Z" fill="#3D5168"/>
<path d="M43.0004 18.2012H40.2725V20.9025H43.0004V18.2012Z" fill="#3D5168"/>
<path d="M43.0004 15.5H40.2725V18.2014H43.0004V15.5Z" fill="#3D5168"/>
<path d="M43.0004 12.7988H40.2725V15.5002H43.0004V12.7988Z" fill="#3D5168"/>
<path d="M43.0004 10.1045H40.2725V12.7991H43.0004V10.1045Z" fill="#3D5168"/>
<path d="M43.0004 7.40234H40.2725V10.1037H43.0004V7.40234Z" fill="#3D5168"/>
<path d="M43.0004 4.70117H40.2725V7.40253H43.0004V4.70117Z" fill="#3D5168"/>
<path d="M40.2718 23.6035H37.5508V26.2981H40.2718V23.6035Z" fill="#3D5168"/>
<path d="M40.2718 20.9023H37.5508V23.6037H40.2718V20.9023Z" fill="#324254"/>
<path d="M40.2718 18.2012H37.5508V20.9025H40.2718V18.2012Z" fill="#1A2C3A"/>
<path d="M40.2718 15.5H37.5508V18.2014H40.2718V15.5Z" fill="#253747"/>
<path d="M40.2718 12.7988H37.5508V15.5002H40.2718V12.7988Z" fill="#253747"/>
<path d="M40.2718 10.1045H37.5508V12.7991H40.2718V10.1045Z" fill="#253747"/>
<path d="M40.2718 7.40234H37.5508V10.1037H40.2718V7.40234Z" fill="#1A2C3A"/>
<path d="M40.2718 4.70117H37.5508V7.40253H40.2718V4.70117Z" fill="#374E63"/>
<path d="M37.5511 26.2988H34.8232V29.0002H37.5511V26.2988Z" fill="#3D5168"/>
<path d="M37.5511 23.6035H34.8232V26.2981H37.5511V23.6035Z" fill="#324254"/>
<path d="M37.5511 20.9023H34.8232V23.6037H37.5511V20.9023Z" fill="#1A2C3A"/>
<path d="M37.5511 18.2012H34.8232V20.9025H37.5511V18.2012Z" fill="#2F4E66"/>
<path d="M37.5511 15.5H34.8232V18.2014H37.5511V15.5Z" fill="#2F4E66"/>
<path d="M37.5511 12.7988H34.8232V15.5002H37.5511V12.7988Z" fill="#2F4E66"/>
<path d="M37.5511 10.1045H34.8232V12.7991H37.5511V10.1045Z" fill="#2F4E66"/>
<path d="M37.5511 7.40234H34.8232V10.1037H37.5511V7.40234Z" fill="#2F4E66"/>
<path d="M37.5511 4.70117H34.8232V7.40253H37.5511V4.70117Z" fill="#1A2C3A"/>
<path d="M37.5511 2H34.8232V4.70135H37.5511V2Z" fill="#374E63"/>
<path d="M34.8236 26.2988H32.0957V29.0002H34.8236V26.2988Z" fill="#3D5168"/>
<path d="M34.8236 23.6035H32.0957V26.2981H34.8236V23.6035Z" fill="#1A2C3A"/>
<path d="M34.8236 20.9023H32.0957V23.6037H34.8236V20.9023Z" fill="#2F4E66"/>
<path d="M34.8236 18.2012H32.0957V20.9025H34.8236V18.2012Z" fill="#38536B"/>
<path d="M34.8236 15.5H32.0957V18.2014H34.8236V15.5Z" fill="#405871"/>
<path d="M34.8236 12.7988H32.0957V15.5002H34.8236V12.7988Z" fill="#405871"/>
<path d="M34.8236 10.1045H32.0957V12.7991H34.8236V10.1045Z" fill="#405871"/>
<path d="M34.8236 7.40234H32.0957V10.1037H34.8236V7.40234Z" fill="#38536B"/>
<path d="M34.8236 4.70117H32.0957V7.40253H34.8236V4.70117Z" fill="#2F4E66"/>
<path d="M34.8236 2H32.0957V4.70135H34.8236V2Z" fill="#1A2C3A"/>
<path d="M32.0951 26.2988H29.3672V29.0002H32.0951V26.2988Z" fill="#3D5168"/>
<path d="M32.0951 23.6035H29.3672V26.2981H32.0951V23.6035Z" fill="#1A2C3A"/>
<path d="M32.0951 20.9023H29.3672V23.6037H32.0951V20.9023Z" fill="#2F4E66"/>
<path d="M32.0951 18.2012H29.3672V20.9025H32.0951V18.2012Z" fill="#405871"/>
<path d="M32.0951 15.5H29.3672V18.2014H32.0951V15.5Z" fill="#405871"/>
<path d="M32.0951 12.7988H29.3672V15.5002H32.0951V12.7988Z" fill="#405871"/>
<path d="M32.0951 10.1045H29.3672V12.7991H32.0951V10.1045Z" fill="#3F5E7A"/>
<path d="M32.0951 7.40234H29.3672V10.1037H32.0951V7.40234Z" fill="#405871"/>
<path d="M32.0951 4.70117H29.3672V7.40253H32.0951V4.70117Z" fill="#2F4E66"/>
<path d="M32.0951 2H29.3672V4.70135H32.0951V2Z" fill="#253747"/>
<path d="M29.3675 26.2988H26.6396V29.0002H29.3675V26.2988Z" fill="#3D5168"/>
<path d="M29.3675 23.6035H26.6396V26.2981H29.3675V23.6035Z" fill="#1A2C3A"/>
<path d="M29.3675 20.9023H26.6396V23.6037H29.3675V20.9023Z" fill="#2F4E66"/>
<path d="M29.3675 18.2012H26.6396V20.9025H29.3675V18.2012Z" fill="#405871"/>
<path d="M29.3675 15.5H26.6396V18.2014H29.3675V15.5Z" fill="#405871"/>
<path d="M29.3675 12.7988H26.6396V15.5002H29.3675V12.7988Z" fill="#3F5E7A"/>
<path d="M29.3675 10.1045H26.6396V12.7991H29.3675V10.1045Z" fill="#3F5E7A"/>
<path d="M29.3675 7.40234H26.6396V10.1037H29.3675V7.40234Z" fill="#3F5E7A"/>
<path d="M29.3675 4.70117H26.6396V7.40253H29.3675V4.70117Z" fill="#2F4E66"/>
<path d="M29.3675 2H26.6396V4.70135H29.3675V2Z" fill="#253747"/>
<path d="M26.639 26.2988H23.9111V29.0002H26.639V26.2988Z" fill="#3D5168"/>
<path d="M26.639 23.6035H23.9111V26.2981H26.639V23.6035Z" fill="#1A2C3A"/>
<path d="M26.639 20.9023H23.9111V23.6037H26.639V20.9023Z" fill="#2F4E66"/>
<path d="M26.639 18.2012H23.9111V20.9025H26.639V18.2012Z" fill="#405871"/>
<path d="M26.639 15.5H23.9111V18.2014H26.639V15.5Z" fill="#3F5E7A"/>
<path d="M26.639 12.7988H23.9111V15.5002H26.639V12.7988Z" fill="#3F5E7A"/>
<path d="M26.639 10.1045H23.9111V12.7991H26.639V10.1045Z" fill="#3F5E7A"/>
<path d="M26.639 7.40234H23.9111V10.1037H26.639V7.40234Z" fill="#405871"/>
<path d="M26.639 4.70117H23.9111V7.40253H26.639V4.70117Z" fill="#2F4E66"/>
<path d="M26.639 2H23.9111V4.70135H26.639V2Z" fill="#253747"/>
<path d="M23.9115 26.2988H21.1836V29.0002H23.9115V26.2988Z" fill="#3D5168"/>
<path d="M23.9115 23.6035H21.1836V26.2981H23.9115V23.6035Z" fill="#1A2C3A"/>
<path d="M23.9115 20.9023H21.1836V23.6037H23.9115V20.9023Z" fill="#2F4E66"/>
<path d="M23.9115 18.2012H21.1836V20.9025H23.9115V18.2012Z" fill="#38536B"/>
<path d="M23.9115 15.5H21.1836V18.2014H23.9115V15.5Z" fill="#405871"/>
<path d="M23.9115 12.7988H21.1836V15.5002H23.9115V12.7988Z" fill="#405871"/>
<path d="M23.9115 10.1045H21.1836V12.7991H23.9115V10.1045Z" fill="#405871"/>
<path d="M23.9115 7.40234H21.1836V10.1037H23.9115V7.40234Z" fill="#38536B"/>
<path d="M23.9115 4.70117H21.1836V7.40253H23.9115V4.70117Z" fill="#2F4E66"/>
<path d="M23.9115 2H21.1836V4.70135H23.9115V2Z" fill="#1A2C3A"/>
<path d="M21.1839 26.2988H18.4561V29.0002H21.1839V26.2988Z" fill="#3D5168"/>
<path d="M21.1839 23.6035H18.4561V26.2981H21.1839V23.6035Z" fill="#324254"/>
<path d="M21.1839 20.9023H18.4561V23.6037H21.1839V20.9023Z" fill="#1A2C3A"/>
<path d="M21.1839 18.2012H18.4561V20.9025H21.1839V18.2012Z" fill="#2F4E66"/>
<path d="M21.1839 15.5H18.4561V18.2014H21.1839V15.5Z" fill="#2F4E66"/>
<path d="M21.1839 12.7988H18.4561V15.5002H21.1839V12.7988Z" fill="#2F4E66"/>
<path d="M21.1839 10.1045H18.4561V12.7991H21.1839V10.1045Z" fill="#2F4E66"/>
<path d="M21.1839 7.40234H18.4561V10.1037H21.1839V7.40234Z" fill="#2F4E66"/>
<path d="M21.1839 4.70117H18.4561V7.40253H21.1839V4.70117Z" fill="#1A2C3A"/>
<path d="M21.1839 2H18.4561V4.70135H21.1839V2Z" fill="#374E63"/>
<path d="M18.4554 23.6035H15.7275V26.2981H18.4554V23.6035Z" fill="#3D5168"/>
<path d="M18.4554 20.9023H15.7275V23.6037H18.4554V20.9023Z" fill="#324254"/>
<path d="M18.4554 18.2012H15.7275V20.9025H18.4554V18.2012Z" fill="#1A2C3A"/>
<path d="M18.4554 15.5H15.7275V18.2014H18.4554V15.5Z" fill="#253747"/>
<path d="M18.4554 12.7988H15.7275V15.5002H18.4554V12.7988Z" fill="#253747"/>
<path d="M18.4554 10.1045H15.7275V12.7991H18.4554V10.1045Z" fill="#253747"/>
<path d="M18.4554 7.40234H15.7275V10.1037H18.4554V7.40234Z" fill="#1A2C3A"/>
<path d="M18.4554 4.70117H15.7275V7.40253H18.4554V4.70117Z" fill="#374E63"/>
<path d="M15.7279 20.9023H13V23.6037H15.7279V20.9023Z" fill="#3D5168"/>
<path d="M15.7279 18.2012H13V20.9025H15.7279V18.2012Z" fill="#3D5168"/>
<path d="M15.7279 15.5H13V18.2014H15.7279V15.5Z" fill="#3D5168"/>
<path d="M15.7279 12.7988H13V15.5002H15.7279V12.7988Z" fill="#3D5168"/>
<path d="M15.7279 10.1045H13V12.7991H15.7279V10.1045Z" fill="#3D5168"/>
<path d="M7.99957 5.33301H5.33301V7.99957H7.99957V5.33301Z" fill="#3C6C70"/>
<path d="M7.99957 2.66699H5.33301V5.33355H7.99957V2.66699Z" fill="#37826E"/>
<path d="M7.99957 0H5.33301V2.66656H7.99957V0Z" fill="#3C6C70"/>
<path d="M5.33355 5.33301H2.66699V7.99957H5.33355V5.33301Z" fill="#37826E"/>
<path d="M5.33355 2.66699H2.66699V5.33355H5.33355V2.66699Z" fill="#42FF2E"/>
<path d="M5.33355 0H2.66699V2.66656H5.33355V0Z" fill="#37826E"/>
<path d="M2.66656 5.33301H0V7.99957H2.66656V5.33301Z" fill="#3C6C70"/>
<path d="M2.66656 2.66699H0V5.33355H2.66656V2.66699Z" fill="#37826E"/>
<path d="M2.66656 0H0V2.66656H2.66656V0Z" fill="#3C6C70"/>
</g>
<defs>
<clipPath id="clip0">
<rect width="43" height="32" fill="white"/>
</clipPath>
</defs>
</svg>
