<svg width="43" height="32" viewBox="0 0 43 32" fill="none" xmlns="http://www.w3.org/2000/svg">
<path d="M42.0002 20.9023H39.3633V23.6037H42.0002V20.9023Z" fill="#3D5168"/>
<path d="M42.0002 18.2012H39.3633V20.9025H42.0002V18.2012Z" fill="#3D5168"/>
<path d="M42.0002 15.5H39.3633V18.2014H42.0002V15.5Z" fill="#3D5168"/>
<path d="M42.0002 12.7988H39.3633V15.5002H42.0002V12.7988Z" fill="#3D5168"/>
<path d="M42.0002 10.1045H39.3633V12.7991H42.0002V10.1045Z" fill="#3D5168"/>
<path d="M42.0002 7.40234H39.3633V10.1037H42.0002V7.40234Z" fill="#3D5168"/>
<path d="M42.0002 4.70117H39.3633V7.40253H42.0002V4.70117Z" fill="#3D5168"/>
<path d="M39.3628 23.6035H36.7324V26.2981H39.3628V23.6035Z" fill="#3D5168"/>
<path d="M39.3628 20.9023H36.7324V23.6037H39.3628V20.9023Z" fill="#2E465B"/>
<path d="M39.3628 18.2012H36.7324V20.9025H39.3628V18.2012Z" fill="#1A2C3A"/>
<path d="M39.3628 15.5H36.7324V18.2014H39.3628V15.5Z" fill="#1A2C3A"/>
<path d="M39.3628 12.7988H36.7324V15.5002H39.3628V12.7988Z" fill="#1A2C3A"/>
<path d="M39.3628 10.1045H36.7324V12.7991H39.3628V10.1045Z" fill="#1D3849"/>
<path d="M39.3628 7.40234H36.7324V10.1037H39.3628V7.40234Z" fill="#1A2C3A"/>
<path d="M39.3628 4.70117H36.7324V7.40253H39.3628V4.70117Z" fill="#374E63"/>
<path d="M36.7327 26.2988H34.0957V29.0002H36.7327V26.2988Z" fill="#3D5168"/>
<path d="M36.7327 23.6035H34.0957V26.2981H36.7327V23.6035Z" fill="#2E465B"/>
<path d="M36.7327 20.9023H34.0957V23.6037H36.7327V20.9023Z" fill="#1A2C3A"/>
<path d="M36.7327 18.2012H34.0957V20.9025H36.7327V18.2012Z" fill="#405871"/>
<path d="M36.7327 15.5H34.0957V18.2014H36.7327V15.5Z" fill="#405871"/>
<path d="M36.7327 12.7988H34.0957V15.5002H36.7327V12.7988Z" fill="#3F5E7A"/>
<path d="M36.7327 10.1045H34.0957V12.7991H36.7327V10.1045Z" fill="#3F5E7A"/>
<path d="M36.7327 7.40234H34.0957V10.1037H36.7327V7.40234Z" fill="#3F5E7A"/>
<path d="M36.7327 4.70117H34.0957V7.40253H36.7327V4.70117Z" fill="#1A2C3A"/>
<path d="M36.7327 2H34.0957V4.70135H36.7327V2Z" fill="#374E63"/>
<path d="M34.096 26.2988H31.459V29.0002H34.096V26.2988Z" fill="#2E465B"/>
<path d="M34.096 23.6035H31.459V26.2981H34.096V23.6035Z" fill="#1A2C3A"/>
<path d="M34.096 20.9023H31.459V23.6037H34.096V20.9023Z" fill="#405871"/>
<path d="M34.096 18.2012H31.459V20.9025H34.096V18.2012Z" fill="#3F5E7A"/>
<path d="M34.096 15.5H31.459V18.2014H34.096V15.5Z" fill="#456482"/>
<path d="M34.096 12.7988H31.459V15.5002H34.096V12.7988Z" fill="#456482"/>
<path d="M34.096 10.1045H31.459V12.7991H34.096V10.1045Z" fill="#456482"/>
<path d="M34.096 7.40234H31.459V10.1037H34.096V7.40234Z" fill="#456482"/>
<path d="M34.096 4.70117H31.459V7.40253H34.096V4.70117Z" fill="#3F5E7A"/>
<path d="M34.096 2H31.459V4.70135H34.096V2Z" fill="#1A2C3A"/>
<path d="M31.4583 26.2988H28.8213V29.0002H31.4583V26.2988Z" fill="#2E465B"/>
<path d="M31.4583 23.6035H28.8213V26.2981H31.4583V23.6035Z" fill="#1A2C3A"/>
<path d="M31.4583 20.9023H28.8213V23.6037H31.4583V20.9023Z" fill="#405871"/>
<path d="M31.4583 18.2012H28.8213V20.9025H31.4583V18.2012Z" fill="#3F5E7A"/>
<path d="M31.4583 15.5H28.8213V18.2014H31.4583V15.5Z" fill="#456482"/>
<path d="M31.4583 12.7988H28.8213V15.5002H31.4583V12.7988Z" fill="#456482"/>
<path d="M31.4583 10.1045H28.8213V12.7991H31.4583V10.1045Z" fill="#456482"/>
<path d="M31.4583 7.40234H28.8213V10.1037H31.4583V7.40234Z" fill="#496C89"/>
<path d="M31.4583 4.70117H28.8213V7.40253H31.4583V4.70117Z" fill="#3F5E7A"/>
<path d="M31.4583 2H28.8213V4.70135H31.4583V2Z" fill="#243E51"/>
<path d="M28.8215 26.2988H26.1846V29.0002H28.8215V26.2988Z" fill="#2E465B"/>
<path d="M28.8215 23.6035H26.1846V26.2981H28.8215V23.6035Z" fill="#1A2C3A"/>
<path d="M28.8215 20.9023H26.1846V23.6037H28.8215V20.9023Z" fill="#405871"/>
<path d="M28.8215 18.2012H26.1846V20.9025H28.8215V18.2012Z" fill="#456482"/>
<path d="M28.8215 15.5H26.1846V18.2014H28.8215V15.5Z" fill="#456482"/>
<path d="M28.8215 12.7988H26.1846V15.5002H28.8215V12.7988Z" fill="#456482"/>
<path d="M28.8215 10.1045H26.1846V12.7991H28.8215V10.1045Z" fill="#496C89"/>
<path d="M28.8215 7.40234H26.1846V10.1037H28.8215V7.40234Z" fill="#49728E"/>
<path d="M28.8215 4.70117H26.1846V7.40253H28.8215V4.70117Z" fill="#496C89"/>
<path d="M28.8215 2H26.1846V4.70135H28.8215V2Z" fill="#243E51"/>
<path d="M26.1848 26.2988H23.5479V29.0002H26.1848V26.2988Z" fill="#2E465B"/>
<path d="M26.1848 23.6035H23.5479V26.2981H26.1848V23.6035Z" fill="#1A2C3A"/>
<path d="M26.1848 20.9023H23.5479V23.6037H26.1848V20.9023Z" fill="#405871"/>
<path d="M26.1848 18.2012H23.5479V20.9025H26.1848V18.2012Z" fill="#456482"/>
<path d="M26.1848 15.5H23.5479V18.2014H26.1848V15.5Z" fill="#456482"/>
<path d="M26.1848 12.7988H23.5479V15.5002H26.1848V12.7988Z" fill="#496C89"/>
<path d="M26.1848 10.1045H23.5479V12.7991H26.1848V10.1045Z" fill="#49728E"/>
<path d="M26.1848 7.40234H23.5479V10.1037H26.1848V7.40234Z" fill="#49728E"/>
<path d="M26.1848 4.70117H23.5479V7.40253H26.1848V4.70117Z" fill="#496C89"/>
<path d="M26.1848 2H23.5479V4.70135H26.1848V2Z" fill="#243E51"/>
<path d="M23.5481 26.2988H20.9111V29.0002H23.5481V26.2988Z" fill="#2E465B"/>
<path d="M23.5481 23.6035H20.9111V26.2981H23.5481V23.6035Z" fill="#1A2C3A"/>
<path d="M23.5481 20.9023H20.9111V23.6037H23.5481V20.9023Z" fill="#405871"/>
<path d="M23.5481 18.2012H20.9111V20.9025H23.5481V18.2012Z" fill="#3F5E7A"/>
<path d="M23.5481 15.5H20.9111V18.2014H23.5481V15.5Z" fill="#496C89"/>
<path d="M23.5481 12.7988H20.9111V15.5002H23.5481V12.7988Z" fill="#49728E"/>
<path d="M23.5481 10.1045H20.9111V12.7991H23.5481V10.1045Z" fill="#49728E"/>
<path d="M23.5481 7.40234H20.9111V10.1037H23.5481V7.40234Z" fill="#496C89"/>
<path d="M23.5481 4.70117H20.9111V7.40253H23.5481V4.70117Z" fill="#3F5E7A"/>
<path d="M23.5481 2H20.9111V4.70135H23.5481V2Z" fill="#1A2C3A"/>
<path d="M20.9104 26.2988H18.2734V29.0002H20.9104V26.2988Z" fill="#3D5168"/>
<path d="M20.9104 23.6035H18.2734V26.2981H20.9104V23.6035Z" fill="#2E465B"/>
<path d="M20.9104 20.9023H18.2734V23.6037H20.9104V20.9023Z" fill="#1A2C3A"/>
<path d="M20.9104 18.2012H18.2734V20.9025H20.9104V18.2012Z" fill="#3F5E7A"/>
<path d="M20.9104 15.5H18.2734V18.2014H20.9104V15.5Z" fill="#3F5E7A"/>
<path d="M20.9104 12.7988H18.2734V15.5002H20.9104V12.7988Z" fill="#496C89"/>
<path d="M20.9104 10.1045H18.2734V12.7991H20.9104V10.1045Z" fill="#496C89"/>
<path d="M20.9104 7.40234H18.2734V10.1037H20.9104V7.40234Z" fill="#3F5E7A"/>
<path d="M20.9104 4.70117H18.2734V7.40253H20.9104V4.70117Z" fill="#1A2C3A"/>
<path d="M20.9104 2H18.2734V4.70135H20.9104V2Z" fill="#374E63"/>
<path d="M18.2737 23.6035H15.6367V26.2981H18.2737V23.6035Z" fill="#3D5168"/>
<path d="M18.2737 20.9023H15.6367V23.6037H18.2737V20.9023Z" fill="#2E465B"/>
<path d="M18.2737 18.2012H15.6367V20.9025H18.2737V18.2012Z" fill="#1A2C3A"/>
<path d="M18.2737 15.5H15.6367V18.2014H18.2737V15.5Z" fill="#1D3849"/>
<path d="M18.2737 12.7988H15.6367V15.5002H18.2737V12.7988Z" fill="#243E51"/>
<path d="M18.2737 10.1045H15.6367V12.7991H18.2737V10.1045Z" fill="#243E51"/>
<path d="M18.2737 7.40234H15.6367V10.1037H18.2737V7.40234Z" fill="#1A2C3A"/>
<path d="M18.2737 4.70117H15.6367V7.40253H18.2737V4.70117Z" fill="#374E63"/>
<path d="M15.637 20.9023H13V23.6037H15.637V20.9023Z" fill="#3D5168"/>
<path d="M15.637 18.2012H13V20.9025H15.637V18.2012Z" fill="#3D5168"/>
<path d="M15.637 15.5H13V18.2014H15.637V15.5Z" fill="#3D5168"/>
<path d="M15.637 12.7988H13V15.5002H15.637V12.7988Z" fill="#3D5168"/>
<path d="M15.637 10.1045H13V12.7991H15.637V10.1045Z" fill="#3D5168"/>
<path d="M7.99967 5.33301H5.33301V7.99967H7.99967V5.33301Z" fill="#5A4A7C"/>
<path d="M7.99967 2.66699H5.33301V5.33366H7.99967V2.66699Z" fill="#66405A"/>
<path d="M7.99967 0H5.33301V2.66667H7.99967V0Z" fill="#5A4A7C"/>
<path d="M5.33366 5.33301H2.66699V7.99967H5.33366V5.33301Z" fill="#66405A"/>
<path d="M5.33366 2.66699H2.66699V5.33366H5.33366V2.66699Z" fill="#FF2C2C"/>
<path d="M5.33366 0H2.66699V2.66667H5.33366V0Z" fill="#66405A"/>
<path d="M2.66667 5.33301H0V7.99967H2.66667V5.33301Z" fill="#5A4A7C"/>
<path d="M2.66667 2.66699H0V5.33366H2.66667V2.66699Z" fill="#66405A"/>
<path d="M2.66667 0H0V2.66667H2.66667V0Z" fill="#5A4A7C"/>
</svg>
