<svg width="24" height="24" viewBox="0 0 24 24" fill="none" xmlns="http://www.w3.org/2000/svg">
<path d="M3 8H5V19H3V8Z" fill="black"/>
<path d="M5 6H12V8H5V6Z" fill="black"/>
<path d="M9 13H11V15H9V13Z" fill="black"/>
<path d="M5 8H7V10H5V8Z" fill="black"/>
<path d="M5 17H7V19H5V17Z" fill="black"/>
<path d="M14 17H16V19H14V17Z" fill="black"/>
<path d="M11 11H13V13H11V11Z" fill="black"/>
<path d="M13 9H15V11H13V9Z" fill="black"/>
<path d="M15 7H17V9H15V7Z" fill="black"/>
<path d="M17 5H19V7H17V5Z" fill="black"/>
<path d="M19 3H21V5H19V3Z" fill="black"/>
<path d="M17 3H19V5H17V3Z" fill="black"/>
<path d="M19 5H21V7H19V5Z" fill="black"/>
<path d="M19 7H21V9H19V7Z" fill="black"/>
<path d="M15 3H17V5H15V3Z" fill="black"/>
<path d="M5 19H16V21H5V19Z" fill="black"/>
<path d="M16 12H18V19H16V12Z" fill="black"/>
</svg>
