<svg width="680" height="680" viewBox="0 0 680 680" fill="none" xmlns="http://www.w3.org/2000/svg">
<g clip-path="url(#clip0)">
<g filter="url(#filter0_d)">
<path d="M651.56 434.14V439.86H645.85V451.29H640.13V457H634.42V474.14H622.99V479.86H611.56V491.29H605.85V497H600.13V502.71H594.42V508.43H582.99V514.14H571.56V519.86H565.85V525.57H560.13V531.29H554.42V537H548.7V542.71H542.99V548.43H537.28V554.14H531.56V559.86H525.85V565.57H514.42V559.86H508.7V548.43H502.99V531.29H497.28V519.86H491.56V531.29H485.85V542.71H480.13V548.43H474.42V554.14H468.7V559.86H462.99V565.57H457.28V571.29H451.56V577H445.85V582.71H440.13V588.43H434.42V594.14H428.7V599.86H422.99V605.57H417.28V611.29H411.56V617H405.85V622.71H400.13V634.14H394.42V639.86H400.13V645.57H411.56V639.86H417.28V634.14H422.99V628.43H428.7V622.71H434.42V617H440.13V611.29H445.85V605.57H451.56V599.86H457.28V594.14H462.99V588.43H468.7V582.71H474.42V594.14H480.13V599.86H485.85V605.57H491.56V611.29H497.28V617H502.99V622.71H508.7V628.43H514.42V622.71H520.13V617H525.85V611.29H531.56V605.57H537.28V594.14H542.99V588.43H548.7V582.71H554.42V577H560.13V571.29H565.85V565.57H571.56V559.86H577.28V554.14H582.99V548.43H588.7V542.71H600.13V548.43H594.42V559.86H588.7V571.29H582.99V582.71H577.28V588.43H571.56V599.86H565.85V639.86H571.56V645.57H582.99V628.43H588.7V617H594.42V605.57H600.13V599.86H605.85V594.14H611.56V588.43H617.28V582.71H622.99V577H628.7V571.29H634.42V554.14H640.13V531.29H645.85V514.14H651.56V479.86H657.28V434.14H651.56Z" fill="#D1FB84"/>
<path d="M645.85 411.29H651.56V394.14H645.85V411.29Z" fill="#D1FB84"/>
<path d="M645.85 125.57H651.56V102.71H645.85V125.57Z" fill="#D1FB84"/>
<path d="M640.13 588.43H645.85V571.29H640.13V588.43Z" fill="#D1FB84"/>
<path d="M640.13 422.71H645.85V411.29H640.13V422.71Z" fill="#D1FB84"/>
<path d="M645.85 377H640.13V394.14H645.85V377Z" fill="#D1FB84"/>
<path d="M640.13 131.29H634.42V137H640.13V171.29H645.85V125.57H640.13V131.29Z" fill="#D1FB84"/>
<path d="M640.13 102.71H645.85V91.29H640.13V102.71Z" fill="#D1FB84"/>
<path d="M640.13 617H634.42V622.71H640.13V617Z" fill="#D1FB84"/>
<path d="M640.13 588.43H634.42V594.14H640.13V588.43Z" fill="#D1FB84"/>
<path d="M640.13 359.86H634.42V377H640.13V359.86Z" fill="#D1FB84"/>
<path d="M634.42 182.71H640.13V171.29H634.42V182.71Z" fill="#D1FB84"/>
<path d="M640.13 85.57H634.42V91.29H640.13V85.57Z" fill="#D1FB84"/>
<path d="M634.42 622.71H628.7V628.43H634.42V622.71Z" fill="#D1FB84"/>
<path d="M634.42 594.14H628.7V599.86H634.42V594.14Z" fill="#D1FB84"/>
<path d="M628.7 411.29H634.42V388.43H628.7V411.29Z" fill="#D1FB84"/>
<path d="M634.42 79.86H628.7V85.57H634.42V79.86Z" fill="#D1FB84"/>
<path d="M628.7 628.43H622.99V634.14H628.7V628.43Z" fill="#D1FB84"/>
<path d="M628.7 599.86H622.99V605.57H628.7V599.86Z" fill="#D1FB84"/>
<path d="M628.7 411.29H622.99V417H628.7V411.29Z" fill="#D1FB84"/>
<path d="M628.7 365.57H622.99V388.43H628.7V365.57Z" fill="#D1FB84"/>
<path d="M622.99 182.71V188.43H634.42V182.71H622.99Z" fill="#D1FB84"/>
<path d="M622.99 634.14H617.28V639.86H622.99V634.14Z" fill="#D1FB84"/>
<path d="M622.99 605.57H617.28V611.29H622.99V605.57Z" fill="#D1FB84"/>
<path d="M622.99 348.43H617.28V365.57H622.99V348.43Z" fill="#D1FB84"/>
<path d="M622.99 188.43H617.28V194.14H622.99V188.43Z" fill="#D1FB84"/>
<path d="M628.7 79.86V74.14H617.28V79.86H628.7Z" fill="#D1FB84"/>
<path d="M617.28 611.29H611.56V617H617.28V611.29Z" fill="#D1FB84"/>
<path d="M617.28 337H611.56V348.43H617.28V337Z" fill="#D1FB84"/>
<path d="M617.28 74.14V68.43H605.85V74.14H617.28Z" fill="#D1FB84"/>
<path d="M611.56 617H605.85V622.71H611.56V617Z" fill="#D1FB84"/>
<path d="M611.56 325.57H605.85V337H611.56V325.57Z" fill="#D1FB84"/>
<path d="M582.99 194.14V199.86H617.28V194.14H582.99Z" fill="#D1FB84"/>
<path d="M600.13 634.14H605.85V622.71H600.13V634.14Z" fill="#D1FB84"/>
<path d="M605.85 302.71H600.13V325.57H605.85V302.71Z" fill="#D1FB84"/>
<path d="M605.85 74.14H600.13V79.86H605.85V74.14Z" fill="#D1FB84"/>
<path d="M600.13 634.14H594.42V639.86H600.13V634.14Z" fill="#D1FB84"/>
<path d="M600.13 68.43H594.42V74.14H600.13V68.43Z" fill="#D1FB84"/>
<path d="M594.42 62.71H588.7V68.43H594.42V62.71Z" fill="#D1FB84"/>
<path d="M588.7 57H582.99V62.71H588.7V57Z" fill="#D1FB84"/>
<path d="M565.85 188.43V194.14H582.99V188.43H565.85Z" fill="#D1FB84"/>
<path d="M582.99 51.29H577.28V57H582.99V51.29Z" fill="#D1FB84"/>
<path d="M577.28 268.43H571.56V274.14H577.28V268.43Z" fill="#D1FB84"/>
<path d="M571.56 257H565.85V268.43H571.56V257Z" fill="#D1FB84"/>
<path d="M577.28 51.29V45.57H565.85V51.29H577.28Z" fill="#D1FB84"/>
<path d="M565.85 251.29H560.13V257H565.85V251.29Z" fill="#D1FB84"/>
<path d="M554.42 182.71V188.43H565.85V182.71H554.42Z" fill="#D1FB84"/>
<path d="M560.13 514.14H554.42V525.57H560.13V514.14Z" fill="#D1FB84"/>
<path d="M565.85 45.57V39.86H554.42V45.57H565.85Z" fill="#D1FB84"/>
<path d="M554.42 239.86H548.7V245.57H554.42V239.86Z" fill="#D1FB84"/>
<path d="M554.42 177H548.7V182.71H554.42V177Z" fill="#D1FB84"/>
<path d="M554.42 39.86V34.14H537.28V39.86H554.42Z" fill="#D1FB84"/>
<path d="M542.99 639.86H537.28V645.57H542.99V639.86Z" fill="#D1FB84"/>
<path d="M542.99 622.71H537.28V628.43H542.99V622.71Z" fill="#D1FB84"/>
<path d="M542.99 514.14H537.28V542.71H542.99V514.14Z" fill="#D1FB84"/>
<path d="M542.99 291.29H537.28V319.86H542.99V291.29Z" fill="#D1FB84"/>
<path d="M542.99 279.86H537.28V285.57H542.99V279.86Z" fill="#D1FB84"/>
<path d="M537.28 182.71V188.43H548.7V182.71H537.28Z" fill="#D1FB84"/>
<path d="M531.56 639.86H537.28V628.43H531.56V639.86Z" fill="#D1FB84"/>
<path d="M537.28 319.86H531.56V331.29H537.28V319.86Z" fill="#D1FB84"/>
<path d="M537.28 45.57V39.86H525.85V45.57H537.28Z" fill="#D1FB84"/>
<path d="M531.56 639.86H525.85V645.57H531.56V639.86Z" fill="#D1FB84"/>
<path d="M531.56 331.29H525.85V342.71H531.56V331.29Z" fill="#D1FB84"/>
<path d="M525.85 188.43V194.14H537.28V188.43H525.85Z" fill="#D1FB84"/>
<path d="M525.85 645.57H520.13V651.29H525.85V645.57Z" fill="#D1FB84"/>
<path d="M525.85 342.71H520.13V354.14H525.85V342.71Z" fill="#D1FB84"/>
<path d="M525.85 45.57H520.13V51.29H525.85V45.57Z" fill="#D1FB84"/>
<path d="M520.13 354.14H514.42V365.57H520.13V354.14Z" fill="#D1FB84"/>
<path d="M514.42 194.14V199.86H525.85V194.14H514.42Z" fill="#D1FB84"/>
<path d="M520.13 51.29H514.42V62.71H520.13V51.29Z" fill="#D1FB84"/>
<path d="M514.42 365.57H508.7V382.71H514.42V365.57Z" fill="#D1FB84"/>
<path d="M514.42 205.57H508.7V228.43H514.42V205.57Z" fill="#D1FB84"/>
<path d="M514.42 188.43H508.7V194.14H514.42V188.43Z" fill="#D1FB84"/>
<path d="M514.42 62.71H508.7V68.43H514.42V62.71Z" fill="#D1FB84"/>
<path d="M502.99 422.71H508.7V428.43H514.42V434.14H508.7V439.86H502.99V451.29H508.7V445.57H514.42V439.86H520.13V422.71H514.42V417H508.7V411.29H502.99V422.71Z" fill="#D1FB84"/>
<path d="M508.7 228.43H502.99V234.14H508.7V228.43Z" fill="#D1FB84"/>
<path d="M508.7 177H502.99V188.43H508.7V177Z" fill="#D1FB84"/>
<path d="M497.28 371.29H502.99V348.43H497.28V371.29Z" fill="#D1FB84"/>
<path d="M502.99 337H497.28V342.71H502.99V337Z" fill="#D1FB84"/>
<path d="M502.99 234.14H491.56V239.86H502.99V234.14Z" fill="#D1FB84"/>
<path d="M502.99 171.29H497.28V177H502.99V171.29Z" fill="#D1FB84"/>
<path d="M508.7 62.71V57H497.28V62.71H508.7Z" fill="#D1FB84"/>
<path d="M497.28 411.29H491.56V417H457.28V411.29H451.56V457H457.28V462.71H491.56V457H497.28V411.29Z" fill="#D1FB84"/>
<path d="M497.28 394.14H491.56V399.86H497.28V394.14Z" fill="#D1FB84"/>
<path d="M497.28 165.57H491.56V171.29H497.28V165.57Z" fill="#D1FB84"/>
<path d="M491.56 399.86H485.85V405.57H491.56V399.86Z" fill="#D1FB84"/>
<path d="M497.28 57V51.29H485.85V57H497.28Z" fill="#D1FB84"/>
<path d="M485.85 331.29H480.13V365.57H485.85V331.29Z" fill="#D1FB84"/>
<path d="M480.13 239.86V245.57H491.56V239.86H480.13Z" fill="#D1FB84"/>
<path d="M485.85 51.29V45.57H474.42V51.29H485.85Z" fill="#D1FB84"/>
<path d="M474.42 514.14H468.7V548.43H474.42V514.14Z" fill="#D1FB84"/>
<path d="M582.99 508.43V502.71H594.42V497H600.13V491.29H605.85V485.57H588.7V491.29H565.85V497H474.42V491.29H451.56V485.57H434.42V479.86H422.99V474.14H417.28V491.29H422.99V497H440.13V502.71H462.99V508.43H582.99Z" fill="#D1FB84"/>
<path d="M468.7 245.57V251.29H480.13V245.57H468.7Z" fill="#D1FB84"/>
<path d="M468.7 639.86H462.99V645.57H468.7V639.86Z" fill="#D1FB84"/>
<path d="M474.42 45.57V39.86H462.99V45.57H474.42Z" fill="#D1FB84"/>
<path d="M462.99 645.57H457.28V651.29H462.99V645.57Z" fill="#D1FB84"/>
<path d="M462.99 399.86H457.28V405.57H462.99V399.86Z" fill="#D1FB84"/>
<path d="M451.56 251.29V257H468.7V251.29H451.56Z" fill="#D1FB84"/>
<path d="M474.42 205.57V199.86H451.56V228.43H474.42V222.71H457.28V217H474.42V211.29H457.28V205.57H474.42Z" fill="#D1FB84"/>
<path d="M445.85 142.71V148.43H462.99V142.71H445.85Z" fill="#D1FB84"/>
<path d="M457.28 622.71H451.56V628.43H457.28V622.71Z" fill="#D1FB84"/>
<path d="M457.28 565.57V559.86H462.99V508.43H445.85V571.29H451.56V565.57H457.28Z" fill="#D1FB84"/>
<path d="M451.56 628.43H445.85V634.14H451.56V628.43Z" fill="#D1FB84"/>
<path d="M462.99 39.86V34.14H445.85V39.86H462.99Z" fill="#D1FB84"/>
<path d="M434.42 257V262.71H451.56V257H434.42Z" fill="#D1FB84"/>
<path d="M428.7 182.71V188.43H451.56V171.29H434.42V165.57H451.56V159.86H428.7V177H445.85V182.71H428.7Z" fill="#D1FB84"/>
<path d="M440.13 222.71V228.43H445.85V199.86H440.13V217H434.42V222.71H440.13Z" fill="#D1FB84"/>
<path d="M434.42 577H428.7V582.71H434.42V577Z" fill="#D1FB84"/>
<path d="M434.42 542.71H428.7V548.43H434.42V542.71Z" fill="#D1FB84"/>
<path d="M434.42 514.14H428.7V519.86H434.42V514.14Z" fill="#D1FB84"/>
<path d="M434.42 474.14V479.86L451.56 479.86V485.57L474.42 485.57V491.29H565.85V485.57L588.7 485.57V479.86L611.56 479.86V474.14L622.99 474.14V468.43H628.7V451.29H622.99V445.57H611.56V439.86H594.42V434.14H571.56V428.43H531.56V394.14H537.28V377H542.99V365.57H548.7V354.14H554.42V348.43H560.13V354.14H565.85V365.57H571.56V382.71H577.28V377H582.99V365.57H588.7V371.29H594.42V394.14H600.13V422.71H605.85V417H611.56V405.57H617.28V377H611.56V359.86H605.85V348.43H600.13V337H594.42V319.86H588.7V325.57H582.99V331.29H577.28V314.14H571.56V302.71H565.85V291.29H560.13V274.14H554.42V262.71H548.7V331.29H542.99V348.43H537.28V354.14H531.56V365.57H525.85V377H520.13V388.43H514.42V399.86L497.28 399.86V405.57H508.7V411.29H514.42V417L520.13 417V422.71H525.85V439.86L520.13 439.86V445.57L514.42 445.57V451.29H508.7V457L497.28 457V462.71H491.56V468.43H457.28V462.71H451.56V457L445.85 457V405.57H451.56V399.86L457.28 399.86V394.14L491.56 394.14V365.57L485.85 365.57V382.71H480.13V388.43H474.42V382.71H468.7V377H462.99V354.14H468.7V319.86H462.99V331.29H457.28V342.71H451.56V348.43H445.85V354.14H440.13V365.57H434.42V377H428.7V382.71H422.99V394.14H417.28V399.86H411.56V411.29H405.85V422.71H400.13V428.43H394.42V399.86H388.7V422.71H382.99V434.14H377.28V514.14H371.56V531.29H365.85V537H377.28V531.29H382.99V525.57H388.7V514.14H394.42V479.86H400.13V462.71H405.85V451.29H411.56V439.86H417.28V428.43H422.99V417H428.7V411.29H434.42V405.57H440.13V439.86H434.42V445.57H422.99V451.29H417.28V468.43H422.99V474.14L434.42 474.14Z" fill="#D1FB84"/>
<path d="M434.42 211.29H428.7V217H434.42V211.29Z" fill="#D1FB84"/>
<path d="M428.7 582.71H422.99V588.43H428.7V582.71Z" fill="#D1FB84"/>
<path d="M405.85 262.71V268.43H434.42V262.71H405.85Z" fill="#D1FB84"/>
<path d="M422.99 588.43H417.28V594.14H422.99V588.43Z" fill="#D1FB84"/>
<path d="M417.28 554.14H428.7V548.43H422.99V537H417.28V554.14Z" fill="#D1FB84"/>
<path d="M422.99 502.71H417.28V508.43H422.99V502.71Z" fill="#D1FB84"/>
<path d="M417.28 228.43H422.99V211.29H428.7V205.57H422.99V199.86H417.28V228.43Z" fill="#D1FB84"/>
<path d="M422.99 159.86H417.28V188.43H422.99V159.86Z" fill="#D1FB84"/>
<path d="M417.28 594.14H411.56V599.86H417.28V594.14Z" fill="#D1FB84"/>
<path d="M417.28 531.29H411.56V537L417.28 537V531.29Z" fill="#D1FB84"/>
<path d="M417.28 508.43H411.56V514.14H417.28V508.43Z" fill="#D1FB84"/>
<path d="M417.28 131.29H411.56V137H382.99V131.29H371.56V137H348.7V142.71H422.99V137H417.28V131.29Z" fill="#D1FB84"/>
<path d="M411.56 599.86H405.85V605.57H411.56V599.86Z" fill="#D1FB84"/>
<path d="M411.56 537L405.85 537V542.71H411.56V537Z" fill="#D1FB84"/>
<path d="M411.56 514.14H405.85V519.86H411.56V514.14Z" fill="#D1FB84"/>
<path d="M405.85 228.43H411.56V199.86H405.85V228.43Z" fill="#D1FB84"/>
<path d="M445.85 34.14V28.43H400.13V34.14H445.85Z" fill="#D1FB84"/>
<path d="M405.85 605.57H400.13V611.29H405.85V605.57Z" fill="#D1FB84"/>
<path d="M405.85 542.71H400.13V548.43H405.85V542.71Z" fill="#D1FB84"/>
<path d="M405.85 519.86H400.13V531.29H405.85V519.86Z" fill="#D1FB84"/>
<path d="M405.85 268.43H400.13V274.14H405.85V268.43Z" fill="#D1FB84"/>
<path d="M400.13 611.29H394.42V617H400.13V611.29Z" fill="#D1FB84"/>
<path d="M394.42 285.57H400.13V274.14H394.42V285.57Z" fill="#D1FB84"/>
<path d="M400.13 39.86V34.14H388.7V39.86H400.13Z" fill="#D1FB84"/>
<path d="M394.42 617H388.7V628.43H394.42V617Z" fill="#D1FB84"/>
<path d="M394.42 159.86H388.7V188.43H394.42V177H405.85V188.43H411.56V159.86H405.85V171.29H394.42V159.86Z" fill="#D1FB84"/>
<path d="M388.7 628.43H382.99V634.14H388.7V628.43Z" fill="#D1FB84"/>
<path d="M382.99 285.57V291.29H394.42V285.57L382.99 285.57Z" fill="#D1FB84"/>
<path d="M377.28 199.86V228.43H382.99V217H400.13V211.29H382.99V205.57H400.13V199.86H377.28Z" fill="#D1FB84"/>
<path d="M411.56 131.29V125.57H382.99V131.29H411.56Z" fill="#D1FB84"/>
<path d="M388.7 45.57V39.86H377.28V45.57H388.7Z" fill="#D1FB84"/>
<path d="M377.28 417H382.99V405.57H377.28V417Z" fill="#D1FB84"/>
<path d="M382.99 291.29H377.28V297H382.99V291.29Z" fill="#D1FB84"/>
<path d="M377.28 417H371.56V422.71H377.28V417Z" fill="#D1FB84"/>
<path d="M377.28 297H371.56V302.71H377.28V297Z" fill="#D1FB84"/>
<path d="M377.28 262.71H371.56V279.86H377.28V262.71Z" fill="#D1FB84"/>
<path d="M354.42 159.86V165.57H365.85V188.43H371.56V165.57H382.99V159.86H354.42Z" fill="#D1FB84"/>
<path d="M377.28 45.57H371.56V51.29H377.28V45.57Z" fill="#D1FB84"/>
<path d="M365.85 445.57H371.56V422.71H365.85V445.57Z" fill="#D1FB84"/>
<path d="M371.56 302.71H365.85V308.43H371.56V302.71Z" fill="#D1FB84"/>
<path d="M371.56 279.86L365.85 279.86V291.29H371.56V279.86Z" fill="#D1FB84"/>
<path d="M342.99 257V262.71H371.56V257H342.99Z" fill="#D1FB84"/>
<path d="M371.56 51.29H365.85V57H371.56V51.29Z" fill="#D1FB84"/>
<path d="M365.85 497H360.13V502.71H365.85V497Z" fill="#D1FB84"/>
<path d="M360.13 474.14H365.85V445.57H360.13V474.14Z" fill="#D1FB84"/>
<path d="M365.85 291.29H360.13V297H365.85V291.29Z" fill="#D1FB84"/>
<path d="M365.85 45.57H360.13V51.29H365.85V45.57Z" fill="#D1FB84"/>
<path d="M354.42 382.71H360.13V377H382.99V359.86H377.28V354.14H371.56V348.43H348.7V354.14H354.42V382.71Z" fill="#D1FB84"/>
<path d="M360.13 297H354.42V314.14H365.85V308.43H360.13V297Z" fill="#D1FB84"/>
<path d="M360.13 39.86H354.42V45.57H360.13V39.86Z" fill="#D1FB84"/>
<path d="M354.42 497H360.13V491.29H337.28V485.57H331.56V468.43H325.85V445.57H320.13V434.14H314.42V422.71H337.28V417H343V394.14H337.29V411.29H308.7V405.57H303V399.86H297.29V394.14H291.57V388.43H308.7V394.14H337.28V388.43H354.42L354.42 382.71H348.7V354.14H337.28V359.86H331.56V365.57H325.85V371.29H320.13V377H314.42V382.71H303V377H297.29V371.29H291.57V382.71H285.86V388.43H280.14V394.14H268.7V399.86H251.56V394.14H245.85V388.43H240.13V382.71H234.42V359.86H240.13V348.43H245.85V342.71H257.28V337H280.13V342.71H291.56V337H297.28V331.29H303V325.57H314.43V314.14H308.7V308.43H303V302.71H280.13V297H257.28V291.29H240.13V302.71H245.85V308.43H240.13V302.71H228.7V314.14H234.42V319.86H228.7V314.14H217.28V319.86H211.56V331.29H217.28V337H223V382.71H228.71V399.86H223V411.29H217.29V417H211.57V428.43H205.86V468.43H211.57V474.14H205.86V479.86H200.14V485.57H194.43V491.29H211.57V497H205.86V502.71H200.14V508.43H205.86V514.14H217.29V508.43H223V519.86H234.43V514.14H240.14V502.71H268.7V497H274.42V491.29H251.56V497H234.42V491.29H228.7V485.57H223V479.86H217.29V468.43H223V462.71H217.29V457H223V462.71H228.71V439.86H234.43V462.71H240.14V468.43H245.86V457H240.14V422.71H245.86V457H251.57V468.43H257.29V474.14H263V479.86H268.71V485.57H291.57V491.29H280.13V497H285.85V502.71H291.56V519.86H285.85V525.57H280.13V519.86H285.85V502.71H268.7V508.43H245.85V514.14H240.13V519.86H263V594.14H280.14V531.29H291.57V525.57H308.7V531.29H320.13V525.57H314.42V519.86H320.13V514.14H303V491.29H308.71V485.57H325.86V491.29H331.57V502.71H325.86V508.43H320.14V514.14H331.57V508.43H337.29V502.71H348.7V508.43H360.13V502.71H354.42V497ZM274.42 588.43H268.7V519.86H274.42V588.43ZM268.71 405.57V411.29H297.29V417H308.7V422.71H297.28V417H268.7V411.29H257.28V405.57H268.71Z" fill="#D1FB84"/>
<path d="M354.42 34.14H348.7V39.86H354.42V34.14Z" fill="#D1FB84"/>
<path d="M331.56 251.29V257H342.99V251.29H331.56Z" fill="#D1FB84"/>
<path d="M325.85 222.71V228.43H348.7V211.29H331.56V205.57H348.7V199.86H325.85V217H342.99V222.71H325.85Z" fill="#D1FB84"/>
<path d="M302.99 142.71V148.43H297.28V154.14H308.7V148.43H348.7V142.71H302.99Z" fill="#D1FB84"/>
<path d="M348.7 34.14V28.43H337.28V34.14H348.7Z" fill="#D1FB84"/>
<path d="M325.85 594.14H342.99V525.57H337.28V588.43H331.56V525.57H325.85V594.14Z" fill="#D1FB84"/>
<path d="M320.13 245.57V251.29H331.56V245.57H320.13Z" fill="#D1FB84"/>
<path d="M325.85 519.86H320.13V525.57H325.85V519.86Z" fill="#D1FB84"/>
<path d="M314.42 365.57V359.86H308.7V337H314.42V331.29H302.99V337H297.28L297.28 342.71H291.56V365.57H297.28V371.29H302.99V377H314.42L314.42 371.29H320.13V365.57H314.42Z" fill="#D1FB84"/>
<path d="M325.85 331.29V337H331.56V354.14H337.28L337.28 331.29H331.56V325.57H314.42V331.29H325.85Z" fill="#D1FB84"/>
<path d="M302.99 239.86V245.57H320.13V239.86H302.99Z" fill="#D1FB84"/>
<path d="M320.13 199.86H314.42V228.43H320.13V199.86Z" fill="#D1FB84"/>
<path d="M297.28 537H291.56V605.57H302.99V531.29H297.28V537Z" fill="#D1FB84"/>
<path d="M291.56 234.14V239.86H302.99V234.14H291.56Z" fill="#D1FB84"/>
<path d="M337.28 28.43V22.71H291.56V28.43H337.28Z" fill="#D1FB84"/>
<path d="M297.28 154.14H291.56V159.86H297.28V154.14Z" fill="#D1FB84"/>
<path d="M280.13 228.43V234.14H291.56V228.43H280.13Z" fill="#D1FB84"/>
<path d="M291.56 159.86H285.85V165.57H291.56V159.86Z" fill="#D1FB84"/>
<path d="M291.56 34.14V28.43H280.13V34.14H291.56Z" fill="#D1FB84"/>
<path d="M285.85 348.43H280.13V342.71H257.28V348.43H268.7V354.14H274.42V377H268.7V382.71H257.28V377H251.56V354.14H257.28V348.43H245.85V359.86H240.13V382.71H245.85V388.43H251.56V394.14H268.7V388.43H280.13V382.71H285.85V348.43Z" fill="#D1FB84"/>
<path d="M280.13 222.71H274.42V228.43H280.13V222.71Z" fill="#D1FB84"/>
<path d="M280.13 182.71H274.42V194.14H280.13V182.71Z" fill="#D1FB84"/>
<path d="M274.42 165.57V171.29H285.85L285.85 165.57H274.42Z" fill="#D1FB84"/>
<path d="M280.13 34.14H274.42V39.86H280.13V34.14Z" fill="#D1FB84"/>
<path d="M274.42 194.14H268.7V222.71H274.42V194.14Z" fill="#D1FB84"/>
<path d="M274.42 39.86H268.7V45.57H274.42V39.86Z" fill="#D1FB84"/>
<path d="M262.99 171.29V177H274.42V171.29H262.99Z" fill="#D1FB84"/>
<path d="M268.7 45.57H262.99V51.29H268.7V45.57Z" fill="#D1FB84"/>
<path d="M262.99 479.86H257.28V485.57H262.99V479.86Z" fill="#D1FB84"/>
<path d="M257.28 291.29H262.99V228.43H257.28V291.29Z" fill="#D1FB84"/>
<path d="M262.99 177H257.28V182.71H262.99V177Z" fill="#D1FB84"/>
<path d="M262.99 51.29H257.28V57H262.99V51.29Z" fill="#D1FB84"/>
<path d="M257.28 474.14H251.56V479.86H257.28V474.14Z" fill="#D1FB84"/>
<path d="M251.56 479.86H245.85V485.57H251.56V479.86Z" fill="#D1FB84"/>
<path d="M251.56 468.43H245.85V474.14H251.56V468.43Z" fill="#D1FB84"/>
<path d="M257.28 228.43V222.71H240.13V228.43H257.28Z" fill="#D1FB84"/>
<path d="M245.85 182.71V188.43H257.28V182.71H245.85Z" fill="#D1FB84"/>
<path d="M257.28 51.29V45.57H245.85V51.29H257.28Z" fill="#D1FB84"/>
<path d="M245.85 485.57H240.13V491.29H245.85V485.57Z" fill="#D1FB84"/>
<path d="M245.85 474.14H240.13V479.86H245.85V474.14Z" fill="#D1FB84"/>
<path d="M245.85 39.86H240.13V45.57H245.85V39.86Z" fill="#D1FB84"/>
<path d="M240.13 479.86H234.42V485.57H240.13V479.86Z" fill="#D1FB84"/>
<path d="M240.13 468.43H234.42V474.14H240.13V468.43Z" fill="#D1FB84"/>
<path d="M228.7 188.43V194.14H245.85V188.43H228.7Z" fill="#D1FB84"/>
<path d="M234.42 474.14H228.7V479.86H234.42V474.14Z" fill="#D1FB84"/>
<path d="M234.42 462.71H228.7V468.43H234.42V462.71Z" fill="#D1FB84"/>
<path d="M222.99 525.57V605.57H234.42V525.57H222.99Z" fill="#D1FB84"/>
<path d="M228.7 468.43H222.99V474.14H228.7V468.43Z" fill="#D1FB84"/>
<path d="M228.7 182.71H222.99V188.43H228.7V182.71Z" fill="#D1FB84"/>
<path d="M222.99 308.43V302.71H228.7V297H234.42V291.29H240.13V228.43H234.42V222.71H108.7V228.43H102.99V297H108.7V291.29H114.42V285.57H120.13V279.86H125.85V285.57H131.56V279.86H137.28V274.14H142.99V268.43H148.7V262.71H160.13V257H171.56V262.71H182.99V268.43H171.56V325.57H177.28V308.43H182.99V279.86H188.7V274.14H194.42V279.86H200.13V297H205.85V314.14L217.28 314.14V308.43H222.99Z" fill="#D1FB84"/>
<path d="M222.99 177H217.28V182.71H222.99V177Z" fill="#D1FB84"/>
<path d="M217.28 342.71H211.56V348.43H217.28V342.71Z" fill="#D1FB84"/>
<path d="M217.28 171.29H211.56V177H217.28V171.29Z" fill="#D1FB84"/>
<path d="M211.56 365.57H205.85V371.29H211.56V365.57Z" fill="#D1FB84"/>
<path d="M211.56 337H205.85V342.71H211.56V337Z" fill="#D1FB84"/>
<path d="M200.13 177V182.71H211.56V177H200.13Z" fill="#D1FB84"/>
<path d="M194.42 497V491.29H188.7V485.57H194.42V479.86H200.13V474.14H205.85V468.43H200.13V428.43H205.85V417H211.56V411.29H182.99V417H177.28V422.71H171.56V497H177.28V502.71H200.13V497H194.42Z" fill="#D1FB84"/>
<path d="M200.13 45.57V51.29H188.7V57H177.28V62.71H165.85V68.43H160.13V74.14H154.42V79.86H148.7V74.14H143V68.43H131.56V62.71H120.13V57H80.1302V62.71H68.7002V68.43H57.2802V74.14H51.5602V79.86H45.8502V85.57H40.1302V125.57H45.8502V131.29H57.2802V137H108.7V131.29H131.56V125.57H143V119.86H154.43V114.14H165.86V108.43H177.29V102.71H183V108.43H177.29V114.14H165.85V119.86H154.42V125.57H143V131.29H131.56V137H108.7V142.71H68.7002V159.86H74.4202V165.57H103V159.86H108.7V165.57H114.42V171.29H120.13V177H125.85V182.71H131.56V188.43H143V194.14H171.57V188.43H177.29V182.71H188.7V177H200.13L200.13 171.29H211.56L211.56 165.57H217.28L217.28 171.29H223V177H228.71V182.71H245.86V177H257.29V171.29H263V165.57H274.43V159.86H285.86V154.14H291.57V148.43H297.29V142.71H303V137H291.56V131.29H285.85V119.86H291.56V131.29H303V137H348.7V131.29H371.56V125.57H383V119.86H400.14V108.43H394.43V102.71H388.7V91.29H394.42V102.71H400.13V108.43H405.85V119.86H411.56V125.57H417.28V131.29H423V137H428.71V142.71H445.86V137H434.42V131.29H445.85V137H463V142.71H514.43V137H531.57V131.29H543V125.57H548.71V131.29H543V137H531.56V142.71H514.42V148.43H463V154.14H480.14V159.86H485.86V165.57H491.57V159.86H497.29V165.57H503V171.29H508.71V177H514.43V188.43H525.86V182.71H537.29V177H548.7V171.29H554.42V177H565.85V182.71H583V188.43H617.29V182.71H623V177H628.71V171.29H634.43V137H623V142.71H600.13V137H577.28V131.29H565.85V125.57H560.13V119.86H548.7V114.14H543V108.43H548.71V114.14H560.14V119.86H565.86V125.57H577.29V131.29H600.14V137H623V131.29H634.43V125.57H640.14V102.71H634.43V91.29H628.7V85.57H617.28V79.86H605.85V85.57H600.13V79.86H594.42V74.14H588.7V68.43H583V62.71H577.29V57H565.85V51.29H554.42V45.57H537.28V51.29H531.56V57H525.85V62.71H520.13V68.43H514.42V74.14H508.7V68.43H497.28V62.71H485.85V57H474.42V51.29H463V45.57H445.85V39.86H400.13V45.57H388.7V51.29H377.28V57H371.56V62.71H365.85V57H360.13V51.29H354.42V45.57H348.7V39.86H337.28V34.14H291.56V39.86H280.13L280.13 45.57H274.42L274.42 51.29H268.7L268.7 57H263V62.71H257.29V57H245.85L245.85 51.29H240.13L240.13 45.57H205.85V39.86H240.13L240.13 34.14H200.13V39.86H188.7V45.57H200.13ZM628.7 159.86H623V165.57H617.29V171.29H611.57V177H588.7V171.29H583V165.57H588.71V171.29H611.57V165.57H617.29V159.86H623V154.14H628.71L628.7 159.86ZM377.28 97H371.56V91.29H377.28V97ZM108.7 114.14V119.86H80.1302V114.14H108.7V108.43H125.85V102.71H131.56V108.43H125.85V114.14H108.7ZM51.5602 97H57.2802V85.57H63.0002V79.86H74.4202V74.14H85.8502V79.86H74.4202V85.57H63.0002V97H57.2802V119.86H51.5602V97ZM251.56 102.71V108.43H240.13V114.14H223V108.43H240.14V102.71H251.57V97H257.29V91.29H263V97H257.29V102.71H251.56ZM280.13 79.86V85.57H274.42V79.86H280.13ZM63.0002 114.14H68.7002V119.86H63.0002V114.14ZM80.1302 85.57H85.8502V91.29H80.1302V97H74.4202V91.29H80.1302V85.57ZM131.56 91.29H137.28V97H131.56V91.29ZM331.56 119.86V114.14H325.85V108.43H331.56V114.14H343V108.43H360.14V102.71H365.86V108.43H360.14V114.14H343V119.86H331.56ZM491.56 79.86V85.57H480.13V79.86H457.28V74.14H451.56V68.43H457.28V74.14H480.13V79.86H491.56ZM577.28 108.43V102.71H571.56V97H565.85V91.29H571.56V97H577.28V102.71H583V108.43H600.14V114.14H583V108.43H577.28ZM445.85 114.14V108.43H440.13V102.71H445.85V108.43H457.28V114.14H497.28V108.43H503V114.14H497.29V119.86H457.29V114.14H445.85ZM434.42 102.71H428.7V97H434.42V102.71ZM611.56 108.43H617.28V114.14H611.56V108.43ZM508.7 97H503V91.29H508.71L508.7 97ZM125.85 154.14H131.56V159.86H125.85V154.14ZM160.13 165.57V159.86H143V154.14H160.14V159.86H183V165.57H160.13ZM280.13 114.14V119.86H268.7V125.57H257.28V131.29H234.42V137H205.85V131.29H183V125.57H171.56V119.86H183V125.57H205.86V131.29H234.43V125.57H257.29V119.86H268.7V114.14H280.13V108.43H291.56V102.71H303V97H308.71V91.29H320.14V85.57H331.57V91.29H320.13V97H308.7V102.71H303V108.43H291.56V114.14H280.13Z" fill="#D1FB84"/>
<path d="M194.42 365.57H200.13V354.14H194.42V359.86H188.7V377H194.42V365.57Z" fill="#D1FB84"/>
<path d="M188.7 182.71L188.7 188.43H200.13V182.71H188.7Z" fill="#D1FB84"/>
<path d="M188.7 51.29V45.57H177.28V51.29H188.7Z" fill="#D1FB84"/>
<path d="M177.28 188.43V194.14H188.7V188.43H177.28Z" fill="#D1FB84"/>
<path d="M177.28 194.14H171.56V199.86H177.28V194.14Z" fill="#D1FB84"/>
<path d="M177.28 57L177.28 51.29H165.85V57H177.28Z" fill="#D1FB84"/>
<path d="M160.13 262.71V274.14H154.42V279.86H148.7V285.57H142.99V291.29H137.28V297H131.56V302.71H125.85V314.14H120.13V319.86H114.42V337H108.7V348.43H102.99V388.43H108.7V399.86H102.99V405.57H97.2802V411.29H91.5602V417H85.8502V422.71H80.1302V434.14H74.4202V445.57H68.7002V457H62.9902V468.43H57.2802V537H62.9902V548.43H68.7002V571.29H74.4202V582.71H80.1302V588.43H85.8502V599.86H91.5602V605.57H97.2802V617H102.99V622.71H97.2802V617H91.5602V611.29H85.8502V605.57H80.1302V594.14H74.4202V588.43H68.7002V582.71H62.9902V594.14H68.7002V605.57H74.4202V617H80.1302V622.71H85.8502V628.43H91.5602V634.14H97.2802V639.86H102.99V645.57H108.7V651.29H142.99V634.14H137.28V611.29H131.56V617H120.13V611.29H114.42V605.57H108.7V594.14H102.99V588.43H97.2802V582.71H91.5602V571.29H85.8502V559.86H80.1302V548.43H74.4202V491.29H80.1302V468.43H85.8502V457H91.5602V445.57H97.2802V439.86H102.99V434.14H108.7V428.43H114.42V479.86H108.7V502.71H102.99V559.86H108.7V582.71H114.42V594.14H120.13V605.57H137.28V599.86H142.99V594.14H148.7V588.43H154.42V605.57H160.13V611.29H165.85V622.71H171.56V634.14H177.28V639.86H182.99V645.57H200.13V639.86H205.85V622.71H200.13V611.29H194.42V588.43H188.7V565.57H182.99V577H177.28V582.71H171.56V565.57H165.85V548.43H160.13V519.86H154.42V537H148.7V548.43H142.99V559.86H137.28V565.57H131.56V554.14H125.85V394.14H120.13V348.43H125.85V337H131.56V325.57H137.28V314.14H142.99V325.57H148.7V342.71H154.42V354.14H160.13V365.57H165.85V371.29H177.28V354.14H182.99V337H188.7V325.57H194.42V337L205.85 337V319.86H200.13V302.71H194.42V285.57H188.7V314.14H182.99V331.29H177.28V337H171.56V331.29H165.85V268.43H171.56V262.71H160.13Z" fill="#D1FB84"/>
<path d="M160.13 651.29H165.85V634.14H160.13V651.29Z" fill="#D1FB84"/>
<path d="M142.99 199.86V205.57H171.56V199.86H142.99Z" fill="#D1FB84"/>
<path d="M165.85 57H160.13V62.71H165.85V57Z" fill="#D1FB84"/>
<path d="M160.13 617H154.42V628.43H160.13V617Z" fill="#D1FB84"/>
<path d="M160.13 62.71H154.42V68.43H160.13V62.71Z" fill="#D1FB84"/>
<path d="M148.7 514.14H154.42V502.71H148.7V514.14Z" fill="#D1FB84"/>
<path d="M154.42 377H148.7V382.71H154.42V377Z" fill="#D1FB84"/>
<path d="M154.42 68.43H148.7V74.14H154.42V68.43Z" fill="#D1FB84"/>
<path d="M142.99 628.43H148.7V611.29H142.99V628.43Z" fill="#D1FB84"/>
<path d="M148.7 359.86H142.99V377H148.7V359.86Z" fill="#D1FB84"/>
<path d="M148.7 62.71H142.99V68.43H148.7V62.71Z" fill="#D1FB84"/>
<path d="M137.28 399.86H142.99V382.71H137.28V399.86Z" fill="#D1FB84"/>
<path d="M142.99 342.71H137.28V359.86H142.99V342.71Z" fill="#D1FB84"/>
<path d="M131.56 194.14V199.86H142.99V194.14H131.56Z" fill="#D1FB84"/>
<path d="M137.28 365.57H131.56V382.71H137.28V365.57Z" fill="#D1FB84"/>
<path d="M142.99 62.71V57H131.56V62.71H142.99Z" fill="#D1FB84"/>
<path d="M131.56 188.43H125.85V194.14H131.56V188.43Z" fill="#D1FB84"/>
<path d="M125.85 285.57H120.13V291.29H125.85V285.57Z" fill="#D1FB84"/>
<path d="M125.85 182.71H120.13V188.43H125.85V182.71Z" fill="#D1FB84"/>
<path d="M131.56 57V51.29H120.13V57H131.56Z" fill="#D1FB84"/>
<path d="M120.13 291.29H114.42V297H120.13V291.29Z" fill="#D1FB84"/>
<path d="M120.13 177H114.42V182.71H120.13V177Z" fill="#D1FB84"/>
<path d="M114.42 297L108.7 297V302.71H114.42V297Z" fill="#D1FB84"/>
<path d="M114.42 171.29H108.7V177H114.42V171.29Z" fill="#D1FB84"/>
<path d="M102.99 314.14H108.7V302.71H102.99V314.14Z" fill="#D1FB84"/>
<path d="M108.7 165.57H102.99V171.29H108.7V165.57Z" fill="#D1FB84"/>
<path d="M102.99 657H97.2802V662.71H102.99V657Z" fill="#D1FB84"/>
<path d="M102.99 565.57H97.2802V571.29H102.99V565.57Z" fill="#D1FB84"/>
<path d="M102.99 474.14H97.2802V479.86H102.99V474.14Z" fill="#D1FB84"/>
<path d="M97.2802 325.57H102.99V314.14H97.2802V325.57Z" fill="#D1FB84"/>
<path d="M97.2802 651.29H91.5602V657H97.2802V651.29Z" fill="#D1FB84"/>
<path d="M91.5602 565.57H97.2802V542.71H91.5602V565.57Z" fill="#D1FB84"/>
<path d="M97.2802 479.86H91.5602V508.43H97.2802V479.86Z" fill="#D1FB84"/>
<path d="M91.5602 337H97.2802V325.57H91.5602V337Z" fill="#D1FB84"/>
<path d="M74.4202 171.29V177H102.99L102.99 171.29H74.4202Z" fill="#D1FB84"/>
<path d="M91.5602 645.57H85.8502V651.29H91.5602V645.57Z" fill="#D1FB84"/>
<path d="M91.5602 508.43H85.8502V542.71H91.5602V508.43Z" fill="#D1FB84"/>
<path d="M85.8502 354.14H91.5602V337H85.8502V354.14Z" fill="#D1FB84"/>
<path d="M120.13 51.29L120.13 45.57H80.1302V51.29H120.13Z" fill="#D1FB84"/>
<path d="M80.1302 399.86H85.8502V354.14H80.1302V399.86Z" fill="#D1FB84"/>
<path d="M80.1302 57V51.29H68.7002V57H80.1302Z" fill="#D1FB84"/>
<path d="M74.4202 165.57H68.7002V171.29H74.4202L74.4202 165.57Z" fill="#D1FB84"/>
<path d="M68.7002 159.86H62.9902V165.57H68.7002V159.86Z" fill="#D1FB84"/>
<path d="M68.7002 62.71V57H57.2802V62.71H68.7002Z" fill="#D1FB84"/>
<path d="M62.9902 142.71H57.2802V159.86H62.9902V142.71Z" fill="#D1FB84"/>
<path d="M57.2802 571.29H51.5602V577H57.2802V571.29Z" fill="#D1FB84"/>
<path d="M57.2802 62.71H51.5602V68.43H57.2802V62.71Z" fill="#D1FB84"/>
<path d="M57.2802 142.71V137H45.8502V142.71H57.2802Z" fill="#D1FB84"/>
<path d="M51.5602 68.43H45.8502V74.14H51.5602V68.43Z" fill="#D1FB84"/>
<path d="M45.8502 131.29H40.1302V137H45.8502V131.29Z" fill="#D1FB84"/>
<path d="M45.8502 74.14H40.1302V79.86H45.8502V74.14Z" fill="#D1FB84"/>
<path d="M40.1302 125.57H34.4202V131.29H40.1302V125.57Z" fill="#D1FB84"/>
<path d="M40.1302 79.86H34.4202V85.57H40.1302V79.86Z" fill="#D1FB84"/>
<path d="M34.4202 85.57H28.7002V125.57H34.4202V85.57Z" fill="#D1FB84"/>
</g>
</g>
<defs>
<filter id="filter0_d" x="8.7002" y="2.70996" width="668.58" height="680" filterUnits="userSpaceOnUse" color-interpolation-filters="sRGB" filterRes="800">
<feFlood flood-opacity="0" result="BackgroundImageFix"/>
<feColorMatrix in="SourceAlpha" type="matrix" values="0 0 0 0 0 0 0 0 0 0 0 0 0 0 0 0 0 0 127 0"/>
<feOffset/>
<feGaussianBlur stdDeviation="10"/>
<feColorMatrix type="matrix" values="0 0 0 0 0.707769 0 0 0 0 0.85 0 0 0 0 0.447012 0 0 0 1 0"/>
<feBlend mode="normal" in2="BackgroundImageFix" result="effect1_dropShadow"/>
<feBlend mode="normal" in="SourceGraphic" in2="effect1_dropShadow" result="shape"/>
</filter>
<clipPath id="clip0">
<rect width="680" height="680" fill="white"/>
</clipPath>
</defs>
</svg>
