<svg width="680" height="680" viewBox="0 0 680 680" fill="none" xmlns="http://www.w3.org/2000/svg">
<g clip-path="url(#clip0)">
<g filter="url(#filter0_d)">
<path d="M651.57 445.57H645.86V457H634.43V474.14H623V479.86H611.57V491.29H605.86V497H600.14V502.71H594.43V508.43H583V514.14H571.57V519.86H565.86V525.57H560.14V531.29H554.43V537H548.71V542.71H543V548.43H537.29V554.14H531.57V559.86H525.86V565.57H520.14V571.29H514.43V577H508.71V559.86H503V537H497.29V519.86H491.57V531.29H485.86V542.71H480.14V548.43H474.43V554.14H468.71V559.86H463V565.57H457.29V571.29H451.57V577H445.86V582.71H440.14V588.43H434.43V594.14H428.71V599.86H423V605.57H417.29V611.29H411.57V617H405.86V622.71H400.14V634.14H394.43V651.29H405.86V645.57H417.29V639.86H423V634.14H428.71V628.43H434.43V622.71H440.14V617H445.86V611.29H451.57V605.57H457.29V599.86H463V588.43H474.43V599.86H480.14V605.57H485.86V611.29H491.57V617H497.29V622.71H503V628.43H508.71V634.14H514.43V628.43H520.14V622.71H525.86V617H531.57V605.57H537.29V599.86H543V594.14H548.71V588.43H554.43V582.71H560.14V577H565.86V571.29H571.57V565.57H577.29V559.86H583V554.14H588.71V548.43H594.43V559.86H588.71V571.29H583V582.71H577.29V588.43H571.57V599.86H565.86V611.29H560.14V634.14H565.86V639.86H571.57V645.57H583V634.14H588.71V622.71H594.43V611.29H600.14V605.57H605.86V599.86H611.57V594.14H617.29V588.43H623V582.71H628.71V577H634.43V565.57H640.14V537H645.86V519.86H651.57V485.57H657.29V439.86H651.57V445.57Z" fill="#D1FB84"/>
<path d="M651.57 102.71V125.57H657.29V102.71H651.57Z" fill="#D1FB84"/>
<path d="M645.86 411.29H651.57V394.14H645.86V411.29Z" fill="#D1FB84"/>
<path d="M645.86 171.29H651.57V142.71H645.86V171.29Z" fill="#D1FB84"/>
<path d="M651.57 125.57H645.86V131.29H651.57V125.57Z" fill="#D1FB84"/>
<path d="M645.86 102.71H651.57V91.29H645.86V102.71Z" fill="#D1FB84"/>
<path d="M640.14 588.43H645.86V571.29H640.14V588.43Z" fill="#D1FB84"/>
<path d="M640.14 428.43H645.86V411.29H640.14V428.43Z" fill="#D1FB84"/>
<path d="M640.14 394.14H645.86V377H640.14V394.14Z" fill="#D1FB84"/>
<path d="M640.14 182.71H645.86V171.29H640.14V182.71Z" fill="#D1FB84"/>
<path d="M640.14 137H634.43V142.71H623V148.43H600.14V142.71H577.29V137H565.86V131.29H560.14V125.57H554.43V131.29H548.71V137H543V142.71H531.57V148.43H514.43V154.14H497.29V159.86H491.57V165.57H497.29V171.29H503V177H508.71V188.43H514.43V194.14H525.86V188.43H537.29V182.71H548.71V177H554.43V182.71H565.86V188.43H583V194.14H617.29V188.43H623V182.71H634.43V171.29H640.14V142.71H645.86V131.29H640.14V137ZM628.71 165.57H623V171.29H617.29V177H611.57V182.71H588.71V177H583V171.29H588.71V177H611.57V171.29H617.29V165.57H623V159.86H628.71V165.57Z" fill="#D1FB84"/>
<path d="M645.86 85.57H640.14V91.29H645.86V85.57Z" fill="#D1FB84"/>
<path d="M640.14 617H634.43V622.71H640.14V617Z" fill="#D1FB84"/>
<path d="M640.14 588.43H634.43V594.14H640.14V588.43Z" fill="#D1FB84"/>
<path d="M640.14 371.29H634.43V377H640.14V371.29Z" fill="#D1FB84"/>
<path d="M640.14 182.71H634.43V188.43H640.14V182.71Z" fill="#D1FB84"/>
<path d="M640.14 79.86H634.43V85.57H640.14V79.86Z" fill="#D1FB84"/>
<path d="M634.43 622.71H628.71V628.43H634.43V622.71Z" fill="#D1FB84"/>
<path d="M634.43 594.14H628.71V599.86H634.43V594.14Z" fill="#D1FB84"/>
<path d="M628.71 411.29H634.43V388.43H628.71V411.29Z" fill="#D1FB84"/>
<path d="M634.43 74.14H628.71V79.86H634.43V74.14Z" fill="#D1FB84"/>
<path d="M628.71 628.43H623V634.14H628.71V628.43Z" fill="#D1FB84"/>
<path d="M628.71 599.86H623V605.57H628.71V599.86Z" fill="#D1FB84"/>
<path d="M623 422.71H628.71V411.29H623V422.71Z" fill="#D1FB84"/>
<path d="M623 388.43H628.71V365.57H623V388.43Z" fill="#D1FB84"/>
<path d="M623 188.43V194.14H634.43V188.43H623Z" fill="#D1FB84"/>
<path d="M623 634.14H617.29V639.86H623V634.14Z" fill="#D1FB84"/>
<path d="M623 605.57H617.29V611.29H623V605.57Z" fill="#D1FB84"/>
<path d="M623 422.71H617.29V428.43H623V422.71Z" fill="#D1FB84"/>
<path d="M617.29 365.57H623V348.43H617.29V365.57Z" fill="#D1FB84"/>
<path d="M623 194.14H617.29V199.86H623V194.14Z" fill="#D1FB84"/>
<path d="M628.71 74.14V68.43H617.29V74.14H628.71Z" fill="#D1FB84"/>
<path d="M617.29 639.86H611.57V645.57H617.29V639.86Z" fill="#D1FB84"/>
<path d="M617.29 611.29H611.57V617H617.29V611.29Z" fill="#D1FB84"/>
<path d="M611.57 348.43H617.29V337H611.57V348.43Z" fill="#D1FB84"/>
<path d="M617.29 68.43V62.71H605.86V68.43H617.29Z" fill="#D1FB84"/>
<path d="M611.57 617H605.86V622.71H611.57V617Z" fill="#D1FB84"/>
<path d="M605.86 337H611.57V325.57H605.86V337Z" fill="#D1FB84"/>
<path d="M583 199.86V205.57H617.29V199.86H583Z" fill="#D1FB84"/>
<path d="M600.14 634.14H605.86V622.71H600.14V634.14Z" fill="#D1FB84"/>
<path d="M605.86 314.14H600.14V325.57H605.86V314.14Z" fill="#D1FB84"/>
<path d="M594.43 645.57H600.14V634.14H594.43V645.57Z" fill="#D1FB84"/>
<path d="M600.14 62.71H594.43V68.43H600.14V62.71Z" fill="#D1FB84"/>
<path d="M594.43 57H588.71V62.71H594.43V57Z" fill="#D1FB84"/>
<path d="M588.71 51.29H583V57H588.71V51.29Z" fill="#D1FB84"/>
<path d="M565.86 194.14V199.86H583V194.14H565.86Z" fill="#D1FB84"/>
<path d="M583 45.57H577.29V51.29H583V45.57Z" fill="#D1FB84"/>
<path d="M571.57 279.86H577.29V268.43H571.57V279.86Z" fill="#D1FB84"/>
<path d="M565.86 268.43H571.57V257H565.86V268.43Z" fill="#D1FB84"/>
<path d="M577.29 45.57V39.86H565.86V45.57H577.29Z" fill="#D1FB84"/>
<path d="M565.86 251.29H560.14V257H565.86V251.29Z" fill="#D1FB84"/>
<path d="M554.43 188.43V194.14H565.86V188.43H554.43Z" fill="#D1FB84"/>
<path d="M560.14 514.14H554.43V525.57H560.14V514.14Z" fill="#D1FB84"/>
<path d="M565.86 39.86V34.14H554.43V39.86H565.86Z" fill="#D1FB84"/>
<path d="M554.43 239.86H548.71V245.57H554.43V239.86Z" fill="#D1FB84"/>
<path d="M554.43 182.71H548.71V188.43H554.43V182.71Z" fill="#D1FB84"/>
<path d="M554.43 34.14V28.43H537.29V34.14H554.43Z" fill="#D1FB84"/>
<path d="M543 639.86H537.29V645.57H543V639.86Z" fill="#D1FB84"/>
<path d="M543 622.71H537.29V628.43H543V622.71Z" fill="#D1FB84"/>
<path d="M543 514.14H537.29V542.71H543V514.14Z" fill="#D1FB84"/>
<path d="M537.29 319.86H543V297H537.29V319.86Z" fill="#D1FB84"/>
<path d="M543 279.86H537.29V285.57H543V279.86Z" fill="#D1FB84"/>
<path d="M537.29 188.43V194.14H548.71V188.43H537.29Z" fill="#D1FB84"/>
<path d="M531.57 639.86H537.29V628.43H531.57V639.86Z" fill="#D1FB84"/>
<path d="M531.57 331.29H537.29V319.86H531.57V331.29Z" fill="#D1FB84"/>
<path d="M537.29 39.86V34.14H525.86V39.86H537.29Z" fill="#D1FB84"/>
<path d="M531.57 639.86H525.86V645.57H531.57V639.86Z" fill="#D1FB84"/>
<path d="M525.86 342.71H531.57V331.29H525.86V342.71Z" fill="#D1FB84"/>
<path d="M525.86 194.14V199.86H537.29V194.14H525.86Z" fill="#D1FB84"/>
<path d="M520.14 657H525.86V645.57H520.14V657Z" fill="#D1FB84"/>
<path d="M520.14 354.14H525.86V342.71H520.14V354.14Z" fill="#D1FB84"/>
<path d="M525.86 39.86H520.14V45.57H525.86V39.86Z" fill="#D1FB84"/>
<path d="M514.43 365.57H520.14V354.14H514.43V365.57Z" fill="#D1FB84"/>
<path d="M514.43 199.86V205.57H525.86V199.86H514.43Z" fill="#D1FB84"/>
<path d="M520.14 45.57H514.43V51.29H520.14V45.57Z" fill="#D1FB84"/>
<path d="M508.71 382.71H514.43V365.57H508.71V382.71Z" fill="#D1FB84"/>
<path d="M508.71 228.43H514.43V205.57H508.71V228.43Z" fill="#D1FB84"/>
<path d="M514.43 194.14H508.71V199.86H514.43V194.14Z" fill="#D1FB84"/>
<path d="M503 422.71H508.71V428.43H514.43V434.14H508.71V439.86H503V451.29H508.71V445.57H514.43V439.86H520.14V422.71H514.43V417H508.71V411.29H503V422.71Z" fill="#D1FB84"/>
<path d="M508.71 228.43H503V234.14H508.71V228.43Z" fill="#D1FB84"/>
<path d="M508.71 188.43H503V194.14H508.71V188.43Z" fill="#D1FB84"/>
<path d="M497.29 371.29H503V348.43H497.29V371.29Z" fill="#D1FB84"/>
<path d="M503 337H497.29V342.71H503V337Z" fill="#D1FB84"/>
<path d="M497.29 188.43H503V177H497.29V188.43Z" fill="#D1FB84"/>
<path d="M508.71 57V62.71H514.43V51.29H497.29V57H508.71Z" fill="#D1FB84"/>
<path d="M497.29 411.29H491.57V417H457.29V411.29H451.57V457H457.29V462.71H491.57V457H497.29V411.29Z" fill="#D1FB84"/>
<path d="M497.29 394.14H491.57V399.86H497.29V394.14Z" fill="#D1FB84"/>
<path d="M491.57 234.14V239.86H503V234.14H491.57Z" fill="#D1FB84"/>
<path d="M497.29 171.29H491.57V177H497.29V171.29Z" fill="#D1FB84"/>
<path d="M491.57 399.86H485.86V405.57H491.57V399.86Z" fill="#D1FB84"/>
<path d="M491.57 165.57H485.86V171.29H491.57V165.57Z" fill="#D1FB84"/>
<path d="M497.29 51.29V45.57H485.86V51.29H497.29Z" fill="#D1FB84"/>
<path d="M485.86 331.29H480.14V365.57H485.86V331.29Z" fill="#D1FB84"/>
<path d="M480.14 239.86V245.57H491.57V239.86H480.14Z" fill="#D1FB84"/>
<path d="M485.86 159.86H480.14V165.57H485.86V159.86Z" fill="#D1FB84"/>
<path d="M485.86 45.57V39.86H474.43V45.57H485.86Z" fill="#D1FB84"/>
<path d="M474.43 514.14H468.71V548.43H474.43V514.14Z" fill="#D1FB84"/>
<path d="M583 508.43V502.71H594.43V497H600.14V491.29H605.86V485.57H588.71V491.29H565.86V497H474.43V491.29H451.57V485.57H434.43V479.86H423V474.14H417.29V491.29H423V497H440.14V502.71H463V508.43H583Z" fill="#D1FB84"/>
<path d="M468.71 245.57V251.29H480.14V245.57H468.71Z" fill="#D1FB84"/>
<path d="M468.71 639.86H463V645.57H468.71V639.86Z" fill="#D1FB84"/>
<path d="M451.57 199.86V228.43H474.43V222.71H457.29V217H474.43V211.29H457.29V205.57H474.43V199.86H451.57Z" fill="#D1FB84"/>
<path d="M474.43 39.86V34.14H463V39.86H474.43Z" fill="#D1FB84"/>
<path d="M457.29 657H463V645.57H457.29V657Z" fill="#D1FB84"/>
<path d="M463 399.86H457.29V405.57H463V399.86Z" fill="#D1FB84"/>
<path d="M451.57 251.29V257H468.71V251.29H451.57Z" fill="#D1FB84"/>
<path d="M457.29 622.71H451.57V628.43H457.29V622.71Z" fill="#D1FB84"/>
<path d="M457.29 565.57V559.86H463V508.43H445.86V571.29H451.57V565.57H457.29Z" fill="#D1FB84"/>
<path d="M445.86 639.86H451.57V628.43H445.86V639.86Z" fill="#D1FB84"/>
<path d="M451.57 171.29H434.43V165.57H451.57V159.86H428.71V177H445.86V182.71H428.71V188.43H451.57V171.29Z" fill="#D1FB84"/>
<path d="M434.43 257V262.71H451.57V257H434.43Z" fill="#D1FB84"/>
<path d="M440.14 217H434.43V222.71H440.14V228.43H445.86V199.86H440.14V217Z" fill="#D1FB84"/>
<path d="M434.43 577H428.71V582.71H434.43V577Z" fill="#D1FB84"/>
<path d="M434.43 542.71H428.71V548.43H434.43V542.71Z" fill="#D1FB84"/>
<path d="M434.43 514.14H428.71V519.86H434.43V514.14Z" fill="#D1FB84"/>
<path d="M434.43 474.14V479.86H451.57V485.57H474.43V491.29H565.86V485.57H588.71V479.86H611.57V474.14H623V468.43H628.71V451.29H623V445.57H611.57V439.86H594.43V434.14H571.57V428.43H531.57V399.86H537.29V382.71H543V371.29H548.71V365.57H554.43V354.14H560.14V365.57H565.86V382.71H571.57V388.43H577.29V377H583V365.57H588.71V371.29H594.43V394.14H600.14V428.43H605.86V422.71H611.57V411.29H617.29V371.29H611.57V354.14H605.86V342.71H600.14V331.29H594.43V314.14H588.71V319.86H583V325.57H577.29V308.43H571.57V297H565.86V285.57H560.14V274.14H554.43V262.71H548.71V331.29H543V348.43H537.29V354.14H531.57V365.57H525.86V377H520.14V388.43H514.43V399.86H497.29V405.57H508.71V411.29H514.43V417H520.14V422.71H525.86V439.86H520.14V445.57H514.43V451.29H508.71V457H497.29V462.71H491.57V468.43H457.29V462.71H451.57V457H445.86V405.57H451.57V399.86H457.29V394.14H491.57V365.57H485.86V382.71H480.14V388.43H474.43V382.71H468.71V325.57H463V342.71H457.29V348.43H451.57V354.14H445.86V359.86H440.14V371.29H434.43V382.71H428.71V388.43H423V399.86H417.29V405.57H411.57V417H405.86V428.43H400.14V434.14H394.43V405.57H388.71V422.71H383V434.14H377.29V514.14H371.57V525.57H365.86V537H377.29V542.71H383V531.29H388.71V519.86H394.43V485.57H400.14V468.43H405.86V457H411.57V445.57H417.29V434.14H423V422.71H428.71V417H434.43V411.29H440.14V439.86H434.43V445.57H423V451.29H417.29V468.43H423V474.14H434.43Z" fill="#D1FB84"/>
<path d="M434.43 211.29H428.71V217H434.43V211.29Z" fill="#D1FB84"/>
<path d="M428.71 582.71H423V588.43H428.71V582.71Z" fill="#D1FB84"/>
<path d="M405.86 262.71V268.43H434.43V262.71H405.86Z" fill="#D1FB84"/>
<path d="M423 205.57V199.86H417.29V228.43H423V211.29H428.71V205.57H423Z" fill="#D1FB84"/>
<path d="M423 588.43H417.29V594.14H423V588.43Z" fill="#D1FB84"/>
<path d="M417.29 554.14H428.71V548.43H423V537H417.29V554.14Z" fill="#D1FB84"/>
<path d="M423 159.86H417.29V188.43H423V159.86Z" fill="#D1FB84"/>
<path d="M417.29 594.14H411.57V599.86H417.29V594.14Z" fill="#D1FB84"/>
<path d="M417.29 531.29H411.57V537H417.29V531.29Z" fill="#D1FB84"/>
<path d="M417.29 508.43H411.57V514.14H417.29V508.43Z" fill="#D1FB84"/>
<path d="M411.57 599.86H405.86V605.57H411.57V599.86Z" fill="#D1FB84"/>
<path d="M411.57 537H405.86V542.71H411.57V537Z" fill="#D1FB84"/>
<path d="M411.57 514.14H405.86V519.86H411.57V514.14Z" fill="#D1FB84"/>
<path d="M405.86 228.43H411.57V199.86H405.86V228.43Z" fill="#D1FB84"/>
<path d="M405.86 171.29H394.43V159.86H388.71V188.43H394.43V177H405.86V188.43H411.57V159.86H405.86V171.29Z" fill="#D1FB84"/>
<path d="M405.86 605.57H400.14V611.29H405.86V605.57Z" fill="#D1FB84"/>
<path d="M405.86 542.71H400.14V548.43H405.86V542.71Z" fill="#D1FB84"/>
<path d="M405.86 519.86H400.14V531.29H405.86V519.86Z" fill="#D1FB84"/>
<path d="M405.86 268.43H400.14V274.14H405.86V268.43Z" fill="#D1FB84"/>
<path d="M400.14 611.29H394.43V617H400.14V611.29Z" fill="#D1FB84"/>
<path d="M394.43 285.57H400.14V274.14H394.43V285.57Z" fill="#D1FB84"/>
<path d="M405.86 34.14V28.43H388.71V34.14H405.86Z" fill="#D1FB84"/>
<path d="M394.43 617H388.71V628.43H394.43V617Z" fill="#D1FB84"/>
<path d="M377.29 199.86V228.43H383V217H400.14V211.29H383V205.57H400.14V199.86H377.29Z" fill="#D1FB84"/>
<path d="M388.71 628.43H383V634.14H388.71V628.43Z" fill="#D1FB84"/>
<path d="M383 285.57V291.29H394.43V285.57H383Z" fill="#D1FB84"/>
<path d="M383 411.29H377.29V417H383V411.29Z" fill="#D1FB84"/>
<path d="M383 291.29H377.29V297H383V291.29Z" fill="#D1FB84"/>
<path d="M383 165.57V159.86H354.43V165.57H365.86V188.43H371.57V165.57H383Z" fill="#D1FB84"/>
<path d="M377.29 417H371.57V422.71H377.29V417Z" fill="#D1FB84"/>
<path d="M377.29 297H371.57V302.71H377.29V297Z" fill="#D1FB84"/>
<path d="M377.29 262.71H371.57V279.86H377.29V262.71Z" fill="#D1FB84"/>
<path d="M365.86 445.57H371.57V422.71H365.86V445.57Z" fill="#D1FB84"/>
<path d="M371.57 302.71H365.86V308.43H371.57V302.71Z" fill="#D1FB84"/>
<path d="M371.57 279.86H365.86V291.29H371.57V279.86Z" fill="#D1FB84"/>
<path d="M343 257V262.71H371.57V257H343Z" fill="#D1FB84"/>
<path d="M365.86 537H360.14V542.71H365.86V537Z" fill="#D1FB84"/>
<path d="M365.86 497H360.14V502.71H365.86V497Z" fill="#D1FB84"/>
<path d="M360.14 485.57H365.86V445.57H360.14V485.57Z" fill="#D1FB84"/>
<path d="M365.86 291.29H360.14V297H365.86V291.29Z" fill="#D1FB84"/>
<path d="M348.71 142.71V148.43H371.57V142.71H348.71Z" fill="#D1FB84"/>
<path d="M360.14 502.71H354.43V497H360.14V491.29H337.29V485.57H331.57V468.43H325.86V445.57H320.14V434.14H314.43V422.71H337.29V417H343V394.14H337.29V411.29H308.71V405.57H303V399.86H297.29V394.14H291.57V388.43H308.71V394.14H337.29V388.43H354.43V382.71H348.71V354.14H337.29V359.86H331.57V365.57H325.86V371.29H320.14V377H314.43V382.71H303V377H297.29V371.29H291.57V382.71H285.86V388.43H280.14V394.14H268.71V399.86H251.57V394.14H245.86V388.43H240.14V382.71H234.43V359.86H240.14V348.43H245.86V342.71H257.29V337H280.14V342.71H291.57V337H297.29V331.29H303V325.57H314.43V314.14H308.71V308.43H303V302.71H280.14V297H257.29V291.29H240.14V302.71H245.86V308.43H240.14V302.71H228.71V314.14H234.43V319.86H228.71V314.14H217.29V319.86H211.57V331.29H217.29V337H223V382.71H228.71V399.86H223V411.29H217.29V417H211.57V428.43H205.86V468.43H211.57V474.14H205.86V479.86H200.14V485.57H194.43V491.29H211.57V497H205.86V502.71H200.14V508.43H205.86V514.14H217.29V508.43H223V519.86H234.43V514.14H240.14V502.71H268.71V497H274.43V491.29H251.57V497H234.43V491.29H228.71V485.57H223V479.86H217.29V468.43H223V462.71H217.29V457H223V462.71H228.71V439.86H234.43V462.71H240.14V468.43H245.86V457H240.14V422.71H245.86V457H251.57V468.43H257.29V474.14H263V479.86H268.71V485.57H291.57V491.29H280.14V497H285.86V502.71H291.57V519.86H285.86V525.57H280.14V519.86H285.86V502.71H268.71V508.43H245.86V514.14H240.14V519.86H263V594.14H280.14V531.29H291.57V525.57H308.71V531.29H320.14V525.57H314.43V519.86H320.14V514.14H303V491.29H308.71V485.57H325.86V491.29H331.57V502.71H325.86V508.43H320.14V514.14H331.57V508.43H337.29V502.71H348.71V508.43H360.14V502.71ZM274.43 588.43H268.71V519.86H274.43V588.43ZM268.71 405.57V411.29H297.29V417H308.71V422.71H297.29V417H268.71V411.29H257.29V405.57H268.71Z" fill="#D1FB84"/>
<path d="M354.43 382.71H360.14V377H383V359.86H377.29V354.14H371.57V348.43H348.71V354.14H354.43V382.71Z" fill="#D1FB84"/>
<path d="M360.14 297H354.43V314.14H365.86V308.43H360.14V297Z" fill="#D1FB84"/>
<path d="M331.57 251.29V257H343V251.29H331.57Z" fill="#D1FB84"/>
<path d="M325.86 199.86V217H343V222.71H325.86V228.43H348.71V211.29H331.57V205.57H348.71V199.86H325.86Z" fill="#D1FB84"/>
<path d="M308.71 148.43V154.14H348.71V148.43H308.71Z" fill="#D1FB84"/>
<path d="M348.71 28.43V22.71H337.29V28.43H348.71Z" fill="#D1FB84"/>
<path d="M325.86 594.14H343V525.57H337.29V588.43H331.57V525.57H325.86V594.14Z" fill="#D1FB84"/>
<path d="M320.14 245.57V251.29H331.57V245.57H320.14Z" fill="#D1FB84"/>
<path d="M325.86 519.86H320.14V525.57H325.86V519.86Z" fill="#D1FB84"/>
<path d="M314.43 365.57V359.86H308.71V337H314.43V331.29H303V337H297.29V342.71H291.57V365.57H297.29V371.29H303V377H314.43V371.29H320.14V365.57H314.43Z" fill="#D1FB84"/>
<path d="M325.86 331.29V337H331.57V354.14H337.29V331.29H331.57V325.57H314.43V331.29H325.86Z" fill="#D1FB84"/>
<path d="M303 239.86V245.57H320.14V239.86H303Z" fill="#D1FB84"/>
<path d="M314.43 228.43H320.14V199.86H314.43V228.43Z" fill="#D1FB84"/>
<path d="M297.29 537H291.57V605.57H303V531.29H297.29V537Z" fill="#D1FB84"/>
<path d="M291.57 234.14V239.86H303V234.14H291.57Z" fill="#D1FB84"/>
<path d="M297.29 154.14V159.86H308.71V154.14H297.29Z" fill="#D1FB84"/>
<path d="M337.29 22.71V17H291.57V22.71H337.29Z" fill="#D1FB84"/>
<path d="M297.29 159.86H291.57V165.57H297.29V159.86Z" fill="#D1FB84"/>
<path d="M280.14 228.43V234.14H291.57V228.43H280.14Z" fill="#D1FB84"/>
<path d="M291.57 165.57H285.86V171.29H291.57V165.57Z" fill="#D1FB84"/>
<path d="M291.57 28.43V22.71H280.14V28.43H291.57Z" fill="#D1FB84"/>
<path d="M285.86 348.43H280.14V342.71H257.29V348.43H268.71V354.14H274.43V377H268.71V382.71H257.29V377H251.57V354.14H257.29V348.43H245.86V359.86H240.14V382.71H245.86V388.43H251.57V394.14H268.71V388.43H280.14V382.71H285.86V348.43Z" fill="#D1FB84"/>
<path d="M280.14 222.71H274.43V228.43H280.14V222.71Z" fill="#D1FB84"/>
<path d="M280.14 182.71H274.43V194.14H280.14V182.71Z" fill="#D1FB84"/>
<path d="M274.43 171.29V177H285.86V171.29H274.43Z" fill="#D1FB84"/>
<path d="M280.14 28.43H274.43V34.14H280.14V28.43Z" fill="#D1FB84"/>
<path d="M274.43 194.14H268.71V222.71H274.43V194.14Z" fill="#D1FB84"/>
<path d="M263 177V182.71H274.43V177H263Z" fill="#D1FB84"/>
<path d="M274.43 34.14H268.71V39.86H274.43V34.14Z" fill="#D1FB84"/>
<path d="M268.71 39.86H263V45.57H268.71V39.86Z" fill="#D1FB84"/>
<path d="M263 479.86H257.29V485.57H263V479.86Z" fill="#D1FB84"/>
<path d="M257.29 291.29H263V228.43H257.29V291.29Z" fill="#D1FB84"/>
<path d="M263 182.71H257.29V188.43H263V182.71Z" fill="#D1FB84"/>
<path d="M257.29 474.14H251.57V479.86H257.29V474.14Z" fill="#D1FB84"/>
<path d="M251.57 479.86H245.86V485.57H251.57V479.86Z" fill="#D1FB84"/>
<path d="M251.57 468.43H245.86V474.14H251.57V468.43Z" fill="#D1FB84"/>
<path d="M257.29 228.43V222.71H240.14V228.43H257.29Z" fill="#D1FB84"/>
<path d="M245.86 188.43V194.14H257.29V188.43H245.86Z" fill="#D1FB84"/>
<path d="M245.86 485.57H240.14V491.29H245.86V485.57Z" fill="#D1FB84"/>
<path d="M245.86 474.14H240.14V479.86H245.86V474.14Z" fill="#D1FB84"/>
<path d="M240.14 479.86H234.43V485.57H240.14V479.86Z" fill="#D1FB84"/>
<path d="M240.14 468.43H234.43V474.14H240.14V468.43Z" fill="#D1FB84"/>
<path d="M228.71 194.14V199.86H245.86V194.14H228.71Z" fill="#D1FB84"/>
<path d="M234.43 474.14H228.71V479.86H234.43V474.14Z" fill="#D1FB84"/>
<path d="M234.43 462.71H228.71V468.43H234.43V462.71Z" fill="#D1FB84"/>
<path d="M223 525.57V605.57H234.43V525.57H223Z" fill="#D1FB84"/>
<path d="M228.71 468.43H223V474.14H228.71V468.43Z" fill="#D1FB84"/>
<path d="M228.71 188.43H223V194.14H228.71V188.43Z" fill="#D1FB84"/>
<path d="M223 182.71H217.29V188.43H223V182.71Z" fill="#D1FB84"/>
<path d="M217.29 177H211.57V182.71H217.29V177Z" fill="#D1FB84"/>
<path d="M211.57 365.57H205.86V371.29H211.57V365.57Z" fill="#D1FB84"/>
<path d="M211.57 331.29H205.86V314.14H200.14V297H194.43V279.86H188.71V308.43H183V325.57H177.29V331.29H165.86V268.43H171.57V262.71H160.14V268.43H154.43V274.14H148.71V279.86H143V285.57H137.29V291.29H131.57V297H125.86V308.43H120.14V319.86H114.43V331.29H108.71V342.71H103V365.57H97.29V405.57H91.57V411.29H85.86V422.71H80.14V434.14H74.43V445.57H68.71V457H63V468.43H57.29V479.86H51.57V537H57.29V548.43H63V559.86H68.71V571.29H74.43V582.71H80.14V588.43H85.86V599.86H91.57V605.57H97.29V617H103V622.71H97.29V617H91.57V611.29H85.86V605.57H80.14V594.14H74.43V588.43H68.71V582.71H57.29V588.43H63V594.14H68.71V605.57H74.43V617H80.14V622.71H85.86V628.43H91.57V634.14H97.29V639.86H103V645.57H108.71V651.29H125.86V657H143V651.29H148.71V645.57H143V634.14H137.29V611.29H131.57V617H120.14V611.29H114.43V605.57H108.71V594.14H103V588.43H97.29V582.71H91.57V571.29H85.86V559.86H80.14V548.43H74.43V491.29H80.14V468.43H85.86V457H91.57V445.57H97.29V439.86H103V434.14H108.71V502.71H103V559.86H108.71V582.71H114.43V594.14H120.14V605.57H137.29V599.86H143V594.14H148.71V588.43H154.43V605.57H160.14V611.29H165.86V622.71H171.57V634.14H177.29V639.86H183V645.57H200.14V639.86H205.86V617H200.14V594.14H194.43V565.57H188.71V577H183V582.71H177.29V588.43H171.57V577H165.86V559.86H160.14V525.57H154.43V531.29H148.71V542.71H143V554.14H137.29V559.86H131.57V548.43H125.86V394.14H120.14V348.43H125.86V337H131.57V325.57H137.29V314.14H143V325.57H148.71V342.71H154.43V354.14H160.14V365.57H165.86V371.29H171.57V377H177.29V359.86H183V342.71H188.71V331.29H194.43V342.71H205.86V348.43H211.57V354.14H217.29L217.29 337H211.57V331.29Z" fill="#D1FB84"/>
<path d="M217.29 34.14V39.86H200.14V45.57H188.71V51.29H177.29V57H165.86V62.71H160.14V68.43H154.43V74.14H148.71V68.43H143V62.71H131.57V57H120.14V51.29H80.14V57H68.71V62.71H57.29V68.43H51.57V74.14H45.86V79.86H40.14V85.57H34.43V125.57H40.14V131.29H45.86V137H57.29V142.71H108.71V137H131.57V131.29H143V125.57H154.43V119.86H165.86V114.14H177.29V108.43H183V114.14H177.29V119.86H171.57V125.57H183V131.29H205.86V137H234.43V131.29H257.29V125.57H268.71V119.86H280.14V114.14H291.57V108.43H303V102.71H308.71V97H320.14V91.29H331.57V97H320.14V102.71H308.71V108.43H303V114.14H291.57V119.86H285.86V131.29H291.57V137H303V142.71H348.71V137H371.57V131.29H388.71V125.57H405.86V131.29H388.71V137H371.57V142.71H428.71V137H423V131.29H417.29V125.57H411.57V119.86H405.86V108.43H400.14V102.71H394.43V91.29H388.71V85.57H394.43V91.29H400.14V102.71H405.86V108.43H411.57V119.86H417.29V125.57H423V131.29H428.71V137H434.43V142.71H445.86V148.43H463V154.14H497.29V148.43H514.43V142.71H531.57V137H543V131.29H548.71V119.86H543V114.14H548.71V119.86H560.14V125.57H565.86V131.29H577.29V137H600.14V142.71H623V137H634.43V131.29H640.14V125.57H645.86V102.71H640.14V91.29H634.43V85.57H628.71V79.86H617.29V85.57H623V91.29H628.71V97H623V91.29H617.29V85.57H611.57V79.86H617.29V74.14H605.86V68.43H600.14V74.14H594.43V68.43H588.71V62.71H583V57H577.29V51.29H565.86V45.57H554.43V39.86H537.29V45.57H525.86V51.29H520.14V62.71H514.43V68.43H508.71V62.71H497.29V57H485.86V51.29H474.43V45.57H463V39.86H451.57V34.14H463V28.43H445.86V22.71H405.86V28.43H417.29V34.14H405.86V39.86H388.71V45.57H377.29V39.86H388.71V34.14H360.14V28.43H348.71V34.14H354.43V39.86H360.14V45.57H365.86V51.29H371.57V57H365.86V51.29H360.14V45.57H354.43V39.86H348.71V34.14H337.29V28.43H291.57V34.14H280.14V39.86H274.43V45.57H268.71L268.71 51.29H263V57H257.29V62.71H251.57V57H257.29V51.29H263V45.57H257.29V39.86H251.57V34.14H240.14V28.43H200.14V34.14H217.29ZM331.57 125.57V119.86H325.86V114.14H331.57V119.86H343V114.14H360.14V108.43H365.86V114.14H360.14V119.86H343V125.57H331.57ZM240.14 114.14V119.86H223V114.14H240.14V108.43H251.57V102.71H257.29V97H263V102.71H257.29V108.43H251.57V114.14H240.14ZM108.71 119.86V125.57H80.14V119.86H108.71V114.14H125.86V108.43H131.57V114.14H125.86V119.86H108.71ZM45.86 97H51.57V85.57H57.29V79.86H63V74.14H74.43V68.43H85.86V74.14H74.43V79.86H63V85.57H57.29V97H51.57V114.14H45.86V97ZM80.14 79.86H85.86V85.57H80.14V91.29H74.43V85.57H80.14V79.86ZM63 119.86H68.71V125.57H63V119.86ZM131.57 97H137.29V102.71H131.57V97ZM274.43 91.29V85.57H280.14V91.29H274.43ZM377.29 102.71H371.57V97H377.29V102.71ZM51.57 119.86H57.29V125.57H51.57V119.86ZM491.57 74.14V79.86H497.29V85.57H491.57V79.86H480.14V74.14H457.29V68.43H451.57V62.71H457.29V68.43H480.14V74.14H491.57ZM577.29 114.14V108.43H571.57V102.71H565.86V97H571.57V102.71H577.29V108.43H583V114.14H600.14V119.86H583V114.14H577.29ZM497.29 125.57H457.29V119.86H445.86V114.14H440.14V108.43H445.86V114.14H457.29V119.86H497.29V114.14H503V119.86H497.29V125.57ZM428.71 102.71H434.43V108.43H428.71V102.71ZM611.57 114.14H617.29V119.86H611.57V114.14ZM508.71 91.29H503V85.57H508.71V91.29ZM423 28.43H428.71V34.14H423V28.43ZM234.43 34.14V39.86H223V34.14H234.43Z" fill="#D1FB84"/>
<path d="M205.86 371.29H200.14V377H205.86V371.29Z" fill="#D1FB84"/>
<path d="M200.14 182.71V188.43H211.57V182.71H200.14Z" fill="#D1FB84"/>
<path d="M194.43 497V491.29H188.71V485.57H194.43V479.86H200.14V474.14H205.86V468.43H200.14V428.43H205.86V417H211.57V411.29H183V417H177.29V422.71H171.57V497H177.29V502.71H200.14V497H194.43Z" fill="#D1FB84"/>
<path d="M194.43 359.86H188.71V382.71H194.43V365.57H200.14V354.14H194.43V359.86Z" fill="#D1FB84"/>
<path d="M200.14 39.86V34.14H188.71V39.86H200.14Z" fill="#D1FB84"/>
<path d="M188.71 188.43V194.14H200.14V188.43H188.71Z" fill="#D1FB84"/>
<path d="M188.71 45.57L188.71 39.86H177.29V45.57H188.71Z" fill="#D1FB84"/>
<path d="M177.29 194.14V199.86H188.71V194.14H177.29Z" fill="#D1FB84"/>
<path d="M177.29 199.86H171.57V205.57H177.29V199.86Z" fill="#D1FB84"/>
<path d="M177.29 51.29L177.29 45.57H165.86V51.29H177.29Z" fill="#D1FB84"/>
<path d="M160.14 657H165.86V634.14H160.14V657Z" fill="#D1FB84"/>
<path d="M171.57 257V262.71H183V268.43H171.57V325.57H177.29V308.43H183V279.86H188.71L188.71 274.14H194.43V279.86H200.14L200.14 297H205.86L205.86 314.14H217.29V308.43H223V302.71H228.71V297H234.43V291.29H240.14V228.43H234.43V222.71H108.71V228.43H103V297H108.71V291.29H114.43V285.57H120.14V279.86H125.86V285.57H131.57V279.86H137.29V274.14H143V268.43H148.71V262.71H160.14V257H171.57Z" fill="#D1FB84"/>
<path d="M143 205.57V211.29H171.57V205.57H143Z" fill="#D1FB84"/>
<path d="M165.86 51.29H160.14V57H165.86L165.86 51.29Z" fill="#D1FB84"/>
<path d="M160.14 617H154.43V628.43H160.14V617Z" fill="#D1FB84"/>
<path d="M160.14 57H154.43V62.71H160.14V57Z" fill="#D1FB84"/>
<path d="M154.43 502.71H148.71V519.86H154.43V502.71Z" fill="#D1FB84"/>
<path d="M154.43 377H148.71V388.43H154.43V377Z" fill="#D1FB84"/>
<path d="M154.43 62.71H148.71V68.43H154.43V62.71Z" fill="#D1FB84"/>
<path d="M143 628.43H148.71V611.29H143V628.43Z" fill="#D1FB84"/>
<path d="M148.71 399.86H143V405.57H148.71V399.86Z" fill="#D1FB84"/>
<path d="M148.71 359.86H143V377H148.71V359.86Z" fill="#D1FB84"/>
<path d="M148.71 57H143V62.71H148.71V57Z" fill="#D1FB84"/>
<path d="M143 382.71H137.29V399.86H143V382.71Z" fill="#D1FB84"/>
<path d="M143 342.71H137.29V359.86H143V342.71Z" fill="#D1FB84"/>
<path d="M131.57 199.86V205.57H143V199.86H131.57Z" fill="#D1FB84"/>
<path d="M137.29 365.57H131.57V382.71H137.29V365.57Z" fill="#D1FB84"/>
<path d="M143 57V51.29H131.57V57H143Z" fill="#D1FB84"/>
<path d="M131.57 194.14H125.86V199.86H131.57V194.14Z" fill="#D1FB84"/>
<path d="M125.86 285.57H120.14V291.29H125.86V285.57Z" fill="#D1FB84"/>
<path d="M125.86 188.43H120.14V194.14H125.86V188.43Z" fill="#D1FB84"/>
<path d="M131.57 51.29V45.57H120.14V51.29H131.57Z" fill="#D1FB84"/>
<path d="M120.14 291.29H114.43V297H120.14V291.29Z" fill="#D1FB84"/>
<path d="M120.14 182.71H114.43V188.43H120.14V182.71Z" fill="#D1FB84"/>
<path d="M114.43 297H108.71V302.71H114.43V297Z" fill="#D1FB84"/>
<path d="M114.43 177H108.71V182.71H114.43V177Z" fill="#D1FB84"/>
<path d="M103 314.14H108.71V302.71H103V314.14Z" fill="#D1FB84"/>
<path d="M108.71 171.29H103V177H108.71V171.29Z" fill="#D1FB84"/>
<path d="M103 657H97.29V662.71H103V657Z" fill="#D1FB84"/>
<path d="M103 565.57H97.29V571.29H103V565.57Z" fill="#D1FB84"/>
<path d="M103 474.14H97.29V479.86H103V474.14Z" fill="#D1FB84"/>
<path d="M97.29 325.57H103V314.14H97.29V325.57Z" fill="#D1FB84"/>
<path d="M97.29 651.29H91.57V657H97.29V651.29Z" fill="#D1FB84"/>
<path d="M91.57 565.57H97.29V542.71H91.57V565.57Z" fill="#D1FB84"/>
<path d="M97.29 479.86H91.57V508.43H97.29V479.86Z" fill="#D1FB84"/>
<path d="M91.57 337H97.29V325.57H91.57V337Z" fill="#D1FB84"/>
<path d="M74.43 177V182.71H103V177H74.43Z" fill="#D1FB84"/>
<path d="M91.57 645.57H85.86V651.29H91.57V645.57Z" fill="#D1FB84"/>
<path d="M91.57 508.43H85.86V542.71H91.57V508.43Z" fill="#D1FB84"/>
<path d="M85.86 354.14H91.57V337H85.86V354.14Z" fill="#D1FB84"/>
<path d="M120.14 45.57V39.86H80.14V45.57H120.14Z" fill="#D1FB84"/>
<path d="M80.14 399.86H85.86V354.14H80.14V399.86Z" fill="#D1FB84"/>
<path d="M80.14 51.29V45.57H68.71V51.29H80.14Z" fill="#D1FB84"/>
<path d="M74.43 171.29H68.71V177H74.43V171.29Z" fill="#D1FB84"/>
<path d="M68.71 165.57H63V171.29H68.71V165.57Z" fill="#D1FB84"/>
<path d="M63 159.86H68.71V165.57H74.43V171.29H103V165.57H108.71V171.29H114.43V177H120.14V182.71H125.86V188.43H131.57V194.14H143V199.86H171.57V194.14H177.29V188.43H188.71L188.71 182.71H200.14L200.14 177H211.57V171.29H217.29L217.29 177H223V182.71H228.71L228.71 188.43H245.86L245.86 182.71H257.29L257.29 177H263V171.29H274.43V165.57H285.86V159.86H291.57V154.14H297.29V148.43H303V142.71H291.57V137H285.86V131.29H280.14V125.57H268.71L268.71 131.29H257.29L257.29 137H234.43V142.71H205.86L205.86 137H183V131.29H171.57V125.57H154.43V131.29H143V137H131.57V142.71H108.71V148.43H57.29V154.14H63V159.86ZM131.57 165.57H125.86V159.86H131.57V165.57ZM160.14 171.29V165.57H143V159.86H160.14V165.57H183V171.29H160.14Z" fill="#D1FB84"/>
<path d="M68.71 57V51.29H57.29V57H68.71Z" fill="#D1FB84"/>
<path d="M63 159.86H57.29V165.57H63V159.86Z" fill="#D1FB84"/>
<path d="M57.29 571.29H51.57V577H57.29V571.29Z" fill="#D1FB84"/>
<path d="M57.29 154.14H51.57V159.86H57.29V154.14Z" fill="#D1FB84"/>
<path d="M45.86 142.71V148.43H57.29V142.71H45.86Z" fill="#D1FB84"/>
<path d="M57.29 57H51.57V62.71H57.29V57Z" fill="#D1FB84"/>
<path d="M51.57 565.57H45.86V571.29H51.57V565.57Z" fill="#D1FB84"/>
<path d="M51.57 62.71H45.86V68.43H51.57V62.71Z" fill="#D1FB84"/>
<path d="M45.86 137H40.14V142.71H45.86V137Z" fill="#D1FB84"/>
<path d="M45.86 68.43H40.14V74.14H45.86V68.43Z" fill="#D1FB84"/>
<path d="M40.14 131.29H34.43V137H40.14V131.29Z" fill="#D1FB84"/>
<path d="M40.14 74.14H34.43V79.86H40.14V74.14Z" fill="#D1FB84"/>
<path d="M34.43 125.57H28.71V131.29H34.43V125.57Z" fill="#D1FB84"/>
<path d="M34.43 79.86H28.71V85.57H34.43V79.86Z" fill="#D1FB84"/>
<path d="M28.71 85.57H23V125.57H28.71V85.57Z" fill="#D1FB84"/>
</g>
</g>
<defs>
<filter id="filter0_d" x="3" y="-3" width="674.29" height="685.71" filterUnits="userSpaceOnUse" color-interpolation-filters="sRGB" filterRes="800">
<feFlood flood-opacity="0" result="BackgroundImageFix"/>
<feColorMatrix in="SourceAlpha" type="matrix" values="0 0 0 0 0 0 0 0 0 0 0 0 0 0 0 0 0 0 127 0"/>
<feOffset/>
<feGaussianBlur stdDeviation="10"/>
<feColorMatrix type="matrix" values="0 0 0 0 0.707769 0 0 0 0 0.85 0 0 0 0 0.447012 0 0 0 1 0"/>
<feBlend mode="normal" in2="BackgroundImageFix" result="effect1_dropShadow"/>
<feBlend mode="normal" in="SourceGraphic" in2="effect1_dropShadow" result="shape"/>
</filter>
<clipPath id="clip0">
<rect width="680" height="680" fill="white"/>
</clipPath>
</defs>
</svg>
