<svg width="230" height="16" viewBox="0 0 230 16" fill="none" xmlns="http://www.w3.org/2000/svg">
<g clip-path="url(#clip0)">
<path d="M-60 12.75V4H-53.75V5.25H-52.5V6.5H-51.25V10.25H-52.5V11.5H-53.75V12.75H-60ZM-57.5 11.5H-55V10.25H-53.75V6.5H-55V5.25H-57.5V11.5ZM-48.75 12.75V11.5H-50V5.25H-48.75V4H-42.5V5.25H-41.25V11.5H-42.5V12.75H-48.75ZM-47.5 11.5H-43.75V5.25H-47.5V11.5ZM-40 12.75V4H-33.75V5.25H-32.5V6.5H-31.25V10.25H-32.5V11.5H-33.75V12.75H-40ZM-37.5 11.5H-35V10.25H-33.75V6.5H-35V5.25H-37.5V11.5ZM-28.75 12.75V11.5H-30V5.25H-28.75V4H-22.5V5.25H-21.25V11.5H-22.5V12.75H-28.75ZM-27.5 11.5H-23.75V5.25H-27.5V11.5ZM-10 12.75V4H-2.5V5.25H-1.25V9H-2.5V10.25H-7.5V12.75H-10ZM-7.5 9H-3.75V5.25H-7.5V9ZM1.25 12.75V11.5H3.75V5.25H1.25V4H8.75V5.25H6.25V11.5H8.75V12.75H1.25ZM10 12.75V10.25H11.25V9H12.5V7.75H13.75V6.5H15V5.25H10V4H18.75V6.5H17.5V7.75H16.25V9H15V10.25H13.75V11.5H18.75V12.75H10ZM20 12.75V10.25H21.25V9H22.5V7.75H23.75V6.5H25V5.25H20V4H28.75V6.5H27.5V7.75H26.25V9H25V10.25H23.75V11.5H28.75V12.75H20ZM30 12.75V6.5H31.25V5.25H32.5V4H36.25V5.25H37.5V6.5H38.75V12.75H36.25V10.25H32.5V12.75H30ZM32.5 9H36.25V6.5H35V5.25H33.75V6.5H32.5V9ZM50 12.75V4H58.75V5.25H52.5V7.75H57.5V9H52.5V11.5H58.75V12.75H50ZM60 12.75V4H62.5V5.25H63.75V6.5H65V7.75H66.25V4H68.75V12.75H66.25V10.25H65V9H63.75V7.75H62.5V12.75H60ZM72.5 12.75V11.5H71.25V10.25H70V6.5H71.25V5.25H72.5V4H78.75V5.25H73.75V6.5H72.5V10.25H73.75V11.5H76.25V9H75V7.75H78.75V12.75H72.5ZM81.25 12.75V11.5H83.75V5.25H81.25V4H88.75V5.25H86.25V11.5H88.75V12.75H81.25ZM90 12.75V4H92.5V5.25H93.75V6.5H95V7.75H96.25V4H98.75V12.75H96.25V10.25H95V9H93.75V7.75H92.5V12.75H90ZM100 12.75V4H108.75V5.25H102.5V7.75H107.5V9H102.5V11.5H108.75V12.75H100ZM110 12.75V4H118.75V5.25H112.5V7.75H117.5V9H112.5V11.5H118.75V12.75H110ZM120 12.75V4H127.5V5.25H128.75V9H126.25V10.25H127.5V11.5H128.75V12.75H125V11.5H123.75V10.25H122.5V12.75H120ZM122.5 9H125V7.75H126.25V5.25H122.5V9ZM131.25 12.75V11.5H133.75V5.25H131.25V4H138.75V5.25H136.25V11.5H138.75V12.75H131.25ZM140 12.75V4H142.5V5.25H143.75V6.5H145V7.75H146.25V4H148.75V12.75H146.25V10.25H145V9H143.75V7.75H142.5V12.75H140ZM152.5 12.75V11.5H151.25V10.25H150V6.5H151.25V5.25H152.5V4H158.75V5.25H153.75V6.5H152.5V10.25H153.75V11.5H156.25V9H155V7.75H158.75V12.75H152.5ZM177.5 5.25H172.5V4H177.5V5.25ZM172.5 6.5H171.25V5.25H172.5V6.5ZM177.5 6.5V5.25H178.75V6.5H177.5ZM171.25 6.5V11.5H170V6.5H171.25ZM173.75 6.5H176.25V7.75H173.75V6.5ZM180 6.5V11.5H178.75V6.5H180ZM172.5 7.75H173.75V10.25H172.5V7.75ZM173.75 11.5V10.25H176.25V11.5H173.75ZM172.5 11.5V12.75H171.25V11.5H172.5ZM177.5 11.5H178.75V12.75H177.5V11.5ZM172.5 12.75H177.5V14H172.5V12.75ZM190 12.75V10.25H191.25V9H192.5V7.75H195V6.5H196.25V5.25H192.5V6.5H190V5.25H191.25V4H197.5V5.25H198.75V7.75H197.5V9H196.25V10.25H193.75V11.5H198.75V12.75H190ZM202.5 12.75V11.5H201.25V10.25H200V6.5H201.25V5.25H202.5V4H206.25V5.25H207.5V6.5H208.75V10.25H207.5V11.5H206.25V12.75H202.5ZM203.75 11.5H206.25V6.5H205V5.25H202.5V10.25H203.75V11.5ZM210 12.75V10.25H211.25V9H212.5V7.75H215V6.5H216.25V5.25H212.5V6.5H210V5.25H211.25V4H217.5V5.25H218.75V7.75H217.5V9H216.25V10.25H213.75V11.5H218.75V12.75H210ZM222.5 12.75V11.5H221.25V10.25H220V6.5H221.25V5.25H222.5V4H226.25V5.25H227.5V6.5H228.75V10.25H227.5V11.5H226.25V12.75H222.5ZM223.75 11.5H226.25V6.5H225V5.25H222.5V10.25H223.75V11.5Z" fill="#92CCFF"/>
<path d="M-61 11.75V3H-54.75V4.25H-53.5V5.5H-52.25V9.25H-53.5V10.5H-54.75V11.75H-61ZM-58.5 10.5H-56V9.25H-54.75V5.5H-56V4.25H-58.5V10.5ZM-49.75 11.75V10.5H-51V4.25H-49.75V3H-43.5V4.25H-42.25V10.5H-43.5V11.75H-49.75ZM-48.5 10.5H-44.75V4.25H-48.5V10.5ZM-41 11.75V3H-34.75V4.25H-33.5V5.5H-32.25V9.25H-33.5V10.5H-34.75V11.75H-41ZM-38.5 10.5H-36V9.25H-34.75V5.5H-36V4.25H-38.5V10.5ZM-29.75 11.75V10.5H-31V4.25H-29.75V3H-23.5V4.25H-22.25V10.5H-23.5V11.75H-29.75ZM-28.5 10.5H-24.75V4.25H-28.5V10.5ZM-11 11.75V3H-3.5V4.25H-2.25V8H-3.5V9.25H-8.5V11.75H-11ZM-8.5 8H-4.75V4.25H-8.5V8ZM0.25 11.75V10.5H2.75V4.25H0.25V3H7.75V4.25H5.25V10.5H7.75V11.75H0.25ZM9 11.75V9.25H10.25V8H11.5V6.75H12.75V5.5H14V4.25H9V3H17.75V5.5H16.5V6.75H15.25V8H14V9.25H12.75V10.5H17.75V11.75H9ZM19 11.75V9.25H20.25V8H21.5V6.75H22.75V5.5H24V4.25H19V3H27.75V5.5H26.5V6.75H25.25V8H24V9.25H22.75V10.5H27.75V11.75H19ZM29 11.75V5.5H30.25V4.25H31.5V3H35.25V4.25H36.5V5.5H37.75V11.75H35.25V9.25H31.5V11.75H29ZM31.5 8H35.25V5.5H34V4.25H32.75V5.5H31.5V8ZM49 11.75V3H57.75V4.25H51.5V6.75H56.5V8H51.5V10.5H57.75V11.75H49ZM59 11.75V3H61.5V4.25H62.75V5.5H64V6.75H65.25V3H67.75V11.75H65.25V9.25H64V8H62.75V6.75H61.5V11.75H59ZM71.5 11.75V10.5H70.25V9.25H69V5.5H70.25V4.25H71.5V3H77.75V4.25H72.75V5.5H71.5V9.25H72.75V10.5H75.25V8H74V6.75H77.75V11.75H71.5ZM80.25 11.75V10.5H82.75V4.25H80.25V3H87.75V4.25H85.25V10.5H87.75V11.75H80.25ZM89 11.75V3H91.5V4.25H92.75V5.5H94V6.75H95.25V3H97.75V11.75H95.25V9.25H94V8H92.75V6.75H91.5V11.75H89ZM99 11.75V3H107.75V4.25H101.5V6.75H106.5V8H101.5V10.5H107.75V11.75H99ZM109 11.75V3H117.75V4.25H111.5V6.75H116.5V8H111.5V10.5H117.75V11.75H109ZM119 11.75V3H126.5V4.25H127.75V8H125.25V9.25H126.5V10.5H127.75V11.75H124V10.5H122.75V9.25H121.5V11.75H119ZM121.5 8H124V6.75H125.25V4.25H121.5V8ZM130.25 11.75V10.5H132.75V4.25H130.25V3H137.75V4.25H135.25V10.5H137.75V11.75H130.25ZM139 11.75V3H141.5V4.25H142.75V5.5H144V6.75H145.25V3H147.75V11.75H145.25V9.25H144V8H142.75V6.75H141.5V11.75H139ZM151.5 11.75V10.5H150.25V9.25H149V5.5H150.25V4.25H151.5V3H157.75V4.25H152.75V5.5H151.5V9.25H152.75V10.5H155.25V8H154V6.75H157.75V11.75H151.5ZM176.5 4.25H171.5V3H176.5V4.25ZM171.5 5.5H170.25V4.25H171.5V5.5ZM176.5 5.5V4.25H177.75V5.5H176.5ZM170.25 5.5V10.5H169V5.5H170.25ZM172.75 5.5H175.25V6.75H172.75V5.5ZM179 5.5V10.5H177.75V5.5H179ZM171.5 6.75H172.75V9.25H171.5V6.75ZM172.75 10.5V9.25H175.25V10.5H172.75ZM171.5 10.5V11.75H170.25V10.5H171.5ZM176.5 10.5H177.75V11.75H176.5V10.5ZM171.5 11.75H176.5V13H171.5V11.75ZM189 11.75V9.25H190.25V8H191.5V6.75H194V5.5H195.25V4.25H191.5V5.5H189V4.25H190.25V3H196.5V4.25H197.75V6.75H196.5V8H195.25V9.25H192.75V10.5H197.75V11.75H189ZM201.5 11.75V10.5H200.25V9.25H199V5.5H200.25V4.25H201.5V3H205.25V4.25H206.5V5.5H207.75V9.25H206.5V10.5H205.25V11.75H201.5ZM202.75 10.5H205.25V5.5H204V4.25H201.5V9.25H202.75V10.5ZM209 11.75V9.25H210.25V8H211.5V6.75H214V5.5H215.25V4.25H211.5V5.5H209V4.25H210.25V3H216.5V4.25H217.75V6.75H216.5V8H215.25V9.25H212.75V10.5H217.75V11.75H209ZM221.5 11.75V10.5H220.25V9.25H219V5.5H220.25V4.25H221.5V3H225.25V4.25H226.5V5.5H227.75V9.25H226.5V10.5H225.25V11.75H221.5ZM222.75 10.5H225.25V5.5H224V4.25H221.5V9.25H222.75V10.5Z" fill="#374A5C"/>
</g>
<g clip-path="url(#clip1)">
<path d="M1 12.75V4H7.25V5.25H8.5V6.5H9.75V10.25H8.5V11.5H7.25V12.75H1ZM3.5 11.5H6V10.25H7.25V6.5H6V5.25H3.5V11.5ZM12.25 12.75V11.5H11V5.25H12.25V4H18.5V5.25H19.75V11.5H18.5V12.75H12.25ZM13.5 11.5H17.25V5.25H13.5V11.5ZM21 12.75V4H27.25V5.25H28.5V6.5H29.75V10.25H28.5V11.5H27.25V12.75H21ZM23.5 11.5H26V10.25H27.25V6.5H26V5.25H23.5V11.5ZM32.25 12.75V11.5H31V5.25H32.25V4H38.5V5.25H39.75V11.5H38.5V12.75H32.25ZM33.5 11.5H37.25V5.25H33.5V11.5ZM51 12.75V4H58.5V5.25H59.75V9H58.5V10.25H53.5V12.75H51ZM53.5 9H57.25V5.25H53.5V9ZM62.25 12.75V11.5H64.75V5.25H62.25V4H69.75V5.25H67.25V11.5H69.75V12.75H62.25ZM71 12.75V10.25H72.25V9H73.5V7.75H74.75V6.5H76V5.25H71V4H79.75V6.5H78.5V7.75H77.25V9H76V10.25H74.75V11.5H79.75V12.75H71ZM81 12.75V10.25H82.25V9H83.5V7.75H84.75V6.5H86V5.25H81V4H89.75V6.5H88.5V7.75H87.25V9H86V10.25H84.75V11.5H89.75V12.75H81ZM91 12.75V6.5H92.25V5.25H93.5V4H97.25V5.25H98.5V6.5H99.75V12.75H97.25V10.25H93.5V12.75H91ZM93.5 9H97.25V6.5H96V5.25H94.75V6.5H93.5V9ZM111 12.75V4H119.75V5.25H113.5V7.75H118.5V9H113.5V11.5H119.75V12.75H111ZM121 12.75V4H123.5V5.25H124.75V6.5H126V7.75H127.25V4H129.75V12.75H127.25V10.25H126V9H124.75V7.75H123.5V12.75H121ZM133.5 12.75V11.5H132.25V10.25H131V6.5H132.25V5.25H133.5V4H139.75V5.25H134.75V6.5H133.5V10.25H134.75V11.5H137.25V9H136V7.75H139.75V12.75H133.5ZM142.25 12.75V11.5H144.75V5.25H142.25V4H149.75V5.25H147.25V11.5H149.75V12.75H142.25ZM151 12.75V4H153.5V5.25H154.75V6.5H156V7.75H157.25V4H159.75V12.75H157.25V10.25H156V9H154.75V7.75H153.5V12.75H151ZM161 12.75V4H169.75V5.25H163.5V7.75H168.5V9H163.5V11.5H169.75V12.75H161ZM171 12.75V4H179.75V5.25H173.5V7.75H178.5V9H173.5V11.5H179.75V12.75H171ZM181 12.75V4H188.5V5.25H189.75V9H187.25V10.25H188.5V11.5H189.75V12.75H186V11.5H184.75V10.25H183.5V12.75H181ZM183.5 9H186V7.75H187.25V5.25H183.5V9ZM192.25 12.75V11.5H194.75V5.25H192.25V4H199.75V5.25H197.25V11.5H199.75V12.75H192.25ZM201 12.75V4H203.5V5.25H204.75V6.5H206V7.75H207.25V4H209.75V12.75H207.25V10.25H206V9H204.75V7.75H203.5V12.75H201ZM213.5 12.75V11.5H212.25V10.25H211V6.5H212.25V5.25H213.5V4H219.75V5.25H214.75V6.5H213.5V10.25H214.75V11.5H217.25V9H216V7.75H219.75V12.75H213.5ZM238.5 5.25H233.5V4H238.5V5.25ZM233.5 6.5H232.25V5.25H233.5V6.5ZM238.5 6.5V5.25H239.75V6.5H238.5ZM232.25 6.5V11.5H231V6.5H232.25ZM234.75 6.5H237.25V7.75H234.75V6.5ZM241 6.5V11.5H239.75V6.5H241ZM233.5 7.75H234.75V10.25H233.5V7.75ZM234.75 11.5V10.25H237.25V11.5H234.75ZM233.5 11.5V12.75H232.25V11.5H233.5ZM238.5 11.5H239.75V12.75H238.5V11.5ZM233.5 12.75H238.5V14H233.5V12.75ZM251 12.75V10.25H252.25V9H253.5V7.75H256V6.5H257.25V5.25H253.5V6.5H251V5.25H252.25V4H258.5V5.25H259.75V7.75H258.5V9H257.25V10.25H254.75V11.5H259.75V12.75H251ZM263.5 12.75V11.5H262.25V10.25H261V6.5H262.25V5.25H263.5V4H267.25V5.25H268.5V6.5H269.75V10.25H268.5V11.5H267.25V12.75H263.5ZM264.75 11.5H267.25V6.5H266V5.25H263.5V10.25H264.75V11.5ZM271 12.75V10.25H272.25V9H273.5V7.75H276V6.5H277.25V5.25H273.5V6.5H271V5.25H272.25V4H278.5V5.25H279.75V7.75H278.5V9H277.25V10.25H274.75V11.5H279.75V12.75H271ZM283.5 12.75V11.5H282.25V10.25H281V6.5H282.25V5.25H283.5V4H287.25V5.25H288.5V6.5H289.75V10.25H288.5V11.5H287.25V12.75H283.5ZM284.75 11.5H287.25V6.5H286V5.25H283.5V10.25H284.75V11.5Z" fill="#92CCFF"/>
<path d="M0 11.75V3H6.25V4.25H7.5V5.5H8.75V9.25H7.5V10.5H6.25V11.75H0ZM2.5 10.5H5V9.25H6.25V5.5H5V4.25H2.5V10.5ZM11.25 11.75V10.5H10V4.25H11.25V3H17.5V4.25H18.75V10.5H17.5V11.75H11.25ZM12.5 10.5H16.25V4.25H12.5V10.5ZM20 11.75V3H26.25V4.25H27.5V5.5H28.75V9.25H27.5V10.5H26.25V11.75H20ZM22.5 10.5H25V9.25H26.25V5.5H25V4.25H22.5V10.5ZM31.25 11.75V10.5H30V4.25H31.25V3H37.5V4.25H38.75V10.5H37.5V11.75H31.25ZM32.5 10.5H36.25V4.25H32.5V10.5ZM50 11.75V3H57.5V4.25H58.75V8H57.5V9.25H52.5V11.75H50ZM52.5 8H56.25V4.25H52.5V8ZM61.25 11.75V10.5H63.75V4.25H61.25V3H68.75V4.25H66.25V10.5H68.75V11.75H61.25ZM70 11.75V9.25H71.25V8H72.5V6.75H73.75V5.5H75V4.25H70V3H78.75V5.5H77.5V6.75H76.25V8H75V9.25H73.75V10.5H78.75V11.75H70ZM80 11.75V9.25H81.25V8H82.5V6.75H83.75V5.5H85V4.25H80V3H88.75V5.5H87.5V6.75H86.25V8H85V9.25H83.75V10.5H88.75V11.75H80ZM90 11.75V5.5H91.25V4.25H92.5V3H96.25V4.25H97.5V5.5H98.75V11.75H96.25V9.25H92.5V11.75H90ZM92.5 8H96.25V5.5H95V4.25H93.75V5.5H92.5V8ZM110 11.75V3H118.75V4.25H112.5V6.75H117.5V8H112.5V10.5H118.75V11.75H110ZM120 11.75V3H122.5V4.25H123.75V5.5H125V6.75H126.25V3H128.75V11.75H126.25V9.25H125V8H123.75V6.75H122.5V11.75H120ZM132.5 11.75V10.5H131.25V9.25H130V5.5H131.25V4.25H132.5V3H138.75V4.25H133.75V5.5H132.5V9.25H133.75V10.5H136.25V8H135V6.75H138.75V11.75H132.5ZM141.25 11.75V10.5H143.75V4.25H141.25V3H148.75V4.25H146.25V10.5H148.75V11.75H141.25ZM150 11.75V3H152.5V4.25H153.75V5.5H155V6.75H156.25V3H158.75V11.75H156.25V9.25H155V8H153.75V6.75H152.5V11.75H150ZM160 11.75V3H168.75V4.25H162.5V6.75H167.5V8H162.5V10.5H168.75V11.75H160ZM170 11.75V3H178.75V4.25H172.5V6.75H177.5V8H172.5V10.5H178.75V11.75H170ZM180 11.75V3H187.5V4.25H188.75V8H186.25V9.25H187.5V10.5H188.75V11.75H185V10.5H183.75V9.25H182.5V11.75H180ZM182.5 8H185V6.75H186.25V4.25H182.5V8ZM191.25 11.75V10.5H193.75V4.25H191.25V3H198.75V4.25H196.25V10.5H198.75V11.75H191.25ZM200 11.75V3H202.5V4.25H203.75V5.5H205V6.75H206.25V3H208.75V11.75H206.25V9.25H205V8H203.75V6.75H202.5V11.75H200ZM212.5 11.75V10.5H211.25V9.25H210V5.5H211.25V4.25H212.5V3H218.75V4.25H213.75V5.5H212.5V9.25H213.75V10.5H216.25V8H215V6.75H218.75V11.75H212.5ZM237.5 4.25H232.5V3H237.5V4.25ZM232.5 5.5H231.25V4.25H232.5V5.5ZM237.5 5.5V4.25H238.75V5.5H237.5ZM231.25 5.5V10.5H230V5.5H231.25ZM233.75 5.5H236.25V6.75H233.75V5.5ZM240 5.5V10.5H238.75V5.5H240ZM232.5 6.75H233.75V9.25H232.5V6.75ZM233.75 10.5V9.25H236.25V10.5H233.75ZM232.5 10.5V11.75H231.25V10.5H232.5ZM237.5 10.5H238.75V11.75H237.5V10.5ZM232.5 11.75H237.5V13H232.5V11.75ZM250 11.75V9.25H251.25V8H252.5V6.75H255V5.5H256.25V4.25H252.5V5.5H250V4.25H251.25V3H257.5V4.25H258.75V6.75H257.5V8H256.25V9.25H253.75V10.5H258.75V11.75H250ZM262.5 11.75V10.5H261.25V9.25H260V5.5H261.25V4.25H262.5V3H266.25V4.25H267.5V5.5H268.75V9.25H267.5V10.5H266.25V11.75H262.5ZM263.75 10.5H266.25V5.5H265V4.25H262.5V9.25H263.75V10.5ZM270 11.75V9.25H271.25V8H272.5V6.75H275V5.5H276.25V4.25H272.5V5.5H270V4.25H271.25V3H277.5V4.25H278.75V6.75H277.5V8H276.25V9.25H273.75V10.5H278.75V11.75H270ZM282.5 11.75V10.5H281.25V9.25H280V5.5H281.25V4.25H282.5V3H286.25V4.25H287.5V5.5H288.75V9.25H287.5V10.5H286.25V11.75H282.5ZM283.75 10.5H286.25V5.5H285V4.25H282.5V9.25H283.75V10.5Z" fill="#374A5C"/>
</g>
<defs>
<clipPath id="clip0">
<rect width="182" height="16" fill="white" transform="translate(48)"/>
</clipPath>
<clipPath id="clip1">
<rect width="48" height="11" fill="white" transform="translate(0 3)"/>
</clipPath>
</defs>
</svg>
