<?xml version="1.0" encoding="utf-8"?>
<!-- Generator: Adobe Illustrator 26.0.3, SVG Export Plug-In . SVG Version: 6.00 Build 0)  -->
<svg version="1.1" id="Слой_1" xmlns="http://www.w3.org/2000/svg" xmlns:xlink="http://www.w3.org/1999/xlink" x="0px" y="0px"
	 viewBox="0 0 231 16" style="enable-background:new 0 0 231 16;" xml:space="preserve">
<style type="text/css">
	.st0{fill:#92CCFF;}
	.st1{fill:#374A5C;}
</style>
<polygon class="st0" points="230,7.7 230,5.2 228.8,5.2 228.8,4 222.5,4 222.5,5.2 221.2,5.2 221.2,6.5 223.8,6.5 223.8,5.2 
	227.5,5.2 227.5,6.5 226.2,6.5 226.2,7.7 223.8,7.7 223.8,9 226.2,9 226.2,10.2 227.5,10.2 227.5,11.5 223.8,11.5 223.8,10.2 
	221.2,10.2 221.2,11.5 222.5,11.5 222.5,12.7 228.8,12.7 228.8,11.5 230,11.5 230,9 228.8,9 228.8,7.7 "/>
<path class="st0" d="M1,12.7V4h6.2v1.2h1.2v1.2h1.2v3.8H8.5v1.2H7.2v1.2H1z M3.5,11.5H6v-1.2h1.2V6.5H6V5.2H3.5V11.5z M12.2,12.7
	v-1.2H11V5.2h1.2V4h6.2v1.2h1.2v6.3h-1.2v1.2H12.2z M13.5,11.5h3.8V5.2h-3.8V11.5z M21,12.7V4h6.2v1.2h1.2v1.2h1.2v3.8h-1.2v1.2
	h-1.2v1.2H21z M23.5,11.5H26v-1.2h1.2V6.5H26V5.2h-2.5V11.5z M32.2,12.7v-1.2H31V5.2h1.2V4h6.2v1.2h1.2v6.3h-1.2v1.2H32.2z
	 M33.5,11.5h3.8V5.2h-3.8V11.5z M51,12.7V4h8.8v1.2h-6.2v2.5h5V9h-5v2.5h6.2v1.2H51z M61,12.7V4h2.5v1.2h1.2v1.2H66v1.2h1.2V4h2.5
	v8.8h-2.5v-2.5H66V9h-1.2V7.7h-1.2v5H61z M73.5,12.7v-1.2h-1.2v-1.2H71V6.5h1.2V5.2h1.2V4h6.2v1.2h-5v1.2h-1.2v3.8h1.2v1.2h2.5V9H76
	V7.7h3.8v5H73.5z M82.2,12.7v-1.2h2.5V5.2h-2.5V4h7.5v1.2h-2.5v6.3h2.5v1.2H82.2z M91,12.7V4h2.5v1.2h1.2v1.2H96v1.2h1.2V4h2.5v8.8
	h-2.5v-2.5H96V9h-1.2V7.7h-1.2v5H91z M101,12.7V4h8.8v1.2h-6.2v2.5h5V9h-5v2.5h6.2v1.2H101z M111,12.7V4h8.8v1.2h-6.2v2.5h5V9h-5
	v2.5h6.2v1.2H111z M121,12.7V4h7.5v1.2h1.2V9h-2.5v1.2h1.2v1.2h1.2v1.2H126v-1.2h-1.2v-1.2h-1.2v2.5H121z M123.5,9h2.5V7.7h1.2V5.2
	h-3.8V9z M132.2,12.7v-1.2h2.5V5.2h-2.5V4h7.5v1.2h-2.5v6.3h2.5v1.2H132.2z M141,12.7V4h2.5v1.2h1.2v1.2h1.2v1.2h1.2V4h2.5v8.8h-2.5
	v-2.5H146V9h-1.2V7.7h-1.2v5H141z M153.5,12.7v-1.2h-1.2v-1.2H151V6.5h1.2V5.2h1.2V4h6.2v1.2h-5v1.2h-1.2v3.8h1.2v1.2h2.5V9H156V7.7
	h3.8v5H153.5z M178.5,5.2h-5V4h5V5.2z M173.5,6.5h-1.2V5.2h1.2V6.5z M178.5,6.5V5.2h1.2v1.2H178.5z M172.2,6.5v5H171v-5H172.2z
	 M174.8,6.5h2.5v1.2h-2.5V6.5z M181,6.5v5h-1.2v-5H181z M173.5,7.7h1.2v2.5h-1.2V7.7z M174.8,11.5v-1.2h2.5v1.2H174.8z M173.5,11.5
	v1.2h-1.2v-1.2H173.5z M178.5,11.5h1.2v1.2h-1.2V11.5z M173.5,12.7h5V14h-5V12.7z M191,12.7v-2.5h1.2V9h1.2V7.7h2.5V6.5h1.2V5.2
	h-3.8v1.2H191V5.2h1.2V4h6.2v1.2h1.2v2.5h-1.2V9h-1.2v1.2h-2.5v1.2h5v1.2H191z M203.5,12.7v-1.2h-1.2v-1.2H201V6.5h1.2V5.2h1.2V4
	h3.8v1.2h1.2v1.2h1.2v3.8h-1.2v1.2h-1.2v1.2H203.5z M204.8,11.5h2.5v-5H206V5.2h-2.5v5h1.2V11.5z M211,12.7v-2.5h1.2V9h1.2V7.7h2.5
	V6.5h1.2V5.2h-3.8v1.2H211V5.2h1.2V4h6.2v1.2h1.2v2.5h-1.2V9h-1.2v1.2h-2.5v1.2h5v1.2H211z"/>
<path class="st1" d="M0,11.7V3h6.2v1.2h1.2v1.2h1.2v3.8H7.5v1.2H6.2v1.2H0z M2.5,10.5H5V9.2h1.2V5.5H5V4.2H2.5V10.5z M11.2,11.7
	v-1.2H10V4.2h1.2V3h6.2v1.2h1.2v6.3h-1.2v1.2H11.2z M12.5,10.5h3.8V4.2h-3.8V10.5z M20,11.7V3h6.2v1.2h1.2v1.2h1.2v3.8h-1.2v1.2
	h-1.2v1.2H20z M22.5,10.5H25V9.2h1.2V5.5H25V4.2h-2.5V10.5z M31.2,11.7v-1.2H30V4.2h1.2V3h6.2v1.2h1.2v6.3h-1.2v1.2H31.2z
	 M32.5,10.5h3.8V4.2h-3.8V10.5z M50,11.7V3h8.8v1.2h-6.2v2.5h5V8h-5v2.5h6.2v1.2H50z M60,11.7V3h2.5v1.2h1.2v1.2H65v1.2h1.2V3h2.5
	v8.8h-2.5V9.2H65V8h-1.2V6.7h-1.2v5H60z M72.5,11.7v-1.2h-1.2V9.2H70V5.5h1.2V4.2h1.2V3h6.2v1.2h-5v1.2h-1.2v3.8h1.2v1.2h2.5V8H75
	V6.7h3.8v5H72.5z M81.2,11.7v-1.2h2.5V4.2h-2.5V3h7.5v1.2h-2.5v6.3h2.5v1.2H81.2z M90,11.7V3h2.5v1.2h1.2v1.2H95v1.2h1.2V3h2.5v8.8
	h-2.5V9.2H95V8h-1.2V6.7h-1.2v5H90z M100,11.7V3h8.8v1.2h-6.2v2.5h5V8h-5v2.5h6.2v1.2H100z M110,11.7V3h8.8v1.2h-6.2v2.5h5V8h-5v2.5
	h6.2v1.2H110z M120,11.7V3h7.5v1.2h1.2V8h-2.5v1.3h1.2v1.2h1.2v1.2H125v-1.2h-1.2V9.2h-1.2v2.5H120z M122.5,8h2.5V6.7h1.2V4.2h-3.8
	V8z M131.2,11.7v-1.2h2.5V4.2h-2.5V3h7.5v1.2h-2.5v6.3h2.5v1.2H131.2z M140,11.7V3h2.5v1.2h1.2v1.2h1.2v1.2h1.2V3h2.5v8.8h-2.5V9.2
	H145V8h-1.2V6.7h-1.2v5H140z M152.5,11.7v-1.2h-1.2V9.2H150V5.5h1.2V4.2h1.2V3h6.2v1.2h-5v1.2h-1.2v3.8h1.2v1.2h2.5V8H155V6.7h3.8v5
	H152.5z M177.5,4.2h-5V3h5V4.2z M172.5,5.5h-1.2V4.2h1.2V5.5z M177.5,5.5V4.2h1.2v1.2H177.5z M171.2,5.5v5H170v-5H171.2z M173.8,5.5
	h2.5v1.2h-2.5V5.5z M180,5.5v5h-1.2v-5H180z M172.5,6.7h1.2v2.5h-1.2V6.7z M173.8,10.5V9.2h2.5v1.2H173.8z M172.5,10.5v1.2h-1.2
	v-1.2H172.5z M177.5,10.5h1.2v1.2h-1.2V10.5z M172.5,11.7h5V13h-5V11.7z M190,11.7V9.2h1.2V8h1.2V6.7h2.5V5.5h1.2V4.2h-3.8v1.2H190
	V4.2h1.2V3h6.2v1.2h1.2v2.5h-1.2V8h-1.2v1.3h-2.5v1.2h5v1.2H190z M202.5,11.7v-1.2h-1.2V9.2H200V5.5h1.2V4.2h1.2V3h3.8v1.2h1.2v1.2
	h1.2v3.8h-1.2v1.2h-1.2v1.2H202.5z M203.8,10.5h2.5v-5H205V4.2h-2.5v5h1.2V10.5z M210,11.7V9.2h1.2V8h1.2V6.7h2.5V5.5h1.2V4.2h-3.8
	v1.2H210V4.2h1.2V3h6.2v1.2h1.2v2.5h-1.2V8h-1.2v1.3h-2.5v1.2h5v1.2H210z"/>
<polygon class="st1" points="229,6.8 229,4.2 227.8,4.2 227.8,3 221.5,3 221.5,4.2 220.3,4.2 220.3,5.5 222.8,5.5 222.8,4.2 
	226.5,4.2 226.5,5.5 225.3,5.5 225.3,6.8 222.8,6.8 222.8,8 225.3,8 225.3,9.2 226.5,9.2 226.5,10.5 222.8,10.5 222.8,9.2 
	220.3,9.2 220.3,10.5 221.5,10.5 221.5,11.8 227.8,11.8 227.8,10.5 229,10.5 229,8 227.8,8 227.8,6.8 "/>
</svg>
