<svg width="290" height="11" viewBox="0 0 290 11" fill="none" xmlns="http://www.w3.org/2000/svg">
<path d="M1 9.75V1H7.25V2.25H8.5V3.5H9.75V7.25H8.5V8.5H7.25V9.75H1ZM3.5 8.5H6V7.25H7.25V3.5H6V2.25H3.5V8.5Z" fill="#92CCFF"/>
<path d="M12.25 9.75V8.5H11V2.25H12.25V1H18.5V2.25H19.75V8.5H18.5V9.75H12.25ZM13.5 8.5H17.25V2.25H13.5V8.5Z" fill="#92CCFF"/>
<path d="M21 9.75V1H27.25V2.25H28.5V3.5H29.75V7.25H28.5V8.5H27.25V9.75H21ZM23.5 8.5H26V7.25H27.25V3.5H26V2.25H23.5V8.5Z" fill="#92CCFF"/>
<path d="M32.25 9.75V8.5H31V2.25H32.25V1H38.5V2.25H39.75V8.5H38.5V9.75H32.25ZM33.5 8.5H37.25V2.25H33.5V8.5Z" fill="#92CCFF"/>
<path d="M51 9.75V1H58.5V2.25H59.75V6H58.5V7.25H53.5V9.75H51ZM53.5 6H57.25V2.25H53.5V6Z" fill="#92CCFF"/>
<path d="M62.25 9.75V8.5H64.75V2.25H62.25V1H69.75V2.25H67.25V8.5H69.75V9.75H62.25Z" fill="#92CCFF"/>
<path d="M71 9.75V7.25H72.25V6H73.5V4.75H74.75V3.5H76V2.25H71V1H79.75V3.5H78.5V4.75H77.25V6H76V7.25H74.75V8.5H79.75V9.75H71Z" fill="#92CCFF"/>
<path d="M81 9.75V7.25H82.25V6H83.5V4.75H84.75V3.5H86V2.25H81V1H89.75V3.5H88.5V4.75H87.25V6H86V7.25H84.75V8.5H89.75V9.75H81Z" fill="#92CCFF"/>
<path d="M91 9.75V3.5H92.25V2.25H93.5V1H97.25V2.25H98.5V3.5H99.75V9.75H97.25V7.25H93.5V9.75H91ZM93.5 6H97.25V3.5H96V2.25H94.75V3.5H93.5V6Z" fill="#92CCFF"/>
<path d="M111 9.75V1H119.75V2.25H113.5V4.75H118.5V6H113.5V8.5H119.75V9.75H111Z" fill="#92CCFF"/>
<path d="M121 9.75V1H123.5V2.25H124.75V3.5H126V4.75H127.25V1H129.75V9.75H127.25V7.25H126V6H124.75V4.75H123.5V9.75H121Z" fill="#92CCFF"/>
<path d="M133.5 9.75V8.5H132.25V7.25H131V3.5H132.25V2.25H133.5V1H139.75V2.25H134.75V3.5H133.5V7.25H134.75V8.5H137.25V6H136V4.75H139.75V9.75H133.5Z" fill="#92CCFF"/>
<path d="M142.25 9.75V8.5H144.75V2.25H142.25V1H149.75V2.25H147.25V8.5H149.75V9.75H142.25Z" fill="#92CCFF"/>
<path d="M151 9.75V1H153.5V2.25H154.75V3.5H156V4.75H157.25V1H159.75V9.75H157.25V7.25H156V6H154.75V4.75H153.5V9.75H151Z" fill="#92CCFF"/>
<path d="M161 9.75V1H169.75V2.25H163.5V4.75H168.5V6H163.5V8.5H169.75V9.75H161Z" fill="#92CCFF"/>
<path d="M171 9.75V1H179.75V2.25H173.5V4.75H178.5V6H173.5V8.5H179.75V9.75H171Z" fill="#92CCFF"/>
<path d="M181 9.75V1H188.5V2.25H189.75V6H187.25V7.25H188.5V8.5H189.75V9.75H186V8.5H184.75V7.25H183.5V9.75H181ZM183.5 6H186V4.75H187.25V2.25H183.5V6Z" fill="#92CCFF"/>
<path d="M192.25 9.75V8.5H194.75V2.25H192.25V1H199.75V2.25H197.25V8.5H199.75V9.75H192.25Z" fill="#92CCFF"/>
<path d="M201 9.75V1H203.5V2.25H204.75V3.5H206V4.75H207.25V1H209.75V9.75H207.25V7.25H206V6H204.75V4.75H203.5V9.75H201Z" fill="#92CCFF"/>
<path d="M213.5 9.75V8.5H212.25V7.25H211V3.5H212.25V2.25H213.5V1H219.75V2.25H214.75V3.5H213.5V7.25H214.75V8.5H217.25V6H216V4.75H219.75V9.75H213.5Z" fill="#92CCFF"/>
<path d="M238.5 2.25H233.5V1H238.5V2.25ZM233.5 3.5H232.25V2.25H233.5V3.5ZM238.5 3.5V2.25H239.75V3.5H238.5ZM232.25 3.5V8.5H231V3.5H232.25ZM234.75 3.5H237.25V4.75H234.75V3.5ZM241 3.5V8.5H239.75V3.5H241ZM233.5 4.75H234.75V7.25H233.5V4.75ZM234.75 8.5V7.25H237.25V8.5H234.75ZM233.5 8.5V9.75H232.25V8.5H233.5ZM238.5 8.5H239.75V9.75H238.5V8.5ZM233.5 9.75H238.5V11H233.5V9.75Z" fill="#92CCFF"/>
<path d="M251 9.75V7.25H252.25V6H253.5V4.75H256V3.5H257.25V2.25H253.5V3.5H251V2.25H252.25V1H258.5V2.25H259.75V4.75H258.5V6H257.25V7.25H254.75V8.5H259.75V9.75H251Z" fill="#92CCFF"/>
<path d="M263.5 9.75V8.5H262.25V7.25H261V3.5H262.25V2.25H263.5V1H267.25V2.25H268.5V3.5H269.75V7.25H268.5V8.5H267.25V9.75H263.5ZM264.75 8.5H267.25V3.5H266V2.25H263.5V7.25H264.75V8.5Z" fill="#92CCFF"/>
<path d="M272.25 9.75V8.5H274.75V3.5H273.5V2.25H274.75V1H277.25V8.5H279.75V9.75H272.25Z" fill="#92CCFF"/>
<path d="M282.25 9.75V8.5H286V7.25H287.25V6H282.25V4.75H281V2.25H282.25V1H288.5V2.25H289.75V7.25H288.5V8.5H287.25V9.75H282.25ZM283.5 4.75H287.25V2.25H283.5V4.75Z" fill="#92CCFF"/>
<path d="M0 8.75V0H6.25V1.25H7.5V2.5H8.75V6.25H7.5V7.5H6.25V8.75H0ZM2.5 7.5H5V6.25H6.25V2.5H5V1.25H2.5V7.5Z" fill="#374A5C"/>
<path d="M11.25 8.75V7.5H10V1.25H11.25V0H17.5V1.25H18.75V7.5H17.5V8.75H11.25ZM12.5 7.5H16.25V1.25H12.5V7.5Z" fill="#374A5C"/>
<path d="M20 8.75V0H26.25V1.25H27.5V2.5H28.75V6.25H27.5V7.5H26.25V8.75H20ZM22.5 7.5H25V6.25H26.25V2.5H25V1.25H22.5V7.5Z" fill="#374A5C"/>
<path d="M31.25 8.75V7.5H30V1.25H31.25V0H37.5V1.25H38.75V7.5H37.5V8.75H31.25ZM32.5 7.5H36.25V1.25H32.5V7.5Z" fill="#374A5C"/>
<path d="M50 8.75V0H57.5V1.25H58.75V5H57.5V6.25H52.5V8.75H50ZM52.5 5H56.25V1.25H52.5V5Z" fill="#374A5C"/>
<path d="M61.25 8.75V7.5H63.75V1.25H61.25V0H68.75V1.25H66.25V7.5H68.75V8.75H61.25Z" fill="#374A5C"/>
<path d="M70 8.75V6.25H71.25V5H72.5V3.75H73.75V2.5H75V1.25H70V0H78.75V2.5H77.5V3.75H76.25V5H75V6.25H73.75V7.5H78.75V8.75H70Z" fill="#374A5C"/>
<path d="M80 8.75V6.25H81.25V5H82.5V3.75H83.75V2.5H85V1.25H80V0H88.75V2.5H87.5V3.75H86.25V5H85V6.25H83.75V7.5H88.75V8.75H80Z" fill="#374A5C"/>
<path d="M90 8.75V2.5H91.25V1.25H92.5V0H96.25V1.25H97.5V2.5H98.75V8.75H96.25V6.25H92.5V8.75H90ZM92.5 5H96.25V2.5H95V1.25H93.75V2.5H92.5V5Z" fill="#374A5C"/>
<path d="M110 8.75V0H118.75V1.25H112.5V3.75H117.5V5H112.5V7.5H118.75V8.75H110Z" fill="#374A5C"/>
<path d="M120 8.75V0H122.5V1.25H123.75V2.5H125V3.75H126.25V0H128.75V8.75H126.25V6.25H125V5H123.75V3.75H122.5V8.75H120Z" fill="#374A5C"/>
<path d="M132.5 8.75V7.5H131.25V6.25H130V2.5H131.25V1.25H132.5V0H138.75V1.25H133.75V2.5H132.5V6.25H133.75V7.5H136.25V5H135V3.75H138.75V8.75H132.5Z" fill="#374A5C"/>
<path d="M141.25 8.75V7.5H143.75V1.25H141.25V0H148.75V1.25H146.25V7.5H148.75V8.75H141.25Z" fill="#374A5C"/>
<path d="M150 8.75V0H152.5V1.25H153.75V2.5H155V3.75H156.25V0H158.75V8.75H156.25V6.25H155V5H153.75V3.75H152.5V8.75H150Z" fill="#374A5C"/>
<path d="M160 8.75V0H168.75V1.25H162.5V3.75H167.5V5H162.5V7.5H168.75V8.75H160Z" fill="#374A5C"/>
<path d="M170 8.75V0H178.75V1.25H172.5V3.75H177.5V5H172.5V7.5H178.75V8.75H170Z" fill="#374A5C"/>
<path d="M180 8.75V0H187.5V1.25H188.75V5H186.25V6.25H187.5V7.5H188.75V8.75H185V7.5H183.75V6.25H182.5V8.75H180ZM182.5 5H185V3.75H186.25V1.25H182.5V5Z" fill="#374A5C"/>
<path d="M191.25 8.75V7.5H193.75V1.25H191.25V0H198.75V1.25H196.25V7.5H198.75V8.75H191.25Z" fill="#374A5C"/>
<path d="M200 8.75V0H202.5V1.25H203.75V2.5H205V3.75H206.25V0H208.75V8.75H206.25V6.25H205V5H203.75V3.75H202.5V8.75H200Z" fill="#374A5C"/>
<path d="M212.5 8.75V7.5H211.25V6.25H210V2.5H211.25V1.25H212.5V0H218.75V1.25H213.75V2.5H212.5V6.25H213.75V7.5H216.25V5H215V3.75H218.75V8.75H212.5Z" fill="#374A5C"/>
<path d="M237.5 1.25H232.5V0H237.5V1.25ZM232.5 2.5H231.25V1.25H232.5V2.5ZM237.5 2.5V1.25H238.75V2.5H237.5ZM231.25 2.5V7.5H230V2.5H231.25ZM233.75 2.5H236.25V3.75H233.75V2.5ZM240 2.5V7.5H238.75V2.5H240ZM232.5 3.75H233.75V6.25H232.5V3.75ZM233.75 7.5V6.25H236.25V7.5H233.75ZM232.5 7.5V8.75H231.25V7.5H232.5ZM237.5 7.5H238.75V8.75H237.5V7.5ZM232.5 8.75H237.5V10H232.5V8.75Z" fill="#374A5C"/>
<path d="M250 8.75V6.25H251.25V5H252.5V3.75H255V2.5H256.25V1.25H252.5V2.5H250V1.25H251.25V0H257.5V1.25H258.75V3.75H257.5V5H256.25V6.25H253.75V7.5H258.75V8.75H250Z" fill="#374A5C"/>
<path d="M262.5 8.75V7.5H261.25V6.25H260V2.5H261.25V1.25H262.5V0H266.25V1.25H267.5V2.5H268.75V6.25H267.5V7.5H266.25V8.75H262.5ZM263.75 7.5H266.25V2.5H265V1.25H262.5V6.25H263.75V7.5Z" fill="#374A5C"/>
<path d="M271.25 8.75V7.5H273.75V2.5H272.5V1.25H273.75V0H276.25V7.5H278.75V8.75H271.25Z" fill="#374A5C"/>
<path d="M281.25 8.75V7.5H285V6.25H286.25V5H281.25V3.75H280V1.25H281.25V0H287.5V1.25H288.75V6.25H287.5V7.5H286.25V8.75H281.25ZM282.5 3.75H286.25V1.25H282.5V3.75Z" fill="#374A5C"/>
</svg>
