<svg width="92" height="32" viewBox="0 0 92 32" fill="none" xmlns="http://www.w3.org/2000/svg">
<path d="M92.0001 10.5498H89.3711V13.1808H92.0001V10.5498Z" fill="#253747"/>
<path d="M92.0001 2.6377H89.3711V5.27526H92.0001V2.6377Z" fill="#253747"/>
<path d="M89.3711 7.91211H86.7422V10.5497H89.3711V7.91211Z" fill="#253747"/>
<path d="M89.3711 5.27539H86.7422V7.91296H89.3711V5.27539Z" fill="#1A2C3A"/>
<path d="M89.3711 0H86.7422V2.63757H89.3711V0Z" fill="#1A2C3A"/>
<path d="M86.7422 5.27539H84.1133V7.91296H86.7422V5.27539Z" fill="#1A2C3A"/>
<path d="M86.7422 0H84.1133V2.63757H86.7422V0Z" fill="#1A2C3A"/>
<path d="M84.1133 10.5498H81.4844V13.1808H84.1133V10.5498Z" fill="#253747"/>
<path d="M84.1133 7.91211H81.4844V10.5497H84.1133V7.91211Z" fill="#253747"/>
<path d="M84.1133 5.27539H81.4844V7.91296H84.1133V5.27539Z" fill="#1A2C3A"/>
<path d="M84.1133 2.6377H81.4844V5.27526H84.1133V2.6377Z" fill="#1A2C3A"/>
<path d="M84.1133 0H81.4844V2.63757H84.1133V0Z" fill="#1A2C3A"/>
<path d="M78.8555 10.5498H76.2266V13.1808H78.8555V10.5498Z" fill="#253747"/>
<path d="M78.8555 5.27539H76.2266V7.91296H78.8555V5.27539Z" fill="#253747"/>
<path d="M78.8555 0H76.2266V2.63757H78.8555V0Z" fill="#253747"/>
<path d="M76.2266 10.5498H73.5977V13.1808H76.2266V10.5498Z" fill="#253747"/>
<path d="M76.2266 5.27539H73.5977V7.91296H76.2266V5.27539Z" fill="#1A2C3A"/>
<path d="M76.2266 0H73.5977V2.63757H76.2266V0Z" fill="#1A2C3A"/>
<path d="M73.5977 10.5498H70.9688V13.1808H73.5977V10.5498Z" fill="#253747"/>
<path d="M73.5977 5.27539H70.9688V7.91296H73.5977V5.27539Z" fill="#1A2C3A"/>
<path d="M73.5977 0H70.9688V2.63757H73.5977V0Z" fill="#1A2C3A"/>
<path d="M70.9678 10.5498H68.3389V13.1808H70.9678V10.5498Z" fill="#253747"/>
<path d="M70.9678 7.91211H68.3389V10.5497H70.9678V7.91211Z" fill="#253747"/>
<path d="M70.9678 5.27539H68.3389V7.91296H70.9678V5.27539Z" fill="#1A2C3A"/>
<path d="M70.9678 2.6377H68.3389V5.27526H70.9678V2.6377Z" fill="#1A2C3A"/>
<path d="M70.9678 0H68.3389V2.63757H70.9678V0Z" fill="#1A2C3A"/>
<path d="M65.7168 7.91211H63.0879V10.5497H65.7168V7.91211Z" fill="#253747"/>
<path d="M65.7168 5.27539H63.0879V7.91296H65.7168V5.27539Z" fill="#253747"/>
<path d="M65.7168 0H63.0879V2.63757H65.7168V0Z" fill="#253747"/>
<path d="M63.0879 10.5498H60.459V13.1808H63.0879V10.5498Z" fill="#253747"/>
<path d="M63.0879 5.27539H60.459V7.91296H63.0879V5.27539Z" fill="#1A2C3A"/>
<path d="M63.0879 0H60.459V2.63757H63.0879V0Z" fill="#1A2C3A"/>
<path d="M60.459 10.5498H57.8301V13.1808H60.459V10.5498Z" fill="#253747"/>
<path d="M60.459 0H57.8301V2.63757H60.459V0Z" fill="#1A2C3A"/>
<path d="M57.8301 7.91211H55.2012V10.5497H57.8301V7.91211Z" fill="#253747"/>
<path d="M57.8301 5.27539H55.2012V7.91296H57.8301V5.27539Z" fill="#253747"/>
<path d="M57.8301 2.6377H55.2012V5.27526H57.8301V2.6377Z" fill="#1A2C3A"/>
<path d="M52.5723 26.3623H49.9434V28.9999H52.5723V26.3623Z" fill="#253747"/>
<path d="M52.5723 21.0938H49.9434V23.7313H52.5723V21.0938Z" fill="#253747"/>
<path d="M52.5723 15.8184H49.9434V18.4559H52.5723V15.8184Z" fill="#253747"/>
<path d="M52.5723 10.5498H49.9434V13.1808H52.5723V10.5498Z" fill="#253747"/>
<path d="M52.5723 7.91211H49.9434V10.5497H52.5723V7.91211Z" fill="#253747"/>
<path d="M52.5723 5.27539H49.9434V7.91296H52.5723V5.27539Z" fill="#253747"/>
<path d="M52.5723 2.6377H49.9434V5.27526H52.5723V2.6377Z" fill="#1A2C3A"/>
<path d="M49.9434 26.3623H47.3145V28.9999H49.9434V26.3623Z" fill="#253747"/>
<path d="M49.9434 21.0938H47.3145V23.7313H49.9434V21.0938Z" fill="#1A2C3A"/>
<path d="M49.9434 15.8184H47.3145V18.4559H49.9434V15.8184Z" fill="#1A2C3A"/>
<path d="M49.9434 5.27539H47.3145V7.91296H49.9434V5.27539Z" fill="#253747"/>
<path d="M49.9434 0H47.3145V2.63757H49.9434V0Z" fill="#1A2C3A"/>
<path d="M47.3145 26.3623H44.6855V28.9999H47.3145V26.3623Z" fill="#253747"/>
<path d="M47.3145 21.0938H44.6855V23.7313H47.3145V21.0938Z" fill="#1A2C3A"/>
<path d="M47.3145 15.8184H44.6855V18.4559H47.3145V15.8184Z" fill="#1A2C3A"/>
<path d="M47.3145 5.27539H44.6855V7.91296H47.3145V5.27539Z" fill="#1A2C3A"/>
<path d="M47.3145 0H44.6855V2.63757H47.3145V0Z" fill="#1A2C3A"/>
<path d="M44.6856 26.3623H42.0566V28.9999H44.6856V26.3623Z" fill="#253747"/>
<path d="M44.6856 23.7314H42.0566V26.3624H44.6856V23.7314Z" fill="#253747"/>
<path d="M44.6856 21.0938H42.0566V23.7313H44.6856V21.0938Z" fill="#1A2C3A"/>
<path d="M44.6856 18.4561H42.0566V21.0936H44.6856V18.4561Z" fill="#1A2C3A"/>
<path d="M44.6856 15.8184H42.0566V18.4559H44.6856V15.8184Z" fill="#1A2C3A"/>
<path d="M44.6856 10.5498H42.0566V13.1808H44.6856V10.5498Z" fill="#253747"/>
<path d="M44.6856 7.91211H42.0566V10.5497H44.6856V7.91211Z" fill="#253747"/>
<path d="M44.6856 5.27539H42.0566V7.91296H44.6856V5.27539Z" fill="#1A2C3A"/>
<path d="M44.6856 2.6377H42.0566V5.27526H44.6856V2.6377Z" fill="#1A2C3A"/>
<path d="M39.4278 23.7314H36.7988V26.3624H39.4278V23.7314Z" fill="#253747"/>
<path d="M39.4278 21.0938H36.7988V23.7313H39.4278V21.0938Z" fill="#253747"/>
<path d="M39.4278 18.4561H36.7988V21.0936H39.4278V18.4561Z" fill="#253747"/>
<path d="M39.4278 10.5498H36.7988V13.1808H39.4278V10.5498Z" fill="#253747"/>
<path d="M39.4278 7.91211H36.7988V10.5497H39.4278V7.91211Z" fill="#253747"/>
<path d="M39.4278 5.27539H36.7988V7.91296H39.4278V5.27539Z" fill="#253747"/>
<path d="M39.4278 2.6377H36.7988V5.27526H39.4278V2.6377Z" fill="#1A2C3A"/>
<path d="M39.4278 0H36.7988V2.63757H39.4278V0Z" fill="#1A2C3A"/>
<path d="M36.7989 26.3623H34.1699V28.9999H36.7989V26.3623Z" fill="#253747"/>
<path d="M36.7989 15.8184H34.1699V18.4559H36.7989V15.8184Z" fill="#1A2C3A"/>
<path d="M36.7989 7.91211H34.1699V10.5497H36.7989V7.91211Z" fill="#253747"/>
<path d="M34.17 26.3623H31.541V28.9999H34.17V26.3623Z" fill="#253747"/>
<path d="M34.17 15.8184H31.541V18.4559H34.17V15.8184Z" fill="#1A2C3A"/>
<path d="M34.17 5.27539H31.541V7.91296H34.17V5.27539Z" fill="#1A2C3A"/>
<path d="M31.5411 26.3623H28.9121V28.9999H31.5411V26.3623Z" fill="#253747"/>
<path d="M31.5411 23.7314H28.9121V26.3624H31.5411V23.7314Z" fill="#1A2C3A"/>
<path d="M31.5411 21.0938H28.9121V23.7313H31.5411V21.0938Z" fill="#1A2C3A"/>
<path d="M31.5411 18.4561H28.9121V21.0936H31.5411V18.4561Z" fill="#1A2C3A"/>
<path d="M31.5411 15.8184H28.9121V18.4559H31.5411V15.8184Z" fill="#1A2C3A"/>
<path d="M31.5411 10.5498H28.9121V13.1808H31.5411V10.5498Z" fill="#253747"/>
<path d="M31.5411 7.91211H28.9121V10.5497H31.5411V7.91211Z" fill="#1A2C3A"/>
<path d="M31.5411 5.27539H28.9121V7.91296H31.5411V5.27539Z" fill="#1A2C3A"/>
<path d="M31.5411 2.6377H28.9121V5.27526H31.5411V2.6377Z" fill="#1A2C3A"/>
<path d="M31.5411 0H28.9121V2.63757H31.5411V0Z" fill="#1A2C3A"/>
<path d="M26.2891 23.7314H23.6602V26.3624H26.2891V23.7314Z" fill="#253747"/>
<path d="M26.2891 21.0938H23.6602V23.7313H26.2891V21.0938Z" fill="#253747"/>
<path d="M26.2891 18.4561H23.6602V21.0936H26.2891V18.4561Z" fill="#253747"/>
<path d="M26.2891 10.5498H23.6602V13.1808H26.2891V10.5498Z" fill="#253747"/>
<path d="M26.2891 7.91211H23.6602V10.5497H26.2891V7.91211Z" fill="#253747"/>
<path d="M26.2891 5.27539H23.6602V7.91296H26.2891V5.27539Z" fill="#253747"/>
<path d="M26.2891 2.6377H23.6602V5.27526H26.2891V2.6377Z" fill="#253747"/>
<path d="M23.6602 26.3623H21.0312V28.9999H23.6602V26.3623Z" fill="#253747"/>
<path d="M23.6602 15.8184H21.0312V18.4559H23.6602V15.8184Z" fill="#1A2C3A"/>
<path d="M23.6602 5.27539H21.0312V7.91296H23.6602V5.27539Z" fill="#253747"/>
<path d="M23.6602 0H21.0312V2.63757H23.6602V0Z" fill="#1A2C3A"/>
<path d="M21.0313 26.3623H18.4023V28.9999H21.0313V26.3623Z" fill="#253747"/>
<path d="M21.0313 15.8184H18.4023V18.4559H21.0313V15.8184Z" fill="#1A2C3A"/>
<path d="M21.0313 5.27539H18.4023V7.91296H21.0313V5.27539Z" fill="#1A2C3A"/>
<path d="M21.0313 0H18.4023V2.63757H21.0313V0Z" fill="#1A2C3A"/>
<path d="M18.4034 23.7314H15.7744V26.3624H18.4034V23.7314Z" fill="#1A2C3A"/>
<path d="M18.4034 21.0938H15.7744V23.7313H18.4034V21.0938Z" fill="#1A2C3A"/>
<path d="M18.4034 18.4561H15.7744V21.0936H18.4034V18.4561Z" fill="#1A2C3A"/>
<path d="M18.4034 10.5498H15.7744V13.1808H18.4034V10.5498Z" fill="#253747"/>
<path d="M18.4034 7.91211H15.7744V10.5497H18.4034V7.91211Z" fill="#1A2C3A"/>
<path d="M18.4034 5.27539H15.7744V7.91296H18.4034V5.27539Z" fill="#1A2C3A"/>
<path d="M18.4034 2.6377H15.7744V5.27526H18.4034V2.6377Z" fill="#1A2C3A"/>
<path d="M13.1446 26.3623H10.5156V28.9999H13.1446V26.3623Z" fill="#253747"/>
<path d="M13.1446 23.7314H10.5156V26.3624H13.1446V23.7314Z" fill="#253747"/>
<path d="M13.1446 21.0938H10.5156V23.7313H13.1446V21.0938Z" fill="#253747"/>
<path d="M13.1446 18.4561H10.5156V21.0936H13.1446V18.4561Z" fill="#253747"/>
<path d="M13.1446 15.8184H10.5156V18.4559H13.1446V15.8184Z" fill="#1A2C3A"/>
<path d="M13.1446 10.5498H10.5156V13.1808H13.1446V10.5498Z" fill="#253747"/>
<path d="M13.1446 7.91211H10.5156V10.5497H13.1446V7.91211Z" fill="#253747"/>
<path d="M13.1446 5.27539H10.5156V7.91296H13.1446V5.27539Z" fill="#253747"/>
<path d="M13.1446 2.6377H10.5156V5.27526H13.1446V2.6377Z" fill="#253747"/>
<path d="M13.1446 0H10.5156V2.63757H13.1446V0Z" fill="#1A2C3A"/>
<path d="M10.5157 18.4561H7.88672V21.0936H10.5157V18.4561Z" fill="#1A2C3A"/>
<path d="M10.5157 2.6377H7.88672V5.27526H10.5157V2.6377Z" fill="#1A2C3A"/>
<path d="M7.88676 21.0938H5.25781V23.7313H7.88676V21.0938Z" fill="#1A2C3A"/>
<path d="M7.88676 5.27539H5.25781V7.91296H7.88676V5.27539Z" fill="#1A2C3A"/>
<path d="M5.25785 18.4561H2.62891V21.0936H5.25785V18.4561Z" fill="#1A2C3A"/>
<path d="M5.25785 2.6377H2.62891V5.27526H5.25785V2.6377Z" fill="#1A2C3A"/>
<path d="M2.62895 26.3623H0V28.9999H2.62895V26.3623Z" fill="#253747"/>
<path d="M2.62895 23.7314H0V26.3624H2.62895V23.7314Z" fill="#253747"/>
<path d="M2.62895 21.0938H0V23.7313H2.62895V21.0938Z" fill="#1A2C3A"/>
<path d="M2.62895 18.4561H0V21.0936H2.62895V18.4561Z" fill="#1A2C3A"/>
<path d="M2.62895 15.8184H0V18.4559H2.62895V15.8184Z" fill="#1A2C3A"/>
<path d="M2.62895 10.5498H0V13.1808H2.62895V10.5498Z" fill="#253747"/>
<path d="M2.62895 7.91211H0V10.5497H2.62895V7.91211Z" fill="#253747"/>
<path d="M2.62895 5.27539H0V7.91296H2.62895V5.27539Z" fill="#1A2C3A"/>
<path d="M2.62895 2.6377H0V5.27526H2.62895V2.6377Z" fill="#1A2C3A"/>
<path d="M2.62895 0H0V2.63757H2.62895V0Z" fill="#1A2C3A"/>
</svg>
