<svg width="32" height="32" viewBox="0 0 32 32" fill="none" xmlns="http://www.w3.org/2000/svg">
<g filter="url(#filter0_d)" fill="#D1FB84"><path d="M10 0H12V2H10V0Z" /><path d="M8 4H10V6H8V4Z" /><path d="M10 4H12V6H10V4Z" /><path d="M12 4H14V6H12V4Z" /><path d="M14 6H16V8H14V6Z" /><path d="M16 6H18V8H16V6Z" /><path d="M18 8H20V10H18V8Z" /><path d="M20 10H22V12H20V10Z" /><path d="M22 12H24V14H22V12Z" /><path d="M24 14H26V16H24V14Z" /><path d="M24 16H26V18H24V16Z" /><path d="M26 18H28V20H26V18Z" /><path d="M26 20H28V22H26V20Z" /><path d="M8 2H10V4H8V2Z" /><path d="M8 6H10V8H8V6Z" /><path d="M6 8H8V10H6V8Z" /><path d="M12 10H14V12H12V10Z" /><path d="M10 8H12V10H10V8Z" /><path d="M8 8H10V10H8V8Z" /><path d="M10 14H12V16H10V14Z" /><path d="M12 12H14V14H12V12Z" /><path d="M8 14H10V16H8V14Z" /><path d="M6 12H8V14H6V12Z" /><path d="M18 18H20V20H18V18Z" /><path d="M16 22H18V24H16V22Z" /><path d="M18 24H20V26H18V24Z" /><path d="M20 24H22V26H20V24Z" /><path d="M22 20H24V22H22V20Z" /><path d="M20 18H22V20H20V18Z" /><path d="M16 20H18V22H16V20Z" /><path d="M22 22H24V24H22V22Z" /><path d="M6 24H8V26H6V24Z" /><path d="M8 24H10V26H8V24Z" /><path d="M10 26H12V28H10V26Z" /><path d="M4 26H6V28H4V26Z" /><path d="M4 28H6V30H4V28Z" /><path d="M6 10H8V12H6V10Z" /><path d="M4 12H6V14H4V12Z" /><path d="M4 14H6V16H4V14Z" /><path d="M4 16H6V18H4V16Z" /><path d="M2 18H4V20H2V18Z" /><path d="M2 20H4V22H2V20Z" /><path d="M2 22H4V24H2V22Z" /><path d="M0 24H2V26H0V24Z" /><path d="M0 26H2V28H0V26Z" /><path d="M12 0H14V2H12V0Z" /><path d="M14 0H16V2H14V0Z" /><path d="M16 0H18V2H16V0Z" /><path d="M18 2H20V4H18V2Z" /><path d="M20 2H22V4H20V2Z" /><path d="M22 4H24V6H22V4Z" /><path d="M24 6H26V8H24V6Z" /><path d="M26 8H28V10H26V8Z" /><path d="M28 12H30V14H28V12Z" /><path d="M28 10H30V12H28V10Z" /><path d="M30 18H32V20H30V18Z" /><path d="M30 16H32V18H30V16Z" /><path d="M30 14H32V16H30V14Z" /><path d="M30 20H32V22H30V20Z" /><path d="M26 22H28V24H26V22Z" /><path d="M28 22H30V24H28V22Z" /><path d="M24 22H26V24H24V22Z" /><path d="M22 24H24V26H22V24Z" /><path d="M20 24H22V26H20V24Z" /><path d="M18 26H20V28H18V26Z" /><path d="M16 26H18V28H16V26Z" /><path d="M14 26H16V28H14V26Z" /><path d="M12 28H14V30H12V28Z" /><path d="M10 28H12V30H10V28Z" /><path d="M8 28H10V30H8V28Z" /><path d="M6 30H8V32H6V30Z" /><path d="M4 30H6V32H4V30Z" /><path d="M2 30H4V32H2V30Z" /><path d="M0 28H2V30H0V28Z" /></g>
<defs>
<filter id="filter0_d" x="0" y="0" width="32" height="32" filterUnits="userSpaceOnUse" color-interpolation-filters="sRGB">
<feFlood flood-opacity="0" result="BackgroundImageFix"/>
<feColorMatrix in="SourceAlpha" type="matrix" values="0 0 0 0 0 0 0 0 0 0 0 0 0 0 0 0 0 0 127 0"/>
<feOffset/>
<feColorMatrix type="matrix" values="0 0 0 0 0.707769 0 0 0 0 0.85 0 0 0 0 0.447012 0 0 0 1 0"/>
<feBlend mode="normal" in2="BackgroundImageFix" result="effect1_dropShadow"/>
<feBlend mode="normal" in="SourceGraphic" in2="effect1_dropShadow" result="shape"/>
</filter>
</defs>
</svg>
