<svg width="30" height="32" viewBox="0 0 30 32" fill="none" xmlns="http://www.w3.org/2000/svg">
<g clip-path="url(#clip0)">
<path d="M30.0004 20.9023H27.2725V23.6037H30.0004V20.9023Z" fill="#3D5168"/>
<path d="M30.0004 18.2012H27.2725V20.9025H30.0004V18.2012Z" fill="#3D5168"/>
<path d="M30.0004 15.5H27.2725V18.2014H30.0004V15.5Z" fill="#3D5168"/>
<path d="M30.0004 12.7988H27.2725V15.5002H30.0004V12.7988Z" fill="#3D5168"/>
<path d="M30.0004 10.1045H27.2725V12.7991H30.0004V10.1045Z" fill="#3D5168"/>
<path d="M30.0004 7.40234H27.2725V10.1037H30.0004V7.40234Z" fill="#3D5168"/>
<path d="M30.0004 4.70117H27.2725V7.40253H30.0004V4.70117Z" fill="#3D5168"/>
<path d="M27.2718 23.6035H24.5508V26.2981H27.2718V23.6035Z" fill="#3D5168"/>
<path d="M27.2718 20.9023H24.5508V23.6037H27.2718V20.9023Z" fill="#2E465B"/>
<path d="M27.2718 18.2012H24.5508V20.9025H27.2718V18.2012Z" fill="#1A2C3A"/>
<path d="M27.2718 15.5H24.5508V18.2014H27.2718V15.5Z" fill="#1A2C3A"/>
<path d="M27.2718 12.7988H24.5508V15.5002H27.2718V12.7988Z" fill="#1A2C3A"/>
<path d="M27.2718 10.1045H24.5508V12.7991H27.2718V10.1045Z" fill="#1D3849"/>
<path d="M27.2718 7.40234H24.5508V10.1037H27.2718V7.40234Z" fill="#1A2C3A"/>
<path d="M27.2718 4.70117H24.5508V7.40253H27.2718V4.70117Z" fill="#374E63"/>
<path d="M24.5511 26.2988H21.8232V29.0002H24.5511V26.2988Z" fill="#3D5168"/>
<path d="M24.5511 23.6035H21.8232V26.2981H24.5511V23.6035Z" fill="#2E465B"/>
<path d="M24.5511 20.9023H21.8232V23.6037H24.5511V20.9023Z" fill="#1A2C3A"/>
<path d="M24.5511 18.2012H21.8232V20.9025H24.5511V18.2012Z" fill="#405871"/>
<path d="M24.5511 15.5H21.8232V18.2014H24.5511V15.5Z" fill="#405871"/>
<path d="M24.5511 12.7988H21.8232V15.5002H24.5511V12.7988Z" fill="#3F5E7A"/>
<path d="M24.5511 10.1045H21.8232V12.7991H24.5511V10.1045Z" fill="#3F5E7A"/>
<path d="M24.5511 7.40234H21.8232V10.1037H24.5511V7.40234Z" fill="#3F5E7A"/>
<path d="M24.5511 4.70117H21.8232V7.40253H24.5511V4.70117Z" fill="#1A2C3A"/>
<path d="M24.5511 2H21.8232V4.70135H24.5511V2Z" fill="#374E63"/>
<path d="M21.8236 26.2988H19.0957V29.0002H21.8236V26.2988Z" fill="#2E465B"/>
<path d="M21.8236 23.6035H19.0957V26.2981H21.8236V23.6035Z" fill="#1A2C3A"/>
<path d="M21.8236 20.9023H19.0957V23.6037H21.8236V20.9023Z" fill="#405871"/>
<path d="M21.8236 18.2012H19.0957V20.9025H21.8236V18.2012Z" fill="#3F5E7A"/>
<path d="M21.8236 15.5H19.0957V18.2014H21.8236V15.5Z" fill="#456482"/>
<path d="M21.8236 12.7988H19.0957V15.5002H21.8236V12.7988Z" fill="#456482"/>
<path d="M21.8236 10.1045H19.0957V12.7991H21.8236V10.1045Z" fill="#456482"/>
<path d="M21.8236 7.40234H19.0957V10.1037H21.8236V7.40234Z" fill="#456482"/>
<path d="M21.8236 4.70117H19.0957V7.40253H21.8236V4.70117Z" fill="#3F5E7A"/>
<path d="M21.8236 2H19.0957V4.70135H21.8236V2Z" fill="#1A2C3A"/>
<path d="M19.0951 26.2988H16.3672V29.0002H19.0951V26.2988Z" fill="#2E465B"/>
<path d="M19.0951 23.6035H16.3672V26.2981H19.0951V23.6035Z" fill="#1A2C3A"/>
<path d="M19.0951 20.9023H16.3672V23.6037H19.0951V20.9023Z" fill="#405871"/>
<path d="M19.0951 18.2012H16.3672V20.9025H19.0951V18.2012Z" fill="#243E51"/>
<path d="M19.0951 15.5H16.3672V18.2014H19.0951V15.5Z" fill="#243E51"/>
<path d="M19.0951 12.7988H16.3672V15.5002H19.0951V12.7988Z" fill="#243E51"/>
<path d="M19.0951 10.1045H16.3672V12.7991H19.0951V10.1045Z" fill="#243E51"/>
<path d="M19.0951 7.40234H16.3672V10.1037H19.0951V7.40234Z" fill="#243E51"/>
<path d="M19.0951 4.70117H16.3672V7.40253H19.0951V4.70117Z" fill="#3F5E7A"/>
<path d="M19.0951 2H16.3672V4.70135H19.0951V2Z" fill="#243E51"/>
<path d="M16.3675 26.2988H13.6396V29.0002H16.3675V26.2988Z" fill="#2E465B"/>
<path d="M16.3675 23.6035H13.6396V26.2981H16.3675V23.6035Z" fill="#1A2C3A"/>
<path d="M16.3675 20.9023H13.6396V23.6037H16.3675V20.9023Z" fill="#405871"/>
<path d="M16.3675 18.2012H13.6396V20.9025H16.3675V18.2012Z" fill="#243E51"/>
<path d="M16.3675 15.5H13.6396V18.2014H16.3675V15.5Z" fill="#243E51"/>
<path d="M16.3675 12.7988H13.6396V15.5002H16.3675V12.7988Z" fill="#243E51"/>
<path d="M16.3675 10.1045H13.6396V12.7991H16.3675V10.1045Z" fill="#243E51"/>
<path d="M16.3675 7.40234H13.6396V10.1037H16.3675V7.40234Z" fill="#243E51"/>
<path d="M16.3675 4.70117H13.6396V7.40253H16.3675V4.70117Z" fill="#496C89"/>
<path d="M16.3675 2H13.6396V4.70135H16.3675V2Z" fill="#243E51"/>
<path d="M13.639 26.2988H10.9111V29.0002H13.639V26.2988Z" fill="#2E465B"/>
<path d="M13.639 23.6035H10.9111V26.2981H13.639V23.6035Z" fill="#1A2C3A"/>
<path d="M13.639 20.9023H10.9111V23.6037H13.639V20.9023Z" fill="#405871"/>
<path d="M13.639 18.2012H10.9111V20.9025H13.639V18.2012Z" fill="#456482"/>
<path d="M13.639 15.5H10.9111V18.2014H13.639V15.5Z" fill="#243E51"/>
<path d="M13.639 12.7988H10.9111V15.5002H13.639V12.7988Z" fill="#243E51"/>
<path d="M13.639 10.1045H10.9111V12.7991H13.639V10.1045Z" fill="#243E51"/>
<path d="M13.639 7.40234H10.9111V10.1037H13.639V7.40234Z" fill="#49728E"/>
<path d="M13.639 4.70117H10.9111V7.40253H13.639V4.70117Z" fill="#496C89"/>
<path d="M13.639 2H10.9111V4.70135H13.639V2Z" fill="#243E51"/>
<path d="M10.9115 26.2988H8.18359V29.0002H10.9115V26.2988Z" fill="#2E465B"/>
<path d="M10.9115 23.6035H8.18359V26.2981H10.9115V23.6035Z" fill="#1A2C3A"/>
<path d="M10.9115 20.9023H8.18359V23.6037H10.9115V20.9023Z" fill="#405871"/>
<path d="M10.9115 18.2012H8.18359V20.9025H10.9115V18.2012Z" fill="#3F5E7A"/>
<path d="M10.9115 15.5H8.18359V18.2014H10.9115V15.5Z" fill="#243E51"/>
<path d="M10.9115 12.7988H8.18359V15.5002H10.9115V12.7988Z" fill="#243E51"/>
<path d="M10.9115 10.1045H8.18359V12.7991H10.9115V10.1045Z" fill="#243E51"/>
<path d="M10.9115 7.40234H8.18359V10.1037H10.9115V7.40234Z" fill="#496C89"/>
<path d="M10.9115 4.70117H8.18359V7.40253H10.9115V4.70117Z" fill="#3F5E7A"/>
<path d="M10.9115 2H8.18359V4.70135H10.9115V2Z" fill="#1A2C3A"/>
<path d="M8.18395 26.2988H5.45605V29.0002H8.18395V26.2988Z" fill="#3D5168"/>
<path d="M8.18395 23.6035H5.45605V26.2981H8.18395V23.6035Z" fill="#2E465B"/>
<path d="M8.18395 20.9023H5.45605V23.6037H8.18395V20.9023Z" fill="#1A2C3A"/>
<path d="M8.18395 18.2012H5.45605V20.9025H8.18395V18.2012Z" fill="#3F5E7A"/>
<path d="M8.18395 15.5H5.45605V18.2014H8.18395V15.5Z" fill="#3F5E7A"/>
<path d="M8.18395 12.7988H5.45605V15.5002H8.18395V12.7988Z" fill="#496C89"/>
<path d="M8.18395 10.1045H5.45605V12.7991H8.18395V10.1045Z" fill="#496C89"/>
<path d="M8.18395 7.40234H5.45605V10.1037H8.18395V7.40234Z" fill="#3F5E7A"/>
<path d="M8.18395 4.70117H5.45605V7.40253H8.18395V4.70117Z" fill="#1A2C3A"/>
<path d="M8.18395 2H5.45605V4.70135H8.18395V2Z" fill="#374E63"/>
<path d="M5.45543 23.6035H2.72754V26.2981H5.45543V23.6035Z" fill="#3D5168"/>
<path d="M5.45543 20.9023H2.72754V23.6037H5.45543V20.9023Z" fill="#2E465B"/>
<path d="M5.45543 18.2012H2.72754V20.9025H5.45543V18.2012Z" fill="#1A2C3A"/>
<path d="M5.45543 15.5H2.72754V18.2014H5.45543V15.5Z" fill="#1D3849"/>
<path d="M5.45543 12.7988H2.72754V15.5002H5.45543V12.7988Z" fill="#243E51"/>
<path d="M5.45543 10.1045H2.72754V12.7991H5.45543V10.1045Z" fill="#243E51"/>
<path d="M5.45543 7.40234H2.72754V10.1037H5.45543V7.40234Z" fill="#1A2C3A"/>
<path d="M5.45543 4.70117H2.72754V7.40253H5.45543V4.70117Z" fill="#374E63"/>
<path d="M2.72789 20.9023H0V23.6037H2.72789V20.9023Z" fill="#3D5168"/>
<path d="M2.72789 18.2012H0V20.9025H2.72789V18.2012Z" fill="#3D5168"/>
<path d="M2.72789 15.5H0V18.2014H2.72789V15.5Z" fill="#3D5168"/>
<path d="M2.72789 12.7988H0V15.5002H2.72789V12.7988Z" fill="#3D5168"/>
<path d="M2.72789 10.1045H0V12.7991H2.72789V10.1045Z" fill="#3D5168"/>
</g>
<defs>
<clipPath id="clip0">
<rect width="30" height="32" fill="white"/>
</clipPath>
</defs>
</svg>
