<svg width="71" height="32" viewBox="0 0 71 32" fill="none" xmlns="http://www.w3.org/2000/svg">
<path d="M62.9756 17.3223H60.3467V19.9532H62.9756V17.3223Z" fill="#253747"/>
<path d="M62.9756 14.6846H60.3467V17.3221H62.9756V14.6846Z" fill="#253747"/>
<path d="M62.9756 12.0469H60.3467V14.6844H62.9756V12.0469Z" fill="#253747"/>
<path d="M60.3467 19.9531H57.7178V22.5907H60.3467V19.9531Z" fill="#253747"/>
<path d="M60.3467 9.40918H57.7178V12.0467H60.3467V9.40918Z" fill="#1A2C3A"/>
<path d="M57.7178 19.9531H55.0889V22.5907H57.7178V19.9531Z" fill="#253747"/>
<path d="M57.7178 9.40918H55.0889V12.0467H57.7178V9.40918Z" fill="#1A2C3A"/>
<path d="M55.0889 19.9531H52.46V22.5907H55.0889V19.9531Z" fill="#253747"/>
<path d="M55.0889 17.3223H52.46V19.9532H55.0889V17.3223Z" fill="#1A2C3A"/>
<path d="M55.0889 14.6846H52.46V17.3221H55.0889V14.6846Z" fill="#1A2C3A"/>
<path d="M55.0889 12.0469H52.46V14.6844H55.0889V12.0469Z" fill="#1A2C3A"/>
<path d="M55.0889 9.40918H52.46V12.0467H55.0889V9.40918Z" fill="#1A2C3A"/>
<path d="M49.8604 19.959H47.2314V22.5899H49.8604V19.959Z" fill="#253747"/>
<path d="M49.8604 17.3213H47.2314V19.9589H49.8604V17.3213Z" fill="#253747"/>
<path d="M49.8604 14.6846H47.2314V17.3221H49.8604V14.6846Z" fill="#253747"/>
<path d="M49.8604 12.0469H47.2314V14.6844H49.8604V12.0469Z" fill="#1A2C3A"/>
<path d="M49.8604 9.40918H47.2314V12.0467H49.8604V9.40918Z" fill="#1A2C3A"/>
<path d="M47.2315 17.3213H44.6025V19.9589H47.2315V17.3213Z" fill="#253747"/>
<path d="M44.6026 14.6846H41.9736V17.3221H44.6026V14.6846Z" fill="#1A2C3A"/>
<path d="M41.9737 19.959H39.3447V22.5899H41.9737V19.959Z" fill="#253747"/>
<path d="M41.9737 17.3213H39.3447V19.9589H41.9737V17.3213Z" fill="#1A2C3A"/>
<path d="M41.9737 14.6846H39.3447V17.3221H41.9737V14.6846Z" fill="#1A2C3A"/>
<path d="M41.9737 12.0469H39.3447V14.6844H41.9737V12.0469Z" fill="#1A2C3A"/>
<path d="M41.9737 9.40918H39.3447V12.0467H41.9737V9.40918Z" fill="#1A2C3A"/>
<path d="M36.7452 17.3213H34.1162V19.9589H36.7452V17.3213Z" fill="#253747"/>
<path d="M36.7452 14.6846H34.1162V17.3221H36.7452V14.6846Z" fill="#253747"/>
<path d="M36.7452 12.0469H34.1162V14.6844H36.7452V12.0469Z" fill="#1A2C3A"/>
<path d="M36.7452 9.40918H34.1162V12.0467H36.7452V9.40918Z" fill="#1A2C3A"/>
<path d="M34.1163 19.9521H31.4873V22.5897H34.1163V19.9521Z" fill="#253747"/>
<path d="M31.4873 19.959H28.8584V22.5899H31.4873V19.959Z" fill="#253747"/>
<path d="M28.8584 17.3213H26.2295V19.9589H28.8584V17.3213Z" fill="#1A2C3A"/>
<path d="M28.8584 14.6846H26.2295V17.3221H28.8584V14.6846Z" fill="#1A2C3A"/>
<path d="M28.8584 12.0469H26.2295V14.6844H28.8584V12.0469Z" fill="#1A2C3A"/>
<path d="M28.8584 9.40918H26.2295V12.0467H28.8584V9.40918Z" fill="#1A2C3A"/>
<path d="M23.6299 17.3223H21.001V19.9532H23.6299V17.3223Z" fill="#253747"/>
<path d="M23.6299 14.6846H21.001V17.3221H23.6299V14.6846Z" fill="#253747"/>
<path d="M23.6299 12.0469H21.001V14.6844H23.6299V12.0469Z" fill="#253747"/>
<path d="M21.001 19.9531H18.3721V22.5907H21.001V19.9531Z" fill="#253747"/>
<path d="M21.001 9.40918H18.3721V12.0467H21.001V9.40918Z" fill="#1A2C3A"/>
<path d="M18.3721 19.9531H15.7432V22.5907H18.3721V19.9531Z" fill="#253747"/>
<path d="M18.3721 9.40918H15.7432V12.0467H18.3721V9.40918Z" fill="#1A2C3A"/>
<path d="M15.7442 17.3223H13.1152V19.9532H15.7442V17.3223Z" fill="#1A2C3A"/>
<path d="M15.7442 14.6846H13.1152V17.3221H15.7442V14.6846Z" fill="#1A2C3A"/>
<path d="M15.7442 12.0469H13.1152V14.6844H15.7442V12.0469Z" fill="#1A2C3A"/>
<path d="M7.88676 19.959H5.25781V22.5899H7.88676V19.959Z" fill="#253747"/>
<path d="M5.25883 19.959H2.62988V22.5899H5.25883V19.959Z" fill="#253747"/>
<path d="M2.62895 19.959H0V22.5899H2.62895V19.959Z" fill="#253747"/>
<path d="M10.5157 17.3213H7.88672V19.9589H10.5157V17.3213Z" fill="#253747"/>
<path d="M10.5157 14.6846H7.88672V17.3221H10.5157V14.6846Z" fill="#253747"/>
<path d="M7.88676 14.6846H5.25781V17.3221H7.88676V14.6846Z" fill="#253747"/>
<path d="M7.88676 9.40918H5.25781V12.0467H7.88676V9.40918Z" fill="#1A2C3A"/>
<path d="M10.5157 9.40918H7.88672V12.0467H10.5157V9.40918Z" fill="#1A2C3A"/>
<path d="M5.25785 14.6846H2.62891V17.3221H5.25785V14.6846Z" fill="#1A2C3A"/>
<path d="M5.25785 9.40918H2.62891V12.0467H5.25785V9.40918Z" fill="#1A2C3A"/>
<path d="M2.62992 14.6846H0.000976562V17.3221H2.62992V14.6846Z" fill="#1A2C3A"/>
<path d="M2.62992 12.0469H0.000976562V14.6844H2.62992V12.0469Z" fill="#1A2C3A"/>
</svg>
