<svg width="850" height="950" viewBox="0 0 850 950" fill="none" xmlns="http://www.w3.org/2000/svg">
<g filter="url(#filter0_d)">
<path d="M419.24 846.08V858H413.3V869.88H407.36V875.82H389.54V869.88H383.6V881.77H389.54V887.71H383.6V893.65H377.66V899.59H371.66V905.53H365.72V899.59H359.78V893.65H353.84V887.71H348V869.84H342V863.9H336.06V828.26H330.12V869.84H336.06V881.73H330.12V887.67H324.18V893.61H330.12V899.55H324.18V905.49H318.24V899.55H312.3V905.49H306.36V911.43H300.42V917.37H294.48V911.43H288.54V917.37H282.6V911.43H288.54V905.49H282.6V727.27H288.54V721.33H270.72V727.27H264.78V691.63H288.55V685.69H282.61V661.92H270.72V685.69H247V673.8H241V661.92H235.06V667.86H229.12V673.8H235.06V679.8H241V685.74H235.06V691.68H229.12V697.62H235.06V703.56H229.12V709.5H235.06V715.44H229.12V721.38H223.2V727.32H229.14V733.26H241V739.2H264.76V733.26H270.7V863.9H264.76V869.84H270.7V887.67H264.76V893.61H270.7V899.55H264.76V905.49H270.7V911.43H264.76V917.37H258.82V911.43H252.9V905.49H247V911.43H241V905.49H235.06V911.43H229.12V905.49H223.2V899.55H217.26V893.61H211.32V899.55H205.38V893.61H211.32V887.67H205.38V881.73H199.44V887.67H193.5V881.73H199.44V875.73H205.38V852H199.44V869.82H193.5V875.76H175.68V869.82H169.68V863.9H163.79V881.73H169.73V887.67H175.73V893.61H181.67V899.55H187.61V905.49H193.55V911.43H199.49V917.37H211.37V923.31H235.13V929.25H318.3V923.31H324.24V917.37H342V905.49H348V911.43H359.88V917.37H371.76V911.43H389.59V905.49H407.41V899.55H413.35V893.61H419.29V881.73H425.23V846.08H419.24ZM252.9 691.63V697.57H247V691.63H252.9ZM241 703.51H247V709.45H241V703.51ZM235.06 727.27V721.33H241V727.27H235.06Z" fill="#D1FB84"/>
<path d="M383.6 881.73H377.66V887.67H383.6V881.73Z" fill="#D1FB84"/>
<path d="M377.66 869.84H383.6V852.02H377.66V869.84Z" fill="#D1FB84"/>
<path d="M377.66 655.98H371.71V661.92H377.66V679.75H383.6V685.69H377.66V679.75H371.71V685.69H365.77V691.63H359.83V685.69H353.89V715.39H359.83V703.51H377.66V721.33H383.6V697.57H389.54V667.86H383.6V626.28H377.66V655.98Z" fill="#D1FB84"/>
<path d="M377.66 887.67H371.71V893.61H377.66V887.67Z" fill="#D1FB84"/>
<path d="M377.66 875.78H371.71V881.73H377.66V875.78Z" fill="#D1FB84"/>
<path d="M371.71 852.02H377.66V822.32H371.71V852.02Z" fill="#D1FB84"/>
<path d="M371.71 626.28H377.66V560.93H371.71V626.28Z" fill="#D1FB84"/>
<path d="M371.71 893.61H365.77V899.55H371.71V893.61Z" fill="#D1FB84"/>
<path d="M371.71 881.73H365.77V887.67H371.71V881.73Z" fill="#D1FB84"/>
<path d="M371.71 857.96H365.77V863.9H371.71V857.96Z" fill="#D1FB84"/>
<path d="M365.77 822.32H371.71V780.74H365.77V822.32Z" fill="#D1FB84"/>
<path d="M365.77 721.33V715.39H359.83V780.74H365.77V733.21H371.71V727.27H377.66V721.33H365.77Z" fill="#D1FB84"/>
<path d="M371.71 673.8H365.77V679.75H371.71V673.8Z" fill="#D1FB84"/>
<path d="M371.71 638.16H365.77V644.1H371.71V638.16Z" fill="#D1FB84"/>
<path d="M365.77 560.93H371.71V549.05H365.77V560.93Z" fill="#D1FB84"/>
<path d="M371.71 418.36H365.77V424.3H371.71V418.36Z" fill="#D1FB84"/>
<path d="M371.71 412.42V418.36H377.66V412.42H383.6V406.48H359.83V412.42H371.71Z" fill="#D1FB84"/>
<path d="M365.77 887.67H359.83V893.61H365.77V887.67Z" fill="#D1FB84"/>
<path d="M365.77 679.75H359.83V685.69H365.77V679.75Z" fill="#D1FB84"/>
<path d="M365.77 667.86H359.83V673.8H365.77V667.86Z" fill="#D1FB84"/>
<path d="M365.77 650.04H359.83V655.98H365.77V650.04Z" fill="#D1FB84"/>
<path d="M359.83 620.34H365.77V572.81H359.83V620.34Z" fill="#D1FB84"/>
<path d="M365.77 424.3H359.83V430.24H365.77V424.3Z" fill="#D1FB84"/>
<path d="M359.83 881.73H353.89V887.67H359.83V881.73Z" fill="#D1FB84"/>
<path d="M359.83 869.84H353.89V875.78H359.83V869.84Z" fill="#D1FB84"/>
<path d="M359.83 852.02H353.89V857.96H359.83V852.02Z" fill="#D1FB84"/>
<path d="M359.83 822.32H353.89V828.26H359.83V822.32Z" fill="#D1FB84"/>
<path d="M353.89 644.1H359.83V620.34H353.89V644.1Z" fill="#D1FB84"/>
<path d="M353.89 572.81H359.83V560.93H353.89V572.81Z" fill="#D1FB84"/>
<path d="M347.95 685.69H353.89V679.75H359.83V673.8H353.89V644.1H347.95V685.69Z" fill="#D1FB84"/>
<path d="M353.89 554.99H347.95V560.93H353.89V554.99Z" fill="#D1FB84"/>
<path d="M347.95 834.2H342.01V840.14H347.95V834.2Z" fill="#D1FB84"/>
<path d="M347.95 792.62H342.01V798.56H347.95V792.62Z" fill="#D1FB84"/>
<path d="M330.13 554.99V560.93H342.01V554.99H330.13Z" fill="#D1FB84"/>
<path d="M330.13 869.84H324.19V875.78H330.13V869.84Z" fill="#D1FB84"/>
<path d="M330.13 768.85H324.19V828.26H330.13V768.85Z" fill="#D1FB84"/>
<path d="M330.13 525.29H342V519.35H348V483.71H342V477.76H336.06V483.71H330.12V477.76H336.06V471.82H342V477.76H348V454H342V448.06H336.06V442.12H330.12V448.06H324.18V454H318.24V459.94H300.43V465.88H294.49V489.65H288.55V507.47H294.49V513.41H300.43V519.35H294.49V525.29H306.37V531.23H324.19V537.17H330.13V525.29ZM342 507.47H336.06V513.41H318.25V507.47H312.31V501.53H318.25V507.47H336.07V501.53H342V507.47ZM336.06 489.65V495.59H324.19V489.65H336.07H336.06ZM300.42 477.76H306.36V471.82H312.3V477.76H318.24V483.71H312.3V477.76H306.36V483.71H300.42V477.76Z" fill="#D1FB84"/>
<path d="M324.19 893.61H318.25V899.55H324.19V893.61Z" fill="#D1FB84"/>
<path d="M324.19 709.45H318.25V691.63H312.31V715.39H318.25V768.85H324.19V709.45Z" fill="#D1FB84"/>
<path d="M324.19 626.28H330.13V590.64H324.19V620.34H318.25V644.1H324.19V626.28Z" fill="#D1FB84"/>
<path d="M324.19 578.76H318.25V590.64H324.19V578.76Z" fill="#D1FB84"/>
<path d="M318.25 560.93V566.87H330.13V560.93H318.25Z" fill="#D1FB84"/>
<path d="M324.19 543.11V537.17H312.31V543.11H324.19Z" fill="#D1FB84"/>
<path d="M318.25 887.67H312.31V893.61H318.25V887.67Z" fill="#D1FB84"/>
<path d="M318.25 875.78H312.31V881.73H318.25V875.78Z" fill="#D1FB84"/>
<path d="M318.25 857.96H312.31V863.9H318.25V857.96Z" fill="#D1FB84"/>
<path d="M318.25 840.14H312.31V846.08H318.25V840.14Z" fill="#D1FB84"/>
<path d="M318.25 644.1H312.31V667.86H318.25V644.1Z" fill="#D1FB84"/>
<path d="M318.25 566.87H312.31V578.76H318.25V566.87Z" fill="#D1FB84"/>
<path d="M312.31 893.61H306.37V899.55H312.31V893.61Z" fill="#D1FB84"/>
<path d="M312.31 667.86H306.37V691.63H312.31V667.86Z" fill="#D1FB84"/>
<path d="M312.31 632.22H306.37V638.16H312.31V632.22Z" fill="#D1FB84"/>
<path d="M312.31 543.11H306.37V566.87H312.31V543.11Z" fill="#D1FB84"/>
<path d="M306.37 899.55H300.43V905.49H306.37V899.55Z" fill="#D1FB84"/>
<path d="M306.37 881.73H300.43V887.67H306.37V881.73Z" fill="#D1FB84"/>
<path d="M306.37 822.32H300.43V828.26H306.37V822.32Z" fill="#D1FB84"/>
<path d="M306.37 655.98H300.43V661.92H306.37V655.98Z" fill="#D1FB84"/>
<path d="M300.43 626.28H306.37V614.4H300.43V626.28Z" fill="#D1FB84"/>
<path d="M300.43 905.49H294.49V911.43H300.43V905.49Z" fill="#D1FB84"/>
<path d="M300.43 893.61H294.49V899.55H300.43V893.61Z" fill="#D1FB84"/>
<path d="M300.43 863.9H294.49V869.84H300.43V863.9Z" fill="#D1FB84"/>
<path d="M300.43 661.92H294.49V667.86H300.43V661.92Z" fill="#D1FB84"/>
<path d="M294.49 650.04H300.43V638.16H294.49V650.04Z" fill="#D1FB84"/>
<path d="M300.43 596.58H294.49V602.52H300.43V596.58Z" fill="#D1FB84"/>
<path d="M306.37 394.6V388.66H294.49V394.6H306.37Z" fill="#D1FB84"/>
<path d="M294.49 899.55H288.55V905.49H294.49V899.55Z" fill="#D1FB84"/>
<path d="M294.49 881.73H288.55V887.67H294.49V881.73Z" fill="#D1FB84"/>
<path d="M294.49 846.08H288.55V852.02H294.49V846.08Z" fill="#D1FB84"/>
<path d="M294.49 691.63H288.55V697.57H276.67V703.51H288.55V709.45H276.67V715.39H288.55V721.33H294.49V691.63Z" fill="#D1FB84"/>
<path d="M294.49 650.04H288.55V655.98H294.49V650.04Z" fill="#D1FB84"/>
<path d="M288.55 638.16H294.49V620.34H288.55V638.16Z" fill="#D1FB84"/>
<path d="M294.49 590.64H288.55V596.58H294.49V590.64Z" fill="#D1FB84"/>
<path d="M288.55 655.98H282.61V661.92H288.55V655.98Z" fill="#D1FB84"/>
<path d="M282.61 620.34H288.55V608.46H282.61V620.34Z" fill="#D1FB84"/>
<path d="M294.49 566.87V560.93H282.61V566.87H294.49Z" fill="#D1FB84"/>
<path d="M282.61 626.28H270.72V650.04H282.61V626.28Z" fill="#D1FB84"/>
<path d="M282.61 608.46V596.58H270.72V608.46H282.61Z" fill="#D1FB84"/>
<path d="M294.49 388.66V382.72H276.67V388.66H294.49Z" fill="#D1FB84"/>
<path d="M270.72 584.7V590.64H282.61V584.7H270.72Z" fill="#D1FB84"/>
<path d="M282.61 560.93V554.99H270.72V560.93H282.61Z" fill="#D1FB84"/>
<path d="M270.72 655.98H264.78V661.92H270.72V655.98Z" fill="#D1FB84"/>
<path d="M270.72 608.46H264.78V620.34H270.72V608.46Z" fill="#D1FB84"/>
<path d="M270.72 549.05H264.78V554.99H270.72V549.05Z" fill="#D1FB84"/>
<path d="M276.67 382.72V376.77H264.78V382.72H276.67Z" fill="#D1FB84"/>
<path d="M264.78 905.49H258.84V911.43H264.78V905.49Z" fill="#D1FB84"/>
<path d="M264.78 893.61H258.84V899.55H264.78V893.61Z" fill="#D1FB84"/>
<path d="M264.78 667.86H258.84V673.8H264.78V667.86Z" fill="#D1FB84"/>
<path d="M264.78 650.04H258.84V655.98H264.78V650.04Z" fill="#D1FB84"/>
<path d="M264.78 620.34H258.84V638.16H264.78V620.34Z" fill="#D1FB84"/>
<path d="M264.78 602.52H258.84V608.46H264.78V602.52Z" fill="#D1FB84"/>
<path d="M264.78 590.64H258.84V596.58H264.78V590.64Z" fill="#D1FB84"/>
<path d="M258.84 899.55H252.9V905.49H258.84V899.55Z" fill="#D1FB84"/>
<path d="M258.84 887.67H252.9V893.61H258.84V887.67Z" fill="#D1FB84"/>
<path d="M258.84 875.78H252.9V881.73H258.84V875.78Z" fill="#D1FB84"/>
<path d="M258.84 840.14H252.9V846.08H258.84V840.14Z" fill="#D1FB84"/>
<path d="M258.84 638.16H252.9V650.04H258.84V638.16Z" fill="#D1FB84"/>
<path d="M258.84 608.46H252.9V614.4H258.84V608.46Z" fill="#D1FB84"/>
<path d="M252.9 893.61H246.96V899.55H252.9V893.61Z" fill="#D1FB84"/>
<path d="M246.96 667.86H252.9V655.98H246.96V667.86Z" fill="#D1FB84"/>
<path d="M246.96 632.22H252.9V620.34H246.96V632.22Z" fill="#D1FB84"/>
<path d="M252.9 394.6H246.96V400.54H252.9V394.6Z" fill="#D1FB84"/>
<path d="M246.96 899.55H241.02V905.49H246.96V899.55Z" fill="#D1FB84"/>
<path d="M246.96 887.67H241.02V893.61H246.96V887.67Z" fill="#D1FB84"/>
<path d="M246.96 857.96H241.02V863.9H246.96V857.96Z" fill="#D1FB84"/>
<path d="M246.96 810.44H241.02V816.38H246.96V810.44Z" fill="#D1FB84"/>
<path d="M246.96 650.04H241.02V655.98H246.96V650.04Z" fill="#D1FB84"/>
<path d="M246.96 596.58H241.02V602.52H246.96V596.58Z" fill="#D1FB84"/>
<path d="M246.96 388.66H241.02V394.6H246.96V388.66Z" fill="#D1FB84"/>
<path d="M264.78 376.77V370.83H241.02V376.77H264.78Z" fill="#D1FB84"/>
<path d="M241.02 893.61H235.08V899.55H241.02V893.61Z" fill="#D1FB84"/>
<path d="M241.02 875.78H235.08V881.73H241.02V875.78Z" fill="#D1FB84"/>
<path d="M241.02 602.52H235.08V632.22H241.02V602.52Z" fill="#D1FB84"/>
<path d="M241.02 382.72H235.08V388.66H241.02V382.72Z" fill="#D1FB84"/>
<path d="M235.08 899.55H229.14V905.49H235.08V899.55Z" fill="#D1FB84"/>
<path d="M235.08 887.67H229.14V893.61H235.08V887.67Z" fill="#D1FB84"/>
<path d="M235.08 679.75H229.14V685.69H235.08V679.75Z" fill="#D1FB84"/>
<path d="M235.08 632.22H229.14V650.04H223.2V655.98H229.14V661.92H235.08V632.22Z" fill="#D1FB84"/>
<path d="M235.08 376.77H229.14V382.72H235.08V376.77Z" fill="#D1FB84"/>
<path d="M241.02 370.83V364.89H217.26V370.83H223.2V376.77H229.14V370.83H241.02Z" fill="#D1FB84"/>
<path d="M229.14 893.61H223.2V899.55H229.14V893.61Z" fill="#D1FB84"/>
<path d="M229.14 881.73H223.2V887.67H229.14V881.73Z" fill="#D1FB84"/>
<path d="M229.14 863.9H223.2V869.84H229.14V863.9Z" fill="#D1FB84"/>
<path d="M229.14 834.2H223.2V840.14H229.14V834.2Z" fill="#D1FB84"/>
<path d="M229.14 733.21H223.2V756.97H229.14V733.21Z" fill="#D1FB84"/>
<path d="M229.14 715.39V709.45H223.2V703.51H217.26V697.57H211.32V691.63H205.38V685.69H199.44V697.57H205.38V703.51H211.32V709.45H217.26V721.33H223.2V715.39H229.14Z" fill="#D1FB84"/>
<path d="M229.14 697.57H223.2V703.51H229.14V697.57Z" fill="#D1FB84"/>
<path d="M229.14 685.69H223.2V691.63H229.14V685.69Z" fill="#D1FB84"/>
<path d="M229.14 673.8H223.2V679.75H229.14V673.8Z" fill="#D1FB84"/>
<path d="M229.14 448.06H223.2V454H229.14V448.06Z" fill="#D1FB84"/>
<path d="M258.84 442.12V436.18H276.67V430.24H294.49V424.3H306.37V418.36H359.83V412.42H330.13V406.48H318.25V394.6H306.37V400.54H312.31V406.48H306.37V412.42H288.55V418.36H276.67V424.3H258.84V400.54H252.9V436.18H211.32V442.12H217.26V448.06H223.2V442.12H258.84Z" fill="#D1FB84"/>
<path d="M223.2 887.67H217.26V893.61H223.2V887.67Z" fill="#D1FB84"/>
<path d="M223.2 875.78H217.26V881.73H223.2V875.78Z" fill="#D1FB84"/>
<path d="M223.2 756.97H217.26V804.5H223.2V756.97Z" fill="#D1FB84"/>
<path d="M223.2 691.63H217.26V697.57H223.2V691.63Z" fill="#D1FB84"/>
<path d="M223.2 679.75H217.26V685.69H223.2V679.75Z" fill="#D1FB84"/>
<path d="M223.2 661.92H217.26V667.86H223.2V661.92Z" fill="#D1FB84"/>
<path d="M223.2 560.93H235.08V554.99H246.96V549.05H252.9V543.11H246.96V507.47H264.78V513.41H276.67V519.35H294.49V513.41H288.55V507.47H282.61V501.53H270.72V495.59H282.61V489.65H288.55V465.88H294.49V459.94H300.43V454H318.25V448.06H324.19V442.12H330.13V436.18H336.07V442.12H342.01V448.06H353.89V519.35H347.95V537.17H342.01V554.99H347.95V543.11H359.83V549.05H365.77V531.23H359.83V519.35H365.77V507.47H377.66V495.59H371.71V501.53H365.77V495.59H359.83V477.76H365.77V442.12H359.83V436.18H353.89V430.24H312.31V436.18H300.43V442.12H288.55V448.06H270.72V454H229.14V459.94H246.96V495.59H241.02V489.65H235.08V483.71H229.14V495.59H235.08V519.35H223.2V513.41H217.26V525.29H223.2V543.11H217.26V549.05H211.32V543.11H205.38V537.17H199.44V554.99H205.38V560.93H211.32V566.87H217.26V572.81H223.2V560.93Z" fill="#D1FB84"/>
<path d="M223.2 483.71H217.26V489.65H223.2V483.71Z" fill="#D1FB84"/>
<path d="M217.26 881.73H211.32V887.67H217.26V881.73Z" fill="#D1FB84"/>
<path d="M217.26 869.84H211.32V875.78H217.26V869.84Z" fill="#D1FB84"/>
<path d="M217.26 852.02H211.32V857.96H217.26V852.02Z" fill="#D1FB84"/>
<path d="M217.26 804.5H211.32V822.32H217.26V804.5Z" fill="#D1FB84"/>
<path d="M217.26 685.69H211.32V691.63H217.26V685.69Z" fill="#D1FB84"/>
<path d="M217.26 673.8H211.32V679.75H217.26V673.8Z" fill="#D1FB84"/>
<path d="M217.26 572.81H211.32V578.76H217.26V572.81Z" fill="#D1FB84"/>
<path d="M211.32 875.78H205.38V881.73H211.32V875.78Z" fill="#D1FB84"/>
<path d="M211.32 822.32H205.38V852.02H211.32V822.32Z" fill="#D1FB84"/>
<path d="M211.32 661.92H205.38V667.86H211.32V661.92Z" fill="#D1FB84"/>
<path d="M211.32 650.04H205.38V655.98H211.32V650.04Z" fill="#D1FB84"/>
<path d="M211.32 578.76H205.38V584.7H211.32V578.76Z" fill="#D1FB84"/>
<path d="M211.32 495.59H205.38V501.53H211.32V495.59Z" fill="#D1FB84"/>
<path d="M211.32 471.82H205.38V477.76H211.32V471.82Z" fill="#D1FB84"/>
<path d="M205.38 679.75V673.8H193.5V685.69H199.44V679.75H205.38Z" fill="#D1FB84"/>
<path d="M205.38 584.7H199.44V614.4H205.38V584.7Z" fill="#D1FB84"/>
<path d="M205.38 400.54H199.44V406.48H205.38V400.54Z" fill="#D1FB84"/>
<path d="M199.44 614.4H193.5V644.1H199.44V614.4Z" fill="#D1FB84"/>
<path d="M199.44 483.71H193.5V489.65H199.44V483.71Z" fill="#D1FB84"/>
<path d="M193.5 644.1H187.56V673.8H193.5V644.1Z" fill="#D1FB84"/>
<path d="M181.62 733.21H175.68V739.15H181.62V733.21Z" fill="#D1FB84"/>
<path d="M181.62 537.17H175.68V543.11H181.62V537.17Z" fill="#D1FB84"/>
<path d="M163.79 584.7H157.85V602.52H163.79V584.7Z" fill="#D1FB84"/>
<path d="M163.79 370.83H157.85V376.77H163.79V370.83Z" fill="#D1FB84"/>
<path d="M157.85 655.98H151.91V661.92H157.85V655.98Z" fill="#D1FB84"/>
<path d="M145.97 846.08H151.91V834.2H145.97V846.08Z" fill="#D1FB84"/>
<path d="M151.91 382.72H145.97V388.66H151.91V382.72Z" fill="#D1FB84"/>
<path d="M145.97 715.39H140.03V733.21H145.97V715.39Z" fill="#D1FB84"/>
<path d="M140.03 566.87H134.09V572.81H140.03V566.87Z" fill="#D1FB84"/>
<path d="M140.03 370.83H134.09V376.77H140.03V370.83Z" fill="#D1FB84"/>
<path d="M128.15 382.72H122.21V388.66H128.15V382.72Z" fill="#D1FB84"/>
<path d="M116.27 537.17H110.33V543.11H116.27V537.17Z" fill="#D1FB84"/>
<path d="M98.4497 810.44H104.39V786.68H98.4497V810.44Z" fill="#D1FB84"/>
<path d="M104.39 756.97H98.4497V762.91H104.39V756.97Z" fill="#D1FB84"/>
<path d="M104.39 590.64H98.4497V596.58H104.39V590.64Z" fill="#D1FB84"/>
<path d="M104.39 549.05H98.4497V554.99H104.39V549.05Z" fill="#D1FB84"/>
<path d="M104.39 525.29H98.4497V531.23H104.39V525.29Z" fill="#D1FB84"/>
<path d="M98.4497 691.63H92.5097V703.51H98.4497V691.63Z" fill="#D1FB84"/>
<path d="M92.5097 537.17H86.5697V543.11H92.5097V537.17Z" fill="#D1FB84"/>
<path d="M140.03 400.54V406.48H145.97V400.54H140.03V394.6H128.15V400.54H140.03Z" fill="#D1FB84"/>
<path d="M128.15 400.53H122.21V406.47H128.15V400.53Z" fill="#D1FB84"/>
<path d="M187.56 418.36V412.42H163.8V418.36H187.56Z" fill="#D1FB84"/>
<path d="M145.97 430.25H157.86V424.31H151.91V406.48H145.97V430.25Z" fill="#D1FB84"/>
<path d="M104.39 418.36V412.42H80.6297V418.36H104.39Z" fill="#D1FB84"/>
<path d="M163.79 418.35H157.85V424.3H163.79V418.35Z" fill="#D1FB84"/>
<path d="M110.32 418.35H104.38V424.3H110.32V418.35Z" fill="#D1FB84"/>
<path d="M187.56 442.13H193.5V418.36H187.56V442.13Z" fill="#D1FB84"/>
<path d="M122.2 430.25V406.48H116.27V424.31H110.33V430.25H122.2Z" fill="#D1FB84"/>
<path d="M110.33 430.25H104.39V442.13H110.33V430.25Z" fill="#D1FB84"/>
<path d="M80.6297 418.36H74.6797V442.13H80.6297V418.36Z" fill="#D1FB84"/>
<path d="M157.86 442.13H163.8V430.25H157.86V442.13Z" fill="#D1FB84"/>
<path d="M187.56 442.13H181.62V448.07H187.56V442.13Z" fill="#D1FB84"/>
<path d="M86.5697 442.13H80.6297V448.07H86.5697V442.13Z" fill="#D1FB84"/>
<path d="M181.61 448.07H175.67V454.01H181.61V448.07Z" fill="#D1FB84"/>
<path d="M169.73 454V448.06H157.86V454H169.73Z" fill="#D1FB84"/>
<path d="M116.27 454H122.2V448.06H128.15V442.13H140.03V448.06H145.97V454H151.91V448.06H157.86V442.13H145.97V430.25H140.03V436.19H128.15V430.25H122.2V442.13H110.33V448.06H116.27V454Z" fill="#D1FB84"/>
<path d="M110.33 454V448.06H98.4497V454H110.33Z" fill="#D1FB84"/>
<path d="M92.4997 448.07H86.5597V454.01H92.4997V448.07Z" fill="#D1FB84"/>
<path d="M169.73 465.88H175.67V454H169.73V465.88Z" fill="#D1FB84"/>
<path d="M128.15 454V465.88H140.03V454H128.15Z" fill="#D1FB84"/>
<path d="M116.27 454H110.33V465.88H116.27V454Z" fill="#D1FB84"/>
<path d="M193.5 459.95H187.56V465.89H193.5V459.95Z" fill="#D1FB84"/>
<path d="M157.86 454H151.91V465.88H157.86V454Z" fill="#D1FB84"/>
<path d="M98.4497 454H92.4997V465.88H98.4497V454Z" fill="#D1FB84"/>
<path d="M181.61 465.89H175.67V471.83H181.61V465.89Z" fill="#D1FB84"/>
<path d="M157.86 465.88V471.82H169.73V465.88H157.86Z" fill="#D1FB84"/>
<path d="M98.4497 465.88V471.82H110.33V465.88H98.4497Z" fill="#D1FB84"/>
<path d="M92.4997 465.89H86.5597V471.83H92.4997V465.89Z" fill="#D1FB84"/>
<path d="M187.56 471.83H181.62V477.77H187.56V471.83Z" fill="#D1FB84"/>
<path d="M86.5697 471.83H80.6297V477.77H86.5697V471.83Z" fill="#D1FB84"/>
<path d="M145.97 477.76H157.86V471.82H151.91V465.88H145.97V471.82H140.03V477.76H128.15V471.82H122.2V465.88H116.27V471.82H110.33V477.76H122.2V489.64H128.15V483.7H140.03V489.64H145.97V477.76Z" fill="#D1FB84"/>
<path d="M110.33 477.76H104.39V489.64H110.33V477.76Z" fill="#D1FB84"/>
<path d="M187.56 501.52H193.5V477.76H187.56V501.52Z" fill="#D1FB84"/>
<path d="M157.86 489.64H163.8V477.76H157.86V489.64Z" fill="#D1FB84"/>
<path d="M145.97 489.64V513.4H151.91V495.58H157.86V489.64H145.97Z" fill="#D1FB84"/>
<path d="M80.6297 477.76H74.6797V501.52H80.6297V477.76Z" fill="#D1FB84"/>
<path d="M163.79 495.59H157.85V501.53H163.79V495.59Z" fill="#D1FB84"/>
<path d="M110.32 495.59H104.38V501.53H110.32V495.59Z" fill="#D1FB84"/>
<path d="M163.8 501.52V507.46H187.56V501.52H163.8Z" fill="#D1FB84"/>
<path d="M122.2 489.64H110.33V495.58H116.27V513.4H122.2V489.64Z" fill="#D1FB84"/>
<path d="M80.6297 501.52V507.46H104.39V501.52H80.6297Z" fill="#D1FB84"/>
<path d="M145.96 513.41H140.02V519.35H145.96V513.41Z" fill="#D1FB84"/>
<path d="M128.15 513.41H122.21V519.35H128.15V513.41Z" fill="#D1FB84"/>
<path d="M169.73 519.34H163.79V525.29H169.73V519.34Z" fill="#D1FB84"/>
<path d="M140.03 519.35H128.15V525.3H140.03V519.35Z" fill="#D1FB84"/>
<path d="M613.32 103.17V91.29H607.38V79.41H601.44V67.53H595.5V61.59H589.56V49.71H577.68V67.53H583.62V79.41H589.56V85.35H595.5V103.17H601.44V109.11H607.38V115.05H619.26V103.17H613.32Z" fill="#D1FB84"/>
<path d="M607.38 394.26H601.44V400.2H607.38V394.26Z" fill="#D1FB84"/>
<path d="M601.44 400.2H595.5V406.14H601.44V400.2Z" fill="#D1FB84"/>
<path d="M601.44 388.32H595.5V394.26H601.44V388.32Z" fill="#D1FB84"/>
<path d="M595.5 370.5H589.56V388.32H595.5V370.5Z" fill="#D1FB84"/>
<path d="M583.62 406.14V400.2H577.68V394.26H571.73V400.2H577.68V412.08H571.73V418.02H577.68V412.08H595.5V406.14H583.62Z" fill="#D1FB84"/>
<path d="M589.56 358.62H583.62V370.5H589.56V358.62Z" fill="#D1FB84"/>
<path d="M583.62 103.17V109.11H571.73V115.05H565.79V120.99H547.97V126.93H542.03V120.99H536.09V115.05H530.15V132.88H512.33V138.82H488.57V126.93H500.45V120.99H506.39V115.05H512.33V109.11H524.21V115.05H530.15V103.17H542.03V97.23H547.97V91.29H565.79V85.35H577.68V73.47H571.73V79.41H553.91V85.35H542.03V91.29H530.15V97.23H518.27V103.17H506.39V109.11H500.45V115.05H488.57V120.99H482.63V126.93H476.69V132.88H464.8V156.64H476.69V150.7H500.45V144.76H530.15V138.82H542.03V132.88H559.85V126.93H571.73V120.99H583.62V115.05H595.5V103.17H583.62Z" fill="#D1FB84"/>
<path d="M583.62 346.74H577.68V340.8H571.73V346.74H577.68V358.62H583.62V346.74Z" fill="#D1FB84"/>
<path d="M571.73 311.09H565.79V340.8H571.73V311.09Z" fill="#D1FB84"/>
<path d="M553.91 418.02V423.96H571.73V418.02H553.91Z" fill="#D1FB84"/>
<path d="M565.79 293.27H559.85V311.09H565.79V293.27Z" fill="#D1FB84"/>
<path d="M553.91 412.08H547.97V418.02H553.91V412.08Z" fill="#D1FB84"/>
<path d="M547.97 269.51H553.91V251.69H547.97V269.51Z" fill="#D1FB84"/>
<path d="M553.91 162.58H547.97V168.52H553.91V162.58Z" fill="#D1FB84"/>
<path d="M536.09 423.96V429.91H553.91V423.96H536.09Z" fill="#D1FB84"/>
<path d="M542.03 251.69H547.97V221.98H542.03V251.69Z" fill="#D1FB84"/>
<path d="M547.97 168.52H542.03V174.46H547.97V168.52Z" fill="#D1FB84"/>
<path d="M547.97 156.64H542.03V162.58H547.97V156.64Z" fill="#D1FB84"/>
<path d="M542.03 216.04H536.09V221.98H542.03V216.04Z" fill="#D1FB84"/>
<path d="M542.03 162.58H536.09V168.52H542.03V162.58Z" fill="#D1FB84"/>
<path d="M536.09 418.02H530.15V423.96H536.09V418.02Z" fill="#D1FB84"/>
<path d="M518.27 412.08V418.02H530.15V412.08H518.27Z" fill="#D1FB84"/>
<path d="M524.21 370.5H506.39V376.44H530.15V352.68H524.21V370.5Z" fill="#D1FB84"/>
<path d="M524.21 221.98H488.57V227.93H524.21V233.87H530.15V216.04H536.09V210.1H530.15V198.22H524.21V221.98Z" fill="#D1FB84"/>
<path d="M518.27 340.8H494.51V370.5H506.39V364.56H500.45V346.74H518.27V352.68H524.21V293.27H518.27V340.8Z" fill="#D1FB84"/>
<path d="M524.21 192.28H518.27V198.22H524.21V192.28Z" fill="#D1FB84"/>
<path d="M518.27 418.02H512.33V423.96H518.27V418.02Z" fill="#D1FB84"/>
<path d="M518.27 186.34H512.33V192.28H518.27V186.34Z" fill="#D1FB84"/>
<path d="M494.51 423.96V370.5H488.57V447.73H494.51V429.91H512.33V423.96H494.51Z" fill="#D1FB84"/>
<path d="M494.51 483.37H470.74V477.43H464.8V489.31H458.86V507.13H470.74V524.95H476.69V507.13H488.57V530.9H482.63V536.84H494.51V507.13H506.39V489.31H500.45V447.73H494.51V483.37Z" fill="#D1FB84"/>
<path d="M494.51 61.59H488.57V67.53H494.51V61.59Z" fill="#D1FB84"/>
<path d="M494.51 49.71H488.57V55.65H494.51V49.71Z" fill="#D1FB84"/>
<path d="M482.63 536.84H476.69V542.78H470.74V548.72H458.86V536.84H452.92H423.22H417.28V542.78H405.4V536.84H381.64V548.72H435.1V554.66H488.57V548.72H494.51V536.84H482.63Z" fill="#D1FB84"/>
<path d="M488.57 91.29H482.63V97.23H488.57V91.29Z" fill="#D1FB84"/>
<path d="M488.57 79.41H482.63V85.35H488.57V79.41Z" fill="#D1FB84"/>
<path d="M488.57 67.53H482.63V73.47H488.57V67.53Z" fill="#D1FB84"/>
<path d="M488.57 55.65H482.63V61.59H488.57V55.65Z" fill="#D1FB84"/>
<path d="M476.69 115.05H482.63V97.23H476.69V115.05Z" fill="#D1FB84"/>
<path d="M482.63 85.35H476.69V91.29H482.63V85.35Z" fill="#D1FB84"/>
<path d="M482.63 73.47H476.69V79.41H482.63V73.47Z" fill="#D1FB84"/>
<path d="M488.57 49.71V43.77H476.69V49.71H488.57Z" fill="#D1FB84"/>
<path d="M476.69 115.05H470.74V120.99H476.69V115.05Z" fill="#D1FB84"/>
<path d="M476.69 37.83H470.74V43.77H476.69V37.83Z" fill="#D1FB84"/>
<path d="M470.74 120.99H464.8V126.93H470.74V120.99Z" fill="#D1FB84"/>
<path d="M470.74 31.89H464.8V37.83H470.74V31.89Z" fill="#D1FB84"/>
<path d="M452.92 524.95V530.9H441.04V501.19H452.92V483.37H446.98V441.79H458.86V423.96H452.92V435.85H441.04V412.08H446.98V423.96H452.92V412.08H464.8V406.14H476.69V370.5H470.74V340.8H464.8V376.44H470.74V400.2H458.86V406.14H417.28V412.08H435.1V441.79H441.04V477.43H417.28V471.49H411.34V483.37H405.4V501.19H417.28V519.01H423.22V501.19H435.1V524.95H429.16V530.9H423.22V536.84H452.92V530.9H470.74V524.95H452.92Z" fill="#D1FB84"/>
<path d="M458.86 477.43H464.8V441.79H458.86V477.43Z" fill="#D1FB84"/>
<path d="M458.86 126.93V121H464.8V115.05H470.74V97.23H458.86V73.47H452.92V67.53H447V61.59H441V67.53H411.3V61.59H399.46V67.53H405.4V73.47H393.52V79.41H387.58V85.35H393.52V91.29H411.34V97.23H417.28V115.05H423.22V121H411.34V97.23H405.4V109.11H399.46V97.23H393.52V138.82H399.46V144.76H405.4V150.7H411.34V156.64H435.1V150.7H447V156.64H435.1V162.58H423.22V174.46H429.16V180.4H452.92V174.46H458.86V132.88L464.8 132.88V126.93L458.86 126.93ZM423.22 91.29H441V97.23H435.1V109.11H429.16V97.23H423.22V91.29ZM417.28 126.93H429.16V121H435.1V126.94H429.16V132.89H405.4V126.94H417.28V126.93Z" fill="#D1FB84"/>
<path d="M464.8 37.83H458.86V43.77H464.8V37.83Z" fill="#D1FB84"/>
<path d="M458.86 221.98H452.92V227.93H458.86V221.98Z" fill="#D1FB84"/>
<path d="M458.86 43.77H452.92V55.65H458.86V43.77Z" fill="#D1FB84"/>
<path d="M458.86 31.89H452.92V37.83H458.86V31.89Z" fill="#D1FB84"/>
<path d="M452.92 55.65H446.98V61.59H452.92V55.65Z" fill="#D1FB84"/>
<path d="M452.88 317V293.27H429.16V317H452.88ZM435.06 305.12V299.18H447V311.06H435.1L435.06 305.12Z" fill="#D1FB84"/>
<path d="M446.98 25.94V31.89H452.92V20H423.22V25.94H446.98Z" fill="#D1FB84"/>
<path d="M417.28 394.26H423.22V400.2H458.86V394.26H464.8V376.44H458.86V340.8H464.8V317.03H452.92V322.97H429.16V317.03H423.22V364.56H417.28V394.26Z" fill="#D1FB84"/>
<path d="M417.28 394.26H411.34V406.14H417.28V394.26Z" fill="#D1FB84"/>
<path d="M423.22 31.89V25.94H405.4V31.89H423.22Z" fill="#D1FB84"/>
<path d="M399.46 519.01V524.95H417.28V519.01H399.46Z" fill="#D1FB84"/>
<path d="M411.34 435.85H405.4V471.49H411.34V435.85Z" fill="#D1FB84"/>
<path d="M411.34 364.56H405.4V394.26H411.34V364.56Z" fill="#D1FB84"/>
<path d="M405.4 418.02H399.46V435.85H405.4V418.02Z" fill="#D1FB84"/>
<path d="M405.4 299.21H399.46V305.15H405.4V299.21Z" fill="#D1FB84"/>
<path d="M399.46 322.97H405.4V317.03H411.34V364.56H417.28V311.09H399.46V317.03H393.52V418.02H399.46V322.97Z" fill="#D1FB84"/>
<path d="M399.46 55.65H393.52V61.59H399.46V55.65Z" fill="#D1FB84"/>
<path d="M405.4 37.83V31.89H393.52V37.83H405.4Z" fill="#D1FB84"/>
<path d="M387.58 524.95V530.9H381.64V536.84H405.4V530.9H399.46V524.95H387.58Z" fill="#D1FB84"/>
<path d="M387.58 73.47H381.64V79.41H387.58V73.47Z" fill="#D1FB84"/>
<path d="M393.52 31.89V25.94H375.7V31.89H393.52Z" fill="#D1FB84"/>
<path d="M559.85 269.51H553.91V293.27H559.85V269.51Z" fill="#D1FB84"/>
<path d="M524.21 233.87H488.57V311.09H470.74V340.8H476.69V323H482.63V317H488.57V340.8H494.51V293.27H518.27V239.81H524.21V233.87Z" fill="#D1FB84"/>
<path d="M399.46 233.87H363.81V227.93H357.87V233.87H346V239.81H357.88V245.75H351.94V257.63H346V263.57H334.11V269.51H340.05V275.45H375.7V263.57H381.64V251.69H387.58V239.81H393.52V299.21H399.46V233.87Z" fill="#D1FB84"/>
<path d="M381.64 67.53H375.7V73.47H381.64V67.53Z" fill="#D1FB84"/>
<path d="M512.33 186.34V180.4H500.45V174.46H488.57V168.52H464.8V174.46H482.63V180.4H476.69V192.28H470.74V198.22H464.8V204.16H423.22V198.22H417.28V192.28H411.34V180.4H405.4V174.46H417.28V168.52H399.46V174.46H375.7V180.4H369.75V186.34H375.7V180.4H399.46V192.28H393.52V222H363.81V228H399.46V233.94H405.4V299.28H423.22V293.34H429.16V287.4H452.92V293.34H458.86V299.28H482.63V233.87H488.57V227.93H482.63V216H488.57V198.22H494.51V186.34H512.33ZM429.16 210.12H435.1V216H423.22V233.83H435.1V239.77H417.28V210.1H429.16V210.12ZM470.74 222H464.8V228H470.74V233.94H464.8V239.88H458.86V233.94H452.92V239.88H447V233.94H441V228H447V222H441V216H447V210.1H452.94V216H458.88V210.1H464.82V216H470.76L470.74 222Z" fill="#D1FB84"/>
<path d="M381.64 103.17V97.23H369.75V103.17H381.64Z" fill="#D1FB84"/>
<path d="M375.7 61.59H369.75V67.53H375.7V61.59Z" fill="#D1FB84"/>
<path d="M375.7 49.71H369.75V55.65H375.7V49.71Z" fill="#D1FB84"/>
<path d="M375.7 31.89H369.75V37.83H375.7V31.89Z" fill="#D1FB84"/>
<path d="M369.75 186.34H363.81V192.28H369.75V186.34Z" fill="#D1FB84"/>
<path d="M363.81 115.05H369.75V103.17H363.81V115.05Z" fill="#D1FB84"/>
<path d="M369.75 85.35H363.81V97.23H369.75V85.35Z" fill="#D1FB84"/>
<path d="M369.75 55.65H363.81V61.59H369.75V55.65Z" fill="#D1FB84"/>
<path d="M369.75 37.83H363.81V49.71H369.75V37.83Z" fill="#D1FB84"/>
<path d="M363.81 192.28H357.87V198.22H363.81V192.28Z" fill="#D1FB84"/>
<path d="M363.81 103.17V97.23H351.93V103.17H363.81Z" fill="#D1FB84"/>
<path d="M363.81 221.98V216.04H351.93V210.1H345.99V221.98H363.81Z" fill="#D1FB84"/>
<path d="M357.87 198.22H351.93V210.1H357.87V198.22Z" fill="#D1FB84"/>
<path d="M340.05 233.87H345.99V221.98H340.05V233.87Z" fill="#D1FB84"/>
<path d="M334.11 221.98H340.05V204.16H334.11V221.98Z" fill="#D1FB84"/>
<path d="M334.11 186.34H340.05V180.4H351.93V174.46H369.75V168.52H387.58V162.58H399.46V150.7H393.52V144.76H387.58V150.7H375.7V156.64H357.87V162.58H340.05V168.52H334.11V186.34Z" fill="#D1FB84"/>
<path d="M328.17 257.63V251.69H322.23V257.63H328.17V263.57H334.11V257.63H328.17Z" fill="#D1FB84"/>
<path d="M328.17 192.28H322.23V198.22H328.17V204.16H334.11V186.34H328.17V192.28Z" fill="#D1FB84"/>
<path d="M334.11 168.52V162.58H322.23V168.52H334.11Z" fill="#D1FB84"/>
<path d="M322.23 239.81H316.29V251.69H322.23V239.81Z" fill="#D1FB84"/>
<path d="M322.23 168.52H316.29V174.46H322.23V168.52Z" fill="#D1FB84"/>
<path d="M316.29 227.93H310.35V239.81H316.29V227.93Z" fill="#D1FB84"/>
<path d="M316.29 162.58H310.35V168.52H316.29V162.58Z" fill="#D1FB84"/>
<path d="M310.35 204.16H322.23V198.22H298.47V204.16H304.41V227.93H310.35V204.16Z" fill="#D1FB84"/>
<path d="M298.47 180.4H304.41V174.46H310.35V168.52H298.47V180.4H286.59V186.34H268.76V192.28H256.88V198.22H245V216.04H262.82V210.1H274.7V204.16H286.59V198.22H298.47V180.4Z" fill="#D1FB84"/>
<path d="M761.85 838.08V814.32H755.91V838.08H761.85V861.84H767.79V838.08H761.85Z" fill="#D1FB84"/>
<path d="M761.85 743.03H755.91V784.62H761.85V743.03Z" fill="#D1FB84"/>
<path d="M744.03 861.84V867.78H761.85V861.84H744.03Z" fill="#D1FB84"/>
<path d="M755.91 784.62H749.97V814.32H755.91V784.62Z" fill="#D1FB84"/>
<path d="M755.91 719.27H749.97V743.03H755.91V719.27Z" fill="#D1FB84"/>
<path d="M749.97 707.39H744.03V719.27H749.97V707.39Z" fill="#D1FB84"/>
<path d="M744.03 707.39H749.97V695.51H744.03V707.39Z" fill="#D1FB84"/>
<path d="M744.03 844.02H738.09V861.84H744.03V844.02Z" fill="#D1FB84"/>
<path d="M738.09 695.51H744.03V677.68H738.09V695.51Z" fill="#D1FB84"/>
<path d="M738.09 832.14H732.15V844.02H738.09V832.14Z" fill="#D1FB84"/>
<path d="M738.09 671.74H732.15V677.68H738.09V671.74Z" fill="#D1FB84"/>
<path d="M714.32 861.84V867.78H738.09V861.84H714.32Z" fill="#D1FB84"/>
<path d="M732.15 665.8H726.2V671.74H732.15V665.8Z" fill="#D1FB84"/>
<path d="M720.26 665.8H726.2V642.04H720.26V665.8Z" fill="#D1FB84"/>
<path d="M714.32 760.85H720.26V725.21H726.2V707.39H708.38V754.91H714.32V760.85Z" fill="#D1FB84"/>
<path d="M720.26 636.1H714.32V642.04H720.26V636.1Z" fill="#D1FB84"/>
<path d="M714.32 855.9H708.38V861.84H714.32V855.9Z" fill="#D1FB84"/>
<path d="M690.56 861.84V867.78H708.38V861.84H690.56Z" fill="#D1FB84"/>
<path d="M702.44 695.51H637.1V701.45H702.44V695.51Z" fill="#D1FB84"/>
<path d="M696.5 606.4H702.44V624.22H708.38V636.1H714.32V618.28H708.38V606.4H702.44V594.52H696.5V606.4Z" fill="#D1FB84"/>
<path d="M637.1 707.39V749H702.44V707.39H637.1ZM643 743V737.06H649V731.12H654.94V725.18H649V719.24H643V713.3H649V719.24H654.94V725.18H660.88V731.12H654.94V737.06H649V743H643Z" fill="#D1FB84"/>
<path d="M690.56 849.96H684.62V861.84H690.56V849.96Z" fill="#D1FB84"/>
<path d="M696.5 594.52V588.58H684.62V594.52H696.5Z" fill="#D1FB84"/>
<path d="M684.62 844.02H678.68V849.96H684.62V844.02Z" fill="#D1FB84"/>
<path d="M672.74 861.84H678.68V849.96H672.74V861.84Z" fill="#D1FB84"/>
<path d="M678.68 832.14H672.74V844.02H678.68V832.14Z" fill="#D1FB84"/>
<path d="M678.68 820.26H672.74V826.2H678.68V820.26Z" fill="#D1FB84"/>
<path d="M672.74 600.46H654.92V588.58H649V665.8H654.94V642H678.7V671.7H649V665.8H643V630.16H637.1V624.22H643V588.58H637.1V582.64H619.27V588.58H607.39V618.28H613.33V624.22H625.21V630.16H613.33V624.22H607.39V648H619.27V653.94H625.21V659.88H631.16V665.82H643V671.76H631.16V677.7H583.63V683.7H565.81V677.7H559.87V689.59H583.63V695.53H613.33V707.41H631.16V689.57H625.21V683.63H631.16V689.57H708.38V683.63H714.32V689.57H708.38V707.39H726.2V683.63H720.26V677.63H708.38V671.69H684.62V636.1H678.68V588.58H672.74V600.46ZM595.51 689.57V683.63H613.33V689.57H595.51Z" fill="#D1FB84"/>
<path d="M678.68 535.11H672.74V541.05H678.68V535.11Z" fill="#D1FB84"/>
<path d="M678.68 517.29H672.74V523.23H678.68V517.29Z" fill="#D1FB84"/>
<path d="M672.74 582.64H666.8V588.58H672.74V582.64Z" fill="#D1FB84"/>
<path d="M672.74 541.05H666.8V546.99H672.74V541.05Z" fill="#D1FB84"/>
<path d="M666.8 535.11H672.74V523.23H666.8V535.11Z" fill="#D1FB84"/>
<path d="M666.8 517.29H672.74V505.41H666.8V517.29Z" fill="#D1FB84"/>
<path d="M660.86 861.84V867.78H672.74V861.84H660.86Z" fill="#D1FB84"/>
<path d="M648.98 576.69V582.64H666.8V576.69H648.98Z" fill="#D1FB84"/>
<path d="M660.86 505.41H666.8V481.64H660.86V505.41Z" fill="#D1FB84"/>
<path d="M666.8 570.75V576.69H678.68V588.58H684.62V576.69H690.56V570.75H684.62V564.81H678.68V570.75H672.74V558.87H666.8V564.81H648.98V570.75H666.8Z" fill="#D1FB84"/>
<path d="M654.92 546.99V552.93H666.8V546.99H654.92Z" fill="#D1FB84"/>
<path d="M654.92 481.64H660.86V469.76H654.92V481.64Z" fill="#D1FB84"/>
<path d="M654.92 885.61H648.98V879.66H654.92V867.78H648.98V873.72H619.27V867.78H613.33V879.66H619.27V885.61H613.33V891.55H607.39V897.49H660.86V891.55H654.92V885.61Z" fill="#D1FB84"/>
<path d="M654.92 541.05H648.98V546.99H654.92V541.05Z" fill="#D1FB84"/>
<path d="M648.98 861.84H643.04V867.78H648.98V861.84Z" fill="#D1FB84"/>
<path d="M637.1 558.87V564.81H648.98V558.87H637.1Z" fill="#D1FB84"/>
<path d="M643.04 463.82V469.76H654.92V463.82H643.04V457.88H631.16V463.82H643.04Z" fill="#D1FB84"/>
<path d="M631.16 665.8H625.21V671.74H631.16V665.8Z" fill="#D1FB84"/>
<path d="M648.98 576.69V570.75H625.21V576.69H648.98Z" fill="#D1FB84"/>
<path d="M625.21 861.84H619.27V867.78H625.21V861.84Z" fill="#D1FB84"/>
<path d="M619.27 760.85H625.21V754.91H631.16V707.39H613.33V725.21H619.27V760.85Z" fill="#D1FB84"/>
<path d="M625.21 659.86H619.27V665.8H625.21V659.86Z" fill="#D1FB84"/>
<path d="M625.21 564.81H619.27V570.75H625.21V564.81Z" fill="#D1FB84"/>
<path d="M631.16 457.88V451.94H619.27V457.88H631.16Z" fill="#D1FB84"/>
<path d="M619.27 826.2H625.21V832.14H643V826.2H649V861.84H654.94V826.2H660.88V814.32H654.94V802.44H690.58V796.5H696.52V790.56H702.46V778.67H708.4V772.73H714.34V760.85H708.4V754.91H631.16V760.85H625.21V772.73H631.16V778.67H637.1V790.56H643V796.5H649V814.32H619.27V772.73H613.33V814.32H607.39V826.2H613.33V861.84H619.27V826.2ZM678.68 760.89H684.62V766.83H690.56V760.89H702.44V772.77H696.5V778.71H690.56V784.71H684.62V778.71H678.68V772.77H672.74V760.85L678.68 760.89ZM637.1 760.89H649V766.83H654.94V760.89H666.8V772.77H660.86V778.71H654.92V784.71H649V778.71H643V772.77H637.1V760.89Z" fill="#D1FB84"/>
<path d="M613.33 725.21H595.51V772.73H601.45V731.15H607.39V772.73H613.33V725.21Z" fill="#D1FB84"/>
<path d="M589.57 653.92V659.86H619.27V653.92H589.57Z" fill="#D1FB84"/>
<path d="M613.33 457.88H607.39V463.82H613.33V457.88Z" fill="#D1FB84"/>
<path d="M619.27 582.64V570.75H613.33V576.69H595.51V570.75H589.57V582.64H619.27Z" fill="#D1FB84"/>
<path d="M601.45 564.81H619.27V558.87H625.21V552.93H631.16V547H643V552.94H649V547H643V541.06H637.1V529.17H643V523.23H649V511.35H637.1V499.47H631.16V487.59H625.21V481.64H607.39V475.7H601.45V481.64H583.63V487.59H577.69V493.53H571.75V511.35H559.87V523.23H565.81V517.29H571.75V523.23H565.81V529.17H571.75V541.05H565.81V547H577.69V552.94H583.63V558.88H589.57V564.82H601.45V564.81ZM583.63 541.05V535.11H589.57V541.05H619.27V535.11H625.21V541.05H619.27V547H589.57V541.06L583.63 541.05ZM613.33 529.17V535.11H595.51V529.17H613.33ZM643 517.29V523.23H637.1V517.29H643ZM631.12 511.35H625.17V523.23H619.23V511.35H613.29V505.41H631.12V511.35ZM577.65 505.41H595.47V511.35H589.53V523.23H583.59V511.35H577.65V505.41Z" fill="#D1FB84"/>
<path d="M601.45 457.88H595.51V463.82H601.45V457.88Z" fill="#D1FB84"/>
<path d="M601.45 451.94V457.88H607.39V451.94H619.27V446H589.57V451.94H601.45Z" fill="#D1FB84"/>
<path d="M589.57 814.32H559.87V784.62H553.93V814.32H547.99V826.2H553.93V861.84H559.87V826.2H565.81V832.14H583.63V826.2H589.57V861.84H595.51V826.2H601.45V814.32H595.51V772.73H589.57V814.32Z" fill="#D1FB84"/>
<path d="M559.87 873.72V867.78H553.93V879.66H559.87V885.61H553.93V891.55H547.99V897.49H601.45V891.55H595.51V885.61H589.57V879.66H595.51V867.78H589.57V873.72H559.87Z" fill="#D1FB84"/>
<path d="M589.57 861.84H583.63V867.78H589.57V861.84Z" fill="#D1FB84"/>
<path d="M589.57 659.86H583.63V665.8H589.57V659.86Z" fill="#D1FB84"/>
<path d="M589.57 564.81H583.63V570.75H589.57V564.81Z" fill="#D1FB84"/>
<path d="M589.57 457.88V451.94H577.69V457.88H589.57Z" fill="#D1FB84"/>
<path d="M583.63 772.73H577.69V778.67H583.63V772.73Z" fill="#D1FB84"/>
<path d="M583.63 665.8H577.69V671.74H583.63V665.8Z" fill="#D1FB84"/>
<path d="M577.69 677.68V671.74H565.81V677.68H577.69Z" fill="#D1FB84"/>
<path d="M577.69 665.8V659.86H583.63V653.92H589.57V647.98H601.45V624.22H595.51V630.16H583.63V624.22H595.51V618.28H601.45V588.58H589.57V582.64H565.81V624.22H571.75V630.16H565.81V665.8H577.69Z" fill="#D1FB84"/>
<path d="M577.69 463.82V457.88H565.81V463.82H577.69Z" fill="#D1FB84"/>
<path d="M577.69 784.62V778.67H565.81V784.62H577.69Z" fill="#D1FB84"/>
<path d="M565.81 861.84H559.87V867.78H565.81V861.84Z" fill="#D1FB84"/>
<path d="M565.81 772.73H559.87V778.67H565.81V772.73Z" fill="#D1FB84"/>
<path d="M565.81 665.8H559.87V671.74H565.81V665.8Z" fill="#D1FB84"/>
<path d="M583.63 576.69V570.75H559.87V576.69H583.63Z" fill="#D1FB84"/>
<path d="M565.81 546.99H559.87V552.93H565.81V546.99Z" fill="#D1FB84"/>
<path d="M565.81 469.76V463.82H553.93V469.76H565.81Z" fill="#D1FB84"/>
<path d="M559.87 707.39H553.93V731.15H559.87V707.39Z" fill="#D1FB84"/>
<path d="M553.93 707.39H559.87V689.57H553.93V707.39Z" fill="#D1FB84"/>
<path d="M559.87 541.05H553.93V546.99H559.87V541.05Z" fill="#D1FB84"/>
<path d="M553.93 772.73H559.87V766.79H553.93V731.15H547.99V784.62H553.93V772.73Z" fill="#D1FB84"/>
<path d="M559.87 582.64V576.69H542.05V582.64H559.87Z" fill="#D1FB84"/>
<path d="M553.93 469.76H547.99V481.64H553.93V469.76Z" fill="#D1FB84"/>
<path d="M547.99 659.86H542.05V665.8H547.99V659.86Z" fill="#D1FB84"/>
<path d="M542.05 546.99V552.93H553.93V546.99H542.05Z" fill="#D1FB84"/>
<path d="M547.99 481.64H542.05V505.41H547.99V481.64Z" fill="#D1FB84"/>
<path d="M542.05 665.8H536.11V671.74H542.05V665.8Z" fill="#D1FB84"/>
<path d="M542.05 582.64H536.11V588.58H542.05V582.64Z" fill="#D1FB84"/>
<path d="M542.05 541.05H536.11V546.99H542.05V541.05Z" fill="#D1FB84"/>
<path d="M542.05 523.23H536.11V535.11H542.05V523.23Z" fill="#D1FB84"/>
<path d="M542.05 505.41H536.11V517.29H542.05V505.41Z" fill="#D1FB84"/>
<path d="M536.11 844H506.4V719.27H518.28V707.39H512.34V713.33H506.4V707.39H500.46V713.33H488.58V707.39H482.64V713.33H476.7V707.39H470.76V719.27H482.64V844H452.94V855.9H447V885.61H452.94V897.49H536.11V885.61H542.05V855.9H536.11V844ZM488.58 719.27H500.46V725.21H488.58V719.27ZM488.58 731.15H500.46V737.09H488.58V731.15ZM488.58 743.03H500.46V749H488.58V743.03ZM488.58 754.91H500.46V760.85H488.58V754.91ZM488.58 766.79H500.46V772.73H488.58V766.79ZM488.58 778.67H500.46V784.67H488.58V778.67ZM488.58 790.56H500.46V796.5H488.58V790.56ZM488.58 802.44H500.46V808.38H488.58V802.44ZM488.58 814.32H500.46V820.26H488.58V814.32ZM488.58 826.2H500.46V838.08H488.58V826.2ZM464.82 891.55H458.88V850H470.76V891.59L464.82 891.55ZM506.4 891.55H476.7V850H512.34V891.59L506.4 891.55ZM530.16 861.84V891.55H518.28V850H530.16V861.88V861.84Z" fill="#D1FB84"/>
<path d="M536.11 671.74H530.16V677.68H536.11V671.74Z" fill="#D1FB84"/>
<path d="M536.11 642.04V647.98H553.93V653.92H547.99V659.86H553.93V665.8H559.87V588.58H553.93V600.46H536.11V588.58H530.16V636.1H524.22V642.04H536.11Z" fill="#D1FB84"/>
<path d="M536.11 535.11H530.16V541.05H536.11V535.11Z" fill="#D1FB84"/>
<path d="M536.11 517.29H530.16V523.23H536.11V517.29Z" fill="#D1FB84"/>
<path d="M530.16 677.68H524.22V683.63H530.16V677.68Z" fill="#D1FB84"/>
<path d="M530.16 576.69H542.05V570.75H559.87V564.81H571.75V558.87H553.93V564.81H542.05V558.87H536.11V570.75H530.16V564.81H524.22V570.75H518.28V576.69H524.22V588.58H530.16V576.69Z" fill="#D1FB84"/>
<path d="M524.22 683.63H518.28V689.57H524.22V683.63Z" fill="#D1FB84"/>
<path d="M524.22 642.04H518.28V647.98H524.22V642.04Z" fill="#D1FB84"/>
<path d="M518.28 647.98H512.34V653.92H518.28V647.98Z" fill="#D1FB84"/>
<path d="M506.4 689.57V695.51H512.34V707.39H518.28V689.57H506.4Z" fill="#D1FB84"/>
<path d="M512.34 653.92H506.4V659.86H512.34V653.92Z" fill="#D1FB84"/>
<path d="M506.4 701.45H500.46V707.39H506.4V701.45Z" fill="#D1FB84"/>
<path d="M494.52 683.63V671.74H488.58V683.63H482.64V689.57H506.4V683.63H494.52Z" fill="#D1FB84"/>
<path d="M506.4 659.86H500.46V665.8H506.4V659.86Z" fill="#D1FB84"/>
<path d="M500.46 665.8H494.52V671.74H500.46V665.8Z" fill="#D1FB84"/>
<path d="M488.58 701.45H482.64V707.39H488.58V701.45Z" fill="#D1FB84"/>
<path d="M482.64 689.57H476.7V695.51H482.64V689.57Z" fill="#D1FB84"/>
<path d="M470.76 707.39H476.7V695.51H470.76V707.39Z" fill="#D1FB84"/>
</g>
<defs>
<filter id="filter0_d" x="54.6797" y="0" width="733.11" height="949.25" filterUnits="userSpaceOnUse" color-interpolation-filters="sRGB" filterRes="800">
<feFlood flood-opacity="0" result="BackgroundImageFix"/>
<feColorMatrix in="SourceAlpha" type="matrix" values="0 0 0 0 0 0 0 0 0 0 0 0 0 0 0 0 0 0 127 0"/>
<feOffset/>
<feGaussianBlur stdDeviation="10"/>
<feColorMatrix type="matrix" values="0 0 0 0 0.707769 0 0 0 0 0.85 0 0 0 0 0.447012 0 0 0 1 0"/>
<feBlend mode="normal" in2="BackgroundImageFix" result="effect1_dropShadow"/>
<feBlend mode="normal" in="SourceGraphic" in2="effect1_dropShadow" result="shape"/>
</filter>
</defs>
</svg>
