<svg width="850" height="950" viewBox="0 0 850 950" fill="none" xmlns="http://www.w3.org/2000/svg">
<g filter="url(#filter0_d)">
<path d="M419.26 863.94V869.88H413.32V875.82H401.44V881.82H389.56V887.76H383.62V893.7H377.68V899.64H371.76V905.58H365.76V899.64H359.82V893.7H353.88V887.76H347.94V869.88H342V863.94H336.06V828.29H330.12V869.88H336.06V881.77H330.12V887.71H324.18V893.65H330.12V899.59H324.18V905.53H318.24V899.59H312.3V905.53H306.36V911.47H300.42V917.41H294.48V911.47H288.54V917.41H282.6V911.47H288.54V905.53H282.6V727.3H288.54V721.36H270.76V727.3H264.76V691.66H288.53V685.72H282.59V662H270.76V685.77H247V673.83H241V662H235.1V667.94H229.16V673.88H235.1V679.88H241V685.82H235.1V691.76H229.16V697.7H235.1V703.64H229.16V709.58H235.1V715.52H229.16V721.46H223.22V727.4H229.16V733.34H241V739.28H264.72V733.34H270.72V863.94H264.72V869.88H270.72V887.71H264.72V893.65H270.72V899.59H264.72V905.53H270.72V911.47H264.72V917.41H258.82V911.47H252.88V905.53H247V911.47H241V905.53H235.1V911.47H229.16V905.53H223.22V899.59H217.28V893.65H211.34V899.59H205.4V893.65H211.34V887.71H205.4V881.77H199.46V887.71H193.52V881.77H199.46V875.77H205.4V852H199.46V869.82H193.52V875.76H187.58V881.76H181.64V875.76H169.76V869.82H163.76V881.72H169.76V887.66H175.71V893.6H181.65V899.54H187.59V905.48H193.53V911.42H199.47V917.36H211.35V923.3H235.11V929.24H318.28V923.3H324.22V917.36H342V905.52H348V911.46H359.88V917.4H371.78V911.46H389.58V905.52H407.4V899.58H413.34V893.64H419.28V881.76H425.22V863.94H419.26ZM252.92 691.66V697.6H247V691.66H252.92ZM241 703.54H247V709.48H241V703.54ZM235.1 727.3V721.36H241V727.3H235.1Z" fill="#D1FB84"/>
<path d="M383.62 881.76H389.56V869.88H383.62V881.76Z" fill="#D1FB84"/>
<path d="M383.62 881.76H377.68V887.7H383.62V881.76Z" fill="#D1FB84"/>
<path d="M377.68 869.88H383.62V852.05H377.68V869.88Z" fill="#D1FB84"/>
<path d="M377.68 656.01H371.73V661.96H377.68V679.78H383.62V685.73H377.68V679.78H371.73V685.73H365.79V691.66H359.85V685.73H353.91V715.42H359.85V703.54H377.68V721.37H383.62V697.61H389.56V667.89H383.62V626.32H377.68V656.01Z" fill="#D1FB84"/>
<path d="M377.68 887.7H371.73V893.64H377.68V887.7Z" fill="#D1FB84"/>
<path d="M377.68 875.82H371.73V881.77H377.68V875.82Z" fill="#D1FB84"/>
<path d="M371.73 852.05H377.68V822.36H371.73V852.05Z" fill="#D1FB84"/>
<path d="M371.73 626.32H377.68V560.97H371.73V626.32Z" fill="#D1FB84"/>
<path d="M371.73 893.64H365.79V899.58H371.73V893.64Z" fill="#D1FB84"/>
<path d="M371.73 881.76H365.79V887.7H371.73V881.76Z" fill="#D1FB84"/>
<path d="M371.73 858H365.79V863.94H371.73V858Z" fill="#D1FB84"/>
<path d="M365.79 822.36H371.73V780.77H365.79V822.36Z" fill="#D1FB84"/>
<path d="M365.79 721.37V715.42H359.85V780.77H365.79V733.25H371.73V727.3H377.68V721.37H365.79Z" fill="#D1FB84"/>
<path d="M371.73 673.83H365.79V679.78H371.73V673.83Z" fill="#D1FB84"/>
<path d="M371.73 638.19H365.79V644.13H371.73V638.19Z" fill="#D1FB84"/>
<path d="M365.79 560.97H371.73V549.09H365.79V560.97Z" fill="#D1FB84"/>
<path d="M371.73 418.39H365.79V424.33H371.73V418.39Z" fill="#D1FB84"/>
<path d="M371.73 412.45V418.39H377.68V412.45H383.62V406.51H359.85V412.45H371.73Z" fill="#D1FB84"/>
<path d="M365.79 887.7H359.85V893.64H365.79V887.7Z" fill="#D1FB84"/>
<path d="M365.79 679.78H359.85V685.72H365.79V679.78Z" fill="#D1FB84"/>
<path d="M365.79 667.89H359.85V673.83H365.79V667.89Z" fill="#D1FB84"/>
<path d="M365.79 650.07H359.85V656.01H365.79V650.07Z" fill="#D1FB84"/>
<path d="M359.85 620.38H365.79V572.85H359.85V620.38Z" fill="#D1FB84"/>
<path d="M365.79 424.33H359.85V430.27H365.79V424.33Z" fill="#D1FB84"/>
<path d="M359.85 881.76H353.91V887.7H359.85V881.76Z" fill="#D1FB84"/>
<path d="M359.85 869.88H353.91V875.82H359.85V869.88Z" fill="#D1FB84"/>
<path d="M359.85 852.05H353.91V857.99H359.85V852.05Z" fill="#D1FB84"/>
<path d="M359.85 822.35H353.91V828.29H359.85V822.35Z" fill="#D1FB84"/>
<path d="M353.91 644.13H359.85V620.38H353.91V644.13Z" fill="#D1FB84"/>
<path d="M353.91 572.85H359.85V560.97H353.91V572.85Z" fill="#D1FB84"/>
<path d="M347.97 685.73H353.91V679.78H359.85V673.84H353.91V644.13H347.97V685.73Z" fill="#D1FB84"/>
<path d="M353.91 555.02H347.97V560.96H353.91V555.02Z" fill="#D1FB84"/>
<path d="M347.97 834.23H342.03V840.17H347.97V834.23Z" fill="#D1FB84"/>
<path d="M347.97 792.65H342.03V798.59H347.97V792.65Z" fill="#D1FB84"/>
<path d="M330.15 555.02V560.97H342.03V555.02H330.15Z" fill="#D1FB84"/>
<path d="M330.15 869.88H324.21V875.82H330.15V869.88Z" fill="#D1FB84"/>
<path d="M330.15 768.88H324.21V828.29H330.15V768.88Z" fill="#D1FB84"/>
<path d="M330.15 525.32H342V519.38H348V483.74H342V477.74H336.06V483.74H330.12V477.74H336.06V471.8H342V477.74H348V454H342V448.06H336.06V442.12H330.12V448.06H324.18V454H318.24V460H300.45V465.94H294.51V489.71H288.57V507.5H294.51V513.44H300.45V519.38H294.51V525.32H306.39V531.26H324.21V537.2H330.15V525.32ZM342 507.5H336.06V513.44H318.27V507.5H312.33V501.56H318.27V507.5H336.09V501.56H342V507.5ZM336.06 489.68V495.62H324.21V489.68H336.06ZM300.42 477.79H306.36V471.85H312.3V477.79H318.24V483.79H312.3V477.79H306.36V483.79H300.42V477.79Z" fill="#D1FB84"/>
<path d="M324.21 893.64H318.27V899.58H324.21V893.64Z" fill="#D1FB84"/>
<path d="M324.21 709.49H318.27V691.66H312.33V715.42H318.27V768.88H324.21V709.49Z" fill="#D1FB84"/>
<path d="M324.21 626.32H330.15V590.67H324.21V620.38H318.27V644.13H324.21V626.32Z" fill="#D1FB84"/>
<path d="M324.21 578.79H318.27V590.67H324.21V578.79Z" fill="#D1FB84"/>
<path d="M318.27 560.97V566.9H330.15V560.97H318.27Z" fill="#D1FB84"/>
<path d="M324.21 543.14V537.21H312.33V543.14H324.21Z" fill="#D1FB84"/>
<path d="M318.27 887.7H312.33V893.64H318.27V887.7Z" fill="#D1FB84"/>
<path d="M318.27 875.82H312.33V881.77H318.27V875.82Z" fill="#D1FB84"/>
<path d="M318.27 858H312.33V863.94H318.27V858Z" fill="#D1FB84"/>
<path d="M318.27 840.17H312.33V846.11H318.27V840.17Z" fill="#D1FB84"/>
<path d="M318.27 644.13H312.33V667.89H318.27V644.13Z" fill="#D1FB84"/>
<path d="M318.27 566.9H312.33V578.79H318.27V566.9Z" fill="#D1FB84"/>
<path d="M312.33 893.64H306.39V899.58H312.33V893.64Z" fill="#D1FB84"/>
<path d="M312.33 667.89H306.39V691.66H312.33V667.89Z" fill="#D1FB84"/>
<path d="M312.33 632.25H306.39V644.13H312.33V632.25Z" fill="#D1FB84"/>
<path d="M312.33 614.44H306.39V620.38H312.33V614.44Z" fill="#D1FB84"/>
<path d="M312.33 543.14H306.39V566.9H312.33V543.14Z" fill="#D1FB84"/>
<path d="M306.39 899.58H300.45V905.52H306.39V899.58Z" fill="#D1FB84"/>
<path d="M306.39 881.76H300.45V887.7H306.39V881.76Z" fill="#D1FB84"/>
<path d="M306.39 822.35H300.45V828.29H306.39V822.35Z" fill="#D1FB84"/>
<path d="M306.39 608.5H300.45V614.44H306.39V608.5Z" fill="#D1FB84"/>
<path d="M300.45 905.52H294.51V911.46H300.45V905.52Z" fill="#D1FB84"/>
<path d="M300.45 893.64H294.51V899.58H300.45V893.64Z" fill="#D1FB84"/>
<path d="M300.45 863.94H294.51V869.88H300.45V863.94Z" fill="#D1FB84"/>
<path d="M300.45 661.95H294.51V667.89H300.45V661.95Z" fill="#D1FB84"/>
<path d="M294.51 650.08H300.45V638.2H294.51V650.08Z" fill="#D1FB84"/>
<path d="M306.39 394.63V388.69H294.51V394.63H306.39Z" fill="#D1FB84"/>
<path d="M294.51 899.58H288.57V905.52H294.51V899.58Z" fill="#D1FB84"/>
<path d="M294.51 881.76H288.57V887.7H294.51V881.76Z" fill="#D1FB84"/>
<path d="M294.51 846.11H288.57V852.05H294.51V846.11Z" fill="#D1FB84"/>
<path d="M294.51 691.66H288.57V697.61H276.69V703.54H288.57V709.49H276.69V715.42H288.57V721.37H294.51V691.66Z" fill="#D1FB84"/>
<path d="M294.51 667.89H288.57V673.83H294.51V667.89Z" fill="#D1FB84"/>
<path d="M294.51 650.07H288.57V656.01H294.51V650.07Z" fill="#D1FB84"/>
<path d="M288.57 638.2H294.51V620.38H288.57V638.2Z" fill="#D1FB84"/>
<path d="M294.51 590.67H288.57V596.61H294.51V590.67Z" fill="#D1FB84"/>
<path d="M288.57 656.01H282.63V661.95H288.57V656.01Z" fill="#D1FB84"/>
<path d="M282.63 620.38H288.57V608.5H282.63V620.38Z" fill="#D1FB84"/>
<path d="M288.57 584.73H282.63V590.67H288.57V584.73Z" fill="#D1FB84"/>
<path d="M294.51 566.9V560.97H282.63V566.9H294.51Z" fill="#D1FB84"/>
<path d="M282.63 626.32H270.74V650.08H282.63V626.32Z" fill="#D1FB84"/>
<path d="M282.63 608.5V596.62H270.74V608.5H282.63Z" fill="#D1FB84"/>
<path d="M294.51 388.69V382.75H276.69V388.69H294.51Z" fill="#D1FB84"/>
<path d="M282.63 560.97V555.02H270.74V560.97H282.63Z" fill="#D1FB84"/>
<path d="M270.74 656.01H264.8V661.95H270.74V656.01Z" fill="#D1FB84"/>
<path d="M270.74 608.5H264.8V620.38H270.74V608.5Z" fill="#D1FB84"/>
<path d="M270.74 549.08H264.8V555.02H270.74V549.08Z" fill="#D1FB84"/>
<path d="M276.69 382.75V376.81H264.8V382.75H276.69Z" fill="#D1FB84"/>
<path d="M264.8 905.52H258.86V911.46H264.8V905.52Z" fill="#D1FB84"/>
<path d="M264.8 893.64H258.86V899.58H264.8V893.64Z" fill="#D1FB84"/>
<path d="M264.8 667.89H258.86V673.83H264.8V667.89Z" fill="#D1FB84"/>
<path d="M264.8 650.07H258.86V656.01H264.8V650.07Z" fill="#D1FB84"/>
<path d="M264.8 620.38H258.86V638.2H264.8V620.38Z" fill="#D1FB84"/>
<path d="M264.8 590.67H258.86V596.61H264.8V590.67Z" fill="#D1FB84"/>
<path d="M258.86 899.58H252.92V905.52H258.86V899.58Z" fill="#D1FB84"/>
<path d="M258.86 887.7H252.92V893.64H258.86V887.7Z" fill="#D1FB84"/>
<path d="M258.86 875.82H252.92V881.77H258.86V875.82Z" fill="#D1FB84"/>
<path d="M258.86 840.17H252.92V846.11H258.86V840.17Z" fill="#D1FB84"/>
<path d="M258.86 661.95H252.92V667.89H258.86V661.95Z" fill="#D1FB84"/>
<path d="M258.86 638.2H252.92V650.08H258.86V638.2Z" fill="#D1FB84"/>
<path d="M258.86 596.61H252.92V602.55H258.86V596.61Z" fill="#D1FB84"/>
<path d="M252.92 893.64H246.98V899.58H252.92V893.64Z" fill="#D1FB84"/>
<path d="M246.98 626.32H252.92V614.43H246.98V626.32Z" fill="#D1FB84"/>
<path d="M252.92 394.63H246.98V400.57H252.92V394.63Z" fill="#D1FB84"/>
<path d="M246.98 899.58H241.04V905.52H246.98V899.58Z" fill="#D1FB84"/>
<path d="M246.98 887.7H241.04V893.64H246.98V887.7Z" fill="#D1FB84"/>
<path d="M246.98 858H241.04V863.94H246.98V858Z" fill="#D1FB84"/>
<path d="M246.98 810.47H241.04V816.41H246.98V810.47Z" fill="#D1FB84"/>
<path d="M241.04 650.08H246.98V638.2H241.04V650.08Z" fill="#D1FB84"/>
<path d="M246.98 596.61H241.04V602.55H246.98V596.61Z" fill="#D1FB84"/>
<path d="M246.98 388.69H241.04V394.63H246.98V388.69Z" fill="#D1FB84"/>
<path d="M264.8 376.81V370.87H241.04V376.81H264.8Z" fill="#D1FB84"/>
<path d="M241.04 893.64H235.1V899.58H241.04V893.64Z" fill="#D1FB84"/>
<path d="M241.04 875.82H235.1V881.77H241.04V875.82Z" fill="#D1FB84"/>
<path d="M241.04 602.55H235.1V632.25H241.04V602.55Z" fill="#D1FB84"/>
<path d="M241.04 382.75H235.1V388.69H241.04V382.75Z" fill="#D1FB84"/>
<path d="M235.1 899.58H229.16V905.52H235.1V899.58Z" fill="#D1FB84"/>
<path d="M235.1 887.7H229.16V893.64H235.1V887.7Z" fill="#D1FB84"/>
<path d="M235.1 679.78H229.16V685.72H235.1V679.78Z" fill="#D1FB84"/>
<path d="M235.1 632.25H229.16V650.08H223.22V656.01H229.16V661.96H235.1V632.25Z" fill="#D1FB84"/>
<path d="M235.1 376.8H229.16V382.75H235.1V376.8Z" fill="#D1FB84"/>
<path d="M241.04 370.87V364.93H217.28V370.87H223.22V376.81H229.16V370.87H241.04Z" fill="#D1FB84"/>
<path d="M229.16 893.64H223.22V899.58H229.16V893.64Z" fill="#D1FB84"/>
<path d="M229.16 881.76H223.22V887.7H229.16V881.76Z" fill="#D1FB84"/>
<path d="M229.16 863.94H223.22V869.88H229.16V863.94Z" fill="#D1FB84"/>
<path d="M229.16 834.23H223.22V840.17H229.16V834.23Z" fill="#D1FB84"/>
<path d="M229.16 733.25H223.22V757H229.16V733.25Z" fill="#D1FB84"/>
<path d="M229.16 715.42V709.49H223.22V703.54H217.28V697.61H211.34V691.66H205.4V685.73H199.46V697.61H205.4V703.54H211.34V709.49H217.28V721.37H223.22V715.42H229.16Z" fill="#D1FB84"/>
<path d="M229.16 697.6H223.22L223.22 703.54H229.16V697.6Z" fill="#D1FB84"/>
<path d="M229.16 685.72H223.22V691.66H229.16V685.72Z" fill="#D1FB84"/>
<path d="M229.16 673.83H223.22V679.78H229.16V673.83Z" fill="#D1FB84"/>
<path d="M229.16 448.09H223.22V454.03H229.16V448.09Z" fill="#D1FB84"/>
<path d="M258.86 442.15V436.21H276.69V430.27H294.51V424.33H306.39V418.39H359.85V412.45H330.15V406.51H318.27V394.63H306.39V400.57H312.33V406.51H306.39V412.45H288.57V418.39H276.69V424.33H258.86V400.57H252.92V436.21H211.34V442.15H217.28V448.1H223.22V442.15H258.86Z" fill="#D1FB84"/>
<path d="M223.22 887.7H217.28V893.64H223.22V887.7Z" fill="#D1FB84"/>
<path d="M223.22 875.82H217.28V881.77H223.22V875.82Z" fill="#D1FB84"/>
<path d="M223.22 757H217.28V804.53H223.22V757Z" fill="#D1FB84"/>
<path d="M223.22 691.66H217.28V697.6H223.22V691.66Z" fill="#D1FB84"/>
<path d="M223.22 679.78H217.28V685.72H223.22V679.78Z" fill="#D1FB84"/>
<path d="M223.22 661.95H217.28V667.89H223.22V661.95Z" fill="#D1FB84"/>
<path d="M223.22 560.97H235.1V555.02H246.98V549.09H252.92V543.14H246.98V507.5H264.8V513.44H276.69V519.38H294.51V513.44H288.57L288.57 507.5H282.63V501.56H270.74V495.63H282.63V489.69H288.57V465.92H294.51V459.98H300.45V454.04H318.27V448.1H324.21V442.15H330.15V436.21H336.09V442.15H342.03V448.1H353.91V519.38H347.97V537.21H342.03V555.02H347.97V543.14H359.85V549.09H365.79V531.26H359.85V519.38H365.79V507.5H377.68V489.69H371.73V501.56H365.79V495.63H359.85V483.75H365.79V442.15H359.85V436.21H353.91V430.27H312.33V436.21H300.45V442.15H288.57V448.1H270.74V454.04H229.16V459.98H246.98V489.69H241.04V483.75H235.1V477.8H229.16V495.63H235.1V513.44H229.16V519.38H223.22V513.44H217.28V525.32H223.22V537.21H217.28V543.14H211.34V537.21H205.4V531.26H199.46V555.02H205.4V560.97H211.34V566.9H217.28V572.85H223.22V560.97Z" fill="#D1FB84"/>
<path d="M217.28 881.76H211.34V887.7H217.28V881.76Z" fill="#D1FB84"/>
<path d="M217.28 869.88H211.34V875.82H217.28V869.88Z" fill="#D1FB84"/>
<path d="M217.28 852.05H211.34V857.99H217.28V852.05Z" fill="#D1FB84"/>
<path d="M217.28 804.53H211.34V822.36H217.28V804.53Z" fill="#D1FB84"/>
<path d="M217.28 685.72H211.34L211.34 691.66H217.28V685.72Z" fill="#D1FB84"/>
<path d="M217.28 673.83H211.34V679.78H217.28V673.83Z" fill="#D1FB84"/>
<path d="M217.28 572.84H211.34V578.79H217.28V572.84Z" fill="#D1FB84"/>
<path d="M217.28 483.74H211.34V489.68H217.28V483.74Z" fill="#D1FB84"/>
<path d="M211.34 875.82H205.4L205.4 881.77H211.34V875.82Z" fill="#D1FB84"/>
<path d="M211.34 822.36H205.4V852.05H211.34V822.36Z" fill="#D1FB84"/>
<path d="M211.34 661.95H205.4V667.89H211.34V661.95Z" fill="#D1FB84"/>
<path d="M211.34 650.07H205.4V656.01H211.34V650.07Z" fill="#D1FB84"/>
<path d="M211.34 578.79H205.4V584.73H211.34V578.79Z" fill="#D1FB84"/>
<path d="M211.34 489.68H205.4V495.62H211.34V489.68Z" fill="#D1FB84"/>
<path d="M211.34 477.79H205.4V483.74H211.34V477.79Z" fill="#D1FB84"/>
<path d="M205.4 679.78V673.84H193.52V685.73H199.46V679.78H205.4Z" fill="#D1FB84"/>
<path d="M205.4 584.74H199.46V614.43H205.4V584.74Z" fill="#D1FB84"/>
<path d="M205.4 483.74H199.46V489.68H205.4V483.74Z" fill="#D1FB84"/>
<path d="M199.46 614.43H193.52V644.13H199.46V614.43Z" fill="#D1FB84"/>
<path d="M187.52 471.95H193.46V447.95H187.52V471.95Z" fill="#D1FB84"/>
<path d="M193.52 644.13H187.58V673.84H193.52V644.13Z" fill="#D1FB84"/>
<path d="M181.64 525.32H175.7V531.26H181.64V525.32Z" fill="#D1FB84"/>
<path d="M175.7 513.44H181.64V489.69H175.7V513.44Z" fill="#D1FB84"/>
<path d="M163.81 471.86V483.75H169.75V477.8H187.58V471.86H163.81Z" fill="#D1FB84"/>
<path d="M175.7 430.27H181.64V406.51H175.7V430.27Z" fill="#D1FB84"/>
<path d="M181.64 382.75H175.7V388.69H181.64V382.75Z" fill="#D1FB84"/>
<path d="M175.7 483.74H169.75V489.68H175.7V483.74Z" fill="#D1FB84"/>
<path d="M175.7 430.27H169.75V436.21H175.7V430.27Z" fill="#D1FB84"/>
<path d="M151.93 513.44V519.38H175.7V513.44H151.93Z" fill="#D1FB84"/>
<path d="M163.81 448.1H187.58V442.15H169.75V436.21H163.81V448.1Z" fill="#D1FB84"/>
<path d="M163.81 768.88H157.87V780.77H163.81V768.88Z" fill="#D1FB84"/>
<path d="M163.81 436.21V430.27H151.93V436.21H163.81Z" fill="#D1FB84"/>
<path d="M175.7 406.51V400.57H151.93V406.51H175.7Z" fill="#D1FB84"/>
<path d="M157.87 656.01H151.93V673.84H157.87V656.01Z" fill="#D1FB84"/>
<path d="M151.93 590.67H157.87V578.79H151.93V590.67Z" fill="#D1FB84"/>
<path d="M151.93 483.75V489.69H163.81V483.75H151.93Z" fill="#D1FB84"/>
<path d="M151.93 525.32H145.99V537.21H151.93V525.32Z" fill="#D1FB84"/>
<path d="M151.93 507.5H145.99V513.44H151.93V507.5Z" fill="#D1FB84"/>
<path d="M151.93 471.86H163.81V465.92H157.87V454.04H163.81V448.1H151.93V436.21H145.99V442.15H140.05V448.1H145.99V454.04H151.93V465.92H145.99V471.86H140.05V477.8H145.99V483.75H151.93V471.86Z" fill="#D1FB84"/>
<path d="M151.93 406.51H145.99V412.45H151.93V406.51Z" fill="#D1FB84"/>
<path d="M145.99 501.56H140.05V507.5H145.99V501.56Z" fill="#D1FB84"/>
<path d="M140.05 495.63H145.99V483.75H140.05V495.63Z" fill="#D1FB84"/>
<path d="M140.05 436.21H145.99V424.33H140.05V436.21Z" fill="#D1FB84"/>
<path d="M145.99 412.45H140.05V418.39H145.99V412.45Z" fill="#D1FB84"/>
<path d="M145.99 382.75H140.05V388.69H145.99V382.75Z" fill="#D1FB84"/>
<path d="M128.17 495.63V501.56H140.05V495.63H128.17Z" fill="#D1FB84"/>
<path d="M128.17 436.21V442.15H140.05V436.21H128.17Z" fill="#D1FB84"/>
<path d="M140.05 388.69H134.11V394.63H140.05V388.69Z" fill="#D1FB84"/>
<path d="M140.05 376.8H134.11V382.75H140.05V376.8Z" fill="#D1FB84"/>
<path d="M134.11 555.02H128.17V560.96H134.11V555.02Z" fill="#D1FB84"/>
<path d="M128.17 477.8V483.75H140.05V477.8H128.17Z" fill="#D1FB84"/>
<path d="M128.17 454.04V465.92H140.05V454.04H128.17Z" fill="#D1FB84"/>
<path d="M140.05 424.33V418.39H128.17V424.33H140.05Z" fill="#D1FB84"/>
<path d="M134.11 382.75H128.17V388.69H134.11V382.75Z" fill="#D1FB84"/>
<path d="M122.23 715.42H128.17V703.54H122.23V715.42Z" fill="#D1FB84"/>
<path d="M128.17 501.56H122.23V507.5H128.17V501.56Z" fill="#D1FB84"/>
<path d="M128.17 483.75H122.23V495.63H128.17V483.75Z" fill="#D1FB84"/>
<path d="M128.17 477.8V471.86H122.23V465.92H116.29V454.04H122.23V448.1H128.17V442.15H122.23V436.21H116.29V448.1H104.41V454.04H110.35V465.92H104.41V471.86H116.29V483.75H122.23V477.8H128.17Z" fill="#D1FB84"/>
<path d="M128.17 424.33H122.23V436.21H128.17V424.33Z" fill="#D1FB84"/>
<path d="M128.17 412.45H122.23V418.39H128.17V412.45Z" fill="#D1FB84"/>
<path d="M122.23 507.5H116.29V513.44H122.23V507.5Z" fill="#D1FB84"/>
<path d="M122.23 406.51H116.29V412.45H122.23V406.51Z" fill="#D1FB84"/>
<path d="M110.35 638.2H116.29V626.32H110.35V638.2Z" fill="#D1FB84"/>
<path d="M116.29 436.21V430.27H104.41V436.21H116.29Z" fill="#D1FB84"/>
<path d="M110.35 537.2H104.41V543.14H110.35V537.2Z" fill="#D1FB84"/>
<path d="M92.53 513.44V519.38H116.29V513.44H92.53Z" fill="#D1FB84"/>
<path d="M104.41 483.75V489.69H116.29V483.75H104.41Z" fill="#D1FB84"/>
<path d="M98.47 822.36H104.41V804.53H98.47V822.36Z" fill="#D1FB84"/>
<path d="M104.41 543.14H98.47V549.08H104.41V543.14Z" fill="#D1FB84"/>
<path d="M104.41 531.26H98.47V537.2H104.41V531.26Z" fill="#D1FB84"/>
<path d="M104.41 471.86H80.65V477.8H98.47V483.75H104.41V471.86Z" fill="#D1FB84"/>
<path d="M116.29 406.51V400.57H92.53V406.51H116.29Z" fill="#D1FB84"/>
<path d="M104.41 382.75H98.47V388.69H104.41V382.75Z" fill="#D1FB84"/>
<path d="M98.47 537.2H92.53V543.14H98.47V537.2Z" fill="#D1FB84"/>
<path d="M98.47 483.74H92.53V489.68H98.47V483.74Z" fill="#D1FB84"/>
<path d="M98.47 430.27H92.53V436.21H98.47V430.27Z" fill="#D1FB84"/>
<path d="M86.59 584.74H92.53V566.9H86.59V584.74Z" fill="#D1FB84"/>
<path d="M92.53 489.69H86.59V513.44H92.53L92.53 489.69Z" fill="#D1FB84"/>
<path d="M104.41 448.1V436.21H98.47V442.15H80.65V448.1H104.41Z" fill="#D1FB84"/>
<path d="M92.53 406.51H86.59V430.27H92.53V406.51Z" fill="#D1FB84"/>
<path d="M92.71 703.61H98.65V685.78H92.71V703.61Z" fill="#D1FB84"/>
<path d="M80.65 465.91H74.71V471.85H80.65V465.91Z" fill="#D1FB84"/>
<path d="M80.65 448.09H74.71V454.03H80.65V448.09Z" fill="#D1FB84"/>
<path d="M80.71 454.04H74.76V465.92H80.71V454.04Z" fill="#D1FB84"/>
<path d="M80.71 418.39H74.76V424.33H80.71V418.39Z" fill="#D1FB84"/>
<path d="M613.33 103.19V91.31H607.39V79.44H601.45V67.55H595.51V61.62H589.57H577.69V67.55H583.63V79.44H589.57V85.38H595.51V103.19H601.45V109.14H607.39V115.08H619.27V103.19H613.33Z" fill="#D1FB84"/>
<path d="M601.45 406.18H607.39V388.35H601.45V406.18Z" fill="#D1FB84"/>
<path d="M595.51 412.12H589.57V418.06H595.51V412.12H601.45V406.18H595.51V412.12Z" fill="#D1FB84"/>
<path d="M601.45 376.46H595.51V388.35H601.45V376.46Z" fill="#D1FB84"/>
<path d="M595.51 364.58H589.57V376.46H595.51V364.58Z" fill="#D1FB84"/>
<path d="M583.63 358.64V352.7H577.69V358.64H583.63V364.58H589.57V358.64H583.63Z" fill="#D1FB84"/>
<path d="M583.63 103.19V109.14H571.75V115.08H565.81V121.03H547.99V126.97H542.05V121.03H536.11V115.08H530.17V132.91H512.34V138.84H488.58V126.97H500.46V121.03H506.4V115.08H512.34V109.14H524.23V115.08H530.17V103.19H542.05V97.25H547.99V91.31H565.81V85.38H577.69V73.49H571.75V79.44H553.93V85.38H542.05V91.31H530.17V97.25H518.28V103.19H506.4V109.14H500.46V115.08H488.58V121.03H482.64V126.97H476.7V132.91H464.82V156.66H476.7V150.72H500.46V144.78H530.17V138.84H542.05V132.91H559.87V126.97H571.75V121.03H583.63V115.08H595.51V103.19H583.63Z" fill="#D1FB84"/>
<path d="M583.63 412.12H577.69V406.18H571.75V412.12H577.69V418.06H583.63V424H589.57V418.06H583.63V412.12Z" fill="#D1FB84"/>
<path d="M589.57 61.62V49.73H577.69V61.62H589.57Z" fill="#D1FB84"/>
<path d="M577.69 418.05H571.75V423.99H577.69V418.05Z" fill="#D1FB84"/>
<path d="M577.69 340.82H571.75V352.7H577.69V340.82Z" fill="#D1FB84"/>
<path d="M571.75 328.94H565.81V340.82H571.75V328.94Z" fill="#D1FB84"/>
<path d="M559.87 424V429.94H571.75V424H559.87Z" fill="#D1FB84"/>
<path d="M565.81 317.06H559.87V328.94H565.81V317.06Z" fill="#D1FB84"/>
<path d="M559.87 418.05H553.93V423.99H559.87V418.05Z" fill="#D1FB84"/>
<path d="M559.87 299.24H553.93V317.06H559.87V299.24Z" fill="#D1FB84"/>
<path d="M553.93 412.11H547.99V418.05H553.93V412.11Z" fill="#D1FB84"/>
<path d="M553.93 263.59H547.99V299.24L553.93 299.24V263.59Z" fill="#D1FB84"/>
<path d="M559.87 168.54V162.6H547.99V168.54H559.87Z" fill="#D1FB84"/>
<path d="M547.99 418.05H542.05V423.99H547.99V418.05Z" fill="#D1FB84"/>
<path d="M547.99 239.84H542.05V263.59H547.99V239.84Z" fill="#D1FB84"/>
<path d="M542.05 180.43H547.99V168.54H542.05V180.43Z" fill="#D1FB84"/>
<path d="M547.99 150.72H542.05V162.6H547.99V150.72Z" fill="#D1FB84"/>
<path d="M542.05 210.13H536.11V239.84H542.05V210.13Z" fill="#D1FB84"/>
<path d="M530.17 162.6V168.54H542.05V162.6H530.17Z" fill="#D1FB84"/>
<path d="M524.23 424V429.94H542.05V424H524.23Z" fill="#D1FB84"/>
<path d="M530.17 204.19V198.25H524.23V222.01H488.58V227.96H524.23V233.9H530.17V210.13H536.11V204.19H530.17Z" fill="#D1FB84"/>
<path d="M524.23 370.52H506.4V376.46H530.17V352.7H524.23V370.52Z" fill="#D1FB84"/>
<path d="M512.34 418.06V424H524.23V418.06H512.34Z" fill="#D1FB84"/>
<path d="M518.28 340.82H494.52V370.52H506.4V364.58H500.46V346.76H518.28V352.7H524.23V293.3H518.28V340.82Z" fill="#D1FB84"/>
<path d="M524.23 192.3H518.28V198.24H524.23V192.3Z" fill="#D1FB84"/>
<path d="M488.58 233.9V311.13H470.76V340.82H476.7V323H482.64V317.06H488.58V340.82L494.52 340.82V293.3L518.28 293.3V239.84H524.23V233.9H488.58Z" fill="#D1FB84"/>
<path d="M518.28 186.36H512.34V192.3H518.28V186.36Z" fill="#D1FB84"/>
<path d="M500.46 424V429.94H512.34V424H500.46Z" fill="#D1FB84"/>
<path d="M494.52 483.39H470.76V477.45H464.82V489.33H458.88V507.17H470.76V524.99H476.7V507.17H488.58V530.92H482.64V536.87H476.7V542.8H470.76V548.75H458.88V536.87H452.94V530.92H441.06V501.21H452.94V483.39H447V441.81H458.88V424H452.94V435.88H441.06V412.12H447V424H452.94V412.12H464.82V406.18H476.7V370.52H470.76V340.82L464.82 340.82V376.46H470.76V400.23H458.88V406.18H417.29V412.12H435.12V441.81H441.06V477.45H417.29V471.51H411.35V483.39H405.41V501.21H417.29V519.05H423.23V501.21H435.12V524.99H429.18V530.92H423.23V536.87H417.29V542.8H405.41V530.92H399.47V524.99H387.59V530.92H381.65V548.75H435.12V554.68H488.58V548.75H494.52V507.17H506.4V489.33H500.46V447.75H494.52V483.39Z" fill="#D1FB84"/>
<path d="M500.46 67.55H494.52V79.44H500.46V67.55Z" fill="#D1FB84"/>
<path d="M488.58 447.75H494.52V370.52H488.58V447.75Z" fill="#D1FB84"/>
<path d="M494.52 79.43H488.58V85.37H494.52V79.43Z" fill="#D1FB84"/>
<path d="M494.52 61.61H488.58V67.55H494.52V61.61Z" fill="#D1FB84"/>
<path d="M494.52 55.67H488.58V61.61H494.52V55.67Z" fill="#D1FB84"/>
<path d="M488.58 85.38H482.64V97.25H488.58V85.38Z" fill="#D1FB84"/>
<path d="M488.58 49.73H482.64V55.67H488.58V49.73Z" fill="#D1FB84"/>
<path d="M488.58 43.8V49.73H494.52V37.86H482.64V43.8H488.58Z" fill="#D1FB84"/>
<path d="M482.64 97.25H476.7V115.08H482.64V97.25Z" fill="#D1FB84"/>
<path d="M476.7 115.08H470.76V121.02H476.7V115.08Z" fill="#D1FB84"/>
<path d="M470.76 121.02H464.82V126.96H470.76V121.02Z" fill="#D1FB84"/>
<path d="M452.94 524.99V530.92H470.76V524.99H452.94Z" fill="#D1FB84"/>
<path d="M458.88 477.45H464.82V441.81H458.88V477.45Z" fill="#D1FB84"/>
<path d="M458.88 127V121H464.82V115H470.76V97.25H458.88V73.49H452.94V67.55H447V61.61H441.06V67.55H411.35V61.61H399.47V67.55H405.41V73.49H393.53V79.43H387.59V85.37H393.53V91.31H411.35V97.25H417.29V115.08H423.23V121.08H411.35V97.25H405.41V109.14H399.47V97.25H393.53V138.84H399.47V144.78H405.41V150.72H411.35V156.66H435.12V150.72H447V156.66H435.12V162.6H423.23V174.48H429.23V180.42H453V174.48H458.94V132.9H464.88V127H458.88ZM435.12 127H429.18V132.94H405.41V127H429.18V121H435.12V127ZM441.06 97.29H435.12V109.14H429.18V97.25H423.18V91.31H441.06V97.29Z" fill="#D1FB84"/>
<path d="M458.88 222.01H452.94V227.95H458.88V222.01Z" fill="#D1FB84"/>
<path d="M452.94 55.67H458.88V43.8H452.94V55.67Z" fill="#D1FB84"/>
<path d="M458.88 37.86V43.8H464.82V37.86H482.64V31.91H452.94V37.86H458.88Z" fill="#D1FB84"/>
<path d="M452.94 55.67H447V61.61H452.94V55.67Z" fill="#D1FB84"/>
<path d="M452.94 317V293.26H429.18V317H452.94ZM435.12 299.2H447V311.1H435.12V299.2Z" fill="#D1FB84"/>
<path d="M435.12 287.35H452.94V293.29H458.88V299.23H482.64V233.89H488.58V228H482.64V216H488.58V198.24H494.52V186.36H512.34V180.42H500.46V174.48H488.58V168.54H464.82V174.48H482.64V180.42H476.7V192.3H470.76V198.24H464.82V204.18H423.23V198.24H417.29V192.3H411.35V180.42H405.41V174.48H417.29V168.54H399.47V174.48H375.76V180.42H399.52V192.3H393.58V222H363.88V228H399.52V233.94H405.46V299.26H423.28V293.32H429.28V287.38L435.12 287.35ZM441.06 227.95H447V222H441.06V216H447V210.1H452.94V216H458.88V210.1H464.82V216H470.76V222H464.82V228H470.76V233.94H464.82V239.88H458.88V233.94H452.94V239.88H447V233.94H441.06V227.95ZM423.23 239.83H417.29V210.13H435.12V216H423.23V233.82H435.12V239.76H423.23V239.83Z" fill="#D1FB84"/>
<path d="M417.29 394.29H423.23V400.23H458.88V394.29H464.82V376.46H458.88V340.82H464.82V317.06H452.94V323H429.18V317.06H423.23V364.58H417.29V394.29Z" fill="#D1FB84"/>
<path d="M441.06 25.97V31.91H452.94V25.97H441.06V20.04H411.35V25.97H441.06Z" fill="#D1FB84"/>
<path d="M417.29 394.29H411.35V406.18H417.29V394.29Z" fill="#D1FB84"/>
<path d="M417.29 524.99V519.05H399.47V524.99H417.29Z" fill="#D1FB84"/>
<path d="M411.35 435.88H405.41V471.51H411.35V435.88Z" fill="#D1FB84"/>
<path d="M411.35 364.58H405.41V394.29H411.35V364.58Z" fill="#D1FB84"/>
<path d="M411.35 31.91V25.97H399.47V31.91H411.35Z" fill="#D1FB84"/>
<path d="M405.41 418.06H399.47V435.88H405.41V418.06Z" fill="#D1FB84"/>
<path d="M405.41 299.23H399.47V305.17H405.41V299.23Z" fill="#D1FB84"/>
<path d="M399.47 323H405.41V317.06H411.35V364.58H417.29V311.13H399.47V317.06H393.53V418.06H399.47V323Z" fill="#D1FB84"/>
<path d="M399.47 233.9H363.83V227.96H357.89V233.9H346.01V239.84H357.89V245.78H351.95V257.66H346.01V263.59H334.13V269.53H340.07V275.48H375.71V263.59H381.65V251.72H387.59V239.84H393.53V299.24H399.47V233.9Z" fill="#D1FB84"/>
<path d="M399.47 55.67H393.53V61.61H399.47V55.67Z" fill="#D1FB84"/>
<path d="M387.59 73.49H381.65V79.43H387.59V73.49Z" fill="#D1FB84"/>
<path d="M381.65 97.25H375.71V103.19H381.65V97.25Z" fill="#D1FB84"/>
<path d="M381.65 67.55H375.71V73.49H381.65V67.55Z" fill="#D1FB84"/>
<path d="M399.47 37.86V31.91H369.77V37.86H399.47Z" fill="#D1FB84"/>
<path d="M375.71 180.42H369.77V186.36H375.71V180.42Z" fill="#D1FB84"/>
<path d="M375.71 61.61H369.77V67.55H375.71V61.61Z" fill="#D1FB84"/>
<path d="M375.71 55.67H369.77V61.61H375.71V55.67Z" fill="#D1FB84"/>
<path d="M375.71 43.79H369.77V49.73H375.71V43.79Z" fill="#D1FB84"/>
<path d="M369.77 186.36H363.83V192.3H369.77V186.36Z" fill="#D1FB84"/>
<path d="M369.77 109.14H363.83V115.08H369.77V109.14Z" fill="#D1FB84"/>
<path d="M369.77 85.37H363.83V91.31H369.77V85.37Z" fill="#D1FB84"/>
<path d="M369.77 49.73H363.83V55.67H369.77V49.73Z" fill="#D1FB84"/>
<path d="M369.77 37.85H363.83V43.79L369.77 43.79V37.85Z" fill="#D1FB84"/>
<path d="M363.83 192.3H357.89V198.24H363.83V192.3Z" fill="#D1FB84"/>
<path d="M363.83 222.01V216.07H351.95V210.13H346.01V222.01H363.83Z" fill="#D1FB84"/>
<path d="M357.89 198.25H351.95V210.13H357.89V198.25Z" fill="#D1FB84"/>
<path d="M357.89 97.25H351.95V103.19H357.89V97.25Z" fill="#D1FB84"/>
<path d="M340.07 233.9H346.01V222.01H340.07V233.9Z" fill="#D1FB84"/>
<path d="M334.13 186.37H340.07V180.43H351.95V174.49H369.77V168.54H387.59V162.6H399.47V150.72H393.53V144.78H387.59V150.72H375.71V156.66H357.89V162.6H340.07V168.54H334.13V186.37Z" fill="#D1FB84"/>
<path d="M334.13 257.65H328.19V263.59H334.13L334.13 257.65Z" fill="#D1FB84"/>
<path d="M328.19 192.31H322.24V198.25H328.19V204.19H334.13V222.01H340.07L340.07 204.19H334.13L334.13 186.37L328.19 186.37V192.31Z" fill="#D1FB84"/>
<path d="M334.13 168.54L334.13 162.6H322.24V168.54H334.13Z" fill="#D1FB84"/>
<path d="M328.19 251.71H322.24V257.65H328.19V251.71Z" fill="#D1FB84"/>
<path d="M322.24 239.84H316.3V251.72H322.24V239.84Z" fill="#D1FB84"/>
<path d="M322.24 168.54H316.3V174.48H322.24V168.54Z" fill="#D1FB84"/>
<path d="M316.3 227.96H310.36V239.84H316.3V227.96Z" fill="#D1FB84"/>
<path d="M316.3 162.6H310.36V168.54H316.3V162.6Z" fill="#D1FB84"/>
<path d="M310.36 204.19H322.24V198.25H298.48V204.19H304.42V227.96H310.36V204.19Z" fill="#D1FB84"/>
<path d="M304.42 174.49H310.36V168.54H298.48V180.43H304.42V174.49Z" fill="#D1FB84"/>
<path d="M298.48 180.43H286.6V186.37H268.78V192.31H256.9V198.25H245.02V216.07H262.84V210.13H274.72V204.19H286.6V198.25H298.48V180.43Z" fill="#D1FB84"/>
<path d="M750 832.17H744.06V814.35H750V778.7H744.06V719.3H738.12V671.77H732.18V654H726.23V648H720.29V642H714.35V630.19H708.4V612.38H702.46V600.5H696.52V594.5H690.58V588.56H684.64V576.72H690.58V570.78H684.64V564.84H678.7V570.78H672.76V558.9H666.82V564.84H649V558.9H637.12V564.84H649V570.78H625.23V564.84H619.29V558.9H625.23V553H631.23V547H643.06V553H660.88V547H666.82V541.06H672.76V535.12H666.82V523.26H672.76V517.32H666.82V505.44H660.88V481.67H654.94V469.79H649V463.85H643.06V457.91H631.18V452H619.29V446H589.59V452H577.71V457.94H565.83V463.88H559.89V469.82H554V481.7H548V505.44H542.06V517.32H536.12V523.26H542.06V535.14H536.12V541.08H542.06V547H548V553H565.82V547H577.7V553H583.64V558.94H589.58V564.88H583.64V570.82H559.89V564.88H571.76V558.94H554V564.88H542.07V558.94H536.13V570.82H530.18V564.88H524.24V570.82H518.3V576.76H524.24V588.66H530.18V636.16H524.24V642H518.3V648H512.36V654H506.42V659.94H500.48V665.88H494.54V671.82H488.6V683.72H482.66V689.66H476.76V695.6H470.76V719.36H482.66V844H453V855.91H447V885.62H453V897.5H536.17V885.62H542.11V855.94H536.17V844H506.42V719.3H518.3V689.6H524.24V683.66H530.18V677.71H536.18V671.77H542.12V665.83H548.06V659.89H554V665.83H559.94V671.77H565.88V677.71H559.94V689.6H554V731.19H548.06V784.65H554V814.35H548.06V826.23H554V861.88H559.94V867.82H554V879.7H559.94V885.65H554V891.59H548.06V897.53H601.52V891.59H595.58V885.65H589.64V879.7H595.58V867.82H589.64V861.88H595.58V826.23H601.52V814.35H595.58V772.76H601.52V731.19H607.46V772.77H613.4V814.36H607.46V826.23H613.4V861.88H619.34V867.82H613.4V879.7H619.34V885.65H613.4V891.59H607.46V897.53H660.93V891.59H655V885.65H649.06V879.7H655V867.82H649.06V861.88H655V826.23H660.94V814.35H655V802.47H690.64V796.53H696.58V790.59H702.52V778.7H708.46V772.76H714.4V760.88H720.34V725.25H726.28V683.66H720.34V677.71H708.4V671.77H684.64V636.13H678.7V588.61H684.64V594.55H690.58V600.55H696.52V612.43H702.46V630.2H708.4V642H714.34V648H720.28V654H726.22V671.82H732.17V719.36H738.11V778.76H744.05V814.41H738.11V832.2H744.05V861.9H720.28V850H714.34V832.17H708.4V820.29H702.46V832.17H708.4V850H714.34V861.88H696.52V850H690.58V844H684.64V832.17H678.7V844H684.64V850H678.7V861.88H660.88V867.82H678.7V861.88H684.64V850H690.58V861.88H696.52V867.82H714.34V861.88H720.28V867.82H744.05V861.88H750V832.17ZM678.7 576.72V588.61H672.76V582.67H666.82V576.72H678.7ZM625.23 760.88V754.94H631.18V760.88H625.23ZM625.27 689.6V683.66H631.27V689.6H625.27ZM583.69 677.71V683.66H565.83V677.71H577.76V671.77H583.7V665.83H589.64V659.89H619.34V665.83H625.28V671.77H631.28V677.71H583.69ZM613.39 689.6H595.53V683.66H613.35L613.39 689.6ZM565.87 665.83H577.75V671.77H565.83L565.87 665.83ZM583.69 659.89V665.83H577.76V659.89H583.69ZM595.6 624.25V630.19H583.6V624.25H595.6ZM613.36 529.2V535.14H595.53V529.2H613.36ZM619.29 541.08V547H589.59V541.06L619.29 541.08ZM619.29 653.94H625.23V659.88H619.29V653.94ZM613.29 630.18V624.24H625.17V630.18H613.29ZM613.29 576.72H595.53V570.72H589.59V564.78H619.29V570.72H613.35L613.29 576.72ZM619.23 582.67V588.61H607.41V618.29H613.35V624.23H607.41V648H619.29V654H589.59V648H601.47V624.25H595.53V618.31H601.47V588.61H589.59V582.67H619.23ZM585.91 659.86H583.68V654H589.62V659.94L585.91 659.86ZM625.19 665.82V659.88H631.14V665.82H625.19ZM640.05 665.82H643.05V671.76H631.18V665.76L640.05 665.82ZM648.96 671.76V665.76H654.9V642H678.66V671.7H649L648.96 671.76ZM666.82 570.75V576.69H649V570.75H666.82ZM625.23 570.76V576.7H649V582.7H666.82V588.64H672.76V600.52H654.94V588.61H649V665.83H643.06V630.19H637.12V624.25H643.06V588.61H637.12V582.67H619.29V570.78L625.23 570.76ZM619.29 541.05V535.11H625.23V541L619.29 541.05ZM631.18 511.35H625.18V523.23H619.24V511.38H613.3V505.44H631.13L631.18 511.35ZM571.76 523.3H565.82V517.36H571.76V523.3ZM573.24 493.6H571.76V511.42H559.89V523.3H565.83V529.24H571.76V541H565.82V547H548V541H542.06V535.06H548V523.26H542.06V517.32H548V505.44H554V481.67H559.94V469.79H571.81V463.85H583.69V457.91H595.57V452H601.51V463.88H595.57V469.82H601.51V463.88H607.45V469.82H613.39V463.88H607.4V452H613.34V457.94H625.22V463.88H637.11V469.82H649V481.7H654.94V505.47H660.88V517.35H666.82V523.29H660.88V535.17H666.82V541H660.88V547H643.06V541H637.12V529.12H643.06V523.18H649V511.38H637.12V499.5H631.18V487.62H625.23V481.62H607.41V475.73H601.47V481.67H583.65V487.67H577.71V493.61L573.24 493.6ZM637.05 520.26V517.26H643V523.2H637.06L637.05 520.26ZM577.71 511.39V505.45H595.53V511.39H589.59V523.3H583.65V511.38L577.71 511.39ZM583.65 541.06V535.12H589.59V541L583.65 541.06ZM542.07 570.8H559.89V576.74H542.07V570.8ZM530.18 576.74H542.07V582.74H536.13V588.68H530.18V576.74ZM470.76 850V891.6H458.9V850H470.76ZM530.18 850V891.6H518.3V850H530.18ZM512.36 850V891.6H476.76V850H512.36ZM500.47 731.19V737.13H488.6V731.19H500.47ZM488.59 725.25V719.31H500.47V725.25H488.59ZM500.48 743V749H488.6V743H500.48ZM500.48 754.88V760.82H488.6V754.88H500.48ZM500.48 766.76V772.7H488.6V766.76H500.48ZM500.48 778.64V784.64H488.6V778.64H500.48ZM500.48 790.54V796.48H488.6V790.54H500.48ZM500.48 802.42V808.36H488.6V802.42H500.48ZM500.48 814.3V820.24H488.6V814.3H500.48ZM500.48 826.18V838.06H488.6V826.23L500.48 826.18ZM507.16 713.31H506.42V701.46H500.48V713.34H488.6V701.46H482.66V713.34H476.76V695.54H482.7V689.6H506.46V695.54H512.4V713.36L507.16 713.31ZM548.06 653.87V659.81H542.12V665.75H536.18V671.69H530.23V677.63H524.29V683.63H518.35V689.57H506.42V683.63H494.54V671.69H500.48V665.8H506.42V659.86H512.36V654H518.3V648H524.24V642H536.13V648H554V654L548.06 653.87ZM559.94 665.85V588.61H554V600.5H536.13V588.61H542.07V582.67H559.89V576.72H583.65V570.78H589.59V582.67H565.83V624.26H571.76V630.2H565.82V665.83L559.94 665.85ZM565.87 867.82V861.88H559.93V826.23H565.87V832.17H583.69V826.23H589.63V861.88H583.69V867.82H589.63V873.76H559.93V867.82H565.87ZM595.52 725.29V772.81H589.58V814.4H559.88V784.7H553.94V772.8H559.88V778.74H565.82V784.69H577.77V778.7H583.71V772.76H577.77V778.7H565.83V772.76H559.89V766.82H554V731.19H559.94V689.6H583.7V695.54H613.4V725.25L595.52 725.29ZM616.31 772.81H613.31V725.25H619.25V760.89H625.19V772.77H631.19V778.71H637.13V790.6H643V796.54H649V814.36H619.29V772.76H616.29L616.31 772.81ZM643 867.82H649V873.76H619.29V867.82H625.23V861.88H619.29V826.2H625.23V832.14H643.06V826.2H649V861.85H643.06V867.79L643 867.82ZM663.88 772.77H660.88V778.71H654.94V784.66H649V778.66H643.08V772.72H637.14V760.84H649V766.78H654.94V760.84H666.82V772.72L663.88 772.77ZM699.58 772.77H696.58V778.71H690.64V784.66H684.7V778.66H678.76V772.72H672.76V760.88H684.64V766.82H690.58V760.88H702.46V772.76L699.58 772.77ZM714.43 760.89H708.49V755H714.43V760.89ZM714.41 683.77V689.71H708.47V683.77H714.41ZM708.43 689.71V755H631.18V689.6L708.43 689.71Z" fill="#D1FB84"/>
<path d="M708.4 808.41H702.46V814.35H708.4V808.41Z" fill="#D1FB84"/>
<path d="M702.46 701.48V695.54H637.12V701.48H702.46Z" fill="#D1FB84"/>
<path d="M702.46 749V707.42H637.12V749H702.46ZM649 737.15V731.21H654.94V737.15H649ZM666.82 737.15H684.64V743H666.82V737.12V737.15ZM660.88 731.21H654.94V725.27H660.88V731.21ZM655 719.33V725.27H649V719.33H655ZM649 713.39V719.33H643.09V713.39H649ZM648.26 737.15H649V743H643.09V737.06L648.26 737.15Z" fill="#D1FB84"/>
</g>
<defs>
<filter id="filter0_d" x="54.71" y="0.0400391" width="715.29" height="949.2" filterUnits="userSpaceOnUse" color-interpolation-filters="sRGB" filterRes="800">
<feFlood flood-opacity="0" result="BackgroundImageFix"/>
<feColorMatrix in="SourceAlpha" type="matrix" values="0 0 0 0 0 0 0 0 0 0 0 0 0 0 0 0 0 0 127 0"/>
<feOffset/>
<feGaussianBlur stdDeviation="10"/>
<feColorMatrix type="matrix" values="0 0 0 0 0.707769 0 0 0 0 0.85 0 0 0 0 0.447012 0 0 0 1 0"/>
<feBlend mode="normal" in2="BackgroundImageFix" result="effect1_dropShadow"/>
<feBlend mode="normal" in="SourceGraphic" in2="effect1_dropShadow" result="shape"/>
</filter>
</defs>
</svg>
